<svg xmlns="http://www.w3.org/2000/svg" width="349.154" height="542.359" viewBox="0 0 349.154 542.359">
  <defs>
    <style>
      .cls-1 {
        fill: #000348;
      }

      .cls-2 {
        fill: rgba(57,57,57,0.8);
      }

      .cls-3, .cls-7 {
        fill: none;
      }

      .cls-3 {
        stroke: #87f2e7;
        stroke-linecap: round;
      }

      .cls-3, .cls-4 {
        stroke-width: 3px;
      }

      .cls-4 {
        fill: #87f2e7;
        stroke: #fff;
      }

      .cls-5 {
        fill: #22265d;
      }

      .cls-6 {
        stroke: none;
      }
    </style>
  </defs>
  <g id="Group_910" data-name="Group 910" transform="translate(-32.03 -1628.029)">
    <path id="Path_5138" data-name="Path 5138" class="cls-1" d="M4.354.14C7.042.14,8.316-1.2,8.316-2.772c0-3.6-5.81-2.24-5.81-4.326,0-.742.616-1.33,2.128-1.33a5.446,5.446,0,0,1,2.7.77L7.91-9.072A6.2,6.2,0,0,0,4.648-9.94C1.96-9.94.7-8.6.7-7.014c0,3.64,5.824,2.254,5.824,4.368,0,.728-.644,1.274-2.17,1.274A5.43,5.43,0,0,1,1.12-2.45L.49-1.036A6.315,6.315,0,0,0,4.354.14ZM14.1-7.56A3.083,3.083,0,0,0,11.62-6.5v-.98H9.954V2.716H11.7V-.91A3.072,3.072,0,0,0,14.1.1a3.642,3.642,0,0,0,3.794-3.836A3.638,3.638,0,0,0,14.1-7.56ZM13.9-1.4a2.185,2.185,0,0,1-2.226-2.338A2.185,2.185,0,0,1,13.9-6.076a2.174,2.174,0,0,1,2.212,2.338A2.174,2.174,0,0,1,13.9-1.4Zm9.9-6.16a3.333,3.333,0,0,0-2.492.952v-3.78h-1.75V0h1.75V-3.78a1.986,1.986,0,0,1,2.086-2.254c1.12,0,1.778.644,1.778,1.974V0h1.75V-4.284A2.922,2.922,0,0,0,23.8-7.56ZM36.246-3.7a3.646,3.646,0,0,0-3.78-3.864A3.718,3.718,0,0,0,28.6-3.738,3.8,3.8,0,0,0,32.732.1a3.789,3.789,0,0,0,3.01-1.218L34.8-2.2a2.679,2.679,0,0,1-2.03.812,2.263,2.263,0,0,1-2.422-1.792h5.866C36.232-3.346,36.246-3.556,36.246-3.7ZM32.466-6.16A2.035,2.035,0,0,1,34.58-4.34H30.338A2.066,2.066,0,0,1,32.466-6.16Zm7.126-.224V-7.476H37.926V0h1.75V-3.626a2.038,2.038,0,0,1,2.17-2.31,2.222,2.222,0,0,1,.406.042V-7.56A2.942,2.942,0,0,0,39.592-6.384Zm5.026-2.324A1.074,1.074,0,0,0,45.738-9.8a1.042,1.042,0,0,0-1.12-1.008,1.066,1.066,0,0,0-1.12,1.05A1.066,1.066,0,0,0,44.618-8.708ZM43.736,0h1.75V-7.476h-1.75ZM53.27-7.476V-3.7a1.97,1.97,0,0,1-2.044,2.254c-1.106,0-1.75-.644-1.75-2V-7.476h-1.75v4.27A2.957,2.957,0,0,0,50.946.1a3.054,3.054,0,0,0,2.408-1.05V0H55.02V-7.476ZM66.752-7.56a3.489,3.489,0,0,0-2.8,1.246,2.8,2.8,0,0,0-2.52-1.246,3.1,3.1,0,0,0-2.45,1.036v-.952H57.316V0h1.75V-3.794c0-1.484.784-2.24,1.946-2.24,1.064,0,1.68.644,1.68,1.974V0h1.75V-3.794c0-1.484.8-2.24,1.946-2.24,1.064,0,1.68.644,1.68,1.974V0h1.75V-4.284C69.818-6.538,68.558-7.56,66.752-7.56Zm19.278.084L84-1.932,81.984-7.476h-1.47L78.456-1.96,76.482-7.476H74.83L77.574,0h1.68l1.96-5.152L83.146,0h1.68l2.758-7.476ZM95.606-3.7a3.646,3.646,0,0,0-3.78-3.864,3.718,3.718,0,0,0-3.864,3.822A3.8,3.8,0,0,0,92.092.1,3.789,3.789,0,0,0,95.1-1.12L94.164-2.2a2.679,2.679,0,0,1-2.03.812,2.263,2.263,0,0,1-2.422-1.792h5.866C95.592-3.346,95.606-3.556,95.606-3.7ZM91.826-6.16A2.035,2.035,0,0,1,93.94-4.34H89.7A2.066,2.066,0,0,1,91.826-6.16Zm9.6-1.4a3.108,3.108,0,0,0-2.394.994v-3.822h-1.75V0h1.666V-.966A3.083,3.083,0,0,0,101.43.1a3.642,3.642,0,0,0,3.794-3.836A3.63,3.63,0,0,0,101.43-7.56Zm-.2,6.16a2.185,2.185,0,0,1-2.226-2.338,2.185,2.185,0,0,1,2.226-2.338,2.174,2.174,0,0,1,2.212,2.338A2.174,2.174,0,0,1,101.234-1.4ZM109.2.1c2.1,0,3.388-.91,3.388-2.31,0-2.926-4.62-1.582-4.62-3.094,0-.49.5-.84,1.568-.84a4.092,4.092,0,0,1,2.142.56l.672-1.33a5.95,5.95,0,0,0-2.8-.644c-2.016,0-3.29.924-3.29,2.338,0,2.982,4.62,1.638,4.62,3.066,0,.518-.462.826-1.568.826a5.03,5.03,0,0,1-2.6-.742l-.672,1.33A5.94,5.94,0,0,0,109.2.1Zm5.782-8.806A1.074,1.074,0,0,0,116.1-9.8a1.042,1.042,0,0,0-1.12-1.008,1.066,1.066,0,0,0-1.12,1.05A1.066,1.066,0,0,0,114.982-8.708ZM114.1,0h1.75V-7.476H114.1Zm8.05-1.652a1.574,1.574,0,0,1-.98.308c-.672,0-1.036-.392-1.036-1.12V-6.02h2v-1.4h-2V-9.128h-1.75V-7.42h-1.232v1.4h1.232v3.6A2.3,2.3,0,0,0,120.96.1a2.75,2.75,0,0,0,1.68-.5ZM130.858-3.7a3.646,3.646,0,0,0-3.78-3.864,3.718,3.718,0,0,0-3.864,3.822A3.8,3.8,0,0,0,127.344.1a3.789,3.789,0,0,0,3.01-1.218L129.416-2.2a2.679,2.679,0,0,1-2.03.812,2.263,2.263,0,0,1-2.422-1.792h5.866C130.844-3.346,130.858-3.556,130.858-3.7Zm-3.78-2.464a2.035,2.035,0,0,1,2.114,1.82H124.95A2.066,2.066,0,0,1,127.078-6.16Z" transform="translate(70 1650)"/>
    <path id="Path_5144" data-name="Path 5144" class="cls-1" d="M4.354.14C7.042.14,8.316-1.2,8.316-2.772c0-3.6-5.81-2.24-5.81-4.326,0-.742.616-1.33,2.128-1.33a5.446,5.446,0,0,1,2.7.77L7.91-9.072A6.2,6.2,0,0,0,4.648-9.94C1.96-9.94.7-8.6.7-7.014c0,3.64,5.824,2.254,5.824,4.368,0,.728-.644,1.274-2.17,1.274A5.43,5.43,0,0,1,1.12-2.45L.49-1.036A6.315,6.315,0,0,0,4.354.14Zm9.8-9.94H10.122V0h1.82V-2.828h2.212c2.576,0,4.172-1.33,4.172-3.486S16.73-9.8,14.154-9.8ZM14.07-4.368H11.942V-8.26H14.07c1.6,0,2.422.714,2.422,1.946S15.666-4.368,14.07-4.368ZM27.034-9.8v4.046H21.966V-9.8h-1.82V0h1.82V-4.2h5.068V0h1.82V-9.8ZM30.94-3.164h3.85V-4.62H30.94ZM39.7.14c2.688,0,3.962-1.344,3.962-2.912,0-3.6-5.81-2.24-5.81-4.326,0-.742.616-1.33,2.128-1.33a5.446,5.446,0,0,1,2.7.77l.574-1.414A6.2,6.2,0,0,0,40-9.94C37.31-9.94,36.05-8.6,36.05-7.014c0,3.64,5.824,2.254,5.824,4.368,0,.728-.644,1.274-2.17,1.274A5.43,5.43,0,0,1,36.47-2.45l-.63,1.414A6.315,6.315,0,0,0,39.7.14ZM58.058-9.8,55.552-2.31,53.074-9.8h-1.68L48.86-2.352,46.424-9.8h-1.89L47.782,0h1.946l2.464-7.252L54.614,0h1.932l3.248-9.8ZM68.306,0h1.9L65.786-9.8H63.994L59.584,0H61.46l.966-2.268h4.9ZM63.042-3.7,64.876-7.98,66.724-3.7ZM75.488-9.8H71.456V0h1.82V-2.828h2.212c2.576,0,4.172-1.33,4.172-3.486S78.064-9.8,75.488-9.8ZM75.4-4.368H73.276V-8.26H75.4c1.6,0,2.422.714,2.422,1.946S77-4.368,75.4-4.368Zm5.6,1.2h3.85V-4.62H81ZM86.94,0h6.944V-1.54H88.76V-9.8H86.94Zm6.692-9.8v1.526H95.7V0h1.82V-9.8ZM106.176.1c2.1,0,3.388-.91,3.388-2.31,0-2.926-4.62-1.582-4.62-3.094,0-.49.5-.84,1.568-.84a4.092,4.092,0,0,1,2.142.56l.672-1.33a5.95,5.95,0,0,0-2.8-.644c-2.016,0-3.29.924-3.29,2.338,0,2.982,4.62,1.638,4.62,3.066,0,.518-.462.826-1.568.826a5.03,5.03,0,0,1-2.6-.742l-.672,1.33A5.94,5.94,0,0,0,106.176.1Zm8.9-1.75a1.574,1.574,0,0,1-.98.308c-.672,0-1.036-.392-1.036-1.12V-6.02h2v-1.4h-2V-9.128h-1.75V-7.42h-1.232v1.4h1.232v3.6A2.3,2.3,0,0,0,113.89.1a2.75,2.75,0,0,0,1.68-.5Zm4.788-5.908a5.256,5.256,0,0,0-3.164.924l.686,1.274a3.7,3.7,0,0,1,2.268-.742c1.246,0,1.862.6,1.862,1.624v.112h-1.932c-2.268,0-3.108.98-3.108,2.226,0,1.3,1.078,2.24,2.786,2.24A2.649,2.649,0,0,0,121.618-.91V0h1.652V-4.382C123.27-6.538,122.024-7.56,119.868-7.56Zm-.238,6.384c-.9,0-1.428-.406-1.428-1.036,0-.546.322-.994,1.512-.994h1.806v.868A1.906,1.906,0,0,1,119.63-1.176ZM131.152,0h2.128l-3.416-4.34,3.122-3.136h-2.1l-3.626,3.36v-6.272h-1.75V0h1.75V-1.974l1.3-1.232Zm9.982-3.7a3.646,3.646,0,0,0-3.78-3.864,3.718,3.718,0,0,0-3.864,3.822A3.8,3.8,0,0,0,137.62.1a3.789,3.789,0,0,0,3.01-1.218L139.692-2.2a2.679,2.679,0,0,1-2.03.812,2.263,2.263,0,0,1-2.422-1.792h5.866C141.12-3.346,141.134-3.556,141.134-3.7Zm-3.78-2.464a2.035,2.035,0,0,1,2.114,1.82h-4.242A2.066,2.066,0,0,1,137.354-6.16ZM155.162-.98,153.93-2.156a6.694,6.694,0,0,0,.882-2.24L153.4-4.858a6.356,6.356,0,0,1-.546,1.652l-2.114-2.016c1.414-.8,2-1.526,2-2.534,0-1.33-1.036-2.156-2.618-2.156-1.722,0-2.842.938-2.842,2.31a2.967,2.967,0,0,0,1.092,2.156c-1.6.9-2.268,1.75-2.268,2.968,0,1.54,1.5,2.618,3.57,2.618a4.951,4.951,0,0,0,3.29-1.176L154.2.154Zm-5.04-7.686c.728,0,1.134.378,1.134.938,0,.532-.364.938-1.5,1.554-.7-.7-.882-1.022-.882-1.456C148.876-8.232,149.338-8.666,150.122-8.666ZM149.8-1.288c-1.2,0-1.988-.56-1.988-1.372,0-.7.392-1.218,1.526-1.848l2.59,2.478A3.283,3.283,0,0,1,149.8-1.288Zm12.292-5.1V-7.476h-1.666V0h1.75V-3.626a2.038,2.038,0,0,1,2.17-2.31,2.222,2.222,0,0,1,.406.042V-7.56A2.942,2.942,0,0,0,162.092-6.384Zm11.1,2.688a3.646,3.646,0,0,0-3.78-3.864,3.718,3.718,0,0,0-3.864,3.822A3.8,3.8,0,0,0,169.68.1a3.789,3.789,0,0,0,3.01-1.218L171.752-2.2a2.679,2.679,0,0,1-2.03.812A2.263,2.263,0,0,1,167.3-3.178h5.866C173.18-3.346,173.194-3.556,173.194-3.7Zm-3.78-2.464a2.035,2.035,0,0,1,2.114,1.82h-4.242A2.066,2.066,0,0,1,169.414-6.16Zm15.428-1.316-2.03,5.544L180.8-7.476h-1.47L177.268-1.96l-1.974-5.516h-1.652L176.386,0h1.68l1.96-5.152L181.958,0h1.68L186.4-7.476Zm5.376-.084a5.256,5.256,0,0,0-3.164.924l.686,1.274a3.7,3.7,0,0,1,2.268-.742c1.246,0,1.862.6,1.862,1.624v.112h-1.932c-2.268,0-3.108.98-3.108,2.226,0,1.3,1.078,2.24,2.786,2.24A2.649,2.649,0,0,0,191.968-.91V0h1.652V-4.382C193.62-6.538,192.374-7.56,190.218-7.56Zm-.238,6.384c-.9,0-1.428-.406-1.428-1.036,0-.546.322-.994,1.512-.994h1.806v.868A1.906,1.906,0,0,1,189.98-1.176Zm7.546-5.208V-7.476H195.86V0h1.75V-3.626a2.038,2.038,0,0,1,2.17-2.31,2.222,2.222,0,0,1,.406.042V-7.56A2.942,2.942,0,0,0,197.526-6.384Zm9.646-4v3.836a3.061,3.061,0,0,0-2.408-1.008,3.627,3.627,0,0,0-3.78,3.822A3.638,3.638,0,0,0,204.764.1a3.083,3.083,0,0,0,2.478-1.064V0h1.68V-10.388Zm-2.2,8.988a2.185,2.185,0,0,1-2.226-2.338,2.185,2.185,0,0,1,2.226-2.338A2.185,2.185,0,0,1,207.2-3.738,2.185,2.185,0,0,1,204.974-1.4ZM213.528.1c2.1,0,3.388-.91,3.388-2.31,0-2.926-4.62-1.582-4.62-3.094,0-.49.5-.84,1.568-.84a4.092,4.092,0,0,1,2.142.56l.672-1.33a5.95,5.95,0,0,0-2.8-.644c-2.016,0-3.29.924-3.29,2.338,0,2.982,4.62,1.638,4.62,3.066,0,.518-.462.826-1.568.826a5.03,5.03,0,0,1-2.6-.742l-.672,1.33A5.94,5.94,0,0,0,213.528.1Z" transform="translate(70 1831)"/>
    <path id="Path_5150" data-name="Path 5150" class="cls-1" d="M4.354.14C7.042.14,8.316-1.2,8.316-2.772c0-3.6-5.81-2.24-5.81-4.326,0-.742.616-1.33,2.128-1.33a5.446,5.446,0,0,1,2.7.77L7.91-9.072A6.2,6.2,0,0,0,4.648-9.94C1.96-9.94.7-8.6.7-7.014c0,3.64,5.824,2.254,5.824,4.368,0,.728-.644,1.274-2.17,1.274A5.43,5.43,0,0,1,1.12-2.45L.49-1.036A6.315,6.315,0,0,0,4.354.14ZM14.1-7.56A3.083,3.083,0,0,0,11.62-6.5v-.98H9.954V2.716H11.7V-.91A3.072,3.072,0,0,0,14.1.1a3.642,3.642,0,0,0,3.794-3.836A3.638,3.638,0,0,0,14.1-7.56ZM13.9-1.4a2.185,2.185,0,0,1-2.226-2.338A2.185,2.185,0,0,1,13.9-6.076a2.174,2.174,0,0,1,2.212,2.338A2.174,2.174,0,0,1,13.9-1.4Zm9.9-6.16a3.333,3.333,0,0,0-2.492.952v-3.78h-1.75V0h1.75V-3.78a1.986,1.986,0,0,1,2.086-2.254c1.12,0,1.778.644,1.778,1.974V0h1.75V-4.284A2.922,2.922,0,0,0,23.8-7.56ZM36.246-3.7a3.646,3.646,0,0,0-3.78-3.864A3.718,3.718,0,0,0,28.6-3.738,3.8,3.8,0,0,0,32.732.1a3.789,3.789,0,0,0,3.01-1.218L34.8-2.2a2.679,2.679,0,0,1-2.03.812,2.263,2.263,0,0,1-2.422-1.792h5.866C36.232-3.346,36.246-3.556,36.246-3.7ZM32.466-6.16A2.035,2.035,0,0,1,34.58-4.34H30.338A2.066,2.066,0,0,1,32.466-6.16Zm7.126-.224V-7.476H37.926V0h1.75V-3.626a2.038,2.038,0,0,1,2.17-2.31,2.222,2.222,0,0,1,.406.042V-7.56A2.942,2.942,0,0,0,39.592-6.384ZM50.694-3.7a3.646,3.646,0,0,0-3.78-3.864A3.718,3.718,0,0,0,43.05-3.738,3.8,3.8,0,0,0,47.18.1,3.789,3.789,0,0,0,50.19-1.12L49.252-2.2a2.679,2.679,0,0,1-2.03.812A2.263,2.263,0,0,1,44.8-3.178h5.866C50.68-3.346,50.694-3.556,50.694-3.7ZM46.914-6.16a2.035,2.035,0,0,1,2.114,1.82H44.786A2.066,2.066,0,0,1,46.914-6.16ZM57.078.14A4.974,4.974,0,0,0,60.97-1.5l-1.176-1.12a3.407,3.407,0,0,1-2.618,1.162,3.346,3.346,0,0,1-3.5-3.444,3.346,3.346,0,0,1,3.5-3.444A3.442,3.442,0,0,1,59.794-7.2L60.97-8.3A4.964,4.964,0,0,0,57.092-9.94a4.994,4.994,0,0,0-5.25,5.04A4.99,4.99,0,0,0,57.078.14ZM65.632.1a3.77,3.77,0,0,0,3.99-3.836,3.759,3.759,0,0,0-3.99-3.822,3.763,3.763,0,0,0-3.976,3.822A3.774,3.774,0,0,0,65.632.1Zm0-1.5A2.174,2.174,0,0,1,63.42-3.738a2.174,2.174,0,0,1,2.212-2.338,2.177,2.177,0,0,1,2.226,2.338A2.177,2.177,0,0,1,65.632-1.4ZM80.738-7.56a3.489,3.489,0,0,0-2.8,1.246,2.8,2.8,0,0,0-2.52-1.246,3.1,3.1,0,0,0-2.45,1.036v-.952H71.3V0h1.75V-3.794c0-1.484.784-2.24,1.946-2.24,1.064,0,1.68.644,1.68,1.974V0h1.75V-3.794c0-1.484.8-2.24,1.946-2.24,1.064,0,1.68.644,1.68,1.974V0H83.8V-4.284C83.8-6.538,82.544-7.56,80.738-7.56Zm9.45,0A3.083,3.083,0,0,0,87.71-6.5v-.98H86.044V2.716h1.75V-.91A3.072,3.072,0,0,0,90.188.1a3.642,3.642,0,0,0,3.794-3.836A3.638,3.638,0,0,0,90.188-7.56Zm-.2,6.16a2.185,2.185,0,0,1-2.226-2.338,2.185,2.185,0,0,1,2.226-2.338A2.174,2.174,0,0,1,92.2-3.738,2.174,2.174,0,0,1,89.992-1.4ZM99.68,0h6.944V-1.54H101.5V-9.8H99.68Zm6.692-9.8v1.526h2.072V0h1.82V-9.8Z" transform="translate(70 2026.728)"/>
    <path id="Path_5141" data-name="Path 5141" class="cls-1" d="M4.354.14C7.042.14,8.316-1.2,8.316-2.772c0-3.6-5.81-2.24-5.81-4.326,0-.742.616-1.33,2.128-1.33a5.446,5.446,0,0,1,2.7.77L7.91-9.072A6.2,6.2,0,0,0,4.648-9.94C1.96-9.94.7-8.6.7-7.014c0,3.64,5.824,2.254,5.824,4.368,0,.728-.644,1.274-2.17,1.274A5.43,5.43,0,0,1,1.12-2.45L.49-1.036A6.315,6.315,0,0,0,4.354.14ZM14.1-7.56A3.083,3.083,0,0,0,11.62-6.5v-.98H9.954V2.716H11.7V-.91A3.072,3.072,0,0,0,14.1.1a3.642,3.642,0,0,0,3.794-3.836A3.638,3.638,0,0,0,14.1-7.56ZM13.9-1.4a2.185,2.185,0,0,1-2.226-2.338A2.185,2.185,0,0,1,13.9-6.076a2.174,2.174,0,0,1,2.212,2.338A2.174,2.174,0,0,1,13.9-1.4Zm9.9-6.16a3.333,3.333,0,0,0-2.492.952v-3.78h-1.75V0h1.75V-3.78a1.986,1.986,0,0,1,2.086-2.254c1.12,0,1.778.644,1.778,1.974V0h1.75V-4.284A2.922,2.922,0,0,0,23.8-7.56ZM36.246-3.7a3.646,3.646,0,0,0-3.78-3.864A3.718,3.718,0,0,0,28.6-3.738,3.8,3.8,0,0,0,32.732.1a3.789,3.789,0,0,0,3.01-1.218L34.8-2.2a2.679,2.679,0,0,1-2.03.812,2.263,2.263,0,0,1-2.422-1.792h5.866C36.232-3.346,36.246-3.556,36.246-3.7ZM32.466-6.16A2.035,2.035,0,0,1,34.58-4.34H30.338A2.066,2.066,0,0,1,32.466-6.16Zm7.126-.224V-7.476H37.926V0h1.75V-3.626a2.038,2.038,0,0,1,2.17-2.31,2.222,2.222,0,0,1,.406.042V-7.56A2.942,2.942,0,0,0,39.592-6.384ZM50.694-3.7a3.646,3.646,0,0,0-3.78-3.864A3.718,3.718,0,0,0,43.05-3.738,3.8,3.8,0,0,0,47.18.1,3.789,3.789,0,0,0,50.19-1.12L49.252-2.2a2.679,2.679,0,0,1-2.03.812A2.263,2.263,0,0,1,44.8-3.178h5.866C50.68-3.346,50.694-3.556,50.694-3.7ZM46.914-6.16a2.035,2.035,0,0,1,2.114,1.82H44.786A2.066,2.066,0,0,1,46.914-6.16ZM55.58.14c2.688,0,3.962-1.344,3.962-2.912,0-3.6-5.81-2.24-5.81-4.326,0-.742.616-1.33,2.128-1.33a5.446,5.446,0,0,1,2.7.77l.574-1.414a6.2,6.2,0,0,0-3.262-.868c-2.688,0-3.948,1.344-3.948,2.926,0,3.64,5.824,2.254,5.824,4.368,0,.728-.644,1.274-2.17,1.274A5.43,5.43,0,0,1,52.346-2.45l-.63,1.414A6.315,6.315,0,0,0,55.58.14ZM71.148-7.476l-2.03,5.544L67.1-7.476h-1.47L63.574-1.96,61.6-7.476H59.948L62.692,0h1.68l1.96-5.152L68.264,0h1.68L72.7-7.476Zm5.376-.084a5.256,5.256,0,0,0-3.164.924l.686,1.274A3.7,3.7,0,0,1,76.314-6.1c1.246,0,1.862.6,1.862,1.624v.112H76.244c-2.268,0-3.108.98-3.108,2.226,0,1.3,1.078,2.24,2.786,2.24A2.649,2.649,0,0,0,78.274-.91V0h1.652V-4.382C79.926-6.538,78.68-7.56,76.524-7.56Zm-.238,6.384c-.9,0-1.428-.406-1.428-1.036,0-.546.322-.994,1.512-.994h1.806v.868A1.906,1.906,0,0,1,76.286-1.176ZM86.31-7.56A3.083,3.083,0,0,0,83.832-6.5v-.98H82.166V2.716h1.75V-.91A3.072,3.072,0,0,0,86.31.1,3.642,3.642,0,0,0,90.1-3.738,3.638,3.638,0,0,0,86.31-7.56Zm-.2,6.16a2.185,2.185,0,0,1-2.226-2.338,2.185,2.185,0,0,1,2.226-2.338,2.174,2.174,0,0,1,2.212,2.338A2.174,2.174,0,0,1,86.114-1.4ZM95.8,0h6.944V-1.54H97.622V-9.8H95.8Zm6.692-9.8v1.526h2.072V0h1.82V-9.8Z" transform="translate(70 1741)"/>
    <path id="Path_5147" data-name="Path 5147" class="cls-1" d="M4.354.14C7.042.14,8.316-1.2,8.316-2.772c0-3.6-5.81-2.24-5.81-4.326,0-.742.616-1.33,2.128-1.33a5.446,5.446,0,0,1,2.7.77L7.91-9.072A6.2,6.2,0,0,0,4.648-9.94C1.96-9.94.7-8.6.7-7.014c0,3.64,5.824,2.254,5.824,4.368,0,.728-.644,1.274-2.17,1.274A5.43,5.43,0,0,1,1.12-2.45L.49-1.036A6.315,6.315,0,0,0,4.354.14ZM14.1-7.56A3.083,3.083,0,0,0,11.62-6.5v-.98H9.954V2.716H11.7V-.91A3.072,3.072,0,0,0,14.1.1a3.642,3.642,0,0,0,3.794-3.836A3.638,3.638,0,0,0,14.1-7.56ZM13.9-1.4a2.185,2.185,0,0,1-2.226-2.338A2.185,2.185,0,0,1,13.9-6.076a2.174,2.174,0,0,1,2.212,2.338A2.174,2.174,0,0,1,13.9-1.4Zm9.9-6.16a3.333,3.333,0,0,0-2.492.952v-3.78h-1.75V0h1.75V-3.78a1.986,1.986,0,0,1,2.086-2.254c1.12,0,1.778.644,1.778,1.974V0h1.75V-4.284A2.922,2.922,0,0,0,23.8-7.56ZM36.246-3.7a3.646,3.646,0,0,0-3.78-3.864A3.718,3.718,0,0,0,28.6-3.738,3.8,3.8,0,0,0,32.732.1a3.789,3.789,0,0,0,3.01-1.218L34.8-2.2a2.679,2.679,0,0,1-2.03.812,2.263,2.263,0,0,1-2.422-1.792h5.866C36.232-3.346,36.246-3.556,36.246-3.7ZM32.466-6.16A2.035,2.035,0,0,1,34.58-4.34H30.338A2.066,2.066,0,0,1,32.466-6.16Zm7.126-.224V-7.476H37.926V0h1.75V-3.626a2.038,2.038,0,0,1,2.17-2.31,2.222,2.222,0,0,1,.406.042V-7.56A2.942,2.942,0,0,0,39.592-6.384ZM50.694-3.7a3.646,3.646,0,0,0-3.78-3.864A3.718,3.718,0,0,0,43.05-3.738,3.8,3.8,0,0,0,47.18.1,3.789,3.789,0,0,0,50.19-1.12L49.252-2.2a2.679,2.679,0,0,1-2.03.812A2.263,2.263,0,0,1,44.8-3.178h5.866C50.68-3.346,50.694-3.556,50.694-3.7ZM46.914-6.16a2.035,2.035,0,0,1,2.114,1.82H44.786A2.066,2.066,0,0,1,46.914-6.16ZM55.58.14c2.688,0,3.962-1.344,3.962-2.912,0-3.6-5.81-2.24-5.81-4.326,0-.742.616-1.33,2.128-1.33a5.446,5.446,0,0,1,2.7.77l.574-1.414a6.2,6.2,0,0,0-3.262-.868c-2.688,0-3.948,1.344-3.948,2.926,0,3.64,5.824,2.254,5.824,4.368,0,.728-.644,1.274-2.17,1.274A5.43,5.43,0,0,1,52.346-2.45l-.63,1.414A6.315,6.315,0,0,0,55.58.14ZM71.148-7.476l-2.03,5.544L67.1-7.476h-1.47L63.574-1.96,61.6-7.476H59.948L62.692,0h1.68l1.96-5.152L68.264,0h1.68L72.7-7.476Zm5.376-.084a5.256,5.256,0,0,0-3.164.924l.686,1.274A3.7,3.7,0,0,1,76.314-6.1c1.246,0,1.862.6,1.862,1.624v.112H76.244c-2.268,0-3.108.98-3.108,2.226,0,1.3,1.078,2.24,2.786,2.24A2.649,2.649,0,0,0,78.274-.91V0h1.652V-4.382C79.926-6.538,78.68-7.56,76.524-7.56Zm-.238,6.384c-.9,0-1.428-.406-1.428-1.036,0-.546.322-.994,1.512-.994h1.806v.868A1.906,1.906,0,0,1,76.286-1.176ZM86.31-7.56A3.083,3.083,0,0,0,83.832-6.5v-.98H82.166V2.716h1.75V-.91A3.072,3.072,0,0,0,86.31.1,3.642,3.642,0,0,0,90.1-3.738,3.638,3.638,0,0,0,86.31-7.56Zm-.2,6.16a2.185,2.185,0,0,1-2.226-2.338,2.185,2.185,0,0,1,2.226-2.338,2.174,2.174,0,0,1,2.212,2.338A2.174,2.174,0,0,1,86.114-1.4ZM95.8,0h6.944V-1.54H97.622V-9.8H95.8Zm10.164-1.54,2.618-2.492c1.358-1.274,1.624-2.142,1.624-3.094,0-1.736-1.372-2.814-3.5-2.814a4.526,4.526,0,0,0-3.724,1.624l1.274.98a2.766,2.766,0,0,1,2.3-1.022c1.2,0,1.82.518,1.82,1.414,0,.546-.168,1.12-1.12,2.03l-3.892,3.7V0h7.224V-1.54Z" transform="translate(70 1938)"/>
    <path id="Path_5153" data-name="Path 5153" class="cls-1" d="M4.354.14C7.042.14,8.316-1.2,8.316-2.772c0-3.6-5.81-2.24-5.81-4.326,0-.742.616-1.33,2.128-1.33a5.446,5.446,0,0,1,2.7.77L7.91-9.072A6.2,6.2,0,0,0,4.648-9.94C1.96-9.94.7-8.6.7-7.014c0,3.64,5.824,2.254,5.824,4.368,0,.728-.644,1.274-2.17,1.274A5.43,5.43,0,0,1,1.12-2.45L.49-1.036A6.315,6.315,0,0,0,4.354.14ZM14.1-7.56A3.083,3.083,0,0,0,11.62-6.5v-.98H9.954V2.716H11.7V-.91A3.072,3.072,0,0,0,14.1.1a3.642,3.642,0,0,0,3.794-3.836A3.638,3.638,0,0,0,14.1-7.56ZM13.9-1.4a2.185,2.185,0,0,1-2.226-2.338A2.185,2.185,0,0,1,13.9-6.076a2.174,2.174,0,0,1,2.212,2.338A2.174,2.174,0,0,1,13.9-1.4Zm9.9-6.16a3.333,3.333,0,0,0-2.492.952v-3.78h-1.75V0h1.75V-3.78a1.986,1.986,0,0,1,2.086-2.254c1.12,0,1.778.644,1.778,1.974V0h1.75V-4.284A2.922,2.922,0,0,0,23.8-7.56ZM36.246-3.7a3.646,3.646,0,0,0-3.78-3.864A3.718,3.718,0,0,0,28.6-3.738,3.8,3.8,0,0,0,32.732.1a3.789,3.789,0,0,0,3.01-1.218L34.8-2.2a2.679,2.679,0,0,1-2.03.812,2.263,2.263,0,0,1-2.422-1.792h5.866C36.232-3.346,36.246-3.556,36.246-3.7ZM32.466-6.16A2.035,2.035,0,0,1,34.58-4.34H30.338A2.066,2.066,0,0,1,32.466-6.16Zm7.126-.224V-7.476H37.926V0h1.75V-3.626a2.038,2.038,0,0,1,2.17-2.31,2.222,2.222,0,0,1,.406.042V-7.56A2.942,2.942,0,0,0,39.592-6.384ZM50.694-3.7a3.646,3.646,0,0,0-3.78-3.864A3.718,3.718,0,0,0,43.05-3.738,3.8,3.8,0,0,0,47.18.1,3.789,3.789,0,0,0,50.19-1.12L49.252-2.2a2.679,2.679,0,0,1-2.03.812A2.263,2.263,0,0,1,44.8-3.178h5.866C50.68-3.346,50.694-3.556,50.694-3.7ZM46.914-6.16a2.035,2.035,0,0,1,2.114,1.82H44.786A2.066,2.066,0,0,1,46.914-6.16ZM57.078.14A4.974,4.974,0,0,0,60.97-1.5l-1.176-1.12a3.407,3.407,0,0,1-2.618,1.162,3.346,3.346,0,0,1-3.5-3.444,3.346,3.346,0,0,1,3.5-3.444A3.442,3.442,0,0,1,59.794-7.2L60.97-8.3A4.964,4.964,0,0,0,57.092-9.94a4.994,4.994,0,0,0-5.25,5.04A4.99,4.99,0,0,0,57.078.14ZM65.632.1a3.77,3.77,0,0,0,3.99-3.836,3.759,3.759,0,0,0-3.99-3.822,3.763,3.763,0,0,0-3.976,3.822A3.774,3.774,0,0,0,65.632.1Zm0-1.5A2.174,2.174,0,0,1,63.42-3.738a2.174,2.174,0,0,1,2.212-2.338,2.177,2.177,0,0,1,2.226,2.338A2.177,2.177,0,0,1,65.632-1.4ZM80.738-7.56a3.489,3.489,0,0,0-2.8,1.246,2.8,2.8,0,0,0-2.52-1.246,3.1,3.1,0,0,0-2.45,1.036v-.952H71.3V0h1.75V-3.794c0-1.484.784-2.24,1.946-2.24,1.064,0,1.68.644,1.68,1.974V0h1.75V-3.794c0-1.484.8-2.24,1.946-2.24,1.064,0,1.68.644,1.68,1.974V0H83.8V-4.284C83.8-6.538,82.544-7.56,80.738-7.56Zm9.45,0A3.083,3.083,0,0,0,87.71-6.5v-.98H86.044V2.716h1.75V-.91A3.072,3.072,0,0,0,90.188.1a3.642,3.642,0,0,0,3.794-3.836A3.638,3.638,0,0,0,90.188-7.56Zm-.2,6.16a2.185,2.185,0,0,1-2.226-2.338,2.185,2.185,0,0,1,2.226-2.338A2.174,2.174,0,0,1,92.2-3.738,2.174,2.174,0,0,1,89.992-1.4ZM99.68,0h6.944V-1.54H101.5V-9.8H99.68Zm10.164-1.54,2.618-2.492c1.358-1.274,1.624-2.142,1.624-3.094,0-1.736-1.372-2.814-3.5-2.814a4.526,4.526,0,0,0-3.724,1.624l1.274.98a2.766,2.766,0,0,1,2.3-1.022c1.2,0,1.82.518,1.82,1.414,0,.546-.168,1.12-1.12,2.03l-3.892,3.7V0h7.224V-1.54Z" transform="translate(70 2132)"/>
    <path id="Path_5139" data-name="Path 5139" class="cls-2" d="M5.016,12.072A4.085,4.085,0,0,0,8.1,10.836l-.564-.564A3.3,3.3,0,0,1,5.052,11.28,3.433,3.433,0,0,1,1.5,7.8,3.433,3.433,0,0,1,5.052,4.32a3.329,3.329,0,0,1,2.484,1L8.1,4.752A4.067,4.067,0,0,0,5.028,3.528,4.217,4.217,0,0,0,.624,7.8,4.214,4.214,0,0,0,5.016,12.072Zm7.1-.012a3.1,3.1,0,0,0,3.2-3.216,3.1,3.1,0,0,0-3.2-3.2A3.1,3.1,0,0,0,8.9,8.844,3.114,3.114,0,0,0,12.12,12.06Zm0-.756a2.311,2.311,0,0,1-2.352-2.46,2.349,2.349,0,1,1,4.692,0A2.3,2.3,0,0,1,12.12,11.3ZM24.936,5.64a2.749,2.749,0,0,0-2.5,1.332A2.267,2.267,0,0,0,20.2,5.64a2.552,2.552,0,0,0-2.316,1.2V5.688h-.816V12h.852V8.688a2.034,2.034,0,0,1,2.112-2.28c1.152,0,1.824.684,1.824,2.016V12H22.7V8.688a2.029,2.029,0,0,1,2.112-2.28c1.14,0,1.812.684,1.812,2.016V12h.852V8.34A2.382,2.382,0,0,0,24.936,5.64Zm8.112,0a2.749,2.749,0,0,0-2.436,1.3V5.688H29.8v8.64h.852V10.812a2.757,2.757,0,0,0,2.4,1.248,3.057,3.057,0,0,0,3.144-3.216A3.054,3.054,0,0,0,33.048,5.64Zm-.06,5.664a2.311,2.311,0,0,1-2.352-2.46,2.354,2.354,0,1,1,4.7,0A2.318,2.318,0,0,1,32.988,11.3Zm4.944.7h.852V3.1h-.852Zm8.736-3.156a3.008,3.008,0,0,0-3.06-3.2,3.04,3.04,0,0,0-3.084,3.2,3.337,3.337,0,0,0,5.748,2.184l-.48-.552a2.488,2.488,0,0,1-1.932.828,2.336,2.336,0,0,1-2.484-2.2h5.28C46.656,9.012,46.668,8.916,46.668,8.844Zm-3.06-2.472a2.2,2.2,0,0,1,2.244,2.1H41.376A2.192,2.192,0,0,1,43.608,6.372ZM51.432,11a1.41,1.41,0,0,1-.936.324A1.011,1.011,0,0,1,49.4,10.176V6.408h1.92v-.72H49.4V4.308h-.852v1.38H47.424v.72h1.128v3.816A1.672,1.672,0,0,0,50.4,12.06a2.029,2.029,0,0,0,1.332-.444Zm7.128-2.16a3.008,3.008,0,0,0-3.06-3.2,3.04,3.04,0,0,0-3.084,3.2,3.337,3.337,0,0,0,5.748,2.184l-.48-.552a2.488,2.488,0,0,1-1.932.828,2.336,2.336,0,0,1-2.484-2.2h5.28C58.548,9.012,58.56,8.916,58.56,8.844ZM55.5,6.372a2.2,2.2,0,0,1,2.244,2.1H53.268A2.192,2.192,0,0,1,55.5,6.372Zm16.428-.684-2,5.364L67.908,5.688h-.732l-2.028,5.364-1.98-5.364h-.816L64.728,12h.8l1.992-5.172L69.516,12h.8l2.388-6.312ZM79.32,8.844a3.008,3.008,0,0,0-3.06-3.2,3.04,3.04,0,0,0-3.084,3.2,3.337,3.337,0,0,0,5.748,2.184l-.48-.552a2.488,2.488,0,0,1-1.932.828,2.336,2.336,0,0,1-2.484-2.2h5.28C79.308,9.012,79.32,8.916,79.32,8.844ZM76.26,6.372a2.2,2.2,0,0,1,2.244,2.1H74.028A2.192,2.192,0,0,1,76.26,6.372Zm8.052-.732a2.757,2.757,0,0,0-2.4,1.248V3.1H81.06V12h.816V10.752a2.734,2.734,0,0,0,2.436,1.308,3.063,3.063,0,0,0,3.144-3.216A3.054,3.054,0,0,0,84.312,5.64Zm-.06,5.664A2.311,2.311,0,0,1,81.9,8.844a2.354,2.354,0,1,1,4.7,0A2.318,2.318,0,0,1,84.252,11.3Zm6.636.756c1.644,0,2.6-.708,2.6-1.8,0-2.424-4.092-1.14-4.092-2.844,0-.6.5-1.044,1.644-1.044a3.235,3.235,0,0,1,1.86.54l.372-.684a4.277,4.277,0,0,0-2.232-.588c-1.608,0-2.5.768-2.5,1.8,0,2.5,4.092,1.2,4.092,2.844,0,.624-.492,1.032-1.692,1.032a3.813,3.813,0,0,1-2.244-.708l-.384.672A4.217,4.217,0,0,0,90.888,12.06ZM95.5,4.308a.612.612,0,0,0,.624-.624A.605.605,0,0,0,95.5,3.1a.606.606,0,1,0,0,1.212ZM95.064,12h.852V5.688h-.852Zm6.252-1a1.41,1.41,0,0,1-.936.324,1.011,1.011,0,0,1-1.092-1.152V6.408h1.92v-.72h-1.92V4.308h-.852v1.38H97.308v.72h1.128v3.816a1.672,1.672,0,0,0,1.848,1.836,2.029,2.029,0,0,0,1.332-.444Zm7.128-2.16a3.008,3.008,0,0,0-3.06-3.2,3.04,3.04,0,0,0-3.084,3.2,3.337,3.337,0,0,0,5.748,2.184l-.48-.552a2.488,2.488,0,0,1-1.932.828,2.336,2.336,0,0,1-2.484-2.2h5.28C108.432,9.012,108.444,8.916,108.444,8.844Zm-3.06-2.472a2.2,2.2,0,0,1,2.244,2.1h-4.476A2.192,2.192,0,0,1,105.384,6.372Zm16.428-.684-2,5.364-2.016-5.364h-.732l-2.028,5.364-1.98-5.364h-.816L114.612,12h.8l1.992-5.172L119.4,12h.8l2.388-6.312Zm2.5-1.38a.612.612,0,0,0,.624-.624.605.605,0,0,0-.624-.588.606.606,0,1,0,0,1.212ZM123.876,12h.852V5.688h-.852Zm6.252-1a1.41,1.41,0,0,1-.936.324,1.011,1.011,0,0,1-1.092-1.152V6.408h1.92v-.72H128.1V4.308h-.852v1.38H126.12v.72h1.128v3.816A1.672,1.672,0,0,0,129.1,12.06a2.029,2.029,0,0,0,1.332-.444Zm5.064-5.364a2.667,2.667,0,0,0-2.364,1.152V3.1h-.852V12h.852V8.688a2.069,2.069,0,0,1,2.208-2.28,1.762,1.762,0,0,1,1.9,2.016V12h.852V8.34A2.416,2.416,0,0,0,135.192,5.64Zm11.3,0a2.749,2.749,0,0,0-2.436,1.3V5.688h-.816v8.64h.852V10.812a2.757,2.757,0,0,0,2.4,1.248,3.057,3.057,0,0,0,3.144-3.216A3.054,3.054,0,0,0,146.5,5.64Zm-.06,5.664a2.311,2.311,0,0,1-2.352-2.46,2.354,2.354,0,1,1,4.7,0A2.318,2.318,0,0,1,146.436,11.3Zm5.76-4.38V5.688h-.816V12h.852V8.784a2.042,2.042,0,0,1,2.124-2.328c.06,0,.132.012.2.012V5.64A2.38,2.38,0,0,0,152.2,6.924Zm6.42,5.136a3.1,3.1,0,0,0,3.2-3.216,3.21,3.21,0,0,0-6.42,0A3.114,3.114,0,0,0,158.616,12.06Zm0-.756a2.311,2.311,0,0,1-2.352-2.46,2.349,2.349,0,1,1,4.692,0A2.3,2.3,0,0,1,158.616,11.3ZM168.468,3.1V6.888a2.757,2.757,0,0,0-2.4-1.248,3.054,3.054,0,0,0-3.144,3.2,3.063,3.063,0,0,0,3.144,3.216,2.734,2.734,0,0,0,2.436-1.308V12h.816V3.1ZM166.14,11.3a2.311,2.311,0,0,1-2.352-2.46,2.349,2.349,0,1,1,4.692,0A2.308,2.308,0,0,1,166.14,11.3Zm10.392-5.616V9a2.052,2.052,0,0,1-2.148,2.292,1.767,1.767,0,0,1-1.9-2.028V5.688h-.852v3.66A2.445,2.445,0,0,0,174.3,12.06a2.511,2.511,0,0,0,2.268-1.212V12h.816V5.688Zm5.856,6.372a2.783,2.783,0,0,0,2.472-1.248l-.636-.432a2.135,2.135,0,0,1-1.836.924A2.313,2.313,0,0,1,180,8.844a2.319,2.319,0,0,1,2.388-2.46,2.146,2.146,0,0,1,1.836.936l.636-.432a2.757,2.757,0,0,0-2.472-1.248,3.107,3.107,0,0,0-3.252,3.2A3.117,3.117,0,0,0,182.388,12.06ZM189.624,11a1.41,1.41,0,0,1-.936.324,1.011,1.011,0,0,1-1.092-1.152V6.408h1.92v-.72H187.6V4.308h-.852v1.38h-1.128v.72h1.128v3.816a1.672,1.672,0,0,0,1.848,1.836,2.029,2.029,0,0,0,1.332-.444Zm3.54,1.056c1.644,0,2.6-.708,2.6-1.8,0-2.424-4.092-1.14-4.092-2.844,0-.6.5-1.044,1.644-1.044a3.235,3.235,0,0,1,1.86.54l.372-.684a4.277,4.277,0,0,0-2.232-.588c-1.608,0-2.5.768-2.5,1.8,0,2.5,4.092,1.2,4.092,2.844,0,.624-.492,1.032-1.692,1.032a3.813,3.813,0,0,1-2.244-.708l-.384.672A4.217,4.217,0,0,0,193.164,12.06Zm9.528-6.42a4.008,4.008,0,0,0-2.568.852l.384.636a3.215,3.215,0,0,1,2.1-.744c1.176,0,1.788.588,1.788,1.668v.384h-2c-1.812,0-2.436.816-2.436,1.788,0,1.092.876,1.836,2.3,1.836a2.37,2.37,0,0,0,2.172-1.044V12h.816V8.088A2.242,2.242,0,0,0,202.692,5.64Zm-.3,5.748c-1.008,0-1.6-.456-1.6-1.188,0-.648.4-1.128,1.62-1.128h1.98V10.1A2.019,2.019,0,0,1,202.392,11.388ZM210.78,5.64a2.653,2.653,0,0,0-2.4,1.212V5.688h-.816V12h.852V8.688a2.069,2.069,0,0,1,2.208-2.28,1.762,1.762,0,0,1,1.9,2.016V12h.852V8.34A2.416,2.416,0,0,0,210.78,5.64ZM220.62,3.1V6.888a2.757,2.757,0,0,0-2.4-1.248,3.054,3.054,0,0,0-3.144,3.2,3.063,3.063,0,0,0,3.144,3.216,2.734,2.734,0,0,0,2.436-1.308V12h.816V3.1ZM218.292,11.3a2.311,2.311,0,0,1-2.352-2.46,2.349,2.349,0,1,1,4.692,0A2.308,2.308,0,0,1,218.292,11.3ZM229.08,3.756a1.443,1.443,0,0,1,.936.312l.288-.636a2,2,0,0,0-1.26-.4,1.738,1.738,0,0,0-1.908,1.872v.78h-1.128v.72h1.128V12h.852V6.408h1.92v-.72h-1.944V4.944C227.964,4.164,228.348,3.756,229.08,3.756Zm7.38,5.088a3.008,3.008,0,0,0-3.06-3.2,3.04,3.04,0,0,0-3.084,3.2,3.337,3.337,0,0,0,5.748,2.184l-.48-.552a2.488,2.488,0,0,1-1.932.828,2.336,2.336,0,0,1-2.484-2.2h5.28C236.448,9.012,236.46,8.916,236.46,8.844ZM233.4,6.372a2.2,2.2,0,0,1,2.244,2.1h-4.476A2.192,2.192,0,0,1,233.4,6.372Zm6.828-.732a4.008,4.008,0,0,0-2.568.852l.384.636a3.215,3.215,0,0,1,2.1-.744c1.176,0,1.788.588,1.788,1.668v.384h-2c-1.812,0-2.436.816-2.436,1.788,0,1.092.876,1.836,2.3,1.836a2.37,2.37,0,0,0,2.172-1.044V12h.816V8.088A2.242,2.242,0,0,0,240.228,5.64Zm-.3,5.748c-1.008,0-1.6-.456-1.6-1.188,0-.648.4-1.128,1.62-1.128h1.98V10.1A2.019,2.019,0,0,1,239.928,11.388Zm8.2-.384a1.41,1.41,0,0,1-.936.324,1.011,1.011,0,0,1-1.092-1.152V6.408h1.92v-.72H246.1V4.308h-.852v1.38h-1.128v.72h1.128v3.816a1.672,1.672,0,0,0,1.848,1.836,2.029,2.029,0,0,0,1.332-.444Zm6.684-5.316V9a2.052,2.052,0,0,1-2.148,2.292,1.767,1.767,0,0,1-1.9-2.028V5.688h-.852v3.66a2.445,2.445,0,0,0,2.664,2.712,2.511,2.511,0,0,0,2.268-1.212V12h.816V5.688Zm4.056,1.236V5.688h-.816V12h.852V8.784a2.042,2.042,0,0,1,2.124-2.328c.06,0,.132.012.2.012V5.64A2.38,2.38,0,0,0,258.864,6.924Zm9.348,1.92a3.008,3.008,0,0,0-3.06-3.2,3.04,3.04,0,0,0-3.084,3.2,3.337,3.337,0,0,0,5.748,2.184l-.48-.552a2.488,2.488,0,0,1-1.932.828,2.336,2.336,0,0,1-2.484-2.2h5.28C268.2,9.012,268.212,8.916,268.212,8.844Zm-3.06-2.472a2.2,2.2,0,0,1,2.244,2.1H262.92A2.192,2.192,0,0,1,265.152,6.372ZM278,3.1V6.888a2.757,2.757,0,0,0-2.4-1.248,3.054,3.054,0,0,0-3.144,3.2A3.063,3.063,0,0,0,275.6,12.06a2.734,2.734,0,0,0,2.436-1.308V12h.816V3.1ZM275.676,11.3a2.311,2.311,0,0,1-2.352-2.46,2.349,2.349,0,1,1,4.692,0A2.308,2.308,0,0,1,275.676,11.3Zm11.064-2.46a3.008,3.008,0,0,0-3.06-3.2,3.04,3.04,0,0,0-3.084,3.2,3.337,3.337,0,0,0,5.748,2.184l-.48-.552a2.488,2.488,0,0,1-1.932.828,2.336,2.336,0,0,1-2.484-2.2h5.28C286.728,9.012,286.74,8.916,286.74,8.844Zm-3.06-2.472a2.2,2.2,0,0,1,2.244,2.1h-4.476A2.192,2.192,0,0,1,283.68,6.372ZM291.5,11a1.41,1.41,0,0,1-.936.324,1.011,1.011,0,0,1-1.092-1.152V6.408h1.92v-.72h-1.92V4.308h-.852v1.38H287.5v.72h1.128v3.816a1.672,1.672,0,0,0,1.848,1.836,2.029,2.029,0,0,0,1.332-.444ZM295.56,5.64a4.008,4.008,0,0,0-2.568.852l.384.636a3.215,3.215,0,0,1,2.1-.744c1.176,0,1.788.588,1.788,1.668v.384h-2c-1.812,0-2.436.816-2.436,1.788,0,1.092.876,1.836,2.3,1.836a2.37,2.37,0,0,0,2.172-1.044V12h.816V8.088A2.242,2.242,0,0,0,295.56,5.64Zm-.3,5.748c-1.008,0-1.6-.456-1.6-1.188,0-.648.4-1.128,1.62-1.128h1.98V10.1A2.019,2.019,0,0,1,295.26,11.388Zm5.6-7.08a.612.612,0,0,0,.624-.624.605.605,0,0,0-.624-.588.606.606,0,1,0,0,1.212ZM300.432,12h.852V5.688h-.852Zm3.228,0h.852V3.1h-.852Zm4.92.06c1.644,0,2.6-.708,2.6-1.8,0-2.424-4.092-1.14-4.092-2.844,0-.6.5-1.044,1.644-1.044a3.235,3.235,0,0,1,1.86.54l.372-.684a4.277,4.277,0,0,0-2.232-.588c-1.608,0-2.5.768-2.5,1.8,0,2.5,4.092,1.2,4.092,2.844,0,.624-.492,1.032-1.692,1.032a3.813,3.813,0,0,1-2.244-.708l-.384.672A4.217,4.217,0,0,0,308.58,12.06Z" transform="translate(70 1659)"/>
    <path id="Path_5145" data-name="Path 5145" class="cls-2" d="M3.684,12.072c2.148,0,3.132-1.056,3.132-2.292,0-3.06-5.172-1.668-5.172-3.972,0-.84.684-1.524,2.22-1.524a4.325,4.325,0,0,1,2.3.7l.3-.708a4.742,4.742,0,0,0-2.6-.744c-2.136,0-3.1,1.068-3.1,2.3,0,3.108,5.172,1.692,5.172,4,0,.828-.684,1.488-2.256,1.488A4.125,4.125,0,0,1,.912,10.3l-.348.684A4.555,4.555,0,0,0,3.684,12.072ZM11.82,5.64a2.749,2.749,0,0,0-2.436,1.3V5.688H8.568v8.64H9.42V10.812a2.757,2.757,0,0,0,2.4,1.248,3.057,3.057,0,0,0,3.144-3.216A3.054,3.054,0,0,0,11.82,5.64ZM11.76,11.3a2.311,2.311,0,0,1-2.352-2.46,2.354,2.354,0,1,1,4.7,0A2.318,2.318,0,0,1,11.76,11.3ZM19.92,5.64a2.667,2.667,0,0,0-2.364,1.152V3.1H16.7V12h.852V8.688a2.069,2.069,0,0,1,2.208-2.28,1.762,1.762,0,0,1,1.9,2.016V12h.852V8.34A2.416,2.416,0,0,0,19.92,5.64Zm10.44,3.2a3.008,3.008,0,0,0-3.06-3.2,3.04,3.04,0,0,0-3.084,3.2,3.126,3.126,0,0,0,3.312,3.216,3.107,3.107,0,0,0,2.436-1.032l-.48-.552a2.488,2.488,0,0,1-1.932.828,2.336,2.336,0,0,1-2.484-2.2h5.28C30.348,9.012,30.36,8.916,30.36,8.844ZM27.3,6.372a2.2,2.2,0,0,1,2.244,2.1H25.068A2.192,2.192,0,0,1,27.3,6.372Zm5.616.552V5.688H32.1V12h.852V8.784a2.042,2.042,0,0,1,2.124-2.328c.06,0,.132.012.2.012V5.64A2.38,2.38,0,0,0,32.916,6.924Zm4.332-2.616a.612.612,0,0,0,.624-.624.605.605,0,0,0-.624-.588.606.606,0,1,0,0,1.212ZM36.816,12h.852V5.688h-.852ZM44.88,5.688V9a2.052,2.052,0,0,1-2.148,2.292,1.767,1.767,0,0,1-1.9-2.028V5.688h-.852v3.66a2.445,2.445,0,0,0,2.664,2.712,2.511,2.511,0,0,0,2.268-1.212V12h.816V5.688ZM55.992,5.64a2.749,2.749,0,0,0-2.5,1.332A2.267,2.267,0,0,0,51.252,5.64a2.552,2.552,0,0,0-2.316,1.2V5.688H48.12V12h.852V8.688a2.034,2.034,0,0,1,2.112-2.28c1.152,0,1.824.684,1.824,2.016V12h.852V8.688a2.029,2.029,0,0,1,2.112-2.28c1.14,0,1.812.684,1.812,2.016V12h.852V8.34A2.382,2.382,0,0,0,55.992,5.64ZM70.32,3.6V7.344H65.064V3.6h-.888V12h.888V8.124H70.32V12H71.2V3.6Zm7.9,2.088L75.84,11.052,73.464,5.688h-.888l2.82,6.3-.276.612c-.36.792-.744,1.056-1.308,1.056a1.576,1.576,0,0,1-1.152-.48l-.4.636a2.16,2.16,0,0,0,1.536.576c.9,0,1.572-.4,2.1-1.632l3.156-7.068Zm5.292-.048a2.749,2.749,0,0,0-2.436,1.3V5.688h-.816v8.64h.852V10.812a2.757,2.757,0,0,0,2.4,1.248,3.057,3.057,0,0,0,3.144-3.216A3.054,3.054,0,0,0,83.508,5.64Zm-.06,5.664A2.311,2.311,0,0,1,81.1,8.844a2.354,2.354,0,1,1,4.7,0A2.318,2.318,0,0,1,83.448,11.3ZM93.9,8.844a3.008,3.008,0,0,0-3.06-3.2,3.04,3.04,0,0,0-3.084,3.2A3.337,3.337,0,0,0,93.5,11.028l-.48-.552a2.488,2.488,0,0,1-1.932.828,2.336,2.336,0,0,1-2.484-2.2h5.28C93.888,9.012,93.9,8.916,93.9,8.844ZM90.84,6.372a2.2,2.2,0,0,1,2.244,2.1H88.608A2.192,2.192,0,0,1,90.84,6.372Zm5.616.552V5.688H95.64V12h.852V8.784a2.042,2.042,0,0,1,2.124-2.328c.06,0,.132.012.2.012V5.64A2.38,2.38,0,0,0,96.456,6.924Zm6.264,5.148c2.148,0,3.132-1.056,3.132-2.292,0-3.06-5.172-1.668-5.172-3.972,0-.84.684-1.524,2.22-1.524a4.325,4.325,0,0,1,2.3.7l.3-.708a4.742,4.742,0,0,0-2.6-.744c-2.136,0-3.1,1.068-3.1,2.3,0,3.108,5.172,1.692,5.172,4,0,.828-.684,1.488-2.256,1.488a4.125,4.125,0,0,1-2.772-1.02l-.348.684A4.555,4.555,0,0,0,102.72,12.072Zm13.248-6.384-2,5.364-2.016-5.364h-.732l-2.028,5.364-1.98-5.364h-.816L108.768,12h.8l1.992-5.172L113.556,12h.8l2.388-6.312Zm4.08-.048a4.008,4.008,0,0,0-2.568.852l.384.636a3.215,3.215,0,0,1,2.1-.744c1.176,0,1.788.588,1.788,1.668v.384h-2c-1.812,0-2.436.816-2.436,1.788,0,1.092.876,1.836,2.3,1.836a2.37,2.37,0,0,0,2.172-1.044V12h.816V8.088A2.242,2.242,0,0,0,120.048,5.64Zm-.3,5.748c-1.008,0-1.6-.456-1.6-1.188,0-.648.4-1.128,1.62-1.128h1.98V10.1A2.019,2.019,0,0,1,119.748,11.388Zm8.424-5.748a2.749,2.749,0,0,0-2.436,1.3V5.688h-.816v8.64h.852V10.812a2.757,2.757,0,0,0,2.4,1.248,3.057,3.057,0,0,0,3.144-3.216A3.054,3.054,0,0,0,128.172,5.64Zm-.06,5.664a2.311,2.311,0,0,1-2.352-2.46,2.354,2.354,0,1,1,4.7,0A2.318,2.318,0,0,1,128.112,11.3Zm8.088.7h.852V3.1H136.2Zm5.436-6.36a4.008,4.008,0,0,0-2.568.852l.384.636a3.215,3.215,0,0,1,2.1-.744c1.176,0,1.788.588,1.788,1.668v.384h-2c-1.812,0-2.436.816-2.436,1.788,0,1.092.876,1.836,2.3,1.836a2.37,2.37,0,0,0,2.172-1.044V12h.816V8.088A2.242,2.242,0,0,0,141.636,5.64Zm-.3,5.748c-1.008,0-1.6-.456-1.6-1.188,0-.648.4-1.128,1.62-1.128h1.98V10.1A2.019,2.019,0,0,1,141.336,11.388Zm9.516-5.7-2.376,5.364L146.1,5.688h-.888l2.82,6.3-.276.612c-.36.792-.744,1.056-1.308,1.056a1.576,1.576,0,0,1-1.152-.48l-.4.636a2.16,2.16,0,0,0,1.536.576c.9,0,1.572-.4,2.1-1.632l3.156-7.068Zm7.368,3.156a3.008,3.008,0,0,0-3.06-3.2,3.04,3.04,0,0,0-3.084,3.2,3.337,3.337,0,0,0,5.748,2.184l-.48-.552a2.488,2.488,0,0,1-1.932.828,2.336,2.336,0,0,1-2.484-2.2h5.28C158.208,9.012,158.22,8.916,158.22,8.844Zm-3.06-2.472a2.2,2.2,0,0,1,2.244,2.1h-4.476A2.192,2.192,0,0,1,155.16,6.372Zm5.616.552V5.688h-.816V12h.852V8.784a2.042,2.042,0,0,1,2.124-2.328c.06,0,.132.012.2.012V5.64A2.38,2.38,0,0,0,160.776,6.924Zm6.06-3.324v.768h1.98V12h.864V3.6Zm10.248,8.46c1.644,0,2.6-.708,2.6-1.8,0-2.424-4.092-1.14-4.092-2.844,0-.6.5-1.044,1.644-1.044a3.235,3.235,0,0,1,1.86.54l.372-.684a4.277,4.277,0,0,0-2.232-.588c-1.608,0-2.5.768-2.5,1.8,0,2.5,4.092,1.2,4.092,2.844,0,.624-.492,1.032-1.692,1.032a3.813,3.813,0,0,1-2.244-.708l-.384.672A4.217,4.217,0,0,0,177.084,12.06Zm7.2-1.056a1.41,1.41,0,0,1-.936.324,1.011,1.011,0,0,1-1.092-1.152V6.408h1.92v-.72h-1.92V4.308H181.4v1.38h-1.128v.72H181.4v3.816a1.672,1.672,0,0,0,1.848,1.836,2.029,2.029,0,0,0,1.332-.444ZM188.34,5.64a4.008,4.008,0,0,0-2.568.852l.384.636a3.215,3.215,0,0,1,2.1-.744c1.176,0,1.788.588,1.788,1.668v.384h-2c-1.812,0-2.436.816-2.436,1.788,0,1.092.876,1.836,2.3,1.836a2.37,2.37,0,0,0,2.172-1.044V12h.816V8.088A2.242,2.242,0,0,0,188.34,5.64Zm-.3,5.748c-1.008,0-1.6-.456-1.6-1.188,0-.648.4-1.128,1.62-1.128h1.98V10.1A2.019,2.019,0,0,1,188.04,11.388ZM198.1,12h1.044l-2.952-3.732,2.7-2.58h-1.056l-3.768,3.444V3.1h-.852V12h.852V10.2l1.488-1.368Zm2.664-7.692a.612.612,0,0,0,.624-.624.605.605,0,0,0-.624-.588.606.606,0,1,0,0,1.212ZM200.328,12h.852V5.688h-.852Zm6.444-6.36a2.653,2.653,0,0,0-2.4,1.212V5.688h-.816V12h.852V8.688a2.069,2.069,0,0,1,2.208-2.28,1.762,1.762,0,0,1,1.9,2.016V12h.852V8.34A2.416,2.416,0,0,0,206.772,5.64Zm9.96.048V6.9a2.849,2.849,0,0,0-2.5-1.26,3,3,0,0,0-3.168,3.048,3.02,3.02,0,0,0,3.168,3.072,2.84,2.84,0,0,0,2.46-1.224v.8c0,1.56-.732,2.292-2.328,2.292a3.757,3.757,0,0,1-2.484-.864l-.432.648a4.4,4.4,0,0,0,2.94.972c2.088,0,3.156-.984,3.156-3.156V5.688ZM214.32,11a2.256,2.256,0,0,1-2.388-2.316,2.4,2.4,0,0,1,4.788,0A2.266,2.266,0,0,1,214.32,11ZM226.332,5.64a2.749,2.749,0,0,0-2.436,1.3V5.688h-.816v8.64h.852V10.812a2.757,2.757,0,0,0,2.4,1.248,3.057,3.057,0,0,0,3.144-3.216A3.054,3.054,0,0,0,226.332,5.64Zm-.06,5.664a2.311,2.311,0,0,1-2.352-2.46,2.354,2.354,0,1,1,4.7,0A2.318,2.318,0,0,1,226.272,11.3Zm7.524.756A3.1,3.1,0,0,0,237,8.844a3.21,3.21,0,0,0-6.42,0A3.114,3.114,0,0,0,233.8,12.06Zm0-.756a2.311,2.311,0,0,1-2.352-2.46,2.349,2.349,0,1,1,4.692,0A2.3,2.3,0,0,1,233.8,11.3Zm7.524.756a3.1,3.1,0,0,0,3.2-3.216,3.21,3.21,0,0,0-6.42,0A3.114,3.114,0,0,0,241.32,12.06Zm0-.756a2.311,2.311,0,0,1-2.352-2.46,2.349,2.349,0,1,1,4.692,0A2.3,2.3,0,0,1,241.32,11.3Zm4.944.7h.852V3.1h-.852Zm8.58-6.36a4.008,4.008,0,0,0-2.568.852l.384.636a3.215,3.215,0,0,1,2.1-.744c1.176,0,1.788.588,1.788,1.668v.384h-2c-1.812,0-2.436.816-2.436,1.788,0,1.092.876,1.836,2.3,1.836a2.37,2.37,0,0,0,2.172-1.044V12h.816V8.088A2.242,2.242,0,0,0,254.844,5.64Zm-.3,5.748c-1.008,0-1.6-.456-1.6-1.188,0-.648.4-1.128,1.62-1.128h1.98V10.1A2.019,2.019,0,0,1,254.544,11.388Zm8.388-5.748a2.653,2.653,0,0,0-2.4,1.212V5.688h-.816V12h.852V8.688a2.069,2.069,0,0,1,2.208-2.28,1.763,1.763,0,0,1,1.9,2.016V12h.852V8.34A2.416,2.416,0,0,0,262.932,5.64Zm9.84-2.544V6.888a2.757,2.757,0,0,0-2.4-1.248,3.054,3.054,0,0,0-3.144,3.2,3.063,3.063,0,0,0,3.144,3.216,2.734,2.734,0,0,0,2.436-1.308V12h.816V3.1ZM270.444,11.3a2.311,2.311,0,0,1-2.352-2.46,2.349,2.349,0,1,1,4.692,0A2.308,2.308,0,0,1,270.444,11.3ZM2,21.924V20.688H1.188V27H2.04V23.784a2.042,2.042,0,0,1,2.124-2.328c.06,0,.132.012.2.012V20.64A2.38,2.38,0,0,0,2,21.924Zm9.348,1.92a3.008,3.008,0,0,0-3.06-3.2,3.04,3.04,0,0,0-3.084,3.2A3.126,3.126,0,0,0,8.52,27.06a3.107,3.107,0,0,0,2.436-1.032l-.48-.552a2.488,2.488,0,0,1-1.932.828,2.336,2.336,0,0,1-2.484-2.2h5.28C11.34,24.012,11.352,23.916,11.352,23.844Zm-3.06-2.472a2.2,2.2,0,0,1,2.244,2.1H6.06A2.192,2.192,0,0,1,8.292,21.372Zm13.164-.684-2,5.364-2.016-5.364H16.7l-2.028,5.364L12.7,20.688H11.88L14.256,27h.8l1.992-5.172L19.044,27h.8l2.388-6.312Zm4.08-.048a4.008,4.008,0,0,0-2.568.852l.384.636a3.215,3.215,0,0,1,2.1-.744c1.176,0,1.788.588,1.788,1.668v.384h-2c-1.812,0-2.436.816-2.436,1.788,0,1.092.876,1.836,2.3,1.836a2.37,2.37,0,0,0,2.172-1.044V27h.816V23.088A2.242,2.242,0,0,0,25.536,20.64Zm-.3,5.748c-1.008,0-1.6-.456-1.6-1.188,0-.648.4-1.128,1.62-1.128h1.98V25.1A2.019,2.019,0,0,1,25.236,26.388Zm5.988-4.464V20.688h-.816V27h.852V23.784a2.042,2.042,0,0,1,2.124-2.328c.06,0,.132.012.2.012V20.64A2.38,2.38,0,0,0,31.224,21.924ZM39.972,18.1v3.792a2.757,2.757,0,0,0-2.4-1.248,3.054,3.054,0,0,0-3.144,3.2,3.063,3.063,0,0,0,3.144,3.216,2.734,2.734,0,0,0,2.436-1.308V27h.816V18.1ZM37.644,26.3a2.311,2.311,0,0,1-2.352-2.46,2.349,2.349,0,1,1,4.692,0A2.308,2.308,0,0,1,37.644,26.3Zm10.392.756c1.644,0,2.6-.708,2.6-1.8,0-2.424-4.092-1.14-4.092-2.844,0-.6.5-1.044,1.644-1.044a3.235,3.235,0,0,1,1.86.54l.372-.684a4.277,4.277,0,0,0-2.232-.588c-1.608,0-2.5.768-2.5,1.8,0,2.5,4.092,1.2,4.092,2.844,0,.624-.492,1.032-1.692,1.032a3.813,3.813,0,0,1-2.244-.708l-.384.672A4.217,4.217,0,0,0,48.036,27.06Zm6.756,0a3.21,3.21,0,1,0-3.216-3.216A3.1,3.1,0,0,0,54.792,27.06Zm0-.756a2.311,2.311,0,0,1-2.352-2.46,2.349,2.349,0,1,1,4.692,0A2.3,2.3,0,0,1,54.792,26.3Zm4.944.7h.852V18.1h-.852ZM67.8,20.688V24a2.052,2.052,0,0,1-2.148,2.292,1.767,1.767,0,0,1-1.9-2.028V20.688H62.9v3.66a2.445,2.445,0,0,0,2.664,2.712,2.511,2.511,0,0,0,2.268-1.212V27h.816V20.688ZM74.064,26a1.41,1.41,0,0,1-.936.324,1.011,1.011,0,0,1-1.092-1.152V21.408h1.92v-.72h-1.92v-1.38h-.852v1.38H70.056v.72h1.128v3.816a1.672,1.672,0,0,0,1.848,1.836,2.029,2.029,0,0,0,1.332-.444Zm2.28-6.7a.612.612,0,0,0,.624-.624.605.605,0,0,0-.624-.588.606.606,0,1,0,0,1.212ZM75.912,27h.852V20.688h-.852Zm5.808.06A3.21,3.21,0,1,0,78.5,23.844,3.1,3.1,0,0,0,81.72,27.06Zm0-.756a2.311,2.311,0,0,1-2.352-2.46,2.349,2.349,0,1,1,4.692,0A2.3,2.3,0,0,1,81.72,26.3Zm8.16-5.664a2.653,2.653,0,0,0-2.4,1.212V20.688h-.816V27h.852V23.688a2.069,2.069,0,0,1,2.208-2.28,1.762,1.762,0,0,1,1.9,2.016V27h.852V23.34A2.416,2.416,0,0,0,89.88,20.64Z" transform="translate(70 1840)"/>
    <path id="Path_5151" data-name="Path 5151" class="cls-2" d="M3.684,12.072c2.148,0,3.132-1.056,3.132-2.292,0-3.06-5.172-1.668-5.172-3.972,0-.84.684-1.524,2.22-1.524a4.325,4.325,0,0,1,2.3.7l.3-.708a4.742,4.742,0,0,0-2.6-.744c-2.136,0-3.1,1.068-3.1,2.3,0,3.108,5.172,1.692,5.172,4,0,.828-.684,1.488-2.256,1.488A4.125,4.125,0,0,1,.912,10.3l-.348.684A4.555,4.555,0,0,0,3.684,12.072ZM11.82,5.64a2.749,2.749,0,0,0-2.436,1.3V5.688H8.568v8.64H9.42V10.812a2.757,2.757,0,0,0,2.4,1.248,3.057,3.057,0,0,0,3.144-3.216A3.054,3.054,0,0,0,11.82,5.64ZM11.76,11.3a2.311,2.311,0,0,1-2.352-2.46,2.354,2.354,0,1,1,4.7,0A2.318,2.318,0,0,1,11.76,11.3ZM19.92,5.64a2.667,2.667,0,0,0-2.364,1.152V3.1H16.7V12h.852V8.688a2.069,2.069,0,0,1,2.208-2.28,1.762,1.762,0,0,1,1.9,2.016V12h.852V8.34A2.416,2.416,0,0,0,19.92,5.64Zm10.44,3.2a3.008,3.008,0,0,0-3.06-3.2,3.04,3.04,0,0,0-3.084,3.2,3.126,3.126,0,0,0,3.312,3.216,3.107,3.107,0,0,0,2.436-1.032l-.48-.552a2.488,2.488,0,0,1-1.932.828,2.336,2.336,0,0,1-2.484-2.2h5.28C30.348,9.012,30.36,8.916,30.36,8.844ZM27.3,6.372a2.2,2.2,0,0,1,2.244,2.1H25.068A2.192,2.192,0,0,1,27.3,6.372Zm5.616.552V5.688H32.1V12h.852V8.784a2.042,2.042,0,0,1,2.124-2.328c.06,0,.132.012.2.012V5.64A2.38,2.38,0,0,0,32.916,6.924Zm4.332-2.616a.612.612,0,0,0,.624-.624.605.605,0,0,0-.624-.588.606.606,0,1,0,0,1.212ZM36.816,12h.852V5.688h-.852ZM44.88,5.688V9a2.052,2.052,0,0,1-2.148,2.292,1.767,1.767,0,0,1-1.9-2.028V5.688h-.852v3.66a2.445,2.445,0,0,0,2.664,2.712,2.511,2.511,0,0,0,2.268-1.212V12h.816V5.688ZM55.992,5.64a2.749,2.749,0,0,0-2.5,1.332A2.267,2.267,0,0,0,51.252,5.64a2.552,2.552,0,0,0-2.316,1.2V5.688H48.12V12h.852V8.688a2.034,2.034,0,0,1,2.112-2.28c1.152,0,1.824.684,1.824,2.016V12h.852V8.688a2.029,2.029,0,0,1,2.112-2.28c1.14,0,1.812.684,1.812,2.016V12h.852V8.34A2.382,2.382,0,0,0,55.992,5.64ZM64,12h.852V3.1H64Zm8.736-3.156a3.008,3.008,0,0,0-3.06-3.2,3.04,3.04,0,0,0-3.084,3.2,3.337,3.337,0,0,0,5.748,2.184l-.48-.552a2.488,2.488,0,0,1-1.932.828,2.336,2.336,0,0,1-2.484-2.2h5.28C72.72,9.012,72.732,8.916,72.732,8.844Zm-3.06-2.472a2.2,2.2,0,0,1,2.244,2.1H67.44A2.192,2.192,0,0,1,69.672,6.372Zm8.016-.732a2.653,2.653,0,0,0-2.4,1.212V5.688h-.816V12h.852V8.688a2.069,2.069,0,0,1,2.208-2.28,1.762,1.762,0,0,1,1.9,2.016V12h.852V8.34A2.416,2.416,0,0,0,77.688,5.64ZM87.528,3.1V6.888a2.757,2.757,0,0,0-2.4-1.248,3.054,3.054,0,0,0-3.144,3.2,3.063,3.063,0,0,0,3.144,3.216,2.734,2.734,0,0,0,2.436-1.308V12h.816V3.1ZM85.2,11.3a2.311,2.311,0,0,1-2.352-2.46,2.349,2.349,0,1,1,4.692,0A2.308,2.308,0,0,1,85.2,11.3Zm5.988-7a.612.612,0,0,0,.624-.624.605.605,0,0,0-.624-.588.606.606,0,1,0,0,1.212ZM90.756,12h.852V5.688h-.852ZM97.2,5.64a2.653,2.653,0,0,0-2.4,1.212V5.688h-.816V12h.852V8.688a2.069,2.069,0,0,1,2.208-2.28,1.762,1.762,0,0,1,1.9,2.016V12h.852V8.34A2.416,2.416,0,0,0,97.2,5.64Zm9.96.048V6.9a2.849,2.849,0,0,0-2.5-1.26A3,3,0,0,0,101.5,8.688a3.02,3.02,0,0,0,3.168,3.072,2.84,2.84,0,0,0,2.46-1.224v.8c0,1.56-.732,2.292-2.328,2.292a3.757,3.757,0,0,1-2.484-.864l-.432.648a4.4,4.4,0,0,0,2.94.972c2.088,0,3.156-.984,3.156-3.156V5.688ZM104.748,11a2.256,2.256,0,0,1-2.388-2.316,2.4,2.4,0,0,1,4.788,0A2.266,2.266,0,0,1,104.748,11ZM115.716,5.64a4.008,4.008,0,0,0-2.568.852l.384.636a3.215,3.215,0,0,1,2.1-.744c1.176,0,1.788.588,1.788,1.668v.384h-2c-1.812,0-2.436.816-2.436,1.788,0,1.092.876,1.836,2.3,1.836a2.37,2.37,0,0,0,2.172-1.044V12h.816V8.088A2.242,2.242,0,0,0,115.716,5.64Zm-.3,5.748c-1.008,0-1.6-.456-1.6-1.188,0-.648.4-1.128,1.62-1.128h1.98V10.1A2.019,2.019,0,0,1,115.416,11.388ZM123.8,5.64a2.653,2.653,0,0,0-2.4,1.212V5.688h-.816V12h.852V8.688a2.069,2.069,0,0,1,2.208-2.28,1.762,1.762,0,0,1,1.9,2.016V12h.852V8.34A2.416,2.416,0,0,0,123.8,5.64Zm9.84-2.544V6.888a2.757,2.757,0,0,0-2.4-1.248,3.054,3.054,0,0,0-3.144,3.2,3.063,3.063,0,0,0,3.144,3.216,2.734,2.734,0,0,0,2.436-1.308V12h.816V3.1ZM131.316,11.3a2.311,2.311,0,0,1-2.352-2.46,2.349,2.349,0,1,1,4.692,0A2.308,2.308,0,0,1,131.316,11.3ZM143.268,5.64a2.757,2.757,0,0,0-2.4,1.248V3.1h-.852V12h.816V10.752a2.734,2.734,0,0,0,2.436,1.308,3.063,3.063,0,0,0,3.144-3.216A3.054,3.054,0,0,0,143.268,5.64Zm-.06,5.664a2.311,2.311,0,0,1-2.352-2.46,2.354,2.354,0,1,1,4.7,0A2.318,2.318,0,0,1,143.208,11.3Zm7.524.756a3.1,3.1,0,0,0,3.2-3.216,3.21,3.21,0,0,0-6.42,0A3.114,3.114,0,0,0,150.732,12.06Zm0-.756a2.311,2.311,0,0,1-2.352-2.46,2.349,2.349,0,1,1,4.692,0A2.3,2.3,0,0,1,150.732,11.3Zm5.76-4.38V5.688h-.816V12h.852V8.784a2.042,2.042,0,0,1,2.124-2.328c.06,0,.132.012.2.012V5.64A2.38,2.38,0,0,0,156.492,6.924Zm4.716,0V5.688h-.816V12h.852V8.784a2.042,2.042,0,0,1,2.124-2.328c.06,0,.132.012.2.012V5.64A2.38,2.38,0,0,0,161.208,6.924Zm6.42,5.136a3.1,3.1,0,0,0,3.2-3.216,3.21,3.21,0,0,0-6.42,0A3.114,3.114,0,0,0,167.628,12.06Zm0-.756a2.311,2.311,0,0,1-2.352-2.46,2.349,2.349,0,1,1,4.692,0A2.3,2.3,0,0,1,167.628,11.3Zm13.248-5.616-2,5.364-2.016-5.364h-.732L174.1,11.052l-1.98-5.364H171.3L173.676,12h.8l1.992-5.172L178.464,12h.8l2.388-6.312Zm2.5-1.38A.612.612,0,0,0,184,3.684a.605.605,0,0,0-.624-.588.606.606,0,1,0,0,1.212ZM182.94,12h.852V5.688h-.852Zm6.444-6.36a2.653,2.653,0,0,0-2.4,1.212V5.688h-.816V12h.852V8.688a2.069,2.069,0,0,1,2.208-2.28,1.762,1.762,0,0,1,1.9,2.016V12h.852V8.34A2.416,2.416,0,0,0,189.384,5.64Zm9.96.048V6.9a2.849,2.849,0,0,0-2.5-1.26,3,3,0,0,0-3.168,3.048,3.02,3.02,0,0,0,3.168,3.072,2.84,2.84,0,0,0,2.46-1.224v.8c0,1.56-.732,2.292-2.328,2.292a3.757,3.757,0,0,1-2.484-.864l-.432.648a4.4,4.4,0,0,0,2.94.972c2.088,0,3.156-.984,3.156-3.156V5.688ZM196.932,11a2.256,2.256,0,0,1-2.388-2.316,2.4,2.4,0,0,1,4.788,0A2.266,2.266,0,0,1,196.932,11ZM208.944,5.64a2.749,2.749,0,0,0-2.436,1.3V5.688h-.816v8.64h.852V10.812a2.757,2.757,0,0,0,2.4,1.248,3.057,3.057,0,0,0,3.144-3.216A3.054,3.054,0,0,0,208.944,5.64Zm-.06,5.664a2.311,2.311,0,0,1-2.352-2.46,2.354,2.354,0,1,1,4.7,0A2.318,2.318,0,0,1,208.884,11.3Zm5.76-4.38V5.688h-.816V12h.852V8.784A2.042,2.042,0,0,1,216.8,6.456c.06,0,.132.012.2.012V5.64A2.38,2.38,0,0,0,214.644,6.924Zm6.42,5.136a3.1,3.1,0,0,0,3.2-3.216,3.21,3.21,0,0,0-6.42,0A3.114,3.114,0,0,0,221.064,12.06Zm0-.756a2.311,2.311,0,0,1-2.352-2.46,2.349,2.349,0,1,1,4.692,0A2.3,2.3,0,0,1,221.064,11.3Zm7.968-.3a1.41,1.41,0,0,1-.936.324A1.011,1.011,0,0,1,227,10.176V6.408h1.92v-.72H227V4.308h-.852v1.38h-1.128v.72h1.128v3.816A1.672,1.672,0,0,0,228,12.06a2.029,2.029,0,0,0,1.332-.444Zm4.2,1.056a3.1,3.1,0,0,0,3.2-3.216,3.21,3.21,0,0,0-6.42,0A3.114,3.114,0,0,0,233.232,12.06Zm0-.756a2.311,2.311,0,0,1-2.352-2.46,2.349,2.349,0,1,1,4.692,0A2.3,2.3,0,0,1,233.232,11.3Zm7.56.756a2.783,2.783,0,0,0,2.472-1.248l-.636-.432a2.135,2.135,0,0,1-1.836.924,2.313,2.313,0,0,1-2.388-2.46,2.319,2.319,0,0,1,2.388-2.46,2.146,2.146,0,0,1,1.836.936l.636-.432a2.757,2.757,0,0,0-2.472-1.248,3.107,3.107,0,0,0-3.252,3.2A3.117,3.117,0,0,0,240.792,12.06Zm6.612,0a3.1,3.1,0,0,0,3.2-3.216,3.21,3.21,0,0,0-6.42,0A3.114,3.114,0,0,0,247.4,12.06Zm0-.756a2.311,2.311,0,0,1-2.352-2.46,2.349,2.349,0,1,1,4.692,0A2.3,2.3,0,0,1,247.4,11.3Zm4.944.7h.852V3.1h-.852ZM2.88,27.06c1.644,0,2.6-.708,2.6-1.8,0-2.424-4.092-1.14-4.092-2.844,0-.6.5-1.044,1.644-1.044a3.235,3.235,0,0,1,1.86.54l.372-.684a4.277,4.277,0,0,0-2.232-.588c-1.608,0-2.5.768-2.5,1.8,0,2.5,4.092,1.2,4.092,2.844,0,.624-.492,1.032-1.692,1.032A3.813,3.813,0,0,1,.7,25.608l-.384.672A4.217,4.217,0,0,0,2.88,27.06Zm6.756,0a3.21,3.21,0,0,0,0-6.42,3.21,3.21,0,1,0,0,6.42Zm0-.756a2.311,2.311,0,0,1-2.352-2.46,2.349,2.349,0,1,1,4.692,0A2.3,2.3,0,0,1,9.636,26.3Zm4.944.7h.852V18.1H14.58Zm8.064-6.312V24A2.052,2.052,0,0,1,20.5,26.292a1.767,1.767,0,0,1-1.9-2.028V20.688h-.852v3.66a2.445,2.445,0,0,0,2.664,2.712,2.511,2.511,0,0,0,2.268-1.212V27H23.5V20.688ZM28.908,26a1.41,1.41,0,0,1-.936.324,1.011,1.011,0,0,1-1.092-1.152V21.408H28.8v-.72H26.88v-1.38h-.852v1.38H24.9v.72h1.128v3.816a1.672,1.672,0,0,0,1.848,1.836,2.029,2.029,0,0,0,1.332-.444Zm2.28-6.7a.612.612,0,0,0,.624-.624.605.605,0,0,0-.624-.588.606.606,0,1,0,0,1.212ZM30.756,27h.852V20.688h-.852Zm5.808.06a3.21,3.21,0,1,0-3.216-3.216A3.1,3.1,0,0,0,36.564,27.06Zm0-.756a2.311,2.311,0,0,1-2.352-2.46,2.349,2.349,0,1,1,4.692,0A2.3,2.3,0,0,1,36.564,26.3Zm8.16-5.664a2.653,2.653,0,0,0-2.4,1.212V20.688h-.816V27h.852V23.688a2.069,2.069,0,0,1,2.208-2.28,1.762,1.762,0,0,1,1.9,2.016V27h.852V23.34A2.416,2.416,0,0,0,44.724,20.64Zm10.632,6.42a3.21,3.21,0,1,0-3.216-3.216A3.1,3.1,0,0,0,55.356,27.06Zm0-.756A2.311,2.311,0,0,1,53,23.844a2.349,2.349,0,1,1,4.692,0A2.3,2.3,0,0,1,55.356,26.3Zm8.16-5.664a2.653,2.653,0,0,0-2.4,1.212V20.688H60.3V27h.852V23.688a2.069,2.069,0,0,1,2.208-2.28,1.762,1.762,0,0,1,1.9,2.016V27h.852V23.34A2.416,2.416,0,0,0,63.516,20.64ZM71.568,27h.852V18.1h-.852ZM77,20.64a4.008,4.008,0,0,0-2.568.852l.384.636a3.215,3.215,0,0,1,2.1-.744c1.176,0,1.788.588,1.788,1.668v.384h-2c-1.812,0-2.436.816-2.436,1.788,0,1.092.876,1.836,2.3,1.836a2.37,2.37,0,0,0,2.172-1.044V27h.816V23.088A2.242,2.242,0,0,0,77,20.64Zm-.3,5.748c-1.008,0-1.6-.456-1.6-1.188,0-.648.4-1.128,1.62-1.128h1.98V25.1A2.019,2.019,0,0,1,76.7,26.388Zm9.516-5.7-2.376,5.364-2.376-5.364H80.58l2.82,6.3-.276.612c-.36.792-.744,1.056-1.308,1.056a1.576,1.576,0,0,1-1.152-.48l-.4.636a2.16,2.16,0,0,0,1.536.576c.9,0,1.572-.4,2.1-1.632l3.156-7.068Zm7.368,3.156a3.008,3.008,0,0,0-3.06-3.2,3.04,3.04,0,0,0-3.084,3.2,3.337,3.337,0,0,0,5.748,2.184l-.48-.552a2.488,2.488,0,0,1-1.932.828,2.336,2.336,0,0,1-2.484-2.2h5.28C93.576,24.012,93.588,23.916,93.588,23.844Zm-3.06-2.472a2.2,2.2,0,0,1,2.244,2.1H88.3A2.192,2.192,0,0,1,90.528,21.372Zm5.616.552V20.688h-.816V27h.852V23.784A2.042,2.042,0,0,1,98.3,21.456c.06,0,.132.012.2.012V20.64A2.38,2.38,0,0,0,96.144,21.924ZM102.2,18.6v.768h1.98V27h.864V18.6Z" transform="translate(70 2035.728)"/>
    <path id="Path_5142" data-name="Path 5142" class="cls-2" d="M3.684,12.072c2.148,0,3.132-1.056,3.132-2.292,0-3.06-5.172-1.668-5.172-3.972,0-.84.684-1.524,2.22-1.524a4.325,4.325,0,0,1,2.3.7l.3-.708a4.742,4.742,0,0,0-2.6-.744c-2.136,0-3.1,1.068-3.1,2.3,0,3.108,5.172,1.692,5.172,4,0,.828-.684,1.488-2.256,1.488A4.125,4.125,0,0,1,.912,10.3l-.348.684A4.555,4.555,0,0,0,3.684,12.072ZM11.82,5.64a2.749,2.749,0,0,0-2.436,1.3V5.688H8.568v8.64H9.42V10.812a2.757,2.757,0,0,0,2.4,1.248,3.057,3.057,0,0,0,3.144-3.216A3.054,3.054,0,0,0,11.82,5.64ZM11.76,11.3a2.311,2.311,0,0,1-2.352-2.46,2.354,2.354,0,1,1,4.7,0A2.318,2.318,0,0,1,11.76,11.3ZM19.92,5.64a2.667,2.667,0,0,0-2.364,1.152V3.1H16.7V12h.852V8.688a2.069,2.069,0,0,1,2.208-2.28,1.762,1.762,0,0,1,1.9,2.016V12h.852V8.34A2.416,2.416,0,0,0,19.92,5.64Zm10.44,3.2a3.008,3.008,0,0,0-3.06-3.2,3.04,3.04,0,0,0-3.084,3.2,3.126,3.126,0,0,0,3.312,3.216,3.107,3.107,0,0,0,2.436-1.032l-.48-.552a2.488,2.488,0,0,1-1.932.828,2.336,2.336,0,0,1-2.484-2.2h5.28C30.348,9.012,30.36,8.916,30.36,8.844ZM27.3,6.372a2.2,2.2,0,0,1,2.244,2.1H25.068A2.192,2.192,0,0,1,27.3,6.372Zm5.616.552V5.688H32.1V12h.852V8.784a2.042,2.042,0,0,1,2.124-2.328c.06,0,.132.012.2.012V5.64A2.38,2.38,0,0,0,32.916,6.924Zm9.348,1.92a3.008,3.008,0,0,0-3.06-3.2,3.04,3.04,0,0,0-3.084,3.2,3.337,3.337,0,0,0,5.748,2.184l-.48-.552a2.488,2.488,0,0,1-1.932.828,2.336,2.336,0,0,1-2.484-2.2h5.28C42.252,9.012,42.264,8.916,42.264,8.844ZM39.2,6.372a2.2,2.2,0,0,1,2.244,2.1H36.972A2.192,2.192,0,0,1,39.2,6.372Zm7.3,5.7c2.148,0,3.132-1.056,3.132-2.292,0-3.06-5.172-1.668-5.172-3.972,0-.84.684-1.524,2.22-1.524a4.325,4.325,0,0,1,2.3.7l.3-.708a4.742,4.742,0,0,0-2.6-.744c-2.136,0-3.1,1.068-3.1,2.3,0,3.108,5.172,1.692,5.172,4,0,.828-.684,1.488-2.256,1.488a4.125,4.125,0,0,1-2.772-1.02l-.348.684A4.555,4.555,0,0,0,46.5,12.072ZM59.748,5.688l-2,5.364L55.728,5.688H55l-2.028,5.364-1.98-5.364h-.816L52.548,12h.8l1.992-5.172L57.336,12h.8l2.388-6.312Zm4.08-.048a4.008,4.008,0,0,0-2.568.852l.384.636a3.215,3.215,0,0,1,2.1-.744c1.176,0,1.788.588,1.788,1.668v.384h-2c-1.812,0-2.436.816-2.436,1.788,0,1.092.876,1.836,2.3,1.836a2.37,2.37,0,0,0,2.172-1.044V12h.816V8.088A2.242,2.242,0,0,0,63.828,5.64Zm-.3,5.748c-1.008,0-1.6-.456-1.6-1.188,0-.648.4-1.128,1.62-1.128h1.98V10.1A2.019,2.019,0,0,1,63.528,11.388ZM71.952,5.64a2.749,2.749,0,0,0-2.436,1.3V5.688H68.7v8.64h.852V10.812a2.757,2.757,0,0,0,2.4,1.248A3.057,3.057,0,0,0,75.1,8.844,3.054,3.054,0,0,0,71.952,5.64Zm-.06,5.664a2.311,2.311,0,0,1-2.352-2.46,2.354,2.354,0,1,1,4.7,0A2.318,2.318,0,0,1,71.892,11.3Zm8.088.7h.852V3.1H79.98Zm5.436-6.36a4.008,4.008,0,0,0-2.568.852l.384.636a3.215,3.215,0,0,1,2.1-.744c1.176,0,1.788.588,1.788,1.668v.384h-2c-1.812,0-2.436.816-2.436,1.788,0,1.092.876,1.836,2.3,1.836a2.37,2.37,0,0,0,2.172-1.044V12h.816V8.088A2.242,2.242,0,0,0,85.416,5.64Zm-.3,5.748c-1.008,0-1.6-.456-1.6-1.188,0-.648.4-1.128,1.62-1.128h1.98V10.1A2.019,2.019,0,0,1,85.116,11.388Zm9.516-5.7-2.376,5.364L89.88,5.688h-.888l2.82,6.3-.276.612c-.36.792-.744,1.056-1.308,1.056a1.576,1.576,0,0,1-1.152-.48l-.4.636a2.16,2.16,0,0,0,1.536.576c.9,0,1.572-.4,2.1-1.632l3.156-7.068ZM102,8.844a3.008,3.008,0,0,0-3.06-3.2,3.04,3.04,0,0,0-3.084,3.2,3.337,3.337,0,0,0,5.748,2.184l-.48-.552a2.488,2.488,0,0,1-1.932.828,2.336,2.336,0,0,1-2.484-2.2h5.28C101.988,9.012,102,8.916,102,8.844ZM98.94,6.372a2.2,2.2,0,0,1,2.244,2.1H96.708A2.192,2.192,0,0,1,98.94,6.372Zm5.616.552V5.688h-.816V12h.852V8.784a2.042,2.042,0,0,1,2.124-2.328c.06,0,.132.012.2.012V5.64A2.38,2.38,0,0,0,104.556,6.924Zm6.06-3.324v.768h1.98V12h.864V3.6Zm10.248,8.46c1.644,0,2.6-.708,2.6-1.8,0-2.424-4.092-1.14-4.092-2.844,0-.6.5-1.044,1.644-1.044a3.235,3.235,0,0,1,1.86.54l.372-.684a4.277,4.277,0,0,0-2.232-.588c-1.608,0-2.5.768-2.5,1.8,0,2.5,4.092,1.2,4.092,2.844,0,.624-.492,1.032-1.692,1.032a3.813,3.813,0,0,1-2.244-.708l-.384.672A4.217,4.217,0,0,0,120.864,12.06Zm6.756,0a3.1,3.1,0,0,0,3.2-3.216,3.21,3.21,0,0,0-6.42,0A3.114,3.114,0,0,0,127.62,12.06Zm0-.756a2.311,2.311,0,0,1-2.352-2.46,2.349,2.349,0,1,1,4.692,0A2.3,2.3,0,0,1,127.62,11.3Zm4.944.7h.852V3.1h-.852Zm8.064-6.312V9a2.052,2.052,0,0,1-2.148,2.292,1.767,1.767,0,0,1-1.9-2.028V5.688h-.852v3.66A2.445,2.445,0,0,0,138.4,12.06a2.511,2.511,0,0,0,2.268-1.212V12h.816V5.688ZM146.892,11a1.41,1.41,0,0,1-.936.324,1.011,1.011,0,0,1-1.092-1.152V6.408h1.92v-.72h-1.92V4.308h-.852v1.38h-1.128v.72h1.128v3.816a1.672,1.672,0,0,0,1.848,1.836,2.029,2.029,0,0,0,1.332-.444Zm2.28-6.7a.612.612,0,0,0,.624-.624.605.605,0,0,0-.624-.588.606.606,0,1,0,0,1.212ZM148.74,12h.852V5.688h-.852Zm5.808.06a3.1,3.1,0,0,0,3.2-3.216,3.21,3.21,0,0,0-6.42,0A3.114,3.114,0,0,0,154.548,12.06Zm0-.756a2.311,2.311,0,0,1-2.352-2.46,2.349,2.349,0,1,1,4.692,0A2.3,2.3,0,0,1,154.548,11.3Zm8.16-5.664a2.653,2.653,0,0,0-2.4,1.212V5.688h-.816V12h.852V8.688a2.069,2.069,0,0,1,2.208-2.28,1.762,1.762,0,0,1,1.9,2.016V12h.852V8.34A2.416,2.416,0,0,0,162.708,5.64Z" transform="translate(70 1750)"/>
    <path id="Path_5148" data-name="Path 5148" class="cls-2" d="M3.684,12.072c2.148,0,3.132-1.056,3.132-2.292,0-3.06-5.172-1.668-5.172-3.972,0-.84.684-1.524,2.22-1.524a4.325,4.325,0,0,1,2.3.7l.3-.708a4.742,4.742,0,0,0-2.6-.744c-2.136,0-3.1,1.068-3.1,2.3,0,3.108,5.172,1.692,5.172,4,0,.828-.684,1.488-2.256,1.488A4.125,4.125,0,0,1,.912,10.3l-.348.684A4.555,4.555,0,0,0,3.684,12.072ZM11.82,5.64a2.749,2.749,0,0,0-2.436,1.3V5.688H8.568v8.64H9.42V10.812a2.757,2.757,0,0,0,2.4,1.248,3.057,3.057,0,0,0,3.144-3.216A3.054,3.054,0,0,0,11.82,5.64ZM11.76,11.3a2.311,2.311,0,0,1-2.352-2.46,2.354,2.354,0,1,1,4.7,0A2.318,2.318,0,0,1,11.76,11.3ZM19.92,5.64a2.667,2.667,0,0,0-2.364,1.152V3.1H16.7V12h.852V8.688a2.069,2.069,0,0,1,2.208-2.28,1.762,1.762,0,0,1,1.9,2.016V12h.852V8.34A2.416,2.416,0,0,0,19.92,5.64Zm10.44,3.2a3.008,3.008,0,0,0-3.06-3.2,3.04,3.04,0,0,0-3.084,3.2,3.126,3.126,0,0,0,3.312,3.216,3.107,3.107,0,0,0,2.436-1.032l-.48-.552a2.488,2.488,0,0,1-1.932.828,2.336,2.336,0,0,1-2.484-2.2h5.28C30.348,9.012,30.36,8.916,30.36,8.844ZM27.3,6.372a2.2,2.2,0,0,1,2.244,2.1H25.068A2.192,2.192,0,0,1,27.3,6.372Zm5.616.552V5.688H32.1V12h.852V8.784a2.042,2.042,0,0,1,2.124-2.328c.06,0,.132.012.2.012V5.64A2.38,2.38,0,0,0,32.916,6.924Zm9.348,1.92a3.008,3.008,0,0,0-3.06-3.2,3.04,3.04,0,0,0-3.084,3.2,3.337,3.337,0,0,0,5.748,2.184l-.48-.552a2.488,2.488,0,0,1-1.932.828,2.336,2.336,0,0,1-2.484-2.2h5.28C42.252,9.012,42.264,8.916,42.264,8.844ZM39.2,6.372a2.2,2.2,0,0,1,2.244,2.1H36.972A2.192,2.192,0,0,1,39.2,6.372Zm7.3,5.7c2.148,0,3.132-1.056,3.132-2.292,0-3.06-5.172-1.668-5.172-3.972,0-.84.684-1.524,2.22-1.524a4.325,4.325,0,0,1,2.3.7l.3-.708a4.742,4.742,0,0,0-2.6-.744c-2.136,0-3.1,1.068-3.1,2.3,0,3.108,5.172,1.692,5.172,4,0,.828-.684,1.488-2.256,1.488a4.125,4.125,0,0,1-2.772-1.02l-.348.684A4.555,4.555,0,0,0,46.5,12.072ZM59.748,5.688l-2,5.364L55.728,5.688H55l-2.028,5.364-1.98-5.364h-.816L52.548,12h.8l1.992-5.172L57.336,12h.8l2.388-6.312Zm4.08-.048a4.008,4.008,0,0,0-2.568.852l.384.636a3.215,3.215,0,0,1,2.1-.744c1.176,0,1.788.588,1.788,1.668v.384h-2c-1.812,0-2.436.816-2.436,1.788,0,1.092.876,1.836,2.3,1.836a2.37,2.37,0,0,0,2.172-1.044V12h.816V8.088A2.242,2.242,0,0,0,63.828,5.64Zm-.3,5.748c-1.008,0-1.6-.456-1.6-1.188,0-.648.4-1.128,1.62-1.128h1.98V10.1A2.019,2.019,0,0,1,63.528,11.388ZM71.952,5.64a2.749,2.749,0,0,0-2.436,1.3V5.688H68.7v8.64h.852V10.812a2.757,2.757,0,0,0,2.4,1.248A3.057,3.057,0,0,0,75.1,8.844,3.054,3.054,0,0,0,71.952,5.64Zm-.06,5.664a2.311,2.311,0,0,1-2.352-2.46,2.354,2.354,0,1,1,4.7,0A2.318,2.318,0,0,1,71.892,11.3Zm8.088.7h.852V3.1H79.98Zm5.436-6.36a4.008,4.008,0,0,0-2.568.852l.384.636a3.215,3.215,0,0,1,2.1-.744c1.176,0,1.788.588,1.788,1.668v.384h-2c-1.812,0-2.436.816-2.436,1.788,0,1.092.876,1.836,2.3,1.836a2.37,2.37,0,0,0,2.172-1.044V12h.816V8.088A2.242,2.242,0,0,0,85.416,5.64Zm-.3,5.748c-1.008,0-1.6-.456-1.6-1.188,0-.648.4-1.128,1.62-1.128h1.98V10.1A2.019,2.019,0,0,1,85.116,11.388Zm9.516-5.7-2.376,5.364L89.88,5.688h-.888l2.82,6.3-.276.612c-.36.792-.744,1.056-1.308,1.056a1.576,1.576,0,0,1-1.152-.48l-.4.636a2.16,2.16,0,0,0,1.536.576c.9,0,1.572-.4,2.1-1.632l3.156-7.068ZM102,8.844a3.008,3.008,0,0,0-3.06-3.2,3.04,3.04,0,0,0-3.084,3.2,3.337,3.337,0,0,0,5.748,2.184l-.48-.552a2.488,2.488,0,0,1-1.932.828,2.336,2.336,0,0,1-2.484-2.2h5.28C101.988,9.012,102,8.916,102,8.844ZM98.94,6.372a2.2,2.2,0,0,1,2.244,2.1H96.708A2.192,2.192,0,0,1,98.94,6.372Zm5.616.552V5.688h-.816V12h.852V8.784a2.042,2.042,0,0,1,2.124-2.328c.06,0,.132.012.2.012V5.64A2.38,2.38,0,0,0,104.556,6.924Zm7.692,4.308L115.1,8.424a3.456,3.456,0,0,0,1.38-2.628c0-1.4-1.08-2.268-2.784-2.268a3.774,3.774,0,0,0-2.976,1.2l.612.528a2.852,2.852,0,0,1,2.292-.936c1.284,0,1.968.6,1.968,1.572,0,.576-.18,1.14-1.128,2.076l-3.492,3.42V12h5.892v-.768Zm11.1.828c1.644,0,2.6-.708,2.6-1.8,0-2.424-4.092-1.14-4.092-2.844,0-.6.5-1.044,1.644-1.044a3.235,3.235,0,0,1,1.86.54l.372-.684A4.277,4.277,0,0,0,123.5,5.64c-1.608,0-2.5.768-2.5,1.8,0,2.5,4.092,1.2,4.092,2.844,0,.624-.492,1.032-1.692,1.032a3.813,3.813,0,0,1-2.244-.708l-.384.672A4.217,4.217,0,0,0,123.348,12.06Zm6.756,0a3.1,3.1,0,0,0,3.2-3.216,3.21,3.21,0,0,0-6.42,0A3.114,3.114,0,0,0,130.1,12.06Zm0-.756a2.311,2.311,0,0,1-2.352-2.46,2.349,2.349,0,1,1,4.692,0A2.3,2.3,0,0,1,130.1,11.3Zm4.944.7h.852V3.1h-.852Zm8.064-6.312V9a2.052,2.052,0,0,1-2.148,2.292,1.767,1.767,0,0,1-1.9-2.028V5.688h-.852v3.66a2.445,2.445,0,0,0,2.664,2.712,2.511,2.511,0,0,0,2.268-1.212V12h.816V5.688ZM149.376,11a1.41,1.41,0,0,1-.936.324,1.011,1.011,0,0,1-1.092-1.152V6.408h1.92v-.72h-1.92V4.308H146.5v1.38h-1.128v.72H146.5v3.816a1.672,1.672,0,0,0,1.848,1.836,2.029,2.029,0,0,0,1.332-.444Zm2.28-6.7a.612.612,0,0,0,.624-.624.605.605,0,0,0-.624-.588.606.606,0,1,0,0,1.212ZM151.224,12h.852V5.688h-.852Zm5.808.06a3.1,3.1,0,0,0,3.2-3.216,3.21,3.21,0,0,0-6.42,0A3.114,3.114,0,0,0,157.032,12.06Zm0-.756a2.311,2.311,0,0,1-2.352-2.46,2.349,2.349,0,1,1,4.692,0A2.3,2.3,0,0,1,157.032,11.3Zm8.16-5.664a2.653,2.653,0,0,0-2.4,1.212V5.688h-.816V12h.852V8.688a2.069,2.069,0,0,1,2.208-2.28,1.762,1.762,0,0,1,1.9,2.016V12h.852V8.34A2.416,2.416,0,0,0,165.192,5.64Z" transform="translate(70 1945)"/>
    <path id="Path_5154" data-name="Path 5154" class="cls-2" d="M3.684,12.072c2.148,0,3.132-1.056,3.132-2.292,0-3.06-5.172-1.668-5.172-3.972,0-.84.684-1.524,2.22-1.524a4.325,4.325,0,0,1,2.3.7l.3-.708a4.742,4.742,0,0,0-2.6-.744c-2.136,0-3.1,1.068-3.1,2.3,0,3.108,5.172,1.692,5.172,4,0,.828-.684,1.488-2.256,1.488A4.125,4.125,0,0,1,.912,10.3l-.348.684A4.555,4.555,0,0,0,3.684,12.072ZM11.82,5.64a2.749,2.749,0,0,0-2.436,1.3V5.688H8.568v8.64H9.42V10.812a2.757,2.757,0,0,0,2.4,1.248,3.057,3.057,0,0,0,3.144-3.216A3.054,3.054,0,0,0,11.82,5.64ZM11.76,11.3a2.311,2.311,0,0,1-2.352-2.46,2.354,2.354,0,1,1,4.7,0A2.318,2.318,0,0,1,11.76,11.3ZM19.92,5.64a2.667,2.667,0,0,0-2.364,1.152V3.1H16.7V12h.852V8.688a2.069,2.069,0,0,1,2.208-2.28,1.762,1.762,0,0,1,1.9,2.016V12h.852V8.34A2.416,2.416,0,0,0,19.92,5.64Zm10.44,3.2a3.008,3.008,0,0,0-3.06-3.2,3.04,3.04,0,0,0-3.084,3.2,3.126,3.126,0,0,0,3.312,3.216,3.107,3.107,0,0,0,2.436-1.032l-.48-.552a2.488,2.488,0,0,1-1.932.828,2.336,2.336,0,0,1-2.484-2.2h5.28C30.348,9.012,30.36,8.916,30.36,8.844ZM27.3,6.372a2.2,2.2,0,0,1,2.244,2.1H25.068A2.192,2.192,0,0,1,27.3,6.372Zm5.616.552V5.688H32.1V12h.852V8.784a2.042,2.042,0,0,1,2.124-2.328c.06,0,.132.012.2.012V5.64A2.38,2.38,0,0,0,32.916,6.924Zm4.332-2.616a.612.612,0,0,0,.624-.624.605.605,0,0,0-.624-.588.606.606,0,1,0,0,1.212ZM36.816,12h.852V5.688h-.852ZM44.88,5.688V9a2.052,2.052,0,0,1-2.148,2.292,1.767,1.767,0,0,1-1.9-2.028V5.688h-.852v3.66a2.445,2.445,0,0,0,2.664,2.712,2.511,2.511,0,0,0,2.268-1.212V12h.816V5.688ZM55.992,5.64a2.749,2.749,0,0,0-2.5,1.332A2.267,2.267,0,0,0,51.252,5.64a2.552,2.552,0,0,0-2.316,1.2V5.688H48.12V12h.852V8.688a2.034,2.034,0,0,1,2.112-2.28c1.152,0,1.824.684,1.824,2.016V12h.852V8.688a2.029,2.029,0,0,1,2.112-2.28c1.14,0,1.812.684,1.812,2.016V12h.852V8.34A2.382,2.382,0,0,0,55.992,5.64ZM64,12h.852V3.1H64Zm5.436-6.36a4.008,4.008,0,0,0-2.568.852l.384.636a3.215,3.215,0,0,1,2.1-.744c1.176,0,1.788.588,1.788,1.668v.384h-2c-1.812,0-2.436.816-2.436,1.788,0,1.092.876,1.836,2.3,1.836a2.37,2.37,0,0,0,2.172-1.044V12h.816V8.088A2.242,2.242,0,0,0,69.432,5.64Zm-.3,5.748c-1.008,0-1.6-.456-1.6-1.188,0-.648.4-1.128,1.62-1.128h1.98V10.1A2.019,2.019,0,0,1,69.132,11.388Zm9.516-5.7-2.376,5.364L73.9,5.688h-.888l2.82,6.3-.276.612c-.36.792-.744,1.056-1.308,1.056a1.576,1.576,0,0,1-1.152-.48l-.4.636a2.16,2.16,0,0,0,1.536.576c.9,0,1.572-.4,2.1-1.632l3.156-7.068Zm7.368,3.156a3.008,3.008,0,0,0-3.06-3.2,3.04,3.04,0,0,0-3.084,3.2,3.337,3.337,0,0,0,5.748,2.184l-.48-.552a2.488,2.488,0,0,1-1.932.828,2.336,2.336,0,0,1-2.484-2.2H86C86,9.012,86.016,8.916,86.016,8.844Zm-3.06-2.472a2.2,2.2,0,0,1,2.244,2.1H80.724A2.192,2.192,0,0,1,82.956,6.372Zm5.616.552V5.688h-.816V12h.852V8.784a2.042,2.042,0,0,1,2.124-2.328c.06,0,.132.012.2.012V5.64A2.38,2.38,0,0,0,88.572,6.924Zm7.692,4.308L99.12,8.424A3.456,3.456,0,0,0,100.5,5.8c0-1.4-1.08-2.268-2.784-2.268a3.774,3.774,0,0,0-2.976,1.2l.612.528a2.852,2.852,0,0,1,2.292-.936c1.284,0,1.968.6,1.968,1.572,0,.576-.18,1.14-1.128,2.076l-3.492,3.42V12h5.892v-.768Zm11.1.828c1.644,0,2.6-.708,2.6-1.8,0-2.424-4.092-1.14-4.092-2.844,0-.6.5-1.044,1.644-1.044a3.235,3.235,0,0,1,1.86.54l.372-.684a4.277,4.277,0,0,0-2.232-.588c-1.608,0-2.5.768-2.5,1.8,0,2.5,4.092,1.2,4.092,2.844,0,.624-.492,1.032-1.692,1.032a3.813,3.813,0,0,1-2.244-.708l-.384.672A4.217,4.217,0,0,0,107.364,12.06Zm6.756,0a3.1,3.1,0,0,0,3.2-3.216,3.21,3.21,0,0,0-6.42,0A3.114,3.114,0,0,0,114.12,12.06Zm0-.756a2.311,2.311,0,0,1-2.352-2.46,2.349,2.349,0,1,1,4.692,0A2.3,2.3,0,0,1,114.12,11.3Zm4.944.7h.852V3.1h-.852Zm8.064-6.312V9a2.052,2.052,0,0,1-2.148,2.292,1.767,1.767,0,0,1-1.9-2.028V5.688h-.852v3.66A2.445,2.445,0,0,0,124.9,12.06a2.511,2.511,0,0,0,2.268-1.212V12h.816V5.688ZM133.392,11a1.41,1.41,0,0,1-.936.324,1.011,1.011,0,0,1-1.092-1.152V6.408h1.92v-.72h-1.92V4.308h-.852v1.38h-1.128v.72h1.128v3.816a1.672,1.672,0,0,0,1.848,1.836,2.029,2.029,0,0,0,1.332-.444Zm2.28-6.7a.612.612,0,0,0,.624-.624.605.605,0,0,0-.624-.588.606.606,0,1,0,0,1.212ZM135.24,12h.852V5.688h-.852Zm5.808.06a3.1,3.1,0,0,0,3.2-3.216,3.21,3.21,0,0,0-6.42,0A3.114,3.114,0,0,0,141.048,12.06Zm0-.756a2.311,2.311,0,0,1-2.352-2.46,2.349,2.349,0,1,1,4.692,0A2.3,2.3,0,0,1,141.048,11.3Zm8.16-5.664a2.653,2.653,0,0,0-2.4,1.212V5.688h-.816V12h.852V8.688a2.069,2.069,0,0,1,2.208-2.28,1.762,1.762,0,0,1,1.9,2.016V12h.852V8.34A2.416,2.416,0,0,0,149.208,5.64Zm10.14-1.884a1.443,1.443,0,0,1,.936.312l.288-.636a2,2,0,0,0-1.26-.4A1.738,1.738,0,0,0,157.4,4.908v.78h-1.128v.72H157.4V12h.852V6.408h1.92v-.72h-1.944V4.944C158.232,4.164,158.616,3.756,159.348,3.756Zm4.452,8.3A3.1,3.1,0,0,0,167,8.844a3.21,3.21,0,0,0-6.42,0A3.114,3.114,0,0,0,163.8,12.06Zm0-.756a2.311,2.311,0,0,1-2.352-2.46,2.349,2.349,0,1,1,4.692,0A2.3,2.3,0,0,1,163.8,11.3Zm5.76-4.38V5.688h-.816V12h.852V8.784a2.042,2.042,0,0,1,2.124-2.328c.06,0,.132.012.2.012V5.64A2.38,2.38,0,0,0,169.56,6.924ZM176.7,12h.852V3.1H176.7Zm8.736-3.156a3.008,3.008,0,0,0-3.06-3.2,3.04,3.04,0,0,0-3.084,3.2,3.337,3.337,0,0,0,5.748,2.184l-.48-.552a2.488,2.488,0,0,1-1.932.828,2.336,2.336,0,0,1-2.484-2.2h5.28C185.424,9.012,185.436,8.916,185.436,8.844Zm-3.06-2.472a2.2,2.2,0,0,1,2.244,2.1h-4.476A2.192,2.192,0,0,1,182.376,6.372Zm8.016-.732a2.653,2.653,0,0,0-2.4,1.212V5.688h-.816V12h.852V8.688a2.069,2.069,0,0,1,2.208-2.28,1.762,1.762,0,0,1,1.9,2.016V12h.852V8.34A2.416,2.416,0,0,0,190.392,5.64Zm9.84-2.544V6.888a2.757,2.757,0,0,0-2.4-1.248,3.054,3.054,0,0,0-3.144,3.2,3.063,3.063,0,0,0,3.144,3.216,2.734,2.734,0,0,0,2.436-1.308V12h.816V3.1ZM197.9,11.3a2.311,2.311,0,0,1-2.352-2.46,2.349,2.349,0,1,1,4.692,0A2.308,2.308,0,0,1,197.9,11.3Zm5.988-7a.612.612,0,0,0,.624-.624.605.605,0,0,0-.624-.588.606.606,0,1,0,0,1.212ZM203.46,12h.852V5.688h-.852ZM209.9,5.64a2.653,2.653,0,0,0-2.4,1.212V5.688h-.816V12h.852V8.688a2.069,2.069,0,0,1,2.208-2.28,1.762,1.762,0,0,1,1.9,2.016V12h.852V8.34A2.416,2.416,0,0,0,209.9,5.64Zm9.96.048V6.9a2.849,2.849,0,0,0-2.5-1.26A3,3,0,0,0,214.2,8.688a3.02,3.02,0,0,0,3.168,3.072,2.84,2.84,0,0,0,2.46-1.224v.8c0,1.56-.732,2.292-2.328,2.292a3.757,3.757,0,0,1-2.484-.864l-.432.648a4.4,4.4,0,0,0,2.94.972c2.088,0,3.156-.984,3.156-3.156V5.688ZM217.452,11a2.256,2.256,0,0,1-2.388-2.316,2.4,2.4,0,0,1,4.788,0A2.266,2.266,0,0,1,217.452,11ZM228.42,5.64a4.008,4.008,0,0,0-2.568.852l.384.636a3.215,3.215,0,0,1,2.1-.744c1.176,0,1.788.588,1.788,1.668v.384h-2c-1.812,0-2.436.816-2.436,1.788,0,1.092.876,1.836,2.3,1.836a2.37,2.37,0,0,0,2.172-1.044V12h.816V8.088A2.242,2.242,0,0,0,228.42,5.64Zm-.3,5.748c-1.008,0-1.6-.456-1.6-1.188,0-.648.4-1.128,1.62-1.128h1.98V10.1A2.019,2.019,0,0,1,228.12,11.388Zm8.388-5.748a2.653,2.653,0,0,0-2.4,1.212V5.688h-.816V12h.852V8.688a2.069,2.069,0,0,1,2.208-2.28,1.762,1.762,0,0,1,1.9,2.016V12h.852V8.34A2.416,2.416,0,0,0,236.508,5.64Zm9.84-2.544V6.888a2.757,2.757,0,0,0-2.4-1.248,3.054,3.054,0,0,0-3.144,3.2,3.063,3.063,0,0,0,3.144,3.216,2.734,2.734,0,0,0,2.436-1.308V12h.816V3.1ZM244.02,11.3a2.311,2.311,0,0,1-2.352-2.46,2.349,2.349,0,1,1,4.692,0A2.308,2.308,0,0,1,244.02,11.3ZM4.44,20.64a2.757,2.757,0,0,0-2.4,1.248V18.1H1.188V27H2V25.752A2.734,2.734,0,0,0,4.44,27.06a3.063,3.063,0,0,0,3.144-3.216A3.054,3.054,0,0,0,4.44,20.64ZM4.38,26.3a2.311,2.311,0,0,1-2.352-2.46,2.311,2.311,0,0,1,2.352-2.46,2.318,2.318,0,0,1,2.352,2.46A2.318,2.318,0,0,1,4.38,26.3Zm7.524.756a3.21,3.21,0,0,0,0-6.42,3.21,3.21,0,1,0,0,6.42Zm0-.756a2.311,2.311,0,0,1-2.352-2.46,2.349,2.349,0,1,1,4.692,0A2.3,2.3,0,0,1,11.9,26.3Zm5.76-4.38V20.688h-.816V27H17.7V23.784a2.042,2.042,0,0,1,2.124-2.328c.06,0,.132.012.2.012V20.64A2.38,2.38,0,0,0,17.664,21.924Zm4.716,0V20.688h-.816V27h.852V23.784a2.042,2.042,0,0,1,2.124-2.328c.06,0,.132.012.2.012V20.64A2.38,2.38,0,0,0,22.38,21.924ZM28.8,27.06a3.21,3.21,0,1,0-3.216-3.216A3.1,3.1,0,0,0,28.8,27.06Zm0-.756a2.311,2.311,0,0,1-2.352-2.46,2.349,2.349,0,1,1,4.692,0A2.3,2.3,0,0,1,28.8,26.3Zm13.248-5.616-2,5.364-2.016-5.364H37.3l-2.028,5.364-1.98-5.364h-.816L34.848,27h.8l1.992-5.172L39.636,27h.8l2.388-6.312Zm2.5-1.38a.612.612,0,0,0,.624-.624.605.605,0,0,0-.624-.588.606.606,0,1,0,0,1.212ZM44.112,27h.852V20.688h-.852Zm6.444-6.36a2.653,2.653,0,0,0-2.4,1.212V20.688H47.34V27h.852V23.688a2.069,2.069,0,0,1,2.208-2.28,1.762,1.762,0,0,1,1.9,2.016V27h.852V23.34A2.416,2.416,0,0,0,50.556,20.64Zm9.96.048V21.9a2.849,2.849,0,0,0-2.5-1.26,3.062,3.062,0,1,0,0,6.12,2.84,2.84,0,0,0,2.46-1.224v.8c0,1.56-.732,2.292-2.328,2.292a3.757,3.757,0,0,1-2.484-.864l-.432.648a4.4,4.4,0,0,0,2.94.972c2.088,0,3.156-.984,3.156-3.156V20.688ZM58.1,26a2.312,2.312,0,1,1,2.4-2.316A2.256,2.256,0,0,1,58.1,26Z" transform="translate(70 2141)"/>
    <line id="Line_3" data-name="Line 3" class="cls-3" y2="490" transform="translate(48.5 1647.5)"/>
    <g id="Group_912" data-name="Group 912">
      <g id="Rectangle_57" data-name="Rectangle 57" class="cls-4" transform="translate(49 1657.728) rotate(-135)">
        <path class="cls-6" d="M9,0H9a9,9,0,0,1,9,9V9a9,9,0,0,1-9,9H0a0,0,0,0,1,0,0V9A9,9,0,0,1,9,0Z"/>
        <path class="cls-7" d="M9-1.5H9A10.5,10.5,0,0,1,19.5,9V9A10.5,10.5,0,0,1,9,19.5H0A1.5,1.5,0,0,1-1.5,18V9A10.5,10.5,0,0,1,9-1.5Z"/>
      </g>
      <g id="Rectangle_61" data-name="Rectangle 61" class="cls-4" transform="translate(49 1838.728) rotate(-135)">
        <path class="cls-6" d="M9,0H9a9,9,0,0,1,9,9V9a9,9,0,0,1-9,9H0a0,0,0,0,1,0,0V9A9,9,0,0,1,9,0Z"/>
        <path class="cls-7" d="M9-1.5H9A10.5,10.5,0,0,1,19.5,9V9A10.5,10.5,0,0,1,9,19.5H0A1.5,1.5,0,0,1-1.5,18V9A10.5,10.5,0,0,1,9-1.5Z"/>
      </g>
      <g id="Rectangle_63" data-name="Rectangle 63" class="cls-4" transform="translate(49 2034.456) rotate(-135)">
        <path class="cls-6" d="M9,0H9a9,9,0,0,1,9,9V9a9,9,0,0,1-9,9H0a0,0,0,0,1,0,0V9A9,9,0,0,1,9,0Z"/>
        <path class="cls-7" d="M9-1.5H9A10.5,10.5,0,0,1,19.5,9V9A10.5,10.5,0,0,1,9,19.5H0A1.5,1.5,0,0,1-1.5,18V9A10.5,10.5,0,0,1,9-1.5Z"/>
      </g>
      <g id="Rectangle_60" data-name="Rectangle 60" class="cls-4" transform="translate(49 1748.728) rotate(-135)">
        <path class="cls-6" d="M9,0H9a9,9,0,0,1,9,9V9a9,9,0,0,1-9,9H0a0,0,0,0,1,0,0V9A9,9,0,0,1,9,0Z"/>
        <path class="cls-7" d="M9-1.5H9A10.5,10.5,0,0,1,19.5,9V9A10.5,10.5,0,0,1,9,19.5H0A1.5,1.5,0,0,1-1.5,18V9A10.5,10.5,0,0,1,9-1.5Z"/>
      </g>
      <g id="Rectangle_62" data-name="Rectangle 62" class="cls-4" transform="translate(49 1945.728) rotate(-135)">
        <path class="cls-6" d="M9,0H9a9,9,0,0,1,9,9V9a9,9,0,0,1-9,9H0a0,0,0,0,1,0,0V9A9,9,0,0,1,9,0Z"/>
        <path class="cls-7" d="M9-1.5H9A10.5,10.5,0,0,1,19.5,9V9A10.5,10.5,0,0,1,9,19.5H0A1.5,1.5,0,0,1-1.5,18V9A10.5,10.5,0,0,1,9-1.5Z"/>
      </g>
      <g id="Rectangle_64" data-name="Rectangle 64" class="cls-4" transform="translate(49 2139.728) rotate(-135)">
        <path class="cls-6" d="M9,0H9a9,9,0,0,1,9,9V9a9,9,0,0,1-9,9H0a0,0,0,0,1,0,0V9A9,9,0,0,1,9,0Z"/>
        <path class="cls-7" d="M9-1.5H9A10.5,10.5,0,0,1,19.5,9V9A10.5,10.5,0,0,1,9,19.5H0A1.5,1.5,0,0,1-1.5,18V9A10.5,10.5,0,0,1,9-1.5Z"/>
      </g>
      <rect id="Rectangle_82" data-name="Rectangle 82" class="cls-5" width="8" height="8" rx="4" transform="translate(49 1650.657) rotate(-135)"/>
      <rect id="Rectangle_83" data-name="Rectangle 83" class="cls-5" width="8" height="8" rx="4" transform="translate(49 1741.657) rotate(-135)"/>
      <rect id="Rectangle_84" data-name="Rectangle 84" class="cls-5" width="8" height="8" rx="4" transform="translate(49 1831.657) rotate(-135)"/>
      <rect id="Rectangle_85" data-name="Rectangle 85" class="cls-5" width="8" height="8" rx="4" transform="translate(49 1938.657) rotate(-135)"/>
      <rect id="Rectangle_86" data-name="Rectangle 86" class="cls-5" width="8" height="8" rx="4" transform="translate(49 2027.657) rotate(-135)"/>
      <rect id="Rectangle_87" data-name="Rectangle 87" class="cls-5" width="8" height="8" rx="4" transform="translate(49 2132.657) rotate(-135)"/>
    </g>
  </g>
</svg>
