<svg xmlns="http://www.w3.org/2000/svg" width="142.691" height="87.055" viewBox="0 0 142.691 87.055">
    <defs>
        <clipPath id="clip-path">
            <path id="Path_1612" d="M14.931-307.586L.409-314.147v-17.466l14.522 6.561v17.465" class="cls-1" transform="translate(-.409 331.613)"/>
        </clipPath>
        <clipPath id="clip-path-2">
            <path id="Path_1611" fill="none" d="M-231-291.077H-1.1V-475H-231z" transform="translate(231 475)"/>
        </clipPath>
        <clipPath id="clip-path-3">
            <path id="Path_1615" d="M63.575-307.586l14.525-6.561v-17.466l-14.522 6.561v17.465" class="cls-1" transform="translate(-63.575 331.613)"/>
        </clipPath>
        <clipPath id="clip-path-5">
            <path id="Path_1618" d="M.409-351.568l14.522 6.561 14.522-6.561-14.522-5.957-14.522 5.957" class="cls-1" transform="translate(-.409 357.525)"/>
        </clipPath>
        <clipPath id="clip-path-7">
            <path id="Path_1621" d="M527.114-337.131l-12.2-5.513v-14.676l12.2 5.514v14.676" class="cls-1" transform="translate(-514.912 357.32)"/>
        </clipPath>
        <clipPath id="clip-path-9">
            <path id="Path_1624" d="M567.988-337.131l12.2-5.513v-14.676l-12.2 5.514v14.676" class="cls-1" transform="translate(-567.988 357.32)"/>
        </clipPath>
        <clipPath id="clip-path-11">
            <path id="Path_1627" d="M514.912-374.087l12.2 5.514 12.2-5.514-12.2-5.006-12.2 5.006" class="cls-1" transform="translate(-514.912 379.093)"/>
        </clipPath>
        <clipPath id="clip-path-13">
            <path id="Path_1630" d="M96.5-279.236l-2-.905.3-.666 2 .905zm3.332 1.509l-2-.905.3-.666 2 .905zm3.332 1.509l-2-.905.3-.666 2 .905zm3.332 1.509l-2-.905.3-.666 2 .905zm3.332 1.509l-2-.905.3-.666 2 .905zm3.332 1.509l-2-.905.3-.666 2 .905zm3.332 1.509l-2-.905.3-.667 2 .905zm3.332 1.509l-2-.905.3-.666 2 .905zm3.332 1.509l-2-.905.3-.666 2 .905zm3.332 1.509l-2-.905.3-.666 2 .905zm3.044 1.378l-1.711-.775.3-.667 1.711.775-.3.666z" class="cls-1" transform="translate(-94.501 280.808)"/>
        </clipPath>
        <clipPath id="clip-path-15">
            <path id="Path_1633" d="M309.457-313.065l-.27-.68 2.04-.81.27.68zm-3.4 1.351l-.27-.68 2.039-.81.27.68zm-3.4 1.35l-.27-.68 2.039-.81.27.68zm-3.4 1.351l-.27-.68 2.039-.81.27.68zm-3.4 1.35l-.27-.68 2.04-.81.27.68zm-3.4 1.35l-.27-.68 2.039-.81.27.68zm-3.4 1.351l-.27-.68 2.039-.81.27.68zm-3.4 1.35l-.27-.68 2.039-.81.27.68zm-3.4 1.351l-.27-.68 2.04-.81.27.68zm-3.4 1.35l-.27-.68 2.039-.81.27.68zm-3.4 1.35l-.27-.68 2.039-.81.27.68zm-3.4 1.351l-.27-.68 2.04-.81.27.68zm-3.4 1.35l-.27-.68 2.039-.81.27.68zm-3.4 1.35l-.27-.68 2.039-.81.27.68zm-3.4 1.351l-.27-.68 2.04-.81.27.68zm-3.4 1.35l-.27-.68 2.039-.81.27.68zm-3.4 1.351l-.27-.68 2.039-.81.27.68zm-3.4 1.351l-.27-.68 2.039-.81.27.68zm-3.4 1.35l-.27-.68 2.04-.81.27.68zm-3.4 1.35l-.27-.68 2.039-.81.27.68zm-1.422.565l-.27-.68.062-.025.27.68-.062.025z" class="cls-1" transform="translate(-243.181 314.555)"/>
        </clipPath>
        <clipPath id="clip-path-17">
            <path id="Path_1636" d="M214.7-243.571l-24.74-11.178V-284.5l24.74 11.178v29.755" class="cls-1" transform="translate(-189.963 284.504)"/>
        </clipPath>
        <clipPath id="clip-path-19">
            <path id="Path_1639" d="M297.573-243.571l24.74-11.178V-284.5l-24.74 11.178v29.755" class="cls-1" transform="translate(-297.573 284.504)"/>
        </clipPath>
        <clipPath id="clip-path-21">
            <path id="Path_1642" d="M189.963-318.5l24.74 11.178 24.74-11.178-24.743-10.149-24.737 10.149" class="cls-1" transform="translate(-189.963 328.649)"/>
        </clipPath>
        <clipPath id="clip-path-23">
            <path id="Path_1645" d="M352.731-195.369l-2-.9.3-.668 2 .9zm3.338 1.495l-2-.9.3-.668 2 .9zm3.338 1.495l-2-.9.3-.668 2 .9zm3.338 1.495l-2-.9.3-.668 2 .9zm3.338 1.495l-2-.9.3-.668 2 .9zm3.338 1.495l-2-.9.3-.668 2 .9zm3.338 1.495l-2-.9.3-.668 2 .9zm3.338 1.495l-2-.9.3-.668 2 .9zm3.338 1.495l-2-.9.3-.668 2 .9-.3.668z" class="cls-1" transform="translate(-350.728 196.934)"/>
        </clipPath>
        <clipPath id="clip-path-25">
            <path id="Path_1648" d="M173.613-195.008l-.4-.614 1.841-1.194.4.614zm-3.069 1.99l-.4-.614 1.841-1.194.4.614zm-3.069 1.99l-.4-.614 1.841-1.194.4.614zm-3.069 1.99l-.4-.614 1.841-1.194.4.614zm-3.069 1.99l-.4-.614 1.841-1.194.4.614zm-3.069 1.99l-.4-.614 1.842-1.194.4.614zm-3.069 1.99l-.4-.614 1.842-1.194.4.614-1.841 1.194z" class="cls-1" transform="translate(-154.802 196.816)"/>
        </clipPath>
        <clipPath id="clip-path-27">
            <path id="Path_1651" d="M63.063-94.2l-16.919-7.645V-122.2l16.919 7.645V-94.2" class="cls-1" transform="translate(-46.144 122.195)"/>
        </clipPath>
        <clipPath id="clip-path-29">
            <path id="Path_1654" d="M119.737-94.2l16.919-7.645V-122.2l-16.919 7.645V-94.2" class="cls-1" transform="translate(-119.737 122.195)"/>
        </clipPath>
        <clipPath id="clip-path-31">
            <path id="Path_1657" d="M46.144-145.445l16.919 7.645 16.92-7.645-16.92-6.941-16.919 6.941" class="cls-1" transform="translate(-46.144 152.386)"/>
        </clipPath>
        <clipPath id="clip-path-33">
            <path id="Path_1660" d="M460.058-170.807l-16.919-7.645V-198.8l16.919 7.645v20.349" class="cls-1" transform="translate(-443.139 198.8)"/>
        </clipPath>
        <clipPath id="clip-path-35">
            <path id="Path_1663" d="M516.731-170.807l16.919-7.645V-198.8l-16.919 7.645v20.349" class="cls-1" transform="translate(-516.731 198.8)"/>
        </clipPath>
        <clipPath id="clip-path-37">
            <path id="Path_1666" d="M443.139-222.05l16.919 7.645 16.919-7.645-16.919-6.941-16.919 6.941" class="cls-1" transform="translate(-443.139 228.991)"/>
        </clipPath>
        <style>
            .cls-1{fill:none;clip-rule:evenodd}.cls-5{clip-path:url(#clip-path-2)}.cls-6{fill:#373e8b}.cls-8{fill:#33397e}.cls-10{fill:#3e4891}.cls-12{fill:#5d66d2}.cls-14{fill:#464eba}.cls-16{fill:#707cdb}.cls-18{fill:#d56f85}
        </style>
    </defs>
    <g id="Group_1200" opacity="0.661" transform="translate(-.409 379.093)">
        <g id="Group_1163" clip-path="url(#clip-path)" transform="translate(.409 -368.177)">
            <g id="Group_1162" class="cls-5" transform="translate(-53.202 -32.965)">
                <path id="Path_1610" d="M-4.591-336.613H12.23v26.326H-4.591z" class="cls-6" transform="translate(56.643 368.429)"/>
            </g>
        </g>
        <g id="Group_1165" clip-path="url(#clip-path-3)" transform="translate(14.931 -368.177)">
            <g id="Group_1164" class="cls-5" transform="translate(-67.724 -32.965)">
                <path id="Path_1613" d="M58.575-336.613H75.4v26.326H58.575z" class="cls-8" transform="translate(7.999 368.429)"/>
            </g>
        </g>
        <g id="Group_1167" clip-path="url(#clip-path-5)" transform="translate(.409 -374.134)">
            <g id="Group_1166" class="cls-5" transform="translate(-53.202 -27.008)">
                <path id="Path_1616" d="M-4.591-362.525h31.343v14.818H-4.591z" class="cls-10" transform="translate(56.643 388.383)"/>
            </g>
        </g>
        <g id="Group_1169" clip-path="url(#clip-path-7)" transform="translate(118.695 -374.087)">
            <g id="Group_1168" class="cls-5" transform="translate(-171.488 -27.055)">
                <path id="Path_1619" d="M509.912-362.32h14.5v22.488h-14.5z" class="cls-12" transform="translate(-339.574 388.225)"/>
            </g>
        </g>
        <g id="Group_1171" clip-path="url(#clip-path-9)" transform="translate(130.897 -374.087)">
            <g id="Group_1170" class="cls-5" transform="translate(-183.69 -27.055)">
                <path id="Path_1622" d="M562.988-362.32h14.5v22.488h-14.5z" class="cls-14" transform="translate(-380.448 388.225)"/>
            </g>
        </g>
        <g id="Group_1173" clip-path="url(#clip-path-11)" transform="translate(118.695 -379.093)">
            <g id="Group_1172" class="cls-5" transform="translate(-171.488 -22.049)">
                <path id="Path_1625" d="M509.912-384.093h26.7v12.818h-26.7z" class="cls-16" transform="translate(-339.574 404.993)"/>
            </g>
        </g>
        <g id="Group_1175" clip-path="url(#clip-path-13)" transform="translate(22.041 -356.497)">
            <g id="Group_1174" class="cls-5" transform="translate(-74.834 -44.645)">
                <path id="Path_1628" d="M89.5-285.808h37.631v18.83H89.5z" class="cls-18" transform="translate(-15.817 329.304)"/>
            </g>
        </g>
        <g id="Group_1177" clip-path="url(#clip-path-15)" transform="translate(56.223 -364.255)">
            <g id="Group_1176" class="cls-5" transform="translate(-109.016 -36.887)">
                <path id="Path_1631" d="M238.181-319.555H308.8v30.014h-70.619z" class="cls-18" transform="translate(-130.315 355.292)"/>
            </g>
        </g>
        <g id="Group_1179" clip-path="url(#clip-path-17)" transform="translate(43.988 -357.347)">
            <g id="Group_1178" class="cls-5" transform="translate(-96.781 -43.796)">
                <path id="Path_1634" d="M184.963-289.5H212v43.232h-27.037z" class="cls-12" transform="translate(-89.332 332.15)"/>
            </g>
        </g>
        <g id="Group_1181" clip-path="url(#clip-path-19)" transform="translate(68.728 -357.347)">
            <g id="Group_1180" class="cls-5" transform="translate(-121.521 -43.796)">
                <path id="Path_1637" d="M292.573-289.5h27.039v43.232h-27.039z" class="cls-14" transform="translate(-172.202 332.15)"/>
            </g>
        </g>
        <g id="Group_1183" clip-path="url(#clip-path-21)" transform="translate(43.988 -367.496)">
            <g id="Group_1182" class="cls-5" transform="translate(-96.781 -33.647)">
                <path id="Path_1640" d="M184.963-333.649h51.779v23.626h-51.779z" class="cls-16" transform="translate(-89.332 366.146)"/>
            </g>
        </g>
        <g id="Group_1185" clip-path="url(#clip-path-23)" transform="translate(80.948 -337.214)">
            <g id="Group_1184" class="cls-5" transform="translate(-133.741 -63.928)">
                <path id="Path_1643" d="M345.728-201.934h31.307v15.822h-31.307z" class="cls-18" transform="translate(-213.136 264.713)"/>
            </g>
        </g>
        <g id="Group_1187" clip-path="url(#clip-path-25)" transform="translate(35.904 -337.187)">
            <g id="Group_1186" class="cls-5" transform="translate(-88.697 -63.955)">
                <path id="Path_1646" d="M149.8-201.816h22.952v16.047H149.8z" class="cls-18" transform="translate(-62.254 264.622)"/>
            </g>
        </g>
        <g id="Group_1189" clip-path="url(#clip-path-27)" transform="translate(10.924 -320.031)">
            <g id="Group_1188" class="cls-5" transform="translate(-63.716 -81.111)">
                <path id="Path_1649" d="M41.144-127.195h19.218V-96.9H41.144z" class="cls-12" transform="translate(21.423 207.156)"/>
            </g>
        </g>
        <g id="Group_1191" clip-path="url(#clip-path-29)" transform="translate(27.843 -320.031)">
            <g id="Group_1190" class="cls-5" transform="translate(-80.636 -81.111)">
                <path id="Path_1652" d="M114.737-127.195h19.219V-96.9h-19.219z" class="cls-14" transform="translate(-35.251 207.156)"/>
            </g>
        </g>
        <g id="Group_1193" clip-path="url(#clip-path-31)" transform="translate(10.924 -326.972)">
            <g id="Group_1192" class="cls-5" transform="translate(-63.716 -74.17)">
                <path id="Path_1655" d="M41.144-157.386h36.138v16.886H41.144z" class="cls-16" transform="translate(21.423 230.406)"/>
            </g>
        </g>
        <g id="Group_1195" clip-path="url(#clip-path-33)" transform="translate(102.194 -337.643)">
            <g id="Group_1194" class="cls-5" transform="translate(-154.987 -63.499)">
                <path id="Path_1658" d="M438.139-203.8h19.218v30.293h-19.218z" class="cls-6" transform="translate(-284.302 266.15)"/>
            </g>
        </g>
        <g id="Group_1197" clip-path="url(#clip-path-35)" transform="translate(119.113 -337.643)">
            <g id="Group_1196" class="cls-5" transform="translate(-171.906 -63.499)">
                <path id="Path_1661" d="M511.731-203.8h19.219v30.293h-19.219z" class="cls-8" transform="translate(-340.975 266.15)"/>
            </g>
        </g>
        <g id="Group_1199" clip-path="url(#clip-path-37)" transform="translate(102.194 -344.584)">
            <g id="Group_1198" class="cls-5" transform="translate(-154.987 -56.558)">
                <path id="Path_1664" d="M438.139-233.991h36.138v16.885h-36.138z" class="cls-10" transform="translate(-284.302 289.4)"/>
            </g>
        </g>
    </g>
</svg>
