<svg xmlns="http://www.w3.org/2000/svg" viewBox="0 0 1129.47 501.44"><defs><style>.cls-1{fill:#7fffee;}.cls-2{fill:#6affb9;}.cls-3{fill:#c2c2c2;}.cls-21,.cls-4{fill:none;}.cls-22,.cls-23,.cls-4{stroke:#000;}.cls-21,.cls-22,.cls-23,.cls-4{stroke-miterlimit:10;}.cls-4{stroke-width:2px;}.cls-5{font-size:26px;}.cls-11,.cls-5{font-family:Calibri;}.cls-6{letter-spacing:-0.01em;}.cls-7{letter-spacing:-0.01em;}.cls-8{letter-spacing:-0.01em;}.cls-9{letter-spacing:-0.04em;}.cls-10{font-size:22px;}.cls-10,.cls-15{font-family:Calibri-Light, Calibri;font-weight:300;}.cls-11{font-size:17px;}.cls-12{letter-spacing:-0.02em;}.cls-13{letter-spacing:0em;}.cls-14{letter-spacing:-0.01em;}.cls-15{font-size:19px;}.cls-16{letter-spacing:-0.01em;}.cls-17{letter-spacing:-0.04em;}.cls-18{letter-spacing:-0.03em;}.cls-19{letter-spacing:-0.02em;}.cls-20{letter-spacing:-0.02em;}.cls-21{stroke:aqua;stroke-width:3px;}.cls-22{stroke-width:0.5px;}.cls-23{stroke-width:0.25px;}</style></defs><title>TIMELOCK</title><g id="Layer_1" data-name="Layer 1"><rect class="cls-1" x="89.75" y="266.53" width="107.23" height="49.99" rx="24.99"/><rect class="cls-1" x="544.89" y="263.6" width="107.23" height="49.99" rx="24.99"/><rect class="cls-1" x="744.85" y="265.89" width="107.23" height="49.99" rx="24.99"/><rect class="cls-2" x="944.94" y="215.01" width="107.23" height="49.99" rx="24.99"/><rect class="cls-3" x="951.07" y="334.62" width="107.23" height="49.99" rx="24.99"/><rect class="cls-1" x="259.02" y="262.03" width="219.83" height="61.26" rx="26.57"/></g><g id="Layer_4" data-name="Layer 4"><polyline class="cls-4" points="196.98 291.52 259.02 291.52 248.99 281.49"/><polyline class="cls-4" points="482.52 289.24 544.56 289.24 534.53 279.21"/><polyline class="cls-4" points="652.12 288.6 744.85 288.6 732.09 275.84"/><polyline class="cls-4" points="852.09 290.88 852.09 290.88 917.24 290.88 917.24 240 944.94 240 933.64 228.7"/></g><g id="Layer_3" data-name="Layer 3"><text class="cls-5" transform="translate(96.56 51.41)">Chan<tspan class="cls-6" x="53.64" y="0">g</tspan><tspan x="65.66" y="0">e</tspan></text><text class="cls-5" transform="translate(308.43 56.48)">Initi<tspan class="cls-7" x="40.66" y="0">a</tspan><tspan class="cls-8" x="52.88" y="0">t</tspan><tspan x="61.31" y="0">e</tspan></text><text class="cls-5" transform="translate(558.05 56.2)"><tspan class="cls-9">V</tspan><tspan x="13.66" y="0">o</tspan><tspan class="cls-8" x="27.37" y="0">t</tspan><tspan x="35.8" y="0">e</tspan></text><text class="cls-5" transform="translate(748.96 54.77)">Timelock</text><text class="cls-10" transform="translate(128.3 299.14)">SIP</text><text class="cls-11" transform="translate(44.06 390.67)">(Spherium imp<tspan class="cls-12" x="101.88" y="0">r</tspan><tspan class="cls-13" x="107.54" y="0">o</tspan><tspan class="cls-14" x="116.43" y="0">v</tspan><tspan x="123.94" y="0">eme</tspan><tspan class="cls-7" x="154.44" y="0">n</tspan><tspan x="163.21" y="0">t</tspan></text><text class="cls-11" transform="translate(92.99 419.02)">p<tspan class="cls-12" x="8.93" y="0">r</tspan><tspan x="14.58" y="0">oposal)</tspan></text><text class="cls-15" transform="translate(281.91 291.38)">Spherium Community</text><text class="cls-15" transform="translate(330.86 309.14)"><tspan class="cls-16">F</tspan><tspan x="8.46" y="0">orum</tspan></text><text class="cls-10" transform="translate(564.5 290.49)"><tspan class="cls-17">V</tspan><tspan x="11.33" y="0">oting</tspan></text><text class="cls-10" transform="translate(757.38 294.71)"><tspan class="cls-18">W</tspan><tspan x="18.63" y="0">aiting</tspan></text><text class="cls-10" transform="translate(959.57 245.72)">Applied</text><text class="cls-10" transform="translate(959.57 365.34)"><tspan class="cls-19">R</tspan><tspan x="11.28" y="0">ejec</tspan><tspan class="cls-14" x="47.44" y="0">t</tspan><tspan x="54.45" y="0">ed</tspan></text><polyline class="cls-4" points="917.24 290.88 917.24 359.62 951.07 359.62 937.41 373.28"/><text class="cls-11" transform="translate(559.55 82.74)">(4 D<tspan class="cls-20" x="28.07" y="0">a</tspan><tspan class="cls-7" x="35.9" y="0">y</tspan><tspan x="43.44" y="0">s)</tspan></text><text class="cls-11" transform="translate(773.14 82.74)">(2 D<tspan class="cls-20" x="28.07" y="0">a</tspan><tspan class="cls-7" x="35.9" y="0">y</tspan><tspan x="43.44" y="0">s)</tspan></text><path d="M41,35.85" transform="translate(-31.33 -21.02)"/><rect class="cls-21" x="1.5" y="1.56" width="1126.47" height="498.38" rx="72.51"/><line class="cls-22" x1="1.5" y1="111.86" x2="1127.97" y2="111.86"/><line class="cls-23" x1="226.82" y1="1.56" x2="226.82" y2="499.94"/><line class="cls-23" x1="511.87" y1="1.56" x2="511.87" y2="499.94"/><line class="cls-23" x1="707.2" x2="707.2" y2="498.38"/><line class="cls-23" x1="889.51" x2="889.51" y2="498.38"/></g></svg>