<svg width="150" height="150" viewBox="0 0 150 150" fill="none" xmlns="http://www.w3.org/2000/svg">
<g clip-path="url(#clip0)">
<path d="M74.9999 145.3C113.826 145.3 145.3 113.826 145.3 74.9999C145.3 36.1743 113.826 4.69995 74.9999 4.69995C36.1743 4.69995 4.69995 36.1743 4.69995 74.9999C4.69995 113.826 36.1743 145.3 74.9999 145.3Z" stroke="url(#paint0_linear)" stroke-width="5.654" stroke-miterlimit="10" stroke-linecap="round" stroke-linejoin="round"/>
<path d="M99.0474 141.055C126.548 131.046 138.077 93.3558 124.799 56.8714C111.521 20.387 78.4627 -1.07585 50.9622 8.93284C23.4618 18.9415 11.9325 56.6317 25.2108 93.1161C38.4892 129.601 71.547 151.063 99.0474 141.055Z" stroke="url(#paint1_linear)" stroke-width="5.654" stroke-miterlimit="10" stroke-linecap="round" stroke-linejoin="round"/>
<path d="M120.195 128.827C133.836 117.38 124.661 83.9916 99.7044 54.2512C74.7473 24.5107 43.4579 9.68059 29.8175 21.1271C16.1772 32.5736 25.3512 65.9622 50.3083 95.7026C75.2654 125.443 106.555 140.273 120.195 128.827Z" stroke="url(#paint2_linear)" stroke-width="5.654" stroke-miterlimit="10" stroke-linecap="round" stroke-linejoin="round"/>
<path d="M108.961 108.564C123.232 113.454 133.407 114.379 135.918 110.15C140.278 102.486 116.757 80.5499 83.0606 61.1249C49.3642 41.7 18.5749 32.1857 14.0821 39.85C9.72136 47.5142 33.2428 69.4499 66.9392 88.8749C72.8856 92.3107 78.8321 95.4821 84.5142 98.2571" stroke="url(#paint3_linear)" stroke-width="5.654" stroke-linecap="round" stroke-linejoin="round"/>
<path d="M80.8143 105.129C84.7786 106.979 89.4036 105.393 91.3857 101.561C93.2357 97.5964 91.65 92.9714 87.8178 90.9893C83.8535 89.1393 79.2285 90.725 77.2464 94.5571C75.2643 98.5214 76.85 103.146 80.8143 105.129Z" fill="url(#paint4_linear)"/>
</g>
<defs>
<linearGradient id="paint0_linear" x1="0.999951" y1="74.9784" x2="148.957" y2="74.9784" gradientUnits="userSpaceOnUse">
<stop stop-color="#87F2E7"/>
<stop offset="1" stop-color="#2E37F2"/>
</linearGradient>
<linearGradient id="paint1_linear" x1="31.498" y1="111.461" x2="118.456" y2="38.5008" gradientUnits="userSpaceOnUse">
<stop stop-color="#87F2E7"/>
<stop offset="1" stop-color="#2E37F2"/>
</linearGradient>
<linearGradient id="paint2_linear" x1="68.7373" y1="110.371" x2="81.2146" y2="39.5772" gradientUnits="userSpaceOnUse">
<stop stop-color="#87F2E7"/>
<stop offset="1" stop-color="#2E37F2"/>
</linearGradient>
<linearGradient id="paint3_linear" x1="65.1004" y1="92.0875" x2="84.8563" y2="57.8692" gradientUnits="userSpaceOnUse">
<stop stop-color="#87F2E7"/>
<stop offset="1" stop-color="#2E37F2"/>
</linearGradient>
<linearGradient id="paint4_linear" x1="81.9931" y1="101.841" x2="101.749" y2="67.6222" gradientUnits="userSpaceOnUse">
<stop stop-color="#87F2E7"/>
<stop offset="1" stop-color="#2E37F2"/>
</linearGradient>
<clipPath id="clip0">
<rect width="148" height="148" fill="white" transform="translate(1 1)"/>
</clipPath>
</defs>
</svg>
