<svg width="288" height="110" viewBox="0 0 288 110" fill="none" xmlns="http://www.w3.org/2000/svg">
<path d="M137.759 84.2539V75.0523H143.94V76.6205H139.547V78.9922H143.202V80.4437H139.547V84.2539H137.759ZM145.032 76.5168V74.7931H146.769V76.5168H145.032ZM145.032 84.2539V77.4629H146.769V84.2539H145.032ZM154.647 84.2539H152.91V80.4437C152.91 79.8994 152.815 79.5019 152.625 79.2514C152.435 79.0008 152.171 78.8755 151.834 78.8755C151.601 78.8755 151.364 78.936 151.122 79.057C150.888 79.1779 150.677 79.3464 150.487 79.5624C150.297 79.7698 150.158 80.0117 150.072 80.2882V84.2539H148.335V77.4629H149.903V78.72C150.154 78.2966 150.517 77.964 150.992 77.7221C151.467 77.4715 152.003 77.3462 152.599 77.3462C153.022 77.3462 153.368 77.424 153.636 77.5795C153.904 77.7264 154.111 77.9294 154.258 78.1886C154.405 78.4392 154.504 78.7243 154.556 79.044C154.617 79.3637 154.647 79.6877 154.647 80.016V84.2539ZM155.69 82.2451C155.69 81.8045 155.811 81.42 156.053 81.0917C156.304 80.7547 156.649 80.4955 157.09 80.3141C157.531 80.1326 158.036 80.0419 158.606 80.0419C158.891 80.0419 159.181 80.0678 159.475 80.1197C159.768 80.1629 160.023 80.2277 160.239 80.3141V79.9512C160.239 79.5192 160.11 79.1866 159.85 78.9533C159.6 78.72 159.224 78.6034 158.723 78.6034C158.351 78.6034 157.997 78.6682 157.66 78.7978C157.323 78.9274 156.969 79.1174 156.597 79.368L156.04 78.2275C156.489 77.9338 156.947 77.7134 157.414 77.5666C157.889 77.4197 158.386 77.3462 158.904 77.3462C159.872 77.3462 160.624 77.5882 161.159 78.072C161.704 78.5558 161.976 79.247 161.976 80.1456V82.3099C161.976 82.5 162.006 82.6339 162.067 82.7117C162.127 82.7808 162.235 82.824 162.391 82.8413V84.2539C162.235 84.2885 162.092 84.3101 161.963 84.3187C161.842 84.336 161.738 84.3446 161.652 84.3446C161.306 84.3446 161.043 84.2669 160.861 84.1113C160.68 83.9558 160.572 83.7657 160.537 83.5411L160.498 83.1912C160.196 83.58 159.824 83.8781 159.384 84.0854C158.952 84.2841 158.507 84.3835 158.049 84.3835C157.591 84.3835 157.185 84.2928 156.831 84.1113C156.476 83.9213 156.196 83.6664 155.988 83.3467C155.79 83.0184 155.69 82.6512 155.69 82.2451ZM159.915 82.595C160.131 82.3877 160.239 82.189 160.239 81.9989V81.312C159.79 81.1306 159.336 81.0398 158.878 81.0398C158.42 81.0398 158.049 81.1392 157.764 81.3379C157.479 81.528 157.336 81.7829 157.336 82.1026C157.336 82.3618 157.44 82.595 157.647 82.8024C157.855 83.0098 158.153 83.1134 158.541 83.1134C158.801 83.1134 159.051 83.0659 159.293 82.9709C159.544 82.8758 159.751 82.7506 159.915 82.595ZM169.91 84.2539H168.173V80.4437C168.173 79.8994 168.078 79.5019 167.888 79.2514C167.698 79.0008 167.435 78.8755 167.098 78.8755C166.865 78.8755 166.627 78.936 166.385 79.057C166.152 79.1779 165.94 79.3464 165.75 79.5624C165.56 79.7698 165.422 80.0117 165.335 80.2882V84.2539H163.599V77.4629H165.167V78.72C165.417 78.2966 165.78 77.964 166.255 77.7221C166.731 77.4715 167.266 77.3462 167.862 77.3462C168.286 77.3462 168.631 77.424 168.899 77.5795C169.167 77.7264 169.374 77.9294 169.521 78.1886C169.668 78.4392 169.768 78.7243 169.819 79.044C169.88 79.3637 169.91 79.6877 169.91 80.016V84.2539ZM174.582 84.3835C173.848 84.3835 173.213 84.2193 172.677 83.891C172.142 83.5627 171.727 83.1307 171.433 82.595C171.139 82.0594 170.992 81.4805 170.992 80.8584C170.992 80.2277 171.135 79.6445 171.42 79.1088C171.714 78.5731 172.129 78.1454 172.664 77.8258C173.2 77.5061 173.835 77.3462 174.569 77.3462C175.312 77.3462 175.943 77.5061 176.462 77.8258C176.989 78.1454 177.382 78.5645 177.641 79.0829L175.943 79.6013C175.641 79.0829 175.179 78.8237 174.556 78.8237C174.22 78.8237 173.917 78.9101 173.649 79.0829C173.381 79.247 173.17 79.4846 173.014 79.7957C172.859 80.0981 172.781 80.4523 172.781 80.8584C172.781 81.2558 172.859 81.6101 173.014 81.9211C173.178 82.2235 173.394 82.4654 173.662 82.6469C173.93 82.8197 174.228 82.9061 174.556 82.9061C174.868 82.9061 175.153 82.8326 175.412 82.6858C175.68 82.5302 175.865 82.3358 175.969 82.1026L177.667 82.621C177.434 83.1307 177.045 83.5541 176.5 83.891C175.965 84.2193 175.325 84.3835 174.582 84.3835ZM181.821 84.3835C181.087 84.3835 180.452 84.2237 179.916 83.904C179.389 83.5843 178.979 83.1609 178.685 82.6339C178.391 82.0982 178.245 81.5194 178.245 80.8973C178.245 80.2579 178.387 79.6704 178.672 79.1347C178.966 78.5904 179.381 78.1584 179.916 77.8387C180.452 77.5104 181.091 77.3462 181.834 77.3462C182.577 77.3462 183.212 77.5104 183.74 77.8387C184.267 78.1584 184.668 78.5861 184.945 79.1218C185.23 79.6488 185.372 80.219 185.372 80.8325C185.372 81.0571 185.36 81.2515 185.334 81.4157H180.085C180.128 81.9427 180.322 82.3574 180.668 82.6598C181.022 82.9622 181.428 83.1134 181.886 83.1134C182.232 83.1134 182.556 83.0313 182.858 82.8672C183.169 82.6944 183.381 82.4698 183.493 82.1933L184.984 82.608C184.733 83.1264 184.331 83.5541 183.778 83.891C183.225 84.2193 182.573 84.3835 181.821 84.3835ZM180.046 80.3141H183.597C183.545 79.8043 183.351 79.3939 183.014 79.0829C182.685 78.7632 182.284 78.6034 181.808 78.6034C181.342 78.6034 180.94 78.7632 180.603 79.0829C180.275 79.3939 180.089 79.8043 180.046 80.3141ZM196.701 78.9662C196.174 78.9662 195.703 79.0699 195.288 79.2773C194.873 79.476 194.575 79.7654 194.394 80.1456V84.2539H192.657V77.4629H194.251V78.9144C194.485 78.4478 194.787 78.0806 195.159 77.8128C195.539 77.545 195.936 77.3981 196.351 77.3722C196.532 77.3722 196.649 77.3765 196.701 77.3851V78.9662ZM200.73 84.3835C199.995 84.3835 199.36 84.2237 198.825 83.904C198.298 83.5843 197.887 83.1609 197.594 82.6339C197.3 82.0982 197.153 81.5194 197.153 80.8973C197.153 80.2579 197.295 79.6704 197.581 79.1347C197.874 78.5904 198.289 78.1584 198.825 77.8387C199.36 77.5104 200 77.3462 200.743 77.3462C201.486 77.3462 202.121 77.5104 202.648 77.8387C203.175 78.1584 203.577 78.5861 203.853 79.1218C204.138 79.6488 204.281 80.219 204.281 80.8325C204.281 81.0571 204.268 81.2515 204.242 81.4157H198.993C199.036 81.9427 199.231 82.3574 199.576 82.6598C199.931 82.9622 200.337 83.1134 200.795 83.1134C201.14 83.1134 201.464 83.0313 201.767 82.8672C202.078 82.6944 202.289 82.4698 202.402 82.1933L203.892 82.608C203.642 83.1264 203.24 83.5541 202.687 83.891C202.134 84.2193 201.482 84.3835 200.73 84.3835ZM198.954 80.3141H202.505C202.454 79.8043 202.259 79.3939 201.922 79.0829C201.594 78.7632 201.192 78.6034 200.717 78.6034C200.25 78.6034 199.849 78.7632 199.512 79.0829C199.183 79.3939 198.998 79.8043 198.954 80.3141ZM205.431 84.2539V75.0523H208.775C209.777 75.0523 210.615 75.2597 211.289 75.6744C211.963 76.0805 212.469 76.6334 212.806 77.3333C213.143 78.0245 213.311 78.7934 213.311 79.6402C213.311 80.5733 213.125 81.3854 212.754 82.0766C212.382 82.7678 211.855 83.3035 211.173 83.6837C210.49 84.0638 209.691 84.2539 208.775 84.2539H205.431ZM211.51 79.6402C211.51 79.044 211.402 78.5213 211.186 78.072C210.97 77.6141 210.659 77.2598 210.252 77.0093C209.846 76.7501 209.354 76.6205 208.775 76.6205H207.22V82.6858H208.775C209.363 82.6858 209.859 82.5562 210.265 82.297C210.672 82.0291 210.978 81.6662 211.186 81.2083C211.402 80.7418 211.51 80.219 211.51 79.6402ZM217.689 84.3835C216.955 84.3835 216.32 84.2237 215.784 83.904C215.257 83.5843 214.847 83.1609 214.553 82.6339C214.259 82.0982 214.112 81.5194 214.112 80.8973C214.112 80.2579 214.255 79.6704 214.54 79.1347C214.834 78.5904 215.248 78.1584 215.784 77.8387C216.32 77.5104 216.959 77.3462 217.702 77.3462C218.445 77.3462 219.08 77.5104 219.607 77.8387C220.134 78.1584 220.536 78.5861 220.812 79.1218C221.098 79.6488 221.24 80.219 221.24 80.8325C221.24 81.0571 221.227 81.2515 221.201 81.4157H215.953C215.996 81.9427 216.19 82.3574 216.536 82.6598C216.89 82.9622 217.296 83.1134 217.754 83.1134C218.1 83.1134 218.424 83.0313 218.726 82.8672C219.037 82.6944 219.249 82.4698 219.361 82.1933L220.851 82.608C220.601 83.1264 220.199 83.5541 219.646 83.891C219.093 84.2193 218.441 84.3835 217.689 84.3835ZM215.914 80.3141H219.465C219.413 79.8043 219.218 79.3939 218.881 79.0829C218.553 78.7632 218.151 78.6034 217.676 78.6034C217.21 78.6034 216.808 78.7632 216.471 79.0829C216.143 79.3939 215.957 79.8043 215.914 80.3141ZM222.391 84.2539V75.0523H228.573V76.6205H224.179V78.9922H227.834V80.4437H224.179V84.2539H222.391ZM229.664 76.5168V74.7931H231.401V76.5168H229.664ZM229.664 84.2539V77.4629H231.401V84.2539H229.664ZM239.279 84.2539H237.542V80.4437C237.542 79.8994 237.447 79.5019 237.257 79.2514C237.067 79.0008 236.803 78.8755 236.467 78.8755C236.233 78.8755 235.996 78.936 235.754 79.057C235.52 79.1779 235.309 79.3464 235.119 79.5624C234.929 79.7698 234.79 80.0117 234.704 80.2882V84.2539H232.967V77.4629H234.535V78.72C234.786 78.2966 235.149 77.964 235.624 77.7221C236.099 77.4715 236.635 77.3462 237.231 77.3462C237.655 77.3462 238 77.424 238.268 77.5795C238.536 77.7264 238.743 77.9294 238.89 78.1886C239.037 78.4392 239.136 78.7243 239.188 79.044C239.249 79.3637 239.279 79.6877 239.279 80.016V84.2539ZM243.938 84.3835C243.204 84.3835 242.569 84.2237 242.033 83.904C241.506 83.5843 241.096 83.1609 240.802 82.6339C240.508 82.0982 240.361 81.5194 240.361 80.8973C240.361 80.2579 240.504 79.6704 240.789 79.1347C241.083 78.5904 241.497 78.1584 242.033 77.8387C242.569 77.5104 243.208 77.3462 243.951 77.3462C244.694 77.3462 245.329 77.5104 245.856 77.8387C246.383 78.1584 246.785 78.5861 247.061 79.1218C247.347 79.6488 247.489 80.219 247.489 80.8325C247.489 81.0571 247.476 81.2515 247.45 81.4157H242.201C242.245 81.9427 242.439 82.3574 242.785 82.6598C243.139 82.9622 243.545 83.1134 244.003 83.1134C244.349 83.1134 244.673 83.0313 244.975 82.8672C245.286 82.6944 245.498 82.4698 245.61 82.1933L247.1 82.608C246.85 83.1264 246.448 83.5541 245.895 83.891C245.342 84.2193 244.69 84.3835 243.938 84.3835ZM242.163 80.3141H245.714C245.662 79.8043 245.467 79.3939 245.13 79.0829C244.802 78.7632 244.4 78.6034 243.925 78.6034C243.459 78.6034 243.057 78.7632 242.72 79.0829C242.392 79.3939 242.206 79.8043 242.163 80.3141ZM248.132 80.8584C248.132 80.2104 248.262 79.6186 248.521 79.0829C248.78 78.5472 249.139 78.1238 249.597 77.8128C250.055 77.5018 250.578 77.3462 251.165 77.3462C251.666 77.3462 252.115 77.4715 252.513 77.7221C252.919 77.964 253.234 78.275 253.459 78.6552V74.7931H255.196V82.3099C255.196 82.5 255.226 82.6339 255.286 82.7117C255.347 82.7808 255.45 82.824 255.597 82.8413V84.2539C255.286 84.3144 255.04 84.3446 254.859 84.3446C254.548 84.3446 254.288 84.2669 254.081 84.1113C253.882 83.9558 253.77 83.7528 253.744 83.5022L253.718 83.0745C253.468 83.4979 253.126 83.8219 252.694 84.0465C252.271 84.2712 251.826 84.3835 251.359 84.3835C250.729 84.3835 250.171 84.228 249.688 83.9169C249.204 83.5973 248.824 83.1739 248.547 82.6469C248.271 82.1112 248.132 81.515 248.132 80.8584ZM253.459 81.7656V80.1456C253.321 79.7654 253.083 79.4501 252.746 79.1995C252.409 78.949 252.064 78.8237 251.709 78.8237C251.355 78.8237 251.044 78.923 250.776 79.1218C250.508 79.3118 250.301 79.5667 250.154 79.8864C250.007 80.1974 249.934 80.5344 249.934 80.8973C249.934 81.2688 250.016 81.6101 250.18 81.9211C250.344 82.2235 250.565 82.4654 250.841 82.6469C251.126 82.8197 251.45 82.9061 251.813 82.9061C252.141 82.9061 252.465 82.7981 252.785 82.5821C253.113 82.3661 253.338 82.0939 253.459 81.7656Z" fill="#87F2E7"/>
<path d="M151.756 46.7939C151.582 46.5998 151.213 46.3475 150.65 46.0369C150.087 45.707 149.408 45.4158 148.612 45.1635C147.836 44.8917 147.03 44.7559 146.195 44.7559C144.002 44.7559 142.905 45.5323 142.905 47.0851C142.905 47.648 143.08 48.0944 143.429 48.4244C143.779 48.7544 144.303 49.0358 145.002 49.2687C145.7 49.5017 146.574 49.754 147.622 50.0257C148.981 50.3751 150.155 50.7827 151.145 51.2486C152.154 51.7144 152.921 52.3355 153.445 53.1119C153.989 53.8689 154.26 54.8783 154.26 56.1399C154.26 57.6151 153.901 58.8088 153.183 59.7211C152.484 60.6139 151.553 61.2642 150.388 61.6718C149.223 62.0794 147.962 62.2832 146.603 62.2832C145.05 62.2832 143.507 62.0503 141.974 61.5845C140.46 61.0992 139.111 60.4393 137.927 59.6046L139.703 56.1399C139.877 56.3146 140.188 56.5475 140.634 56.8387C141.081 57.1104 141.624 57.3919 142.265 57.683C142.905 57.9548 143.604 58.1877 144.361 58.3818C145.118 58.5759 145.885 58.6729 146.661 58.6729C148.874 58.6729 149.98 57.9645 149.98 56.5475C149.98 55.9458 149.757 55.4606 149.311 55.0918C148.864 54.723 148.233 54.4124 147.418 54.1601C146.622 53.9077 145.691 53.6263 144.623 53.3157C143.303 52.9469 142.207 52.5393 141.333 52.0929C140.479 51.6271 139.839 51.0545 139.412 50.3751C138.985 49.6763 138.771 48.7932 138.771 47.7256C138.771 46.3087 139.101 45.1247 139.761 44.1736C140.44 43.2031 141.353 42.4752 142.498 41.9899C143.643 41.4853 144.914 41.2329 146.312 41.2329C147.748 41.2329 149.087 41.4659 150.33 41.9317C151.572 42.3975 152.64 42.9313 153.532 43.533L151.756 46.7939ZM157.296 62.0503V41.3785H166.06C167.011 41.3785 167.885 41.5726 168.68 41.9608C169.496 42.349 170.194 42.8731 170.777 43.533C171.359 44.193 171.815 44.9306 172.145 45.7458C172.475 46.561 172.64 47.3957 172.64 48.2497C172.64 49.4143 172.368 50.5207 171.825 51.5688C171.281 52.617 170.524 53.471 169.554 54.131C168.603 54.7909 167.487 55.1209 166.206 55.1209H161.314V62.0503H157.296ZM161.314 51.5979H165.973C166.71 51.5979 167.322 51.2971 167.807 50.6954C168.312 50.0743 168.564 49.259 168.564 48.2497C168.564 47.1821 168.283 46.3572 167.72 45.7749C167.157 45.1926 166.516 44.9015 165.798 44.9015H161.314V51.5979ZM192.818 41.3785V62.0503H188.83V53.2284H179.454V62.0503H175.437V41.3785H179.454V49.7346H188.83V41.3785H192.818ZM211.485 58.5274V62.0503H197.131V41.3785H211.223V44.9015H201.149V49.8802H209.854V53.141H201.149V58.5274H211.485ZM214.617 62.0503V41.3785H223.759C224.71 41.3785 225.584 41.5726 226.379 41.9608C227.195 42.349 227.893 42.8731 228.476 43.533C229.077 44.193 229.534 44.9306 229.844 45.7458C230.174 46.561 230.339 47.3957 230.339 48.2497C230.339 49.5696 229.999 50.7827 229.32 51.8891C228.66 52.9955 227.758 53.7913 226.612 54.2765L231.329 62.0503H226.904L222.653 55.1209H218.635V62.0503H214.617ZM218.635 51.5979H223.672C224.429 51.5979 225.05 51.2777 225.535 50.6371C226.04 49.9772 226.292 49.1814 226.292 48.2497C226.292 47.6092 226.156 47.0366 225.885 46.5319C225.613 46.0272 225.263 45.6293 224.836 45.3382C224.429 45.047 223.982 44.9015 223.497 44.9015H218.635V51.5979ZM233.98 62.0503V41.3785H237.998V62.0503H233.98ZM251.074 62.1959C249.424 62.1959 248.017 61.9241 246.852 61.3806C245.707 60.8178 244.776 60.0511 244.057 59.0805C243.359 58.11 242.844 57.0134 242.514 55.7905C242.184 54.5483 242.019 53.2575 242.019 51.9182V41.3785H246.037V51.9182C246.037 53.0634 246.192 54.1504 246.503 55.1791C246.814 56.2078 247.338 57.0425 248.075 57.683C248.813 58.3236 249.803 58.6438 251.045 58.6438C252.326 58.6438 253.335 58.3236 254.073 57.683C254.811 57.0231 255.335 56.1787 255.645 55.15C255.956 54.1213 256.111 53.044 256.111 51.9182V41.3785H260.1V51.9182C260.1 53.3352 259.925 54.6647 259.576 55.907C259.246 57.1492 258.712 58.2459 257.974 59.197C257.256 60.1287 256.325 60.8663 255.179 61.4098C254.034 61.9338 252.666 62.1959 251.074 62.1959ZM281.005 62.0503V48.4826L275.706 58.5856H273.464L268.165 48.4826V62.0503H264.147V41.3785H268.456L274.57 53.141L280.743 41.3785H285.022V62.0503H281.005Z" fill="black"/>
<path d="M247.311 28.3151H246.516V27.1401H247.311V26.7715C247.311 26.326 247.407 25.919 247.599 25.5503C247.798 25.1817 248.079 24.886 248.44 24.6633C248.808 24.4406 249.25 24.3292 249.764 24.3292C250.202 24.3292 250.601 24.4022 250.962 24.5481C251.331 24.6863 251.677 24.863 251.999 25.078L251.389 26.23C251.189 26.0534 250.955 25.9113 250.686 25.8038C250.417 25.6963 250.145 25.6425 249.868 25.6425C249.522 25.6425 249.265 25.75 249.096 25.9651C248.935 26.1801 248.854 26.4297 248.854 26.7139V27.1401H252.091V32.854H250.548V28.3151H248.854V32.854H247.311V28.3151ZM259.1 32.854H257.556V29.4671C257.556 28.9833 257.472 28.63 257.303 28.4073C257.134 28.1846 256.899 28.0732 256.6 28.0732C256.392 28.0732 256.181 28.127 255.966 28.2345C255.759 28.342 255.571 28.4918 255.402 28.6838C255.233 28.8681 255.11 29.0831 255.033 29.3289V32.854H253.489V26.8175H254.883V27.935C255.106 27.5587 255.429 27.263 255.851 27.0479C256.273 26.8252 256.75 26.7139 257.28 26.7139C257.656 26.7139 257.963 26.783 258.201 26.9212C258.439 27.0518 258.624 27.2323 258.754 27.4627C258.885 27.6854 258.973 27.9388 259.019 28.223C259.073 28.5071 259.1 28.7951 259.1 29.087V32.854ZM260.027 31.0684C260.027 30.6767 260.135 30.335 260.35 30.0431C260.572 29.7436 260.88 29.5132 261.271 29.3519C261.663 29.1907 262.112 29.11 262.619 29.11C262.873 29.11 263.13 29.1331 263.391 29.1791C263.652 29.2175 263.879 29.2751 264.071 29.3519V29.0294C264.071 28.6454 263.956 28.3497 263.725 28.1423C263.502 27.935 263.168 27.8313 262.723 27.8313C262.393 27.8313 262.078 27.8889 261.778 28.0041C261.479 28.1193 261.164 28.2883 260.834 28.511L260.338 27.4972C260.738 27.2361 261.145 27.0403 261.559 26.9097C261.982 26.7791 262.423 26.7139 262.884 26.7139C263.744 26.7139 264.412 26.9289 264.889 27.359C265.372 27.7891 265.614 28.4035 265.614 29.2022V31.126C265.614 31.295 265.641 31.414 265.695 31.4831C265.749 31.5446 265.845 31.583 265.983 31.5983V32.854C265.845 32.8847 265.718 32.9039 265.603 32.9116C265.495 32.927 265.403 32.9346 265.326 32.9346C265.019 32.9346 264.785 32.8655 264.624 32.7273C264.462 32.589 264.366 32.4201 264.336 32.2204L264.301 31.9094C264.032 32.255 263.702 32.5199 263.31 32.7042C262.926 32.8809 262.531 32.9692 262.124 32.9692C261.717 32.9692 261.356 32.8886 261.041 32.7273C260.726 32.5583 260.476 32.3318 260.292 32.0476C260.116 31.7558 260.027 31.4294 260.027 31.0684ZM263.783 31.3794C263.975 31.1951 264.071 31.0185 264.071 30.8495V30.239C263.671 30.0777 263.268 29.9971 262.861 29.9971C262.454 29.9971 262.124 30.0854 261.87 30.262C261.617 30.431 261.49 30.6575 261.49 30.9417C261.49 31.1721 261.582 31.3794 261.767 31.5638C261.951 31.7481 262.216 31.8402 262.562 31.8402C262.792 31.8402 263.015 31.798 263.23 31.7135C263.452 31.629 263.637 31.5177 263.783 31.3794ZM272.667 32.854H271.123V29.4671C271.123 28.9833 271.039 28.63 270.87 28.4073C270.701 28.1846 270.467 28.0732 270.167 28.0732C269.96 28.0732 269.749 28.127 269.534 28.2345C269.326 28.342 269.138 28.4918 268.969 28.6838C268.8 28.8681 268.677 29.0831 268.601 29.3289V32.854H267.057V26.8175H268.451V27.935C268.674 27.5587 268.996 27.263 269.419 27.0479C269.841 26.8252 270.317 26.7139 270.847 26.7139C271.223 26.7139 271.53 26.783 271.769 26.9212C272.007 27.0518 272.191 27.2323 272.322 27.4627C272.452 27.6854 272.54 27.9388 272.586 28.223C272.64 28.5071 272.667 28.7951 272.667 29.087V32.854ZM276.82 32.9692C276.167 32.9692 275.603 32.8233 275.127 32.5314C274.651 32.2396 274.282 31.8556 274.021 31.3794C273.76 30.9033 273.629 30.3887 273.629 29.8358C273.629 29.2751 273.756 28.7567 274.009 28.2806C274.271 27.8044 274.639 27.4243 275.115 27.1401C275.591 26.8559 276.156 26.7139 276.809 26.7139C277.469 26.7139 278.03 26.8559 278.491 27.1401C278.959 27.4243 279.309 27.7967 279.539 28.2575L278.03 28.7183C277.761 28.2575 277.35 28.0271 276.797 28.0271C276.498 28.0271 276.229 28.1039 275.991 28.2575C275.753 28.4035 275.565 28.6147 275.426 28.8911C275.288 29.1599 275.219 29.4748 275.219 29.8358C275.219 30.1891 275.288 30.5039 275.426 30.7804C275.572 31.0492 275.764 31.2642 276.002 31.4255C276.24 31.5791 276.505 31.6559 276.797 31.6559C277.074 31.6559 277.327 31.5906 277.558 31.4601C277.796 31.3218 277.961 31.149 278.053 30.9417L279.562 31.4025C279.355 31.8556 279.009 32.2319 278.525 32.5314C278.049 32.8233 277.481 32.9692 276.82 32.9692ZM283.255 32.9692C282.602 32.9692 282.038 32.8271 281.562 32.543C281.093 32.2588 280.728 31.8825 280.467 31.414C280.206 30.9378 280.075 30.4233 280.075 29.8703C280.075 29.302 280.202 28.7798 280.456 28.3036C280.717 27.8198 281.085 27.4358 281.562 27.1516C282.038 26.8598 282.606 26.7139 283.266 26.7139C283.927 26.7139 284.491 26.8598 284.96 27.1516C285.428 27.4358 285.786 27.8159 286.031 28.2921C286.285 28.7606 286.411 29.2675 286.411 29.8127C286.411 30.0124 286.4 30.1852 286.377 30.3311H281.711C281.75 30.7996 281.922 31.1682 282.23 31.437C282.545 31.7058 282.906 31.8402 283.313 31.8402C283.62 31.8402 283.908 31.7673 284.177 31.6214C284.453 31.4678 284.641 31.2681 284.741 31.0223L286.066 31.391C285.843 31.8518 285.486 32.2319 284.994 32.5314C284.503 32.8233 283.923 32.9692 283.255 32.9692ZM281.677 29.3519H284.833C284.787 28.8988 284.614 28.534 284.315 28.2575C284.023 27.9734 283.666 27.8313 283.243 27.8313C282.829 27.8313 282.472 27.9734 282.172 28.2575C281.88 28.534 281.715 28.8988 281.677 29.3519Z" fill="black"/>
<g clip-path="url(#clip0)">
<path d="M44.9381 23.9424C43.0064 22.4174 41.1764 20.9941 39.4481 19.5708C38.6348 18.8591 37.9231 18.2491 37.2114 17.6391C39.2448 14.6907 41.2781 11.5391 44.9381 8.38741C48.4964 7.57407 52.5631 6.76074 58.3581 6.04907C58.8664 6.45574 59.3748 6.96407 59.8831 7.37074C61.0014 8.38741 62.3231 9.40408 63.6448 10.4207C61.8148 12.4541 59.9848 14.7924 57.9514 19.0624C53.2748 20.7908 49.6148 22.1124 44.9381 23.9424Z" fill="url(#paint0_linear)"/>
<path d="M27.1464 46.1054C24.9097 44.3771 22.7747 42.6487 20.843 41.0221C19.928 40.2087 19.013 39.4971 18.1997 38.7854C19.2164 34.6171 20.3347 30.2454 22.673 25.0604C25.8247 23.332 29.4847 21.4004 35.0764 19.2654C35.7881 19.8754 36.6014 20.587 37.4147 21.2987C39.1431 22.8237 41.0747 24.2471 43.0064 25.7721C41.8881 29.3304 40.6681 32.9904 39.6514 38.9887C35.5847 41.1237 31.7214 43.2587 27.1464 46.1054Z" fill="url(#paint1_linear)"/>
<path d="M16.6743 71.1157C14.6409 69.5907 12.6076 67.964 10.8793 66.439C10.0659 65.7274 9.25258 65.0157 8.54092 64.304C8.03258 60.034 7.72758 55.5607 8.13425 49.5624C10.1676 47.224 12.5059 44.479 16.8776 41.124C17.6909 41.8357 18.6059 42.649 19.5209 43.4624C21.4526 45.089 23.5876 46.8174 25.9259 48.5457C25.6209 52.6124 25.2143 57.289 25.4176 63.7957C22.3676 66.0324 19.5209 68.1674 16.6743 71.1157Z" fill="url(#paint2_linear)"/>
<path d="M106.344 61.2541C108.378 59.7291 110.411 58.1025 112.139 56.5775C112.953 55.8658 113.766 55.1541 114.478 54.4425C114.884 50.0708 115.291 45.6991 114.884 39.7008C112.851 37.3625 110.513 34.6175 106.141 31.2625C105.328 31.9741 104.413 32.7875 103.498 33.6008C101.566 35.2275 99.4309 36.9558 97.0925 38.6841C97.3975 42.7508 97.8042 47.4275 97.6009 53.9341C100.753 56.1708 103.498 58.3058 106.344 61.2541Z" fill="url(#paint3_linear)"/>
<path d="M15.7598 92.3639C14.3364 91.2456 12.9131 90.1272 11.6931 89.1106C11.0831 88.6022 10.5748 88.0939 10.0664 87.6872C8.43975 84.1289 6.81309 80.4689 5.28809 75.0806C5.89809 71.9289 6.20309 70.0989 8.13475 66.7439C8.84642 67.4556 9.65976 68.0656 10.4731 68.7772C12.2014 70.3022 14.1331 71.8272 16.1664 73.3522C16.8781 77.0122 17.5898 81.1806 19.1148 86.3656C17.7931 88.0939 16.3698 89.9239 15.7598 92.3639Z" fill="url(#paint4_linear)"/>
<path d="M79.1996 45.0888C75.5396 43.1572 71.7779 41.2255 68.1179 39.0905C68.4229 35.0238 68.6263 31.0588 69.4396 26.4838C72.7946 24.6538 76.0479 22.8238 79.5046 20.5872C82.0463 22.0105 84.4863 23.4338 87.0279 24.6538C87.3329 28.1105 87.6379 30.8555 88.3496 36.6505C86.0113 39.0905 83.6729 41.5305 79.1996 45.0888Z" fill="url(#paint5_linear)"/>
<path d="M66.6949 70.5055C62.4249 68.3705 58.1549 66.0322 53.9866 63.5922C54.0882 58.4072 54.1899 53.9338 54.4949 48.6472C60.1882 45.2921 63.1366 43.6655 66.8983 41.3271C70.6599 43.4622 74.4216 45.4955 78.1833 47.4272C78.3866 52.2055 78.6916 57.0855 78.8949 61.8638C75.6416 64.4055 72.3883 66.7438 66.6949 70.5055Z" fill="url(#paint6_linear)"/>
<path d="M52.8676 93.3806C49.0042 91.3472 45.0392 89.3139 41.1759 87.0772C40.8709 82.0956 40.5659 78.4356 40.3625 73.5556C49.9192 67.7606 49.9192 67.7606 52.6642 66.0322C56.8326 68.4722 61.1026 70.7089 65.3726 72.9456C65.2709 82.2989 65.2709 84.0272 65.1692 87.0772C61.5092 89.0089 58.2559 90.7372 52.8676 93.3806Z" fill="url(#paint7_linear)"/>
<path d="M41.1755 107.919C38.4305 106.496 35.6855 105.072 33.0422 103.446C32.1272 98.769 31.7205 96.634 31.2122 94.0923C33.7538 92.5673 35.4822 91.449 40.2605 88.8057C44.0222 90.9407 47.8855 93.0757 51.6472 95.0073C51.5455 98.3623 51.5455 101.616 51.1388 104.869C43.4122 107.411 41.1755 107.919 41.1755 107.919Z" fill="url(#paint8_linear)"/>
<path d="M105.836 100.904C108.174 99.1754 110.614 97.3454 112.953 95.5154C114.071 91.0421 114.579 89.0087 115.088 86.5687C113.054 85.5521 111.631 84.7387 107.869 83.1121C104.616 85.6537 101.261 88.1954 97.9061 90.6354C97.7027 93.7871 97.6011 96.7354 97.7027 99.6837C104.006 100.802 105.836 100.904 105.836 100.904Z" fill="#C4C4C4"/>
<path d="M105.836 100.904C108.174 99.1754 110.614 97.3454 112.953 95.5154C114.071 91.0421 114.579 89.0087 115.088 86.5687C113.054 85.5521 111.631 84.7387 107.869 83.1121C104.616 85.6537 101.261 88.1954 97.9061 90.6354C97.7027 93.7871 97.6011 96.7354 97.7027 99.6837C104.006 100.802 105.836 100.904 105.836 100.904Z" fill="url(#paint9_linear)"/>
<path d="M53.3755 46.2071C49.5121 43.7671 45.7505 41.3271 42.1921 38.8871C43.0055 34.8204 43.8188 30.6521 45.4455 25.7721C50.0205 23.9421 52.1555 23.0271 58.4588 20.6887C61.3055 22.6204 64.2538 24.5521 67.3038 26.4837C66.7955 29.8387 66.1855 33.2954 65.7788 39.0904C60.8988 41.9371 60.1872 42.3437 53.3755 46.2071Z" fill="url(#paint10_linear)"/>
<path d="M22.774 23.0271C21.0456 21.0954 19.724 19.3671 18.9106 17.9437C22.0623 13.8771 23.7906 11.6404 28.0607 8.08205C31.1107 6.76038 34.669 5.33705 39.9557 4.01538C40.5657 5.13372 41.5823 6.45538 43.0057 7.98038C39.7523 11.1321 37.9223 12.8604 35.0757 17.2321C31.4157 18.9604 27.4507 20.4854 22.774 23.0271Z" fill="url(#paint11_linear)"/>
<path d="M107.057 19.2656C108.785 17.3339 110.107 15.6056 110.92 14.1823C107.768 10.1156 106.04 7.87891 101.77 4.32058C98.72 2.99891 95.1616 1.57557 89.875 0.253906C89.265 1.37224 88.2483 2.69391 86.825 4.21891C90.0783 7.37058 91.9083 9.09891 94.755 13.4706C98.5166 15.0973 102.482 16.6223 107.057 19.2656Z" fill="url(#paint12_linear)"/>
<path d="M39.0407 71.2174C35.0757 68.7774 31.2124 66.2357 27.5524 63.694C27.5524 58.814 27.4507 54.6457 28.1624 48.444C31.7207 46.2074 34.8724 44.2757 40.6674 41.124C44.2257 43.564 48.0891 46.1057 51.9524 48.444C51.6474 53.019 51.4441 56.374 51.3424 63.4907C47.2757 66.134 43.2091 68.6757 39.0407 71.2174Z" fill="#87F2E7"/>
<path d="M7.62565 47.3255C5.79565 45.3938 4.47398 43.5638 3.66064 42.1405C4.67731 37.9722 5.69398 33.7022 8.33732 28.2122C10.574 25.5688 12.8107 22.9255 17.0807 19.8755C17.894 21.2988 19.114 23.0272 20.944 24.9588C19.3173 28.7205 17.6907 32.5838 16.369 38.6838C13.5223 41.2255 10.574 43.7672 7.62565 47.3255Z" fill="url(#paint13_linear)"/>
<path d="M29.8918 92.364C26.6385 90.3307 23.4868 88.2973 20.5385 86.264C19.6235 82.5023 18.7085 78.639 17.7935 73.149C19.9285 71.1157 22.1651 69.0823 26.4351 65.9307C29.9935 68.3707 33.8568 70.9123 37.8218 73.3523C38.1268 77.9273 38.2285 80.6723 38.7368 86.7723C35.5851 88.8057 32.7385 90.534 29.8918 92.364Z" fill="url(#paint14_linear)"/>
<path d="M4.47435 73.0471C2.94935 71.4205 1.93268 69.9971 1.32268 68.7771C0.611013 64.7105 0.00101203 60.6438 0.102679 54.9505C0.611013 51.9005 1.11935 48.7488 3.05101 44.6821C3.86435 46.2071 5.18602 47.8338 6.91435 49.8671C6.81269 53.8321 6.60935 58.4071 7.32102 64.5071C6.10102 66.9471 4.88102 69.4888 4.47435 73.0471Z" fill="url(#paint15_linear)"/>
<path d="M80.0123 92.0591C76.149 90.5341 72.0823 88.8057 68.0156 86.874C68.1173 83.6207 68.219 79.0457 68.219 72.7424C72.184 69.9974 76.0473 67.4557 80.419 63.999C84.4856 65.9307 88.4506 67.659 92.314 69.184C92.5173 73.759 92.8223 78.029 92.5173 83.3157C89.264 85.8574 85.604 88.7041 80.0123 92.0591Z" fill="url(#paint16_linear)"/>
<path d="M63.2383 109.342C60.0866 108.122 56.8333 106.699 53.4783 105.072C53.7833 102.632 54.0883 99.9889 54.2916 95.1089C58.2566 93.2789 61.9166 91.5506 66.695 88.9072C70.7616 90.8389 74.8283 92.5672 78.59 94.0922C78.0816 97.4472 77.5733 101.006 76.2516 104.666C66.5933 108.631 63.2383 109.342 63.2383 109.342Z" fill="url(#paint17_linear)"/>
<g clip-path="url(#clip1)">
<path d="M106.403 93.7654L104.46 94.5574L107.485 96.6504L107.538 90.8151L106.403 93.7654ZM105.685 94.6794L106.606 94.3044L107.143 92.9075L107.118 95.6703L105.685 94.6794Z" fill="white"/>
<path d="M107.297 90.3709L104.381 88.3717L104.322 93.9873L106.199 93.2175L107.297 90.3709ZM104.747 89.3472L106.41 90.4874L105.34 90.9266L104.714 92.5501L104.747 89.3472ZM105.542 91.4652L106.639 91.0153L105.997 92.6789L104.9 93.1288L105.542 91.4652Z" fill="white"/>
</g>
<g clip-path="url(#clip2)">
<path d="M10.7801 34.8499L8.7605 34.2786L9.85829 37.7901L13.4892 33.2218L10.7801 34.8499ZM9.65165 35.1287L10.6078 35.3992L11.8906 34.6284L10.1714 36.7913L9.65165 35.1287Z" fill="white"/>
<path d="M13.5726 32.7224L12.5041 29.3529L9.00276 33.7437L10.9559 34.2913L13.5726 32.7224ZM12.1924 30.347L12.8018 32.2689L11.6878 31.9566L10.1954 32.8514L12.1924 30.347ZM11.5157 32.5055L12.6572 32.8255L11.128 33.7424L9.98654 33.4224L11.5157 32.5055Z" fill="white"/>
</g>
<g clip-path="url(#clip3)">
<path d="M103.382 9.17591C102.716 8.02538 101.718 6.99716 100.573 6.28064C99.4277 5.56412 98.272 5.24508 97.3188 5.38229C96.3655 5.51953 95.7289 6.09656 95.526 7.00712C95.3232 7.91767 95.5785 9.05277 96.2448 10.2033C96.9112 11.3539 97.9089 12.3821 99.0541 13.0986C99.4356 13.3372 99.8223 13.5341 100.204 13.6838C100.273 13.7111 100.325 13.6813 100.319 13.6172C100.312 13.5532 100.251 13.479 100.181 13.4517C99.8222 13.3107 99.4578 13.1252 99.0983 12.9003C98.0197 12.2255 97.08 11.257 96.4524 10.1734C95.8248 9.08982 95.5844 8.02074 95.7754 7.16315C95.9664 6.30557 96.5661 5.76207 97.4639 5.63284C98.3617 5.50361 99.4501 5.80409 100.529 6.47893C101.607 7.15378 102.547 8.12221 103.175 9.2058C103.802 10.2894 104.043 11.3585 103.852 12.2161C103.661 13.0737 103.061 13.6172 102.163 13.7464C101.729 13.8089 101.251 13.772 100.742 13.6368C100.674 13.6187 100.632 13.6586 100.648 13.7259C100.664 13.7931 100.732 13.8624 100.8 13.8805C101.34 14.0241 101.848 14.0632 102.308 13.997C103.262 13.8597 103.898 13.2827 104.101 12.3721C104.304 11.4616 104.049 10.3265 103.382 9.17591Z" fill="white"/>
<path d="M103.382 9.17591C102.716 8.02538 101.718 6.99716 100.573 6.28064C99.4277 5.56412 98.272 5.24508 97.3188 5.38229C96.3655 5.51953 95.7289 6.09656 95.526 7.00712C95.3232 7.91767 95.5785 9.05277 96.2448 10.2033C96.9112 11.3539 97.9089 12.3821 99.0541 13.0986C99.4356 13.3372 99.8223 13.5341 100.204 13.6838C100.273 13.7111 100.325 13.6813 100.319 13.6172C100.312 13.5532 100.251 13.479 100.181 13.4517C99.8222 13.3107 99.4578 13.1252 99.0983 12.9003C98.0197 12.2255 97.08 11.257 96.4524 10.1734C95.8248 9.08982 95.5844 8.02074 95.7754 7.16315C95.9664 6.30557 96.5661 5.76207 97.4639 5.63284C98.3617 5.50361 99.4501 5.80409 100.529 6.47893C101.607 7.15378 102.547 8.12221 103.175 9.2058C103.802 10.2894 104.043 11.3585 103.852 12.2161C103.661 13.0737 103.061 13.6172 102.163 13.7464C101.729 13.8089 101.251 13.772 100.742 13.6368C100.674 13.6187 100.632 13.6586 100.648 13.7259C100.664 13.7931 100.732 13.8624 100.8 13.8805C101.34 14.0241 101.848 14.0632 102.308 13.997C103.262 13.8597 103.898 13.2827 104.101 12.3721C104.304 11.4616 104.049 10.3265 103.382 9.17591Z" fill="white"/>
<path d="M97.4767 6.24139C97.4289 6.17404 97.3487 6.13412 97.2977 6.15214C96.7145 6.35805 96.3326 6.79772 96.1931 7.42366C95.8393 9.0118 97.1766 11.3206 99.174 12.5703C101.171 13.82 103.084 13.5446 103.438 11.9565C103.792 10.3683 102.455 8.05956 100.457 6.80986C99.5206 6.22388 98.5681 5.95185 97.7751 6.04388C97.7169 6.05064 97.7012 6.11232 97.74 6.18167C97.7789 6.25099 97.8575 6.30175 97.9157 6.29501C98.6541 6.20933 99.541 6.46258 100.413 7.00816C102.273 8.17181 103.518 10.3216 103.189 11.8004C102.859 13.2792 101.078 13.5356 99.2182 12.372C97.3582 11.2083 96.1131 9.0585 96.4425 7.57969C96.5723 6.99693 96.9279 6.58757 97.4709 6.39588C97.5219 6.37784 97.5245 6.30868 97.4767 6.24139Z" fill="white"/>
<path d="M97.4767 6.24139C97.4289 6.17404 97.3487 6.13412 97.2977 6.15214C96.7145 6.35805 96.3326 6.79772 96.1931 7.42366C95.8393 9.0118 97.1766 11.3206 99.174 12.5703C101.171 13.82 103.084 13.5446 103.438 11.9565C103.792 10.3683 102.455 8.05956 100.457 6.80986C99.5206 6.22388 98.5681 5.95185 97.7751 6.04388C97.7169 6.05064 97.7012 6.11232 97.74 6.18167C97.7789 6.25099 97.8575 6.30175 97.9157 6.29501C98.6541 6.20933 99.541 6.46258 100.413 7.00816C102.273 8.17181 103.518 10.3216 103.189 11.8004C102.859 13.2792 101.078 13.5356 99.2182 12.372C97.3582 11.2083 96.1131 9.0585 96.4425 7.57969C96.5723 6.99693 96.9279 6.58757 97.4709 6.39588C97.5219 6.37784 97.5245 6.30868 97.4767 6.24139Z" fill="white"/>
<path d="M97.6216 9.6972C97.6722 9.80251 97.761 9.90026 97.865 9.96539L100.198 11.4247C100.506 11.618 100.828 11.7231 101.104 11.7205C101.379 11.718 101.598 11.6079 101.719 11.4107L102.104 10.7837C102.252 10.5416 102.232 10.1828 102.047 9.79917C101.863 9.41557 101.54 9.05951 101.161 8.82229L99.1337 7.55417C98.9731 7.4537 98.817 7.45515 98.754 7.55769L98.339 8.23358L97.7933 7.89218C97.6672 7.81329 97.5426 7.81274 97.4904 7.89085L97.2894 8.19118C97.2598 8.23545 97.2623 8.30228 97.2963 8.37455C97.3303 8.44682 97.3908 8.5139 97.4622 8.5586L97.9514 8.86467L97.6061 9.42689C97.5653 9.49336 97.5709 9.59188 97.6216 9.6972ZM97.7216 8.09034C97.7263 8.08324 97.7376 8.0833 97.7491 8.09048L100.039 9.52323L99.8483 9.80845C99.8435 9.81555 99.8322 9.81551 99.8207 9.80834L97.5307 8.37558L97.7216 8.09034ZM98.9398 9.48306L99.7766 10.0066C99.9026 10.0855 100.027 10.0861 100.079 10.0079L100.28 9.70762C100.31 9.66334 100.308 9.59651 100.274 9.52424C100.24 9.45197 100.179 9.38489 100.108 9.3402L99.3273 8.85196L99.4618 8.63305L100.981 9.58336C101.069 9.63888 101.144 9.71879 101.186 9.80262C101.229 9.89006 101.234 9.97181 101.2 10.0269L100.815 10.6539C100.741 10.7746 100.557 10.7763 100.368 10.658L98.815 9.68616L98.9398 9.48306ZM98.6842 9.32314L98.5366 9.56343C98.5177 9.59423 98.5203 9.63988 98.5438 9.68868C98.5672 9.73749 98.6084 9.78279 98.6566 9.81297L100.324 10.8563C100.631 11.0481 100.929 11.0453 101.049 10.8496L101.434 10.2227C101.498 10.118 101.488 9.96268 101.406 9.79669C101.327 9.63733 101.188 9.48731 101.025 9.38508L99.4328 8.38897C99.3583 8.3424 99.286 8.34309 99.2568 8.3906L99.0717 8.69204L98.5946 8.39349L98.9876 7.75341C99.0045 7.72591 99.0464 7.72552 99.0895 7.75248L101.116 9.02059C101.419 9.21016 101.678 9.49471 101.825 9.80124C101.972 10.1078 101.989 10.3946 101.87 10.588L101.485 11.215C101.386 11.3762 101.208 11.4662 100.982 11.4682C100.757 11.4703 100.494 11.3845 100.242 11.2265L97.9092 9.76711C97.871 9.74318 97.8519 9.71175 97.8439 9.69516C97.8359 9.67854 97.8247 9.64705 97.8397 9.62263L98.207 9.02462L98.6842 9.32315L98.6842 9.32314Z" fill="white"/>
<path d="M97.6216 9.6972C97.6722 9.80251 97.761 9.90026 97.865 9.96539L100.198 11.4247C100.506 11.618 100.828 11.7231 101.104 11.7205C101.379 11.718 101.598 11.6079 101.719 11.4107L102.104 10.7837C102.252 10.5416 102.232 10.1828 102.047 9.79917C101.863 9.41557 101.54 9.05951 101.161 8.82229L99.1337 7.55417C98.9731 7.4537 98.817 7.45515 98.754 7.55769L98.339 8.23358L97.7933 7.89218C97.6672 7.81329 97.5426 7.81274 97.4904 7.89085L97.2894 8.19118C97.2598 8.23545 97.2623 8.30228 97.2963 8.37455C97.3303 8.44682 97.3908 8.5139 97.4622 8.5586L97.9514 8.86467L97.6061 9.42689C97.5653 9.49336 97.5709 9.59188 97.6216 9.6972ZM97.7216 8.09034C97.7263 8.08324 97.7376 8.0833 97.7491 8.09048L100.039 9.52323L99.8483 9.80845C99.8435 9.81555 99.8322 9.81551 99.8207 9.80834L97.5307 8.37558L97.7216 8.09034ZM98.9398 9.48306L99.7766 10.0066C99.9026 10.0855 100.027 10.0861 100.079 10.0079L100.28 9.70762C100.31 9.66334 100.308 9.59651 100.274 9.52424C100.24 9.45197 100.179 9.38489 100.108 9.3402L99.3273 8.85196L99.4618 8.63305L100.981 9.58336C101.069 9.63888 101.144 9.71879 101.186 9.80262C101.229 9.89006 101.234 9.97181 101.2 10.0269L100.815 10.6539C100.741 10.7746 100.557 10.7763 100.368 10.658L98.815 9.68616L98.9398 9.48306ZM98.6842 9.32314L98.5366 9.56343C98.5177 9.59423 98.5203 9.63988 98.5438 9.68868C98.5672 9.73749 98.6084 9.78279 98.6566 9.81297L100.324 10.8563C100.631 11.0481 100.929 11.0453 101.049 10.8496L101.434 10.2227C101.498 10.118 101.488 9.96268 101.406 9.79669C101.327 9.63733 101.188 9.48731 101.025 9.38508L99.4328 8.38897C99.3583 8.3424 99.286 8.34309 99.2568 8.3906L99.0717 8.69204L98.5946 8.39349L98.9876 7.75341C99.0045 7.72591 99.0464 7.72552 99.0895 7.75248L101.116 9.02059C101.419 9.21016 101.678 9.49471 101.825 9.80124C101.972 10.1078 101.989 10.3946 101.87 10.588L101.485 11.215C101.386 11.3762 101.208 11.4662 100.982 11.4682C100.757 11.4703 100.494 11.3845 100.242 11.2265L97.9092 9.76711C97.871 9.74318 97.8519 9.71175 97.8439 9.69516C97.8359 9.67854 97.8247 9.64705 97.8397 9.62263L98.207 9.02462L98.6842 9.32315L98.6842 9.32314Z" fill="white"/>
</g>
<g clip-path="url(#clip4)">
<path d="M13.8783 78.9447C13.6382 77.8162 13.1589 76.8092 12.5285 76.1093C11.8981 75.4093 11.1922 75.1001 10.5407 75.2387C9.88922 75.3773 9.37022 75.947 9.0793 76.843C8.78837 77.7389 8.76035 78.8538 9.00038 79.9823C9.24042 81.1107 9.71979 82.1177 10.3502 82.8177C10.5601 83.0508 10.7808 83.2429 11.006 83.3885C11.0472 83.4151 11.0862 83.3856 11.0933 83.3227C11.1003 83.2597 11.0726 83.187 11.0314 83.1604C10.8193 83.0233 10.6114 82.8423 10.4135 82.6226C9.81981 81.9633 9.36833 81.0149 9.14225 79.9521C8.91617 78.8892 8.94258 77.8392 9.21657 76.9954C9.49057 76.1516 9.97938 75.615 10.593 75.4845C11.2065 75.3539 11.8714 75.6451 12.4651 76.3044C13.0589 76.9636 13.5103 77.912 13.7364 78.9749C13.9625 80.0377 13.9361 81.0878 13.6621 81.9316C13.3881 82.7754 12.8993 83.312 12.2857 83.4425C11.989 83.5056 11.6806 83.4712 11.369 83.3403C11.3273 83.3227 11.2925 83.3621 11.2913 83.4282C11.2901 83.4942 11.323 83.562 11.3647 83.5796C11.6956 83.7186 12.0231 83.7552 12.338 83.6883C12.9894 83.5496 13.5084 82.9799 13.7994 82.084C14.0903 81.1881 14.1183 80.0732 13.8783 78.9447Z" fill="white"/>
<path d="M10.4956 76.0825C10.4757 76.0165 10.4299 75.9775 10.3931 75.9954C9.9735 76.2001 9.64598 76.6338 9.44599 77.2497C8.93858 78.8123 9.42026 81.0768 10.5197 82.2976C11.6192 83.5185 12.9265 83.2404 13.4339 81.6778C13.9413 80.1151 13.4596 77.8506 12.3602 76.6298C11.8446 76.0574 11.2644 75.7936 10.7262 75.8872C10.6868 75.894 10.6658 75.9547 10.6793 76.0228C10.6929 76.0908 10.7359 76.1403 10.7754 76.1335C11.2765 76.0464 11.8168 76.2919 12.2968 76.8249C13.3206 77.9617 13.7691 80.0703 13.2966 81.5253C12.8242 82.9804 11.6069 83.2393 10.5831 82.1025C9.55931 80.9658 9.11079 78.8572 9.58327 77.4021C9.76946 76.8287 10.0744 76.4249 10.4651 76.2344C10.5018 76.2164 10.5155 76.1484 10.4956 76.0825Z" fill="white"/>
<path d="M9.99336 79.4793C10.0085 79.5826 10.0501 79.6784 10.1074 79.742L11.3913 81.1676C11.5613 81.3564 11.7551 81.4585 11.9369 81.4549C12.1188 81.4513 12.2816 81.3423 12.3955 81.1479L12.7574 80.5301C12.8971 80.2915 12.9456 79.9388 12.8904 79.5624C12.8352 79.186 12.6839 78.8373 12.4752 78.6055L11.3595 77.3667C11.2711 77.2686 11.168 77.2706 11.1088 77.3716L10.7187 78.0377L10.4184 77.7042C10.3489 77.6271 10.267 77.627 10.2191 77.704L10.0349 78C10.0077 78.0437 9.99781 78.1094 10.0077 78.1803C10.0176 78.2512 10.0458 78.3169 10.0851 78.3606L10.3544 78.6596L10.0299 79.2136C9.99152 79.2791 9.9782 79.3759 9.99336 79.4793ZM10.3369 77.8992C10.3412 77.8922 10.3487 77.8923 10.355 77.8993L11.6155 79.2989L11.4406 79.5801C11.4362 79.5871 11.4287 79.5871 11.4224 79.5801L10.1619 78.1804L10.3369 77.8992ZM10.8985 79.2637L11.3591 79.7751C11.4285 79.8522 11.5104 79.8523 11.5583 79.7753L11.7426 79.4793C11.7697 79.4356 11.7796 79.3699 11.7697 79.299C11.7598 79.2281 11.7316 79.1624 11.6923 79.1187L11.2627 78.6418L11.3891 78.426L12.2252 79.3544C12.274 79.4086 12.3094 79.4869 12.3222 79.5692C12.3356 79.6549 12.325 79.7353 12.2932 79.7896L11.9313 80.4074C11.8616 80.5264 11.7403 80.5287 11.6362 80.4132L10.7812 79.4638L10.8985 79.2637ZM10.7578 79.1075L10.6191 79.3442C10.6013 79.3746 10.5951 79.4195 10.6021 79.4673C10.6092 79.5152 10.6284 79.5596 10.655 79.5891L11.5729 80.6083C11.7416 80.7957 11.9384 80.7918 12.0514 80.5989L12.4132 79.9811C12.4737 79.8779 12.4938 79.7253 12.4684 79.5625C12.4441 79.4061 12.3785 79.2592 12.2886 79.1593L11.4122 78.1862C11.3712 78.1407 11.3235 78.1417 11.2961 78.1885L11.1221 78.4855L10.8594 78.1939L11.2289 77.5631C11.2448 77.536 11.2724 77.5355 11.2961 77.5618L12.4118 78.8006C12.5786 78.9858 12.6995 79.2646 12.7436 79.5653C12.7877 79.8661 12.749 80.148 12.6373 80.3386L12.2754 80.9564C12.1823 81.1153 12.0493 81.2044 11.9006 81.2074C11.752 81.2103 11.5936 81.1269 11.4546 80.9725L10.1707 79.5469C10.1497 79.5235 10.1425 79.4927 10.1401 79.4764C10.1377 79.4601 10.1358 79.4292 10.1499 79.4051L10.4951 78.8158L10.7578 79.1075L10.7578 79.1075Z" fill="white"/>
</g>
<g clip-path="url(#clip5)">
<path d="M105.832 46.7729L106.322 45.9897C106.548 45.6293 106.569 45.0326 106.37 44.6571C106.17 44.2815 105.826 44.2693 105.6 44.6297L105.11 45.4129C105.065 45.485 105.061 45.6044 105.101 45.6795L105.678 46.7674C105.718 46.8425 105.787 46.845 105.832 46.7729ZM105.336 45.5544L105.745 44.9017C105.88 44.6855 106.087 44.6928 106.206 44.9181C106.326 45.1435 106.313 45.5014 106.178 45.7177L105.769 46.3704L105.336 45.5544Z" fill="white"/>
<path d="M106.921 44.8867C106.909 44.7922 106.893 44.7 106.871 44.6111C106.669 43.7567 106.096 43.3772 105.594 43.7634L105.412 43.4221C105.373 43.347 105.304 43.3445 105.259 43.4166L104.932 43.9387C104.887 44.0108 104.883 44.1302 104.922 44.2053L105.067 44.4773L104.904 44.7383L104.759 44.4663C104.719 44.3912 104.65 44.3888 104.605 44.4609L104.279 44.983C104.233 45.0551 104.229 45.1744 104.269 45.2495L104.414 45.5215L104.25 45.7826C104.205 45.8547 104.201 45.974 104.241 46.0491L104.529 46.5931C104.569 46.6682 104.638 46.6707 104.683 46.5986L104.847 46.3375L106.146 48.7855L105.983 49.0465C105.938 49.1186 105.934 49.238 105.973 49.3131L106.262 49.8571C106.302 49.9322 106.371 49.9346 106.416 49.8625L106.579 49.6015L106.724 49.8735C106.764 49.9486 106.833 49.951 106.878 49.8789L107.204 49.3568C107.25 49.2847 107.254 49.1654 107.214 49.0903L107.069 48.8183L107.233 48.5572L107.377 48.8292C107.417 48.9043 107.486 48.9068 107.531 48.8347L107.858 48.3126C107.903 48.2405 107.907 48.1211 107.867 48.046L107.723 47.774C107.973 47.3732 108.094 46.7875 108.042 46.2202C107.958 45.3012 107.456 44.7042 106.921 44.8867ZM107.578 47.502L107.497 47.6326C107.452 47.7047 107.447 47.824 107.487 47.8991L107.632 48.1711L107.468 48.4322L107.324 48.1602C107.284 48.0851 107.215 48.0826 107.17 48.1547L106.843 48.6768C106.798 48.7489 106.794 48.8682 106.834 48.9433L106.978 49.2153L106.815 49.4764L106.671 49.2044C106.631 49.1293 106.562 49.1269 106.517 49.1989L106.353 49.46L106.209 49.188L106.372 48.9269C106.417 48.8549 106.422 48.7355 106.382 48.6604L104.938 45.9405C104.898 45.8653 104.829 45.8629 104.784 45.935L104.621 46.1961L104.476 45.9241L104.64 45.663C104.685 45.5909 104.689 45.4716 104.649 45.3965L104.505 45.1245L104.668 44.8634L104.812 45.1354C104.852 45.2105 104.921 45.213 104.966 45.1409L105.293 44.6187C105.338 44.5467 105.342 44.4273 105.302 44.3522L105.158 44.0802L105.321 43.8191L105.484 44.1251C105.517 44.1871 105.571 44.201 105.615 44.1589C105.703 44.0752 105.799 44.0211 105.897 43.9998C106.317 43.9087 106.686 44.421 106.722 45.144C106.722 45.1563 106.724 45.1683 106.726 45.1801C106.742 45.2788 106.803 45.3321 106.861 45.299C107.144 45.1375 107.449 45.2688 107.644 45.6363C107.923 46.1618 107.894 46.9971 107.578 47.502Z" fill="white"/>
<path d="M106.712 45.8702L105.977 47.045C105.932 47.1171 105.928 47.2364 105.967 47.3115L106.545 48.3995C106.585 48.4746 106.654 48.4771 106.699 48.405L107.434 47.2302C107.659 46.8698 107.681 46.2731 107.481 45.8976C107.282 45.522 106.937 45.5098 106.712 45.8702ZM107.29 46.9582L106.636 48.0025L106.203 47.1865L106.856 46.1422C106.992 45.9259 107.198 45.9333 107.318 46.1586C107.438 46.3839 107.425 46.7419 107.29 46.9582Z" fill="white"/>
<path d="M104.147 42.1761C102.794 44.3388 102.667 47.9187 103.863 50.172C105.059 52.4253 107.126 52.4987 108.479 50.336C109.83 48.1717 109.957 44.5948 108.763 42.3401C107.567 40.0868 105.5 40.0134 104.147 42.1761ZM108.334 50.064C107.071 52.0825 105.143 52.014 104.026 49.9109C102.91 47.8078 103.028 44.4666 104.291 42.4481C105.555 40.4329 107.482 40.5014 108.6 42.6012C109.716 44.7042 109.597 48.0454 108.334 50.064Z" fill="white"/>
<path d="M104.436 42.7204C103.263 44.5948 103.153 47.6974 104.19 49.6502C105.226 51.6031 107.018 51.6667 108.19 49.7923C109.361 47.9166 109.471 44.8166 108.436 42.8626C107.4 40.9097 105.609 40.8461 104.436 42.7204ZM108.046 49.5203C106.963 51.2505 105.31 51.1918 104.353 49.3891C103.396 47.5865 103.498 44.7226 104.58 42.9924C105.663 41.2652 107.315 41.3239 108.273 43.1236C109.23 44.9263 109.128 47.7902 108.046 49.5203Z" fill="white"/>
</g>
<g clip-path="url(#clip6)">
<path d="M43.4546 103.904C43.2576 104.038 42.8051 103.776 42.8268 103.539C42.8125 103.347 43.0882 103.281 43.313 103.416C43.5441 103.545 43.6264 103.818 43.4546 103.904ZM46.0845 103.491C45.9572 103.557 45.6957 103.439 45.6355 103.286C45.5364 103.121 45.7014 102.988 45.8997 103.058C46.147 103.12 46.2759 103.428 46.0845 103.491ZM40.2077 103.354C40.4647 103.368 40.6748 103.709 40.4745 103.791C40.3321 103.88 40.0906 103.74 39.9867 103.586C39.959 103.452 40.0221 103.325 40.2077 103.354ZM44.9299 102.471C44.7428 102.632 44.2606 102.432 44.1652 102.158C44.0419 101.883 44.369 101.703 44.6909 101.876C44.9852 102.01 45.1183 102.346 44.9299 102.471ZM40.8688 102.524C40.8865 102.799 40.419 102.832 40.1559 102.578C39.9233 102.381 39.9585 102.12 40.1573 102.039C40.4405 101.971 40.8835 102.255 40.8688 102.524ZM42.8031 101.915C42.921 102.145 42.772 102.33 42.5348 102.359C42.3577 102.338 42.1496 102.285 42.0065 102.142C41.7754 101.946 41.7515 101.661 41.9398 101.556C42.0203 101.496 42.1573 101.51 42.2774 101.51C42.4954 101.579 42.7229 101.725 42.8031 101.915ZM46.7442 101.36C46.5714 101.504 46.1303 101.282 46.1048 101.045C46.0543 100.842 46.3146 100.744 46.5506 100.863C46.7942 100.973 46.9091 101.264 46.7442 101.36ZM37.9206 101.828C37.7886 101.979 37.3744 101.836 37.2843 101.606C37.1667 101.398 37.3766 101.225 37.631 101.322C37.8965 101.399 38.0711 101.703 37.9206 101.828ZM41.2725 101.224C40.9924 101.349 40.5319 101.242 40.2087 100.985C39.7952 100.673 39.6809 100.169 39.9769 99.9617C40.27 99.7193 40.9526 99.8755 41.303 100.271C41.6525 100.624 41.6318 101.089 41.2725 101.224ZM43.2125 101.085C42.9207 101.261 42.3576 101.156 42.0097 100.827C41.6349 100.508 41.5681 100.04 41.8589 99.8496C42.1396 99.6382 42.7429 99.7553 43.1018 100.1C43.477 100.432 43.5279 100.906 43.2125 101.085ZM44.8731 100.381C44.9515 100.596 44.7961 100.747 44.5765 100.773C44.319 100.759 44.0389 100.6 43.9017 100.38C43.8083 100.159 43.8905 99.935 44.1505 99.9226C44.425 99.8855 44.8022 100.127 44.8731 100.381ZM39.2429 101.008C39.0261 101.176 38.5082 100.975 38.3707 100.673C38.1911 100.354 38.529 100.105 38.9143 100.277C39.2953 100.417 39.4911 100.858 39.2429 101.008ZM43.3072 99.6364C43.0067 99.7391 42.5426 99.6151 42.2336 99.3417C41.9077 99.0674 41.786 98.6687 41.968 98.4452C42.1822 98.1202 42.9198 98.2071 43.3232 98.6139C43.7383 98.9844 43.7216 99.5112 43.3072 99.6364ZM39.5947 99.8346C39.3041 99.9376 38.8553 99.8432 38.5405 99.5808C38.1485 99.2823 38.03 98.8124 38.2824 98.5933C38.5355 98.3409 39.1685 98.4329 39.5534 98.7861C39.9877 99.1497 40.0054 99.6949 39.5947 99.8346ZM45.3351 99.1665C45.0891 99.2825 44.6149 99.0072 44.6036 98.7379C44.5572 98.4944 44.8899 98.3859 45.1727 98.5522C45.4832 98.706 45.5831 99.0796 45.3351 99.1665ZM37.1208 99.2096C37.239 99.4289 37.1567 99.633 36.9113 99.6585C36.6942 99.6404 36.4239 99.5043 36.3412 99.3057C36.1923 99.0456 36.4549 98.8494 36.7645 98.959C36.9074 99.0059 37.0205 99.1097 37.1208 99.2096ZM46.7262 98.9605C46.5829 99.0395 46.2936 98.9129 46.2458 98.7335C46.1552 98.5324 46.4473 98.4377 46.6524 98.599C46.8179 98.7097 46.8432 98.8927 46.7262 98.9605ZM35.4988 99.5588C35.4134 99.6455 35.1835 99.5986 35.0683 99.47C34.9124 99.3311 34.9689 99.1265 35.1611 99.1412C35.4036 99.1071 35.6577 99.448 35.4988 99.5588ZM41.6204 98.2462C41.2063 98.3802 40.5278 98.0567 40.309 97.6245C40.0603 97.1892 40.3631 96.7755 40.8932 96.8511C41.2907 96.8849 41.7414 97.1896 41.897 97.5259C42.0582 97.847 41.9368 98.1597 41.6204 98.2462ZM39.7649 98.3453C39.3487 98.4896 38.652 98.1607 38.4388 97.7179C38.1997 97.2904 38.4935 96.8906 39.0056 96.9508C39.4732 96.9786 40.0165 97.3965 40.0849 97.7873C40.1504 98.0467 40.0156 98.2676 39.7649 98.3453ZM43.2105 97.8898C42.9065 97.9575 42.4337 97.6448 42.4274 97.3578C42.3758 97.0542 42.8201 96.9476 43.156 97.18C43.5242 97.4008 43.5501 97.8386 43.2105 97.8898ZM37.7611 98.1647C37.5226 98.2904 37.0488 98.082 36.9289 97.7954C36.7603 97.4818 37.0969 97.2416 37.4755 97.4098C37.8827 97.5573 38.0654 98.0449 37.7611 98.1647ZM35.5574 96.878C35.7681 97.0639 35.6864 97.3294 35.4308 97.3064C35.3133 97.3145 35.1887 97.2353 35.0779 97.1692C35.0056 97.0562 34.9118 96.9219 34.9734 96.8287C35.0355 96.6588 35.3827 96.688 35.5574 96.878ZM44.456 96.7739C44.2999 96.9182 43.8813 96.7374 43.815 96.5019C43.7388 96.2946 43.9696 96.1615 44.2186 96.2683C44.4763 96.3635 44.6195 96.666 44.456 96.7739ZM39.8491 96.5752C39.6155 96.7057 39.1315 96.4983 39.0157 96.2096C38.8357 95.8934 39.1846 95.6494 39.5642 95.8249C39.962 95.9718 40.1496 96.456 39.8491 96.5752ZM41.671 96.0424C41.4814 96.1724 41.0481 95.9881 40.9466 95.7384C40.8372 95.5347 40.9727 95.349 41.2125 95.3673C41.4004 95.361 41.5965 95.5041 41.7272 95.6432C41.8014 95.7983 41.8164 95.9747 41.671 96.0424ZM37.5489 96.2569C37.3645 96.4115 36.901 96.228 36.7924 95.9609C36.6472 95.6834 36.9678 95.4838 37.2962 95.6537C37.5974 95.7846 37.741 96.13 37.5489 96.2569ZM36.0402 94.7077C36.2303 94.8554 36.1893 95.0476 36.0226 95.0924C35.8611 95.0733 35.6548 94.9818 35.6092 94.8264C35.5269 94.6172 35.8347 94.5354 36.0402 94.7077ZM41.7946 94.5401C41.8102 94.6643 41.7613 94.7912 41.5854 94.768C41.3447 94.7655 41.1182 94.4541 41.2739 94.3462C41.4022 94.2255 41.691 94.3661 41.7946 94.5401ZM38.9808 94.5456C39.0261 94.7282 38.8095 94.8296 38.5901 94.7429C38.4549 94.7053 38.365 94.5934 38.2877 94.4983C38.2781 94.4472 38.2669 94.3961 38.2555 94.345C38.2885 94.2667 38.3415 94.1873 38.4598 94.1838C38.6657 94.1495 38.9715 94.3592 38.9808 94.5456Z" fill="white"/>
</g>
<g clip-path="url(#clip7)">
<path d="M73.679 35.0382C73.54 34.8281 73.8186 34.3857 74.0679 34.4247C74.2695 34.4237 74.3366 34.7091 74.1932 34.9286C74.0564 35.1549 73.7678 35.2193 73.679 35.0382ZM74.094 37.7463C74.0257 37.6119 74.1513 37.3539 74.3129 37.3035C74.4867 37.2142 74.6261 37.3918 74.5508 37.5888C74.4838 37.8362 74.1592 37.9457 74.094 37.7463ZM74.281 31.77C74.2649 32.0308 73.9043 32.2206 73.82 32.0108C73.7272 31.8595 73.8766 31.6234 74.0385 31.5285C74.1797 31.5097 74.3133 31.583 74.281 31.77ZM75.1755 36.6426C75.0069 36.4405 75.2212 35.9636 75.5097 35.8858C75.7996 35.7797 75.9868 36.1257 75.8023 36.4412C75.6594 36.7316 75.3054 36.8434 75.1755 36.6426ZM75.1487 32.5022C74.8595 32.5008 74.8282 32.0222 75.0979 31.7723C75.3064 31.5493 75.5802 31.6037 75.6645 31.8119C75.734 32.1052 75.4323 32.5363 75.1487 32.5022ZM75.7758 34.5157C75.5321 34.6194 75.3391 34.4546 75.3107 34.211C75.3337 34.032 75.3906 33.8238 75.5423 33.6882C75.7499 33.4667 76.05 33.4625 76.1595 33.6618C76.2216 33.748 76.2064 33.8866 76.2054 34.0089C76.1311 34.2261 75.9756 34.4474 75.7758 34.5157ZM76.3293 38.5693C76.1793 38.3831 76.4166 37.9496 76.6657 37.9403C76.8798 37.9033 76.9805 38.1754 76.8536 38.4073C76.7358 38.6477 76.4299 38.7441 76.3293 38.5693ZM75.9029 29.5487C75.7447 29.4035 75.8989 28.9918 76.1414 28.9163C76.3609 28.8112 76.5408 29.0373 76.4371 29.2895C76.3539 29.5545 76.0334 29.7109 75.9029 29.5487ZM76.5129 33.0056C76.3835 32.7114 76.5 32.25 76.7721 31.939C77.1038 31.5399 77.6339 31.4593 77.85 31.7755C78.1028 32.0911 77.9334 32.7753 77.5147 33.1042C77.1416 33.4352 76.6525 33.3812 76.5129 33.0056ZM76.6449 34.9915C76.4621 34.6819 76.5765 34.1156 76.9255 33.7847C77.2635 33.4255 77.7561 33.3907 77.954 33.7004C78.1742 34.0013 78.0466 34.6075 77.6817 34.9487C77.3301 35.3073 76.8304 35.3254 76.6449 34.9915ZM77.3732 36.7329C77.1466 36.7975 76.9891 36.6285 76.963 36.403C76.9791 36.1416 77.1491 35.8677 77.3816 35.7436C77.6138 35.664 77.8491 35.7636 77.8603 36.0294C77.8973 36.3115 77.6409 36.6787 77.3732 36.7329ZM76.7557 30.9536C76.5803 30.7209 76.7954 30.2076 77.1143 30.089C77.4505 29.9286 77.7099 30.2905 77.5261 30.6708C77.3761 31.0489 76.9111 31.2171 76.7557 30.9536ZM78.1674 35.1907C78.0617 34.8773 78.1955 34.4134 78.4852 34.1181C78.7761 33.8056 79.1962 33.7099 79.4298 33.911C79.77 34.1522 79.6732 34.8974 79.2425 35.2794C78.8499 35.676 78.2961 35.6217 78.1674 35.1907ZM77.9865 31.3951C77.8803 31.0919 77.9829 30.6414 78.2612 30.3394C78.5779 29.9612 79.0728 29.8738 79.3014 30.1465C79.5649 30.4222 79.4635 31.0605 79.0892 31.4275C78.7038 31.844 78.1303 31.8235 77.9865 31.3951ZM78.6466 37.2895C78.5264 37.0308 78.8194 36.5673 79.1027 36.5748C79.359 36.5449 79.4706 36.8914 79.2937 37.1677C79.1296 37.4731 78.7362 37.5483 78.6466 37.2895ZM78.6619 28.9196C78.4304 29.0245 78.2164 28.9262 78.1915 28.6744C78.212 28.4545 78.3571 28.1889 78.5666 28.1188C78.8413 27.9855 79.0455 28.2669 78.928 28.5745C78.8777 28.7167 78.7677 28.8245 78.6619 28.9196ZM78.8529 38.7211C78.7709 38.5695 78.9062 38.2838 79.0951 38.2479C79.3073 38.1698 79.4046 38.4741 79.2336 38.6716C79.1159 38.8323 78.9234 38.8451 78.8529 38.7211ZM78.3067 27.2428C78.2162 27.1496 78.2672 26.9187 78.4033 26.8105C78.5505 26.6616 78.7652 26.7337 78.7483 26.9284C78.7823 27.1778 78.422 27.4125 78.3067 27.2428ZM79.6417 33.5711C79.5039 33.1398 79.849 32.4716 80.3051 32.2794C80.7646 32.057 81.1973 32.3948 81.114 32.9293C81.0755 33.3318 80.7518 33.7693 80.397 33.9039C80.0582 34.0454 79.7303 33.8995 79.6417 33.5711ZM79.5512 31.6742C79.4025 31.24 79.7536 30.5537 80.2207 30.3679C80.6719 30.1546 81.0902 30.4822 81.0231 30.9996C80.9904 31.4739 80.547 31.9977 80.1355 32.0396C79.8623 32.088 79.631 31.935 79.5512 31.6742ZM80.0047 35.216C79.9357 34.9015 80.268 34.4421 80.5699 34.4561C80.8895 34.4251 80.9983 34.8851 80.7514 35.2108C80.5166 35.5702 80.056 35.5656 80.0047 35.216ZM79.7559 29.6459C79.6255 29.3941 79.8481 28.9262 80.1503 28.8245C80.4813 28.675 80.7314 29.0349 80.5517 29.4085C80.3937 29.8129 79.8796 29.9644 79.7559 29.6459ZM81.1251 27.4925C80.9281 27.694 80.6495 27.5919 80.6756 27.3331C80.668 27.2129 80.7522 27.0917 80.8225 26.9835C80.9418 26.9178 81.0837 26.8318 81.1813 26.9012C81.3594 26.9765 81.3262 27.3281 81.1251 27.4925ZM81.1689 36.5638C81.0182 36.3945 81.2115 35.981 81.4596 35.9302C81.6782 35.8673 81.8163 36.1118 81.7022 36.3579C81.6002 36.6135 81.2811 36.7379 81.1689 36.5638ZM81.4118 31.8854C81.2763 31.6382 81.4979 31.1599 81.8023 31.0624C82.1361 30.9015 82.3902 31.2742 82.2028 31.6484C82.0454 32.0431 81.5349 32.1999 81.4118 31.8854ZM81.9586 33.7789C81.8233 33.5766 82.0202 33.1482 82.2836 33.0626C82.4986 32.9656 82.6928 33.1167 82.6718 33.3597C82.677 33.5516 82.5251 33.7412 82.378 33.8644C82.2143 33.9291 82.0287 33.9318 81.9586 33.7789ZM81.7635 29.565C81.6023 29.3662 81.7987 28.9072 82.0803 28.8155C82.3731 28.6873 82.5807 29.028 82.3995 29.3504C82.2597 29.6479 81.8955 29.7697 81.7635 29.565ZM83.4036 28.1382C83.2469 28.3213 83.045 28.2659 82.9991 28.093C83.0205 27.9298 83.1182 27.7262 83.2819 27.6907C83.5025 27.6217 83.5863 27.9411 83.4036 28.1382ZM83.5373 34.0113C83.4066 34.0184 83.2735 33.9596 83.2992 33.7821C83.3036 33.5371 83.6328 33.3284 83.7451 33.4947C83.871 33.6339 83.721 33.9182 83.5373 34.0113ZM83.5523 31.1449C83.36 31.178 83.2549 30.9502 83.3477 30.7329C83.3882 30.5979 83.5066 30.5143 83.6071 30.4422C83.661 30.4361 83.7148 30.4283 83.7686 30.4203C83.8507 30.4594 83.9338 30.5191 83.9366 30.6398C83.9711 30.852 83.7484 31.1487 83.5523 31.1449Z" fill="white"/>
</g>
<g clip-path="url(#clip8)">
<path d="M85.7022 82.632L85.6991 82.6271L83.9598 81.3038L85.3172 78.0595L85.3212 78.0499L85.3318 77.9724L84.785 75.1396C84.7848 75.1314 84.783 75.124 84.7797 75.1177L84.7807 75.11L84.7582 75.09C84.753 75.0767 84.7419 75.0683 84.7273 75.0665L82.4369 73.8263L82.4234 73.819L79.1986 74.6607C79.1798 74.6657 79.1751 74.6698 79.1306 74.7096C79.1094 74.7287 79.0784 74.7567 79.0391 74.7923C78.9647 74.8595 78.8557 74.9583 78.7151 75.0858C78.4783 75.3007 78.1487 75.6001 77.7351 75.9758C77.0313 76.6154 76.3191 77.2631 76.312 77.2696L76.3079 77.2732L76.2521 77.3361L76.2473 77.3712L74.8521 80.6992L74.8481 80.7088L74.8375 80.7868L75.3933 83.6141L75.3932 83.6147C75.3915 83.6252 75.3919 83.6351 75.3942 83.6438C75.3966 83.6525 75.401 83.6599 75.4071 83.6655L75.4306 83.6864L77.7172 84.9071C77.721 84.9148 77.7271 84.9206 77.7349 84.924C77.7428 84.9273 77.7521 84.928 77.7622 84.9261C77.7729 84.9296 77.7855 84.9297 77.7988 84.9262L80.9981 84.0911L81.0113 84.0763C81.0185 84.0728 81.0256 84.0683 81.0323 84.0629L81.0345 84.0623L83.7613 81.5794L85.4711 82.8889C85.4823 82.8982 85.4965 82.9037 85.5127 82.9049C85.5451 82.9066 85.5814 82.8972 85.6167 82.8777C85.6404 82.8637 85.6616 82.8424 85.6761 82.8178C85.6995 82.7877 85.7144 82.7534 85.7179 82.7213C85.7227 82.6868 85.7173 82.6556 85.7022 82.632ZM84.1968 78.1732L84.6296 75.9445L85.016 77.9593L84.1968 78.1732ZM84.9782 78.2351L83.991 80.6084L84.1591 78.4489L84.9782 78.2351ZM76.9895 82.7181L77.5462 84.4532L75.797 83.5122L76.9895 82.7181ZM80.7339 76.4226L82.2803 74.2645L82.8813 76.134L80.7339 76.4226ZM83.1797 76.0409L82.6231 74.3058L84.3722 75.2468L83.1797 76.0409ZM83.2724 76.2617L84.457 75.4694L83.9981 77.8384L83.9936 77.8641L83.2724 76.2617ZM76.3162 79.8681L76.3186 79.844L76.4985 77.547L77.1171 77.673L77.5459 77.7567L76.3162 79.8681ZM82.0543 74.1907L80.5032 76.3551L79.4431 74.8724L82.0543 74.1907ZM83.7893 78.5454L82.4751 80.7993L82.0751 79.6966L81.8535 79.0507L83.7896 78.5454L83.7893 78.5454ZM81.892 78.7748L83.0557 76.5608L83.8271 78.2697L81.892 78.7748ZM80.6985 76.7088L82.8688 76.4149L81.6843 78.6675L80.6985 76.7088ZM80.3215 81.3724L81.6007 79.2784L82.2333 81.0565L79.9863 81.9155L80.3215 81.3724ZM78.7747 79.5885L80.4312 76.8793L80.9271 77.8877L81.4326 78.8947L78.7747 79.5885ZM81.3948 79.1705L79.7471 81.8777L79.242 80.8711L78.7369 79.8643L81.3948 79.1705ZM79.8818 77.34L78.5782 79.4779L77.9456 77.7L80.1842 76.8431L79.8818 77.34ZM79.4709 82.0503L77.3097 82.3419L78.2021 80.6403L78.4939 80.0893L79.4709 82.0503ZM76.3896 80.2111L77.7032 77.9583L78.0997 79.0896L78.324 79.7061L76.3896 80.2111ZM78.2869 79.9817L77.1233 82.1957L76.3518 80.4868L78.2869 79.9817ZM83.854 78.8892L83.8532 78.8951L83.6706 81.2118L83.0519 81.0859L82.6231 81.0022L83.854 78.8892ZM76.6528 77.2618L78.7988 75.304L77.7082 77.4692L76.6528 77.2618ZM76.8969 82.4974L75.7122 83.2897L76.1739 80.9006L76.1751 80.8936L76.8969 82.4974ZM79.6755 82.4014L80.7269 83.8865L78.1156 84.5681L79.6755 82.4014ZM83.5166 81.4971L81.3705 83.4549L82.4611 81.2898L83.5166 81.4971ZM78.0023 77.4078L79.1786 75.0744L80.2269 76.5549L78.0023 77.4078ZM75.1911 80.5239L76.1782 78.1506L76.0102 80.3101L75.1911 80.5239ZM75.9726 80.5858L75.5398 82.8145L75.1534 80.7997L75.9724 80.5859L75.9726 80.5858ZM79.4353 82.3364L77.889 84.4942L77.2881 82.6247L79.4353 82.3364ZM82.167 81.3514L80.9907 83.6849L79.9423 82.2041L82.167 81.3514Z" fill="white"/>
</g>
</g>
<defs>
<linearGradient id="paint0_linear" x1="6.09408" y1="-5.8802" x2="100.644" y2="37.3281" gradientUnits="userSpaceOnUse">
<stop stop-color="#87F2E7"/>
<stop offset="1" stop-color="#2E37F2"/>
</linearGradient>
<linearGradient id="paint1_linear" x1="-4.15102" y1="16.5381" x2="90.399" y2="59.7464" gradientUnits="userSpaceOnUse">
<stop stop-color="#87F2E7"/>
<stop offset="1" stop-color="#2E37F2"/>
</linearGradient>
<linearGradient id="paint2_linear" x1="-15.5079" y1="41.3885" x2="79.0425" y2="84.597" gradientUnits="userSpaceOnUse">
<stop stop-color="#87F2E7"/>
<stop offset="1" stop-color="#2E37F2"/>
</linearGradient>
<linearGradient id="paint3_linear" x1="-15.8779" y1="39.6444" x2="109.511" y2="46.4222" gradientUnits="userSpaceOnUse">
<stop stop-color="#87F2E7"/>
<stop offset="1" stop-color="#2E37F2"/>
</linearGradient>
<linearGradient id="paint4_linear" x1="-25.1771" y1="62.5486" x2="69.3729" y2="105.757" gradientUnits="userSpaceOnUse">
<stop stop-color="#87F2E7"/>
<stop offset="1" stop-color="#2E37F2"/>
</linearGradient>
<linearGradient id="paint5_linear" x1="4.11005" y1="-1.53959" x2="98.6603" y2="41.6689" gradientUnits="userSpaceOnUse">
<stop stop-color="#87F2E7"/>
<stop offset="1" stop-color="#2E37F2"/>
</linearGradient>
<linearGradient id="paint6_linear" x1="-6.76512" y1="22.2585" x2="87.7852" y2="65.467" gradientUnits="userSpaceOnUse">
<stop stop-color="#87F2E7"/>
<stop offset="1" stop-color="#2E37F2"/>
</linearGradient>
<linearGradient id="paint7_linear" x1="-18.2021" y1="47.2844" x2="76.3481" y2="90.4927" gradientUnits="userSpaceOnUse">
<stop stop-color="#87F2E7"/>
<stop offset="1" stop-color="#2E37F2"/>
</linearGradient>
<linearGradient id="paint8_linear" x1="-27.3787" y1="67.3636" x2="67.1714" y2="110.572" gradientUnits="userSpaceOnUse">
<stop stop-color="#87F2E7"/>
<stop offset="1" stop-color="#2E37F2"/>
</linearGradient>
<linearGradient id="paint9_linear" x1="-15.6929" y1="46.1114" x2="111.051" y2="94.5724" gradientUnits="userSpaceOnUse">
<stop stop-color="#87F2E7"/>
<stop offset="1" stop-color="#2E37F2"/>
</linearGradient>
<linearGradient id="paint10_linear" x1="-0.174833" y1="7.83499" x2="94.3754" y2="51.0435" gradientUnits="userSpaceOnUse">
<stop stop-color="#87F2E7"/>
<stop offset="1" stop-color="#2E37F2"/>
</linearGradient>
<linearGradient id="paint11_linear" x1="3.12332" y1="0.618798" x2="97.6732" y2="43.8271" gradientUnits="userSpaceOnUse">
<stop stop-color="#87F2E7"/>
<stop offset="1" stop-color="#2E37F2"/>
</linearGradient>
<linearGradient id="paint12_linear" x1="-13.9322" y1="3.6632" x2="111.457" y2="10.441" gradientUnits="userSpaceOnUse">
<stop stop-color="#87F2E7"/>
<stop offset="1" stop-color="#2E37F2"/>
</linearGradient>
<linearGradient id="paint13_linear" x1="-7.75704" y1="24.4271" x2="86.7935" y2="67.6356" gradientUnits="userSpaceOnUse">
<stop stop-color="#87F2E7"/>
<stop offset="1" stop-color="#2E37F2"/>
</linearGradient>
<linearGradient id="paint14_linear" x1="-22.2461" y1="56.1354" x2="72.304" y2="99.3438" gradientUnits="userSpaceOnUse">
<stop stop-color="#87F2E7"/>
<stop offset="1" stop-color="#2E37F2"/>
</linearGradient>
<linearGradient id="paint15_linear" x1="-18.7962" y1="48.5839" x2="75.7545" y2="91.7926" gradientUnits="userSpaceOnUse">
<stop stop-color="#87F2E7"/>
<stop offset="1" stop-color="#2E37F2"/>
</linearGradient>
<linearGradient id="paint16_linear" x1="-12.817" y1="35.5002" x2="81.733" y2="78.7085" gradientUnits="userSpaceOnUse">
<stop stop-color="#87F2E7"/>
<stop offset="1" stop-color="#2E37F2"/>
</linearGradient>
<linearGradient id="paint17_linear" x1="-23.4461" y1="58.7608" x2="71.1039" y2="101.969" gradientUnits="userSpaceOnUse">
<stop stop-color="#87F2E7"/>
<stop offset="1" stop-color="#2E37F2"/>
</linearGradient>
<clipPath id="clip0">
<rect width="115.087" height="109.61" fill="white" transform="translate(0.000488281 0.25415)"/>
</clipPath>
<clipPath id="clip1">
<rect width="8.84223" height="8.84223" fill="white" transform="matrix(0.635215 -0.772336 0.351184 0.936306 101.569 91.7903)"/>
</clipPath>
<clipPath id="clip2">
<rect width="8.84223" height="8.84223" fill="white" transform="matrix(0.975926 -0.218103 -0.299152 0.954206 8.18433 30.3184)"/>
</clipPath>
<clipPath id="clip3">
<rect width="10.115" height="6.98506" fill="white" transform="matrix(0.847749 0.530398 -0.217431 0.976076 96.2854 3.59814)"/>
</clipPath>
<clipPath id="clip4">
<rect width="7.05319" height="7.05319" fill="white" transform="matrix(0.669211 0.743072 -0.308842 0.951113 10.1682 73.4888)"/>
</clipPath>
<clipPath id="clip5">
<rect width="9.23849" height="9.23849" fill="white" transform="matrix(0.530401 -0.847747 0.468903 0.88325 101.696 46.092)"/>
</clipPath>
<clipPath id="clip6">
<rect width="11.8032" height="10.9062" fill="white" transform="matrix(-0.998602 0.0528545 -0.446589 -0.894739 49.218 103.629)"/>
</clipPath>
<clipPath id="clip7">
<rect width="12.0633" height="11.1465" fill="white" transform="matrix(-0.0471634 -0.998887 0.923746 -0.383007 73.9263 40.928)"/>
</clipPath>
<clipPath id="clip8">
<rect width="14.0404" height="16.2736" fill="white" transform="translate(69.9851 79.186) rotate(-48.4167)"/>
</clipPath>
</defs>
</svg>
