<svg xmlns="http://www.w3.org/2000/svg" xmlns:xlink="http://www.w3.org/1999/xlink" id="logo" width="181.135" height="47.89" viewBox="0 0 181.135 47.89">
    <defs>
        <linearGradient id="linear-gradient" x1="-1.177" x2="2.4" y1="-.667" y2="1.748" gradientUnits="objectBoundingBox">
            <stop offset="0" stop-color="#87f2e7"/>
            <stop offset="1" stop-color="#2e37f2"/>
        </linearGradient>
        <linearGradient id="linear-gradient-2" x1="-.901" x2="2.91" y1="-.102" y2="1.508" xlink:href="#linear-gradient"/>
        <linearGradient id="linear-gradient-3" x1="-1.304" x2="3.954" y1=".009" y2="1.449" xlink:href="#linear-gradient"/>
        <linearGradient id="linear-gradient-4" x1="-6.29" x2=".691" y1=".279" y2=".505" xlink:href="#linear-gradient"/>
        <linearGradient id="linear-gradient-5" x1="-2.203" x2="4.635" y1="-.164" y2="1.523" xlink:href="#linear-gradient"/>
        <linearGradient id="linear-gradient-6" x1="-3.164" x2="1.51" y1="-.903" y2=".86" xlink:href="#linear-gradient"/>
        <linearGradient id="linear-gradient-7" x1="-2.439" x2="1.357" y1="-.654" y2=".827" xlink:href="#linear-gradient"/>
        <linearGradient id="linear-gradient-8" x1="-2.342" x2="1.439" y1="-.686" y2=".894" xlink:href="#linear-gradient"/>
        <linearGradient id="linear-gradient-9" x1="-2.867" x2="1.76" y1="-1.122" y2="1.139" xlink:href="#linear-gradient"/>
        <linearGradient id="linear-gradient-10" x1="-6.505" x2=".768" y1="-2.08" y2=".644" xlink:href="#linear-gradient"/>
        <linearGradient id="linear-gradient-11" x1="-1.687" x2="2.078" y1="-.504" y2="1.189" xlink:href="#linear-gradient"/>
        <linearGradient id="linear-gradient-12" x1="-.655" x2="3.269" y1="-.179" y2="2.094" xlink:href="#linear-gradient"/>
        <linearGradient id="linear-gradient-13" x1="-4.182" x2="1.022" y1=".179" y2=".536" xlink:href="#linear-gradient"/>
        <linearGradient id="linear-gradient-14" x1="-.661" x2="4.81" y1=".166" y2="1.74" xlink:href="#linear-gradient"/>
        <linearGradient id="linear-gradient-15" x1="-1.912" x2="2.603" y1="-.371" y2="1.264" xlink:href="#linear-gradient"/>
        <linearGradient id="linear-gradient-16" x1="-2.613" x2="10.466" y1=".138" y2="1.661" xlink:href="#linear-gradient"/>
        <linearGradient id="linear-gradient-17" x1="-3.282" x2=".557" y1="-1.016" y2=".524" xlink:href="#linear-gradient"/>
        <linearGradient id="linear-gradient-18" x1="-3.063" x2=".702" y1="-1.475" y2=".639" xlink:href="#linear-gradient"/>
        <clipPath id="clip-path">
            <path id="Path_52" d="M0 0h50.283v47.89H0z" class="cls-1"/>
        </clipPath>
        <clipPath id="clip-path-2">
            <path id="Path_25" d="M70.533 61.808l2.454-2.984 1.357 3.617-2.454 2.984z" class="cls-1" transform="translate(-70.533 -58.825)"/>
        </clipPath>
        <clipPath id="clip-path-3">
            <path id="Path_28" d="M5 20.381l3.77-.843-1.153 3.687-3.77.843z" class="cls-1" transform="translate(-3.847 -19.539)"/>
        </clipPath>
        <clipPath id="clip-path-4">
            <path id="Path_35" d="M66.473 2.322l3.746 2.344-.664 2.979L65.809 5.3z" class="cls-1" transform="translate(-65.809 -2.322)"/>
        </clipPath>
        <clipPath id="clip-path-5">
            <path id="Path_39" d="M6.5 50.858l2.062 2.29-.952 2.931-2.062-2.29z" class="cls-1" transform="translate(-5.547 -50.858)"/>
        </clipPath>
        <clipPath id="clip-path-6">
            <path id="Path_45" d="M70.622 29.815l2.141-3.422 1.893 3.565-2.141 3.422z" class="cls-1" transform="translate(-70.622 -26.393)"/>
        </clipPath>
        <clipPath id="clip-path-7">
            <path id="Path_47" d="M29.889 69.275l-5.15.273-2.128-4.264 5.15-.273z" class="cls-1" transform="translate(-22.611 -65.011)"/>
        </clipPath>
        <clipPath id="clip-path-8">
            <path id="Path_49" d="M51.19 24.043l-.249-5.265 4.5-1.865.249 5.265z" class="cls-1" transform="translate(-50.942 -16.913)"/>
        </clipPath>
        <clipPath id="clip-path-9">
            <path id="Path_51" d="M0 0h6.134v7.11H0z" class="cls-1" transform="rotate(-48.417 5.102 2.294)"/>
        </clipPath>
        <style>
            .cls-1{fill:none}.cls-25{fill:#fff}
        </style>
    </defs>
    <g id="Group_913" transform="translate(65.162 9.948)">
        <path id="Path_1" fill="rgba(0,0,0,0.63)" d="M95.666 60.45v-7.8h5.241v1.329h-3.725v2.011h3.1v1.23h-3.1v3.23zm6.166-6.559V52.43h1.468v1.461zm0 6.559v-5.757h1.468v5.757zm8.151 0h-1.472v-3.23a1.682 1.682 0 0 0-.242-1.011.793.793 0 0 0-.67-.319 1.345 1.345 0 0 0-.6.154 1.854 1.854 0 0 0-.538.428 1.607 1.607 0 0 0-.352.615v3.363h-1.472v-5.757h1.329v1.066a2.2 2.2 0 0 1 .923-.846 2.876 2.876 0 0 1 1.362-.319 1.735 1.735 0 0 1 .879.2 1.325 1.325 0 0 1 .527.516 2.078 2.078 0 0 1 .253.725 4.423 4.423 0 0 1 .077.824zm.885-1.7a1.6 1.6 0 0 1 .308-.978 2.026 2.026 0 0 1 .879-.659 3.354 3.354 0 0 1 1.285-.231 4.23 4.23 0 0 1 .736.066 2.882 2.882 0 0 1 .648.165V56.8a1.08 1.08 0 0 0-.33-.846 1.359 1.359 0 0 0-.956-.3 2.488 2.488 0 0 0-.9.165 4.555 4.555 0 0 0-.9.483l-.472-.967a4.714 4.714 0 0 1 1.165-.56 4.252 4.252 0 0 1 1.263-.187 2.752 2.752 0 0 1 1.912.615 2.229 2.229 0 0 1 .692 1.758V58.8a.569.569 0 0 0 .077.341.417.417 0 0 0 .275.11v1.2a2.435 2.435 0 0 1-.363.055 1.91 1.91 0 0 1-.264.022 1 1 0 0 1-.67-.2.777.777 0 0 1-.275-.483l-.033-.3a2.566 2.566 0 0 1-.945.758 2.68 2.68 0 0 1-1.132.253 2.235 2.235 0 0 1-1.033-.231 1.909 1.909 0 0 1-.714-.648 1.768 1.768 0 0 1-.253-.93zm3.582.3a.734.734 0 0 0 .275-.505v-.582a3.059 3.059 0 0 0-1.154-.231 1.619 1.619 0 0 0-.945.253.745.745 0 0 0-.363.648.82.82 0 0 0 .264.593 1.026 1.026 0 0 0 .758.264 1.727 1.727 0 0 0 .637-.121 1.56 1.56 0 0 0 .528-.325zm8.473 1.406h-1.472V57.22a1.682 1.682 0 0 0-.242-1.011.793.793 0 0 0-.67-.319 1.345 1.345 0 0 0-.6.154 1.853 1.853 0 0 0-.538.429 1.608 1.608 0 0 0-.352.615v3.362h-1.472v-5.757h1.323v1.066a2.2 2.2 0 0 1 .923-.846 2.876 2.876 0 0 1 1.362-.319 1.735 1.735 0 0 1 .879.2 1.325 1.325 0 0 1 .527.516 2.078 2.078 0 0 1 .253.725 4.421 4.421 0 0 1 .077.824zm3.96.11a3.03 3.03 0 0 1-1.615-.418 2.918 2.918 0 0 1-1.055-1.1 3.012 3.012 0 0 1-.374-1.472 3.108 3.108 0 0 1 .362-1.483A2.838 2.838 0 0 1 125.258 55a3.093 3.093 0 0 1 1.615-.406 3 3 0 0 1 1.6.406 2.586 2.586 0 0 1 1 1.066l-1.439.439a1.27 1.27 0 0 0-1.176-.659 1.447 1.447 0 0 0-1.307.824 1.945 1.945 0 0 0-.2.9 1.988 1.988 0 0 0 .2.9 1.719 1.719 0 0 0 .549.615 1.369 1.369 0 0 0 .758.22 1.446 1.446 0 0 0 .725-.187 1.092 1.092 0 0 0 .472-.494l1.439.439a2.481 2.481 0 0 1-.989 1.077 3.051 3.051 0 0 1-1.621.42zm6.137 0a3.093 3.093 0 0 1-1.615-.406 2.885 2.885 0 0 1-1.044-1.077 3.013 3.013 0 0 1-.374-1.472 3.131 3.131 0 0 1 .363-1.494 2.816 2.816 0 0 1 1.055-1.1 3.051 3.051 0 0 1 1.626-.417 3 3 0 0 1 1.615.417 2.7 2.7 0 0 1 1.022 1.088 3 3 0 0 1 .363 1.45 3.219 3.219 0 0 1-.033.494h-4.45a1.5 1.5 0 0 0 .494 1.055 1.545 1.545 0 0 0 1.033.385 1.7 1.7 0 0 0 .824-.209 1.155 1.155 0 0 0 .538-.571l1.264.352a2.593 2.593 0 0 1-1.022 1.088 3.189 3.189 0 0 1-1.659.417zm-1.505-3.45h3.01a1.584 1.584 0 0 0-.494-1.044 1.409 1.409 0 0 0-1.022-.406 1.433 1.433 0 0 0-1.022.406 1.563 1.563 0 0 0-.472 1.044zm14.119-1.143a2.642 2.642 0 0 0-1.2.264 1.545 1.545 0 0 0-.758.736v3.477h-1.472v-5.757h1.351v1.231a2.5 2.5 0 0 1 .769-.934 1.947 1.947 0 0 1 1.011-.374 2.385 2.385 0 0 1 .3.011zm3.416 4.592a3.094 3.094 0 0 1-1.615-.406 2.884 2.884 0 0 1-1.044-1.077 3.013 3.013 0 0 1-.374-1.472 3.131 3.131 0 0 1 .363-1.494 2.816 2.816 0 0 1 1.055-1.1 3.051 3.051 0 0 1 1.626-.417 2.994 2.994 0 0 1 1.615.417A2.7 2.7 0 0 1 151.7 56.1a3 3 0 0 1 .363 1.45 3.223 3.223 0 0 1-.033.494h-4.45a1.5 1.5 0 0 0 .494 1.055 1.545 1.545 0 0 0 1.033.385 1.7 1.7 0 0 0 .824-.209 1.155 1.155 0 0 0 .538-.571l1.264.352a2.593 2.593 0 0 1-1.022 1.088 3.19 3.19 0 0 1-1.659.417zm-1.505-3.45h3.01a1.583 1.583 0 0 0-.494-1.044 1.409 1.409 0 0 0-1.022-.406 1.433 1.433 0 0 0-1.022.406 1.563 1.563 0 0 0-.472 1.039zm5.491 3.34v-7.8h2.835a4 4 0 0 1 2.131.527 3.265 3.265 0 0 1 1.285 1.406 4.4 4.4 0 0 1 .428 1.956 4.3 4.3 0 0 1-.472 2.066 3.335 3.335 0 0 1-1.34 1.362 4.11 4.11 0 0 1-2.033.483zm5.153-3.911a3.035 3.035 0 0 0-.275-1.329 2.065 2.065 0 0 0-.791-.9 2.28 2.28 0 0 0-1.253-.33h-1.318v5.142h1.318a2.3 2.3 0 0 0 1.264-.33 2.137 2.137 0 0 0 .78-.923 3.127 3.127 0 0 0 .275-1.335zm5.24 4.021a3.094 3.094 0 0 1-1.615-.406 2.884 2.884 0 0 1-1.044-1.077 3.013 3.013 0 0 1-.37-1.482 3.13 3.13 0 0 1 .363-1.494 2.816 2.816 0 0 1 1.055-1.1 3.052 3.052 0 0 1 1.626-.417 2.994 2.994 0 0 1 1.615.417 2.7 2.7 0 0 1 1.022 1.088 3 3 0 0 1 .363 1.45 3.23 3.23 0 0 1-.033.494h-4.45a1.5 1.5 0 0 0 .494 1.055 1.545 1.545 0 0 0 1.033.385 1.7 1.7 0 0 0 .824-.209 1.155 1.155 0 0 0 .538-.571l1.264.352a2.594 2.594 0 0 1-1.022 1.088 3.189 3.189 0 0 1-1.659.417zm-1.505-3.45h3.01a1.583 1.583 0 0 0-.494-1.044 1.409 1.409 0 0 0-1.022-.406 1.433 1.433 0 0 0-1.022.406 1.563 1.563 0 0 0-.473 1.039zm5.49 3.34v-7.8h5.241v1.329h-3.725v2.006h3.1v1.23h-3.1v3.23zm6.166-6.559V52.43h1.472v1.461zm0 6.559v-5.762h1.472v5.757zm8.151 0h-1.472V57.22a1.683 1.683 0 0 0-.242-1.011.793.793 0 0 0-.67-.319 1.345 1.345 0 0 0-.6.154 1.853 1.853 0 0 0-.538.428 1.608 1.608 0 0 0-.352.615v3.363h-1.477v-5.757h1.33v1.066a2.2 2.2 0 0 1 .923-.846 2.876 2.876 0 0 1 1.362-.319 1.735 1.735 0 0 1 .879.2 1.325 1.325 0 0 1 .527.516 2.076 2.076 0 0 1 .253.725 4.423 4.423 0 0 1 .077.824zm3.95.11a3.094 3.094 0 0 1-1.615-.406 2.885 2.885 0 0 1-1.044-1.077 3.012 3.012 0 0 1-.374-1.472 3.131 3.131 0 0 1 .363-1.494 2.816 2.816 0 0 1 1.055-1.1 3.052 3.052 0 0 1 1.626-.417 2.994 2.994 0 0 1 1.615.417 2.7 2.7 0 0 1 1.022 1.088 3 3 0 0 1 .363 1.45 3.229 3.229 0 0 1-.033.494h-4.45a1.5 1.5 0 0 0 .491 1.052 1.545 1.545 0 0 0 1.033.385 1.7 1.7 0 0 0 .824-.209 1.155 1.155 0 0 0 .538-.571l1.263.352a2.592 2.592 0 0 1-1.022 1.088 3.189 3.189 0 0 1-1.659.417zm-1.505-3.45h3.01a1.583 1.583 0 0 0-.494-1.044 1.409 1.409 0 0 0-1.022-.406 1.433 1.433 0 0 0-1.022.406 1.563 1.563 0 0 0-.472 1.039zm5.061.461a3.41 3.41 0 0 1 .33-1.505 2.683 2.683 0 0 1 .912-1.077 2.31 2.31 0 0 1 1.329-.4 2.1 2.1 0 0 1 1.143.319 2.245 2.245 0 0 1 .8.791V52.43h1.472v6.37a.57.57 0 0 0 .077.341.4.4 0 0 0 .264.11v1.2a3.481 3.481 0 0 1-.626.077 1.068 1.068 0 0 1-.659-.2.725.725 0 0 1-.286-.516l-.022-.363a2.137 2.137 0 0 1-.868.824 2.38 2.38 0 0 1-1.132.286 2.563 2.563 0 0 1-1.417-.4 2.858 2.858 0 0 1-.967-1.077 3.256 3.256 0 0 1-.352-1.516zm4.516.769v-1.377a1.713 1.713 0 0 0-.6-.8 1.459 1.459 0 0 0-.879-.319 1.292 1.292 0 0 0-.791.253 1.59 1.59 0 0 0-.527.648 1.981 1.981 0 0 0-.187.857 1.831 1.831 0 0 0 .209.868 1.682 1.682 0 0 0 .56.615 1.558 1.558 0 0 0 .824.22 1.459 1.459 0 0 0 .824-.275 1.4 1.4 0 0 0 .571-.692z" transform="translate(-95.666 -28.739)"/>
        <path id="Path_2" d="M106.674 29.379a3.664 3.664 0 0 0-.872-.6 7.9 7.9 0 0 0-1.6-.688 5.721 5.721 0 0 0-1.9-.321q-2.591 0-2.591 1.835a1.387 1.387 0 0 0 .413 1.055 3.344 3.344 0 0 0 1.238.665q.825.276 2.064.6a15.675 15.675 0 0 1 2.774.963 4.275 4.275 0 0 1 1.8 1.466 4 4 0 0 1 .643 2.385 4.422 4.422 0 0 1-.849 2.819 4.683 4.683 0 0 1-2.2 1.537 8.959 8.959 0 0 1-2.98.482 12.5 12.5 0 0 1-3.646-.55 11.676 11.676 0 0 1-3.187-1.559l1.4-2.728a5.006 5.006 0 0 0 .734.55 12.213 12.213 0 0 0 1.284.665 11.738 11.738 0 0 0 1.651.551 7.264 7.264 0 0 0 1.811.229q2.615 0 2.614-1.674a1.414 1.414 0 0 0-.527-1.146 4.363 4.363 0 0 0-1.49-.734q-.941-.3-2.2-.666a14.1 14.1 0 0 1-2.591-.963 3.511 3.511 0 0 1-2.017-3.439 4.789 4.789 0 0 1 .78-2.8 4.9 4.9 0 0 1 2.155-1.72 7.377 7.377 0 0 1 3-.6 8.929 8.929 0 0 1 3.164.551 12.077 12.077 0 0 1 2.522 1.261l-1.4 2.567zm4.363 12.014V25.115h6.9a4.641 4.641 0 0 1 2.064.458 5.089 5.089 0 0 1 1.65 1.238 6.033 6.033 0 0 1 1.078 1.743 5.209 5.209 0 0 1 .389 1.971 5.593 5.593 0 0 1-.642 2.614 5.413 5.413 0 0 1-1.788 2.019 4.509 4.509 0 0 1-2.637.779H114.2v5.457h-3.164zm3.164-8.231h3.669a1.784 1.784 0 0 0 1.445-.711 2.966 2.966 0 0 0 .6-1.927 2.688 2.688 0 0 0-.666-1.948 2.05 2.05 0 0 0-1.513-.688H114.2v5.273zm24.81-8.048v16.279h-3.141v-6.947h-7.382v6.947h-3.165V25.115h3.165v6.58h7.382v-6.58h3.141zm14.7 13.5v2.774h-11.3V25.115h11.1v2.774h-7.934v3.92h6.855v2.569h-6.855v4.241zm2.466 2.774V25.115h7.2a4.632 4.632 0 0 1 2.063.458 5.081 5.081 0 0 1 1.651 1.238 5.438 5.438 0 0 1 1.078 1.743 5.209 5.209 0 0 1 .389 1.971 5.381 5.381 0 0 1-.8 2.867 4.47 4.47 0 0 1-2.133 1.88l3.715 6.121h-3.486l-3.348-5.457h-3.164v5.457h-3.164zm3.164-8.231h3.967a1.765 1.765 0 0 0 1.467-.758 3 3 0 0 0 .6-1.88 2.821 2.821 0 0 0-.321-1.353 2.617 2.617 0 0 0-.826-.94 1.774 1.774 0 0 0-1.055-.344h-3.83v5.273zm12.084 8.231V25.115h3.165v16.279h-3.165zm13.463.115a7.827 7.827 0 0 1-3.325-.642 5.958 5.958 0 0 1-2.2-1.811 7.922 7.922 0 0 1-1.216-2.591 11.834 11.834 0 0 1-.389-3.051v-8.3h3.164v8.3a8.863 8.863 0 0 0 .366 2.567 4.132 4.132 0 0 0 1.238 1.973 3.447 3.447 0 0 0 2.338.755 3.513 3.513 0 0 0 2.385-.756 4.268 4.268 0 0 0 1.238-1.995 8.748 8.748 0 0 0 .366-2.545v-8.3H192v8.3a11.584 11.584 0 0 1-.412 3.141 7.19 7.19 0 0 1-1.262 2.591 5.921 5.921 0 0 1-2.2 1.742 7.716 7.716 0 0 1-3.232.619zm23.571-.113V30.708l-4.173 7.956h-1.766l-4.173-7.956v10.685h-3.164V25.115h3.393l4.815 9.263 4.862-9.263h3.37v16.279z" transform="translate(-95.65 -24.998)"/>
    </g>
    <g id="Group_10" clip-path="url(#clip-path)">
        <path id="Path_3" fill="url(#linear-gradient)" d="M29.217 11.842c-.844-.666-1.644-1.288-2.4-1.909-.355-.311-.666-.578-.977-.844a18.918 18.918 0 0 1 3.376-4.042 54.948 54.948 0 0 1 5.864-1.022c.221.178.444.4.666.578.489.444 1.066.888 1.643 1.333A14.5 14.5 0 0 0 34.9 9.71c-2.041.755-3.64 1.333-5.683 2.132z" transform="translate(-9.583 -1.492)"/>
        <path id="Path_4" fill="url(#linear-gradient-2)" d="M16.548 24.929q-1.4-1.082-2.754-2.221c-.4-.355-.8-.666-1.155-.977a32.133 32.133 0 0 1 1.954-6 40.466 40.466 0 0 1 5.42-2.531c.311.267.666.578 1.021.888.755.667 1.6 1.288 2.444 1.955a38.138 38.138 0 0 0-1.466 5.774c-1.777.933-3.465 1.865-5.464 3.109z" transform="translate(-4.687 -4.896)"/>
        <path id="Path_5" fill="url(#linear-gradient-3)" d="M9.331 41.486q-1.3-.972-2.532-2.043c-.355-.311-.711-.622-1.022-.933a32.761 32.761 0 0 1-.177-6.441 23.648 23.648 0 0 1 3.82-3.687c.355.311.755.667 1.155 1.022q1.364 1.155 2.8 2.221a56.77 56.77 0 0 0-.222 6.663 28.072 28.072 0 0 0-3.822 3.198z" transform="translate(-2.046 -10.525)"/>
        <path id="Path_6" fill="url(#linear-gradient-4)" d="M71.468 34.637q1.305-.972 2.532-2.043c.355-.311.711-.622 1.022-.933a36.737 36.737 0 0 0 .177-6.441 23.648 23.648 0 0 0-3.82-3.687c-.355.311-.755.666-1.154 1.021q-1.364 1.155-2.8 2.221a56.786 56.786 0 0 1 .222 6.663 25.6 25.6 0 0 1 3.82 3.2z" transform="translate(-25.005 -7.986)"/>
        <path id="Path_7" fill="url(#linear-gradient-5)" d="M8.247 57.367C7.625 56.879 7 56.39 6.47 55.946c-.267-.222-.489-.444-.711-.622a35.261 35.261 0 0 1-2.088-5.508 9.6 9.6 0 0 1 1.244-3.643c.311.311.666.578 1.022.889.755.666 1.6 1.333 2.487 2a56.348 56.348 0 0 0 1.289 5.686 7.175 7.175 0 0 0-1.466 2.619z" transform="translate(-1.362 -17.123)"/>
        <path id="Path_8" fill="url(#linear-gradient-6)" d="M52.146 24.826c-1.6-.844-3.243-1.688-4.842-2.621a51.852 51.852 0 0 1 .577-5.508c1.466-.8 2.888-1.6 4.4-2.576 1.11.622 2.177 1.244 3.287 1.777.133 1.51.266 2.71.577 5.242a35.431 35.431 0 0 1-4 3.687z" transform="translate(-17.543 -5.236)"/>
        <path id="Path_9" fill="url(#linear-gradient-7)" d="M43.043 41.271q-2.825-1.418-5.552-3.02c.044-2.266.089-4.22.222-6.531 2.488-1.466 3.776-2.176 5.42-3.2q2.437 1.384 4.931 2.665c.088 2.088.221 4.22.311 6.308-1.423 1.113-2.844 2.135-5.332 3.778z" transform="translate(-13.904 -10.578)"/>
        <path id="Path_10" fill="url(#linear-gradient-8)" d="M33.493 57.629c-1.687-.888-3.42-1.777-5.108-2.754-.133-2.177-.267-3.775-.355-5.908 4.17-2.532 4.17-2.532 5.37-3.287 1.821 1.066 3.687 2.043 5.552 3.02-.044 4.087-.044 4.842-.088 6.174-1.595.845-3.017 1.6-5.371 2.755z" transform="translate(-10.395 -16.94)"/>
        <path id="Path_11" fill="url(#linear-gradient-9)" d="M26.028 69.846c-1.2-.622-2.4-1.244-3.553-1.955-.4-2.043-.578-2.976-.8-4.086 1.11-.667 1.865-1.155 3.953-2.31 1.644.932 3.332 1.865 4.975 2.709-.044 1.466-.044 2.888-.222 4.309-3.376 1.11-4.354 1.333-4.354 1.333z" transform="translate(-8.038 -22.805)"/>
        <path id="Path_12" fill="#c4c4c4" d="M71.392 65.314c1.022-.755 2.088-1.555 3.109-2.354.489-1.954.711-2.843.933-3.909-.888-.444-1.51-.8-3.154-1.51-1.422 1.11-2.887 2.221-4.353 3.287-.089 1.377-.133 2.665-.089 3.954 2.754.487 3.554.532 3.554.532z" transform="translate(-25.151 -21.339)"/>
        <path id="Path_13" fill="url(#linear-gradient-10)" d="M71.392 65.314c1.022-.755 2.088-1.555 3.109-2.354.489-1.954.711-2.843.933-3.909-.888-.444-1.51-.8-3.154-1.51-1.422 1.11-2.887 2.221-4.353 3.287-.089 1.377-.133 2.665-.089 3.954 2.754.487 3.554.532 3.554.532z" transform="translate(-25.151 -21.339)"/>
        <path id="Path_14" fill="url(#linear-gradient-11)" d="M34.186 25.341q-2.473-1.553-4.886-3.2a44.68 44.68 0 0 1 1.422-5.73c2-.8 2.931-1.2 5.685-2.221q1.912 1.3 3.865 2.532c-.222 1.466-.489 2.976-.667 5.508-2.132 1.244-2.443 1.422-5.419 3.109z" transform="translate(-10.866 -5.263)"/>
        <path id="Path_15" fill="url(#linear-gradient-12)" d="M14.821 10.919A14.007 14.007 0 0 1 13.133 8.7a22.693 22.693 0 0 1 4-4.309 31.384 31.384 0 0 1 5.2-1.777 9.076 9.076 0 0 0 1.333 1.733A19.64 19.64 0 0 0 20.2 8.386c-1.6.755-3.336 1.422-5.379 2.533z" transform="translate(-4.87 -.969)"/>
        <path id="Path_16" fill="url(#linear-gradient-13)" d="M69.135 8.307a14.006 14.006 0 0 0 1.688-2.221 22.7 22.7 0 0 0-4-4.309A31.363 31.363 0 0 0 61.628 0a9.093 9.093 0 0 1-1.333 1.732 19.694 19.694 0 0 1 3.465 4.042 46.863 46.863 0 0 1 5.375 2.532z" transform="translate(-22.36)"/>
        <path id="Path_17" fill="#87f2e7" d="M24.151 41.53q-2.554-1.574-5.019-3.287a51.379 51.379 0 0 1 .267-6.663c1.555-.978 2.932-1.821 5.464-3.2 1.555 1.066 3.243 2.177 4.931 3.2-.133 2-.222 3.465-.267 6.575q-2.663 1.727-5.375 3.375z" transform="translate(-7.094 -10.525)"/>
        <path id="Path_18" fill="url(#linear-gradient-14)" d="M4.274 25.619a12.377 12.377 0 0 1-1.732-2.265 27.882 27.882 0 0 1 2.043-6.086 19.025 19.025 0 0 1 3.82-3.643 11.684 11.684 0 0 0 1.688 2.221 29.367 29.367 0 0 0-2 6 33.818 33.818 0 0 0-3.82 3.775z" transform="translate(-.943 -5.053)"/>
        <path id="Path_19" fill="url(#linear-gradient-15)" d="M17.642 57.158q-2.073-1.287-4.086-2.665c-.4-1.644-.8-3.332-1.2-5.73a35.349 35.349 0 0 1 3.776-3.154q2.447 1.682 4.975 3.243c.133 2 .177 3.2.4 5.864-1.378.884-2.621 1.643-3.865 2.442z" transform="translate(-4.582 -16.914)"/>
        <path id="Path_20" fill="url(#linear-gradient-16)" d="M1.978 43.246A8.226 8.226 0 0 1 .6 41.381a29.347 29.347 0 0 1-.533-6.041 15.225 15.225 0 0 1 1.288-4.486 13.909 13.909 0 0 0 1.688 2.265 40.985 40.985 0 0 0 .177 6.4 10.549 10.549 0 0 0-1.244 3.731z" transform="translate(-.024 -11.442)"/>
        <path id="Path_21" fill="url(#linear-gradient-17)" d="M52.475 56.528q-2.658-1.044-5.241-2.265c.044-1.422.088-3.421.088-6.175 1.733-1.2 3.421-2.309 5.331-3.82q2.559 1.22 5.2 2.265a56.068 56.068 0 0 1 .089 6.174 49.742 49.742 0 0 1-5.467 3.821z" transform="translate(-17.517 -16.417)"/>
        <path id="Path_22" fill="url(#linear-gradient-18)" d="M41.4 70.493q-2.17-.845-4.264-1.865c.133-1.066.266-2.221.355-4.354 1.732-.8 3.331-1.554 5.419-2.709 1.777.844 3.553 1.6 5.2 2.265a23.511 23.511 0 0 1-1.021 4.62 40.784 40.784 0 0 1-5.689 2.043z" transform="translate(-13.773 -22.831)"/>
        <g id="Group_6" transform="translate(2.42 1.461)">
            <g id="Group_1" clip-path="url(#clip-path-2)" transform="translate(41.955 35.549)">
                <path id="Path_23" d="M73.39 64.179l-.849.346 1.322.914.023-2.549-.5 1.289zm-.313.4l.4-.164.234-.611-.011 1.207-.626-.433z" class="cls-25" transform="translate(-71.278 -60.332)"/>
                <path id="Path_24" d="M73.745 62.067l-1.273-.874-.026 2.454.82-.337zm-1.114-.447l.727.5-.468.193-.273.709zm.347.925l.479-.2-.28.727-.479.2.281-.727z" class="cls-25" transform="translate(-71.242 -59.703)"/>
            </g>
            <g id="Group_2" clip-path="url(#clip-path-3)" transform="translate(0 10.832)">
                <path id="Path_26" d="M6.966 23.606l-.882-.25.479 1.534 1.587-2-1.184.71zm-.493.122l.418.118.56-.337-.751.945z" class="cls-25" transform="translate(-4.677 -20.783)"/>
                <path id="Path_27" d="M8.248 21.679l-.467-1.472-1.529 1.919.853.239zm-.6-1.038l.266.84-.486-.136-.652.39.873-1.093zm-.3.944l.5.14-.668.4-.5-.14z" class="cls-25" transform="translate(-4.739 -19.787)"/>
            </g>
            <g id="Group_3" clip-path="url(#clip-path-4)" transform="translate(38.983)">
                <path id="Path_29" d="M69.752 5.21a3.722 3.722 0 0 0-1.227-1.265 2.193 2.193 0 0 0-1.425-.392.88.88 0 0 0-.783.71 2.009 2.009 0 0 0 .315 1.4 3.722 3.722 0 0 0 1.227 1.265 3.051 3.051 0 0 0 .5.256c.031.012.053 0 .05-.029a.1.1 0 0 0-.06-.072 2.886 2.886 0 0 1-.473-.241A3.507 3.507 0 0 1 66.72 5.65a1.893 1.893 0 0 1-.3-1.315.829.829 0 0 1 .738-.669 2.067 2.067 0 0 1 1.339.37 3.506 3.506 0 0 1 1.156 1.191 1.894 1.894 0 0 1 .3 1.315.827.827 0 0 1-.737.669 1.558 1.558 0 0 1-.62-.048c-.03-.008-.048.009-.042.039a.1.1 0 0 0 .066.068 1.652 1.652 0 0 0 .659.05.88.88 0 0 0 .783-.71 2.017 2.017 0 0 0-.315-1.4z" class="cls-25" transform="translate(-65.987 -2.773)"/>
                <path id="Path_30" d="M69.752 5.21a3.722 3.722 0 0 0-1.227-1.265 2.193 2.193 0 0 0-1.425-.392.88.88 0 0 0-.783.71 2.009 2.009 0 0 0 .315 1.4 3.722 3.722 0 0 0 1.227 1.265 3.051 3.051 0 0 0 .5.256c.031.012.053 0 .05-.029a.1.1 0 0 0-.06-.072 2.886 2.886 0 0 1-.473-.241A3.507 3.507 0 0 1 66.72 5.65a1.893 1.893 0 0 1-.3-1.315.829.829 0 0 1 .738-.669 2.067 2.067 0 0 1 1.339.37 3.506 3.506 0 0 1 1.156 1.191 1.894 1.894 0 0 1 .3 1.315.827.827 0 0 1-.737.669 1.558 1.558 0 0 1-.62-.048c-.03-.008-.048.009-.042.039a.1.1 0 0 0 .066.068 1.652 1.652 0 0 0 .659.05.88.88 0 0 0 .783-.71 2.017 2.017 0 0 0-.315-1.4z" class="cls-25" transform="translate(-65.987 -2.773)"/>
                <path id="Path_31" d="M67.347 4.1a.079.079 0 0 0-.078-.039.727.727 0 0 0-.483.556 2.493 2.493 0 0 0 1.3 2.249c.873.546 1.708.425 1.862-.269a2.492 2.492 0 0 0-1.3-2.249 1.889 1.889 0 0 0-1.171-.335c-.025 0-.032.03-.015.06a.091.091 0 0 0 .077.05 1.753 1.753 0 0 1 1.091.311 2.322 2.322 0 0 1 1.213 2.094c-.145.646-.922.758-1.735.25A2.321 2.321 0 0 1 66.9 4.687a.676.676 0 0 1 .449-.517c.017-.008.019-.038-.002-.07z" class="cls-25" transform="translate(-66.162 -2.947)"/>
                <path id="Path_32" d="M67.347 4.1a.079.079 0 0 0-.078-.039.727.727 0 0 0-.483.556 2.493 2.493 0 0 0 1.3 2.249c.873.546 1.708.425 1.862-.269a2.492 2.492 0 0 0-1.3-2.249 1.889 1.889 0 0 0-1.171-.335c-.025 0-.032.03-.015.06a.091.091 0 0 0 .077.05 1.753 1.753 0 0 1 1.091.311 2.322 2.322 0 0 1 1.213 2.094c-.145.646-.922.758-1.735.25A2.321 2.321 0 0 1 66.9 4.687a.676.676 0 0 1 .449-.517c.017-.008.019-.038-.002-.07z" class="cls-25" transform="translate(-66.162 -2.947)"/>
                <path id="Path_33" d="M67.7 5.986a.292.292 0 0 0 .107.118l1.019.637a.767.767 0 0 0 .4.13.3.3 0 0 0 .269-.136l.169-.274a.457.457 0 0 0-.025-.43 1.065 1.065 0 0 0-.387-.427l-.886-.554c-.07-.044-.138-.044-.165 0l-.182.3-.243-.15c-.055-.035-.109-.035-.132 0l-.088.131a.084.084 0 0 0 0 .08.2.2 0 0 0 .072.081l.214.133-.151.245a.127.127 0 0 0 .009.116zm.044-.7h.012l1 .626-.084.125h-.012l-1-.626zm.532.608l.365.228c.055.035.11.035.133 0l.088-.131a.085.085 0 0 0 0-.081.2.2 0 0 0-.072-.081l-.341-.213.059-.1.664.415a.247.247 0 0 1 .089.1.1.1 0 0 1 .006.1L69.1 6.4c-.033.053-.113.053-.2 0l-.679-.425zm-.112-.07l-.064.105a.057.057 0 0 0 0 .055.135.135 0 0 0 .049.054l.729.456c.134.084.264.083.316 0l.169-.274a.2.2 0 0 0-.013-.186.462.462 0 0 0-.166-.18l-.7-.435c-.033-.02-.064-.02-.077 0l-.081.132-.208-.131.172-.279c.008-.013.025-.013.044 0l.886.554a.853.853 0 0 1 .31.342.365.365 0 0 1 .02.344l-.169.274a.247.247 0 0 1-.22.111.624.624 0 0 1-.323-.106l-1.019-.637a.077.077 0 0 1-.028-.031.032.032 0 0 1 0-.031l.16-.262z" class="cls-25" transform="translate(-66.454 -3.322)"/>
                <path id="Path_34" d="M67.7 5.986a.292.292 0 0 0 .107.118l1.019.637a.767.767 0 0 0 .4.13.3.3 0 0 0 .269-.136l.169-.274a.457.457 0 0 0-.025-.43 1.065 1.065 0 0 0-.387-.427l-.886-.554c-.07-.044-.138-.044-.165 0l-.182.3-.243-.15c-.055-.035-.109-.035-.132 0l-.088.131a.084.084 0 0 0 0 .08.2.2 0 0 0 .072.081l.214.133-.151.245a.127.127 0 0 0 .009.116zm.044-.7h.012l1 .626-.084.125h-.012l-1-.626zm.532.608l.365.228c.055.035.11.035.133 0l.088-.131a.085.085 0 0 0 0-.081.2.2 0 0 0-.072-.081l-.341-.213.059-.1.664.415a.247.247 0 0 1 .089.1.1.1 0 0 1 .006.1L69.1 6.4c-.033.053-.113.053-.2 0l-.679-.425zm-.112-.07l-.064.105a.057.057 0 0 0 0 .055.135.135 0 0 0 .049.054l.729.456c.134.084.264.083.316 0l.169-.274a.2.2 0 0 0-.013-.186.462.462 0 0 0-.166-.18l-.7-.435c-.033-.02-.064-.02-.077 0l-.081.132-.208-.131.172-.279c.008-.013.025-.013.044 0l.886.554a.853.853 0 0 1 .31.342.365.365 0 0 1 .02.344l-.169.274a.247.247 0 0 1-.22.111.624.624 0 0 1-.323-.106l-1.019-.637a.077.077 0 0 1-.028-.031.032.032 0 0 1 0-.031l.16-.262z" class="cls-25" transform="translate(-66.454 -3.322)"/>
            </g>
            <g id="Group_4" clip-path="url(#clip-path-5)" transform="translate(1.07 30.536)">
                <path id="Path_36" d="M8.339 53.684a2.718 2.718 0 0 0-.59-1.239.937.937 0 0 0-.868-.38.938.938 0 0 0-.639.7 2.949 2.949 0 0 0 .558 2.612 1.472 1.472 0 0 0 .286.249c.018.012.035 0 .038-.028a.08.08 0 0 0-.026-.071 1.367 1.367 0 0 1-.271-.235 2.78 2.78 0 0 1-.527-2.46.885.885 0 0 1 .6-.661.884.884 0 0 1 .818.359 2.779 2.779 0 0 1 .523 2.459.883.883 0 0 1-.6.66.663.663 0 0 1-.4-.045c-.018-.008-.033.009-.034.038a.074.074 0 0 0 .032.066.7.7 0 0 0 .425.048.938.938 0 0 0 .639-.7 2.711 2.711 0 0 0 .036-1.372z" class="cls-25" transform="translate(-5.766 -51.3)"/>
                <path id="Path_37" d="M6.965 52.6c-.009-.029-.029-.046-.045-.038a.879.879 0 0 0-.414.547 2.5 2.5 0 0 0 .469 2.206.688.688 0 0 0 1.273-.271 2.5 2.5 0 0 0-.469-2.206.806.806 0 0 0-.714-.325c-.017 0-.026.03-.02.059s.025.052.042.048a.751.751 0 0 1 .665.3 2.327 2.327 0 0 1 .437 2.054.64.64 0 0 1-1.189.26 2.321 2.321 0 0 1-.437-2.054.814.814 0 0 1 .385-.51c.016-.008.022-.038.013-.067z" class="cls-25" transform="translate(-5.87 -51.471)"/>
                <path id="Path_38" d="M6.937 54.455a.218.218 0 0 0 .05.114l.561.623a.329.329 0 0 0 .239.126.241.241 0 0 0 .2-.134l.158-.271a.669.669 0 0 0 .058-.423.813.813 0 0 0-.181-.418l-.488-.541c-.038-.043-.084-.042-.109 0l-.17.291-.132-.146c-.03-.033-.065-.033-.087 0l-.081.13a.123.123 0 0 0-.011.079.151.151 0 0 0 .033.079l.118.131-.142.242a.184.184 0 0 0-.016.118zm.15-.691h.008l.551.612-.076.123h-.008l-.551-.612zm.245.6l.2.223c.03.034.066.034.087 0l.081-.129a.121.121 0 0 0 .013-.079.151.151 0 0 0-.035-.079l-.187-.208.056-.092.365.405a.186.186 0 0 1 .043.094.146.146 0 0 1-.013.1l-.159.271c-.03.052-.083.053-.129 0l-.373-.415zm-.062-.068l-.06.1a.085.085 0 0 0-.008.054.1.1 0 0 0 .023.053l.4.445c.074.082.16.08.21 0l.158-.27a.285.285 0 0 0 .024-.182.348.348 0 0 0-.079-.176l-.383-.425c-.018-.02-.039-.02-.05 0l-.077.13-.115-.128.162-.276c.006-.012.019-.013.029 0l.488.541a.644.644 0 0 1 .145.333.537.537 0 0 1-.046.338l-.159.27a.2.2 0 0 1-.164.109.269.269 0 0 1-.2-.1l-.561-.623A.06.06 0 0 1 7 54.453a.05.05 0 0 1 0-.031l.151-.257z" class="cls-25" transform="translate(-6.061 -51.838)"/>
            </g>
            <g id="Group_5" clip-path="url(#clip-path-6)" transform="translate(42.011 15.144)">
                <path id="Path_40" d="M73.3 31.685l.214-.342a.647.647 0 0 0 .021-.583.178.178 0 0 0-.337-.012l-.214.342a.128.128 0 0 0 0 .116l.252.476c.013.034.042.035.064.003zm-.217-.532l.179-.286a.106.106 0 0 1 .2.008.386.386 0 0 1-.013.349l-.178.285-.189-.356z" class="cls-25" transform="translate(-71.492 -27.966)"/>
                <path id="Path_41" d="M73.552 30.6a1.124 1.124 0 0 0-.022-.121c-.088-.373-.338-.539-.558-.37l-.079-.15a.036.036 0 0 0-.067 0l-.143.228a.129.129 0 0 0 0 .116l.063.12-.072.113-.063-.118a.036.036 0 0 0-.067 0l-.143.228a.128.128 0 0 0 0 .117l.063.119-.071.113a.129.129 0 0 0 0 .117l.126.238c.018.033.048.033.068 0l.071-.113.568 1.07-.071.113a.128.128 0 0 0 0 .116l.126.238c.018.033.048.034.068 0l.071-.114.063.119a.036.036 0 0 0 .067 0l.143-.228a.129.129 0 0 0 0-.116l-.063-.12.071-.113.063.119a.036.036 0 0 0 .067 0l.143-.228a.129.129 0 0 0 0-.116l-.063-.12a1.134 1.134 0 0 0 .14-.678c-.037-.4-.256-.662-.49-.583zm.287 1.143l-.039.057a.129.129 0 0 0 0 .117l.063.118-.072.115-.063-.12a.036.036 0 0 0-.067 0l-.143.228a.129.129 0 0 0 0 .116l.063.119-.071.113-.063-.118a.036.036 0 0 0-.067 0l-.08.112-.063-.118.071-.115a.129.129 0 0 0 0-.116l-.631-1.188c-.018-.033-.047-.033-.067 0l-.071.113-.063-.118.071-.114a.129.129 0 0 0 0-.116l-.063-.12.071-.113.063.118a.036.036 0 0 0 .067 0l.143-.228a.129.129 0 0 0 0-.116l-.063-.119.071-.113.071.133c.014.027.038.033.057.014a.261.261 0 0 1 .123-.069c.184-.04.345.184.361.5a.064.064 0 0 0 0 .016c.007.043.033.067.058.052.124-.07.257-.013.342.147a.9.9 0 0 1-.009.815z" class="cls-25" transform="translate(-71.27 -27.707)"/>
                <path id="Path_42" d="M73.905 31.61l-.321.513a.129.129 0 0 0 0 .116l.252.475a.036.036 0 0 0 .067 0l.321-.513a.642.642 0 0 0 .021-.582.177.177 0 0 0-.336-.013zm.252.475l-.285.456-.189-.356.285-.456a.107.107 0 0 1 .2.007.386.386 0 0 1-.01.349z" class="cls-25" transform="translate(-71.715 -28.285)"/>
                <path id="Path_43" d="M72.039 28.706a3.865 3.865 0 0 0-.124 3.494 1.065 1.065 0 0 0 2.017.072 3.871 3.871 0 0 0 .124-3.494 1.065 1.065 0 0 0-2.017-.072zm1.83 3.446a.994.994 0 0 1-1.882-.067 3.605 3.605 0 0 1 .116-3.261 1 1 0 0 1 1.882.067 3.606 3.606 0 0 1-.116 3.262z" class="cls-25" transform="translate(-70.969 -26.996)"/>
                <path id="Path_44" d="M72.278 29.139a3.35 3.35 0 0 0-.107 3.028.923.923 0 0 0 1.748.062 3.351 3.351 0 0 0 .107-3.027.923.923 0 0 0-1.748-.063zm1.577 2.971a.852.852 0 0 1-1.613-.058 3.089 3.089 0 0 1 .1-2.795.852.852 0 0 1 1.613.057 3.089 3.089 0 0 1-.1 2.795z" class="cls-25" transform="translate(-71.081 -27.19)"/>
            </g>
        </g>
        <g id="Group_7" clip-path="url(#clip-path-7)" transform="translate(14.226 40.902)">
            <path id="Path_46" d="M27.987 69.475c-.086.058-.284-.057-.274-.16-.006-.084.114-.113.212-.054s.137.177.062.214zm1.149-.181a.174.174 0 0 1-.2-.089c-.043-.072.029-.13.116-.1.108.027.164.162.081.189zm-2.568-.059c.112.006.2.155.116.191-.062.039-.168-.023-.213-.089-.012-.059.016-.115.1-.1zm2.063-.386c-.082.07-.293-.017-.334-.137s.089-.2.23-.123c.129.058.187.205.105.26zm-1.774.023c.008.12-.2.135-.311.023-.1-.086-.086-.2 0-.235.124-.029.318.094.312.212zm.845-.266c.052.1-.013.181-.117.194a.382.382 0 0 1-.231-.094c-.1-.086-.111-.21-.029-.256a.261.261 0 0 1 .147-.02.373.373 0 0 1 .23.176zm1.722-.242c-.075.063-.268-.035-.279-.138-.022-.088.092-.131.2-.079s.155.175.079.217zm-3.855.2c-.057.066-.238 0-.277-.1s.04-.166.151-.124.193.167.126.221zm1.465-.264a.5.5 0 0 1-.465-.1c-.181-.137-.23-.356-.1-.447a.488.488 0 0 1 .579.135c.153.154.144.357-.013.416zm.847-.06a.493.493 0 0 1-.525-.113c-.164-.139-.193-.344-.066-.427a.48.48 0 0 1 .543.109c.167.149.186.357.048.435zm.726-.308c.034.094-.034.16-.13.172a.391.391 0 0 1-.3-.172c-.041-.1-.005-.194.109-.2a.331.331 0 0 1 .316.2zm-2.46.274c-.094.074-.321-.014-.381-.147-.079-.138.069-.248.237-.172s.252.257.144.323zm1.775-.6a.528.528 0 0 1-.469-.129c-.143-.12-.2-.294-.116-.392.094-.142.416-.1.592.074.181.162.174.392-.006.447zM26.3 67.7a.515.515 0 0 1-.461-.111c-.171-.13-.223-.336-.113-.432s.388-.07.556.084c.19.159.198.395.018.459zm2.508-.292a.269.269 0 0 1-.32-.187c-.02-.107.126-.154.249-.082s.18.228.072.261zm-3.589.019c.052.1.016.185-.091.2a.31.31 0 0 1-.249-.154c-.065-.113.05-.2.185-.151a.412.412 0 0 1 .155.109zm4.2-.109a.172.172 0 0 1-.21-.1c-.04-.088.088-.13.177-.059.072.048.084.128.033.158zm-4.9.262c-.038.038-.138.017-.189-.039-.068-.06-.043-.15.041-.143.106-.015.217.134.148.182zm2.666-.58a.563.563 0 0 1-.573-.271c-.109-.191.024-.371.255-.338a.584.584 0 0 1 .439.3.207.207 0 0 1-.121.315zm-.81.044a.558.558 0 0 1-.579-.275c-.105-.187.023-.361.247-.335a.554.554 0 0 1 .472.365.2.2 0 0 1-.14.244zm1.506-.2c-.133.03-.34-.107-.342-.233-.023-.132.172-.179.318-.077s.172.291.024.313zm-2.381.12a.318.318 0 0 1-.364-.161c-.074-.137.073-.242.239-.169s.257.278.125.33zm-.963-.562c.092.082.056.2-.056.187a.3.3 0 0 1-.154-.06c-.031-.049-.072-.108-.045-.148.027-.074.179-.062.255.021zm3.888-.045c-.068.063-.252-.016-.28-.12s.067-.148.176-.1.175.174.1.22zm-2.013-.087a.315.315 0 0 1-.364-.16c-.079-.138.074-.245.239-.168s.256.276.125.327zm.8-.233c-.083.057-.272-.024-.316-.133-.048-.089.011-.17.116-.162a.333.333 0 0 1 .225.121c.033.067.039.145-.025.174zm-1.8.094c-.081.067-.283-.013-.33-.13-.063-.121.077-.208.22-.134.126.06.189.211.105.267zm-.659-.677c.083.064.065.148-.008.168a.213.213 0 0 1-.181-.116c-.041-.089.094-.124.184-.049zm2.514-.073c.006.054-.014.109-.092.1-.105 0-.2-.137-.136-.184s.178.011.223.087zm-1.229 0c.02.08-.076.125-.171.086a.278.278 0 0 1-.132-.107l-.014-.067a.1.1 0 0 1 .089-.07.224.224 0 0 1 .223.163z" class="cls-25" transform="translate(-23.227 -65.091)"/>
        </g>
        <g id="Group_8" clip-path="url(#clip-path-8)" transform="translate(32.05 10.641)">
            <path id="Path_48" d="M51.156 22.017c-.06-.092.061-.285.17-.268.088 0 .118.124.055.22s-.186.131-.225.048zm.181 1.183a.166.166 0 0 1 .1-.193c.076-.039.137.038.1.125-.03.108-.171.156-.2.069zm.082-2.611c-.006.114-.164.2-.2.105-.04-.066.025-.169.1-.211.055-.008.113.024.1.105zm.391 2.129c-.074-.088.02-.3.146-.331s.208.105.128.243c-.063.127-.217.176-.274.088zm-.01-1.809c-.126 0-.14-.21-.022-.319.091-.1.211-.074.247.017.028.128-.103.316-.225.302zm.274.88a.144.144 0 0 1-.2-.133.368.368 0 0 1 .1-.228c.091-.1.222-.1.27-.011a.273.273 0 0 1 .02.151.351.351 0 0 1-.192.22zm.242 1.771c-.065-.082.038-.271.147-.275s.138.1.082.2-.185.147-.229.071zm-.186-3.942c-.069-.063 0-.243.1-.276s.175.053.13.164-.176.184-.233.113zm.266 1.511a.483.483 0 0 1 .113-.466c.145-.175.377-.21.471-.072a.473.473 0 0 1-.147.581c-.164.144-.378.12-.439-.044zm.058.868a.476.476 0 0 1 .123-.528c.148-.157.363-.172.449-.036a.465.465 0 0 1-.119.545c-.154.157-.372.165-.453.019zm.318.761c-.1.028-.168-.046-.179-.145a.367.367 0 0 1 .182-.288.144.144 0 0 1 .209.125.312.312 0 0 1-.214.307zm-.272-2.526c-.075-.1.018-.326.157-.377.147-.07.26.088.18.254-.065.165-.269.239-.337.123zm.617 1.852a.505.505 0 0 1 .139-.469.315.315 0 0 1 .413-.091c.148.106.106.431-.082.6-.172.176-.414.147-.47-.041zm-.079-1.658a.494.494 0 0 1 .12-.461c.138-.165.355-.2.455-.084a.447.447 0 0 1-.093.56c-.169.18-.42.171-.482-.016zM53.326 23a.256.256 0 0 1 .2-.312c.112-.013.16.138.083.259s-.244.166-.283.053zm.006-3.657a.133.133 0 0 1-.205-.107.291.291 0 0 1 .164-.243c.12-.059.21.064.159.2a.386.386 0 0 1-.116.151zm.084 4.282a.164.164 0 0 1 .106-.206c.092-.035.135.1.06.185-.051.07-.135.075-.166.021zm-.238-5.014c-.04-.042-.017-.142.042-.189.064-.065.159-.033.151.052.014.109-.143.211-.193.137zm.583 2.764a.533.533 0 0 1 .289-.564.245.245 0 0 1 .354.284.549.549 0 0 1-.313.426.231.231 0 0 1-.33-.146zm-.04-.829a.529.529 0 0 1 .293-.571.243.243 0 0 1 .35.277.523.523 0 0 1-.388.454.22.22 0 0 1-.255-.159zm.2 1.548a.305.305 0 0 1 .247-.333c.14-.013.187.187.079.33s-.3.155-.327 0zm-.109-2.434a.3.3 0 0 1 .172-.359c.145-.065.254.092.176.255s-.294.243-.349.1zm.6-.941c-.086.088-.208.043-.2-.07a.279.279 0 0 1 .064-.153c.052-.028.114-.066.157-.036.077.033.063.186-.025.258zm.019 3.964c-.065-.074.019-.255.128-.277s.155.079.106.186-.184.166-.233.09zm.107-2.045a.3.3 0 0 1 .17-.359c.146-.07.257.092.176.256s-.292.241-.346.1zm.239.827c-.06-.088.026-.276.142-.313a.118.118 0 0 1 .17.13.312.312 0 0 1-.129.22c-.075.03-.16.031-.186-.036zm-.086-1.841c-.07-.087.015-.288.138-.327.128-.057.218.092.139.233-.068.132-.223.185-.28.095zM55.4 19c-.069.08-.157.056-.177-.02.009-.072.052-.16.123-.176.102-.028.138.112.054.196zm.058 2.566c-.057 0-.115-.023-.1-.1 0-.107.146-.2.2-.126s-.015.187-.095.228zm.006-1.253c-.084.014-.13-.085-.089-.18a.26.26 0 0 1 .113-.127l.07-.009a.108.108 0 0 1 .074.1.212.212 0 0 1-.168.221z" class="cls-25" transform="translate(-51.015 -17.46)"/>
        </g>
        <g id="Group_9" clip-path="url(#clip-path-9)" transform="translate(30.578 29.898)">
            <path id="Path_50" d="M56.717 54.937l-.76-.579.593-1.417v-.034l-.239-1.238a.021.021 0 0 0 0-.009l-.01-.009a.016.016 0 0 0-.013-.011l-1-.541h-.006l-1.409.368c-.008 0-.01 0-.029.021l-.04.036-.142.128-.428.389-.622.565-.024.028v.015l-.61 1.454-.005.034.243 1.235a.03.03 0 0 0 0 .013.019.019 0 0 0 .006.01l.01.009 1 .534a.017.017 0 0 0 .008.008.021.021 0 0 0 .013 0 .028.028 0 0 0 .016 0l1.4-.365.006-.006.009-.006 1.191-1.085.747.573a.031.031 0 0 0 .018.006.087.087 0 0 0 .045-.011.075.075 0 0 0 .026-.026.085.085 0 0 0 .018-.042.058.058 0 0 0-.006-.039zm-.657-1.948l.189-.974.169.881zm.341.027l-.431 1.037.074-.944zm-3.49 1.959l.243.758-.764-.411zm1.636-2.751l.676-.943.262.817zm1.068-.167l-.243-.758.764.411zm.041.1l.517-.346-.2 1.035v.011zm-3.04 1.573v-.011l.079-1 .271.055.187.037zm2.507-2.481l-.678.946-.463-.648zm.758 1.9l-.574.985-.175-.482-.1-.282.846-.22zm-.829.1l.508-.968.337.747-.846.22zm-.522-.9l.949-.128-.518.984zm-.164 2.038l.559-.915.277.777-.982.376zm-.676-.78l.724-1.183.217.44.221.44-1.161.3zm1.145-.182l-.72 1.183-.221-.44-.22-.44zm-.661-.8l-.57.934-.277-.777.978-.374-.132.217zm-.18 2.057l-.944.128.39-.744.127-.241zm-1.346-.8l.574-.984.174.494.1.269zm.829-.1l-.508.968-.337-.75.845-.22zm2.433-.482l-.081 1.012-.271-.055-.187-.037zm-3.146-.711l.937-.856-.476.946zm.107 2.288l-.518.346.2-1.044zm1.214-.042l.459.649-1.141.3zm1.678-.4l-.937.856.476-.946zm-2.41-1.787l.515-1.019.458.647-.972.372zm-1.227 1.361l.431-1.037-.074.944zm.341.027l-.189.974-.169-.881zm1.513.765l-.675.942-.262-.817.938-.126zm1.193-.43l-.515 1.029-.458-.647z" class="cls-25" transform="translate(-49.851 -48.844)"/>
        </g>
    </g>
</svg>
