<svg width="506" height="110" viewBox="0 0 506 110" fill="none" xmlns="http://www.w3.org/2000/svg">
<path d="M127.776 101V83.96H139.224V86.864H131.088V91.256H137.856V93.944H131.088V101H127.776ZM141.245 86.672V83.48H144.461V86.672H141.245ZM141.245 101V88.424H144.461V101H141.245ZM159.05 101H155.834V93.944C155.834 92.936 155.658 92.2 155.306 91.736C154.954 91.272 154.466 91.04 153.842 91.04C153.41 91.04 152.97 91.152 152.522 91.376C152.09 91.6 151.698 91.912 151.346 92.312C150.994 92.696 150.738 93.144 150.578 93.656V101H147.362V88.424H150.266V90.752C150.73 89.968 151.402 89.352 152.282 88.904C153.162 88.44 154.154 88.208 155.258 88.208C156.042 88.208 156.682 88.352 157.178 88.64C157.674 88.912 158.058 89.288 158.33 89.768C158.602 90.232 158.786 90.76 158.882 91.352C158.994 91.944 159.05 92.544 159.05 93.152V101ZM160.983 97.28C160.983 96.464 161.207 95.752 161.655 95.144C162.119 94.52 162.759 94.04 163.575 93.704C164.391 93.368 165.327 93.2 166.383 93.2C166.911 93.2 167.447 93.248 167.991 93.344C168.535 93.424 169.007 93.544 169.407 93.704V93.032C169.407 92.232 169.167 91.616 168.687 91.184C168.223 90.752 167.527 90.536 166.599 90.536C165.911 90.536 165.255 90.656 164.631 90.896C164.007 91.136 163.351 91.488 162.663 91.952L161.631 89.84C162.463 89.296 163.311 88.888 164.175 88.616C165.055 88.344 165.975 88.208 166.935 88.208C168.727 88.208 170.119 88.656 171.111 89.552C172.119 90.448 172.623 91.728 172.623 93.392V97.4C172.623 97.752 172.679 98 172.791 98.144C172.903 98.272 173.103 98.352 173.391 98.384V101C173.103 101.064 172.839 101.104 172.599 101.12C172.375 101.152 172.183 101.168 172.023 101.168C171.383 101.168 170.895 101.024 170.559 100.736C170.223 100.448 170.023 100.096 169.959 99.68L169.887 99.032C169.327 99.752 168.639 100.304 167.823 100.688C167.023 101.056 166.199 101.24 165.351 101.24C164.503 101.24 163.751 101.072 163.095 100.736C162.439 100.384 161.919 99.912 161.535 99.32C161.167 98.712 160.983 98.032 160.983 97.28ZM168.807 97.928C169.207 97.544 169.407 97.176 169.407 96.824V95.552C168.575 95.216 167.735 95.048 166.887 95.048C166.039 95.048 165.351 95.232 164.823 95.6C164.295 95.952 164.031 96.424 164.031 97.016C164.031 97.496 164.223 97.928 164.607 98.312C164.991 98.696 165.543 98.888 166.263 98.888C166.743 98.888 167.207 98.8 167.655 98.624C168.119 98.448 168.503 98.216 168.807 97.928ZM187.316 101H184.1V93.944C184.1 92.936 183.924 92.2 183.572 91.736C183.22 91.272 182.732 91.04 182.108 91.04C181.676 91.04 181.236 91.152 180.788 91.376C180.356 91.6 179.964 91.912 179.612 92.312C179.26 92.696 179.004 93.144 178.844 93.656V101H175.628V88.424H178.532V90.752C178.996 89.968 179.668 89.352 180.548 88.904C181.428 88.44 182.42 88.208 183.524 88.208C184.308 88.208 184.948 88.352 185.444 88.64C185.94 88.912 186.324 89.288 186.596 89.768C186.868 90.232 187.052 90.76 187.148 91.352C187.26 91.944 187.316 92.544 187.316 93.152V101ZM195.968 101.24C194.608 101.24 193.432 100.936 192.44 100.328C191.448 99.72 190.68 98.92 190.136 97.928C189.592 96.936 189.32 95.864 189.32 94.712C189.32 93.544 189.584 92.464 190.112 91.472C190.656 90.48 191.424 89.688 192.416 89.096C193.408 88.504 194.584 88.208 195.944 88.208C197.32 88.208 198.488 88.504 199.448 89.096C200.424 89.688 201.152 90.464 201.632 91.424L198.488 92.384C197.928 91.424 197.072 90.944 195.92 90.944C195.296 90.944 194.736 91.104 194.24 91.424C193.744 91.728 193.352 92.168 193.064 92.744C192.776 93.304 192.632 93.96 192.632 94.712C192.632 95.448 192.776 96.104 193.064 96.68C193.368 97.24 193.768 97.688 194.264 98.024C194.76 98.344 195.312 98.504 195.92 98.504C196.496 98.504 197.024 98.368 197.504 98.096C198 97.808 198.344 97.448 198.536 97.016L201.68 97.976C201.248 98.92 200.528 99.704 199.52 100.328C198.528 100.936 197.344 101.24 195.968 101.24ZM209.374 101.24C208.014 101.24 206.838 100.944 205.846 100.352C204.87 99.76 204.11 98.976 203.566 98C203.022 97.008 202.75 95.936 202.75 94.784C202.75 93.6 203.014 92.512 203.542 91.52C204.086 90.512 204.854 89.712 205.846 89.12C206.838 88.512 208.022 88.208 209.398 88.208C210.774 88.208 211.95 88.512 212.926 89.12C213.902 89.712 214.646 90.504 215.158 91.496C215.686 92.472 215.95 93.528 215.95 94.664C215.95 95.08 215.926 95.44 215.878 95.744H206.158C206.238 96.72 206.598 97.488 207.238 98.048C207.894 98.608 208.646 98.888 209.494 98.888C210.134 98.888 210.734 98.736 211.294 98.432C211.87 98.112 212.262 97.696 212.47 97.184L215.23 97.952C214.766 98.912 214.022 99.704 212.998 100.328C211.974 100.936 210.766 101.24 209.374 101.24ZM206.086 93.704H212.662C212.566 92.76 212.206 92 211.582 91.424C210.974 90.832 210.23 90.536 209.35 90.536C208.486 90.536 207.742 90.832 207.118 91.424C206.51 92 206.166 92.76 206.086 93.704ZM236.929 91.208C235.953 91.208 235.081 91.4 234.313 91.784C233.545 92.152 232.993 92.688 232.657 93.392V101H229.441V88.424H232.393V91.112C232.825 90.248 233.385 89.568 234.073 89.072C234.777 88.576 235.513 88.304 236.281 88.256C236.617 88.256 236.833 88.264 236.929 88.28V91.208ZM244.39 101.24C243.03 101.24 241.854 100.944 240.862 100.352C239.886 99.76 239.126 98.976 238.582 98C238.038 97.008 237.766 95.936 237.766 94.784C237.766 93.6 238.03 92.512 238.558 91.52C239.102 90.512 239.87 89.712 240.862 89.12C241.854 88.512 243.038 88.208 244.414 88.208C245.79 88.208 246.966 88.512 247.942 89.12C248.918 89.712 249.662 90.504 250.174 91.496C250.702 92.472 250.966 93.528 250.966 94.664C250.966 95.08 250.942 95.44 250.894 95.744H241.174C241.254 96.72 241.614 97.488 242.254 98.048C242.91 98.608 243.662 98.888 244.51 98.888C245.15 98.888 245.75 98.736 246.31 98.432C246.886 98.112 247.278 97.696 247.486 97.184L250.246 97.952C249.782 98.912 249.038 99.704 248.014 100.328C246.99 100.936 245.782 101.24 244.39 101.24ZM241.102 93.704H247.678C247.582 92.76 247.222 92 246.598 91.424C245.99 90.832 245.246 90.536 244.366 90.536C243.502 90.536 242.758 90.832 242.134 91.424C241.526 92 241.182 92.76 241.102 93.704ZM253.096 101V83.96H259.288C261.144 83.96 262.696 84.344 263.944 85.112C265.192 85.864 266.128 86.888 266.752 88.184C267.376 89.464 267.688 90.888 267.688 92.456C267.688 94.184 267.344 95.688 266.656 96.968C265.968 98.248 264.992 99.24 263.728 99.944C262.464 100.648 260.984 101 259.288 101H253.096ZM264.352 92.456C264.352 91.352 264.152 90.384 263.752 89.552C263.352 88.704 262.776 88.048 262.024 87.584C261.272 87.104 260.36 86.864 259.288 86.864H256.408V98.096H259.288C260.376 98.096 261.296 97.856 262.048 97.376C262.8 96.88 263.368 96.208 263.752 95.36C264.152 94.496 264.352 93.528 264.352 92.456ZM275.796 101.24C274.436 101.24 273.26 100.944 272.268 100.352C271.292 99.76 270.532 98.976 269.988 98C269.444 97.008 269.172 95.936 269.172 94.784C269.172 93.6 269.436 92.512 269.964 91.52C270.508 90.512 271.276 89.712 272.268 89.12C273.26 88.512 274.444 88.208 275.82 88.208C277.196 88.208 278.372 88.512 279.348 89.12C280.324 89.712 281.068 90.504 281.58 91.496C282.108 92.472 282.372 93.528 282.372 94.664C282.372 95.08 282.348 95.44 282.3 95.744H272.58C272.66 96.72 273.02 97.488 273.66 98.048C274.316 98.608 275.068 98.888 275.916 98.888C276.556 98.888 277.156 98.736 277.716 98.432C278.292 98.112 278.684 97.696 278.892 97.184L281.652 97.952C281.188 98.912 280.444 99.704 279.42 100.328C278.396 100.936 277.188 101.24 275.796 101.24ZM272.508 93.704H279.084C278.988 92.76 278.628 92 278.004 91.424C277.396 90.832 276.652 90.536 275.772 90.536C274.908 90.536 274.164 90.832 273.54 91.424C272.932 92 272.588 92.76 272.508 93.704ZM284.503 101V83.96H295.951V86.864H287.815V91.256H294.583V93.944H287.815V101H284.503ZM297.972 86.672V83.48H301.188V86.672H297.972ZM297.972 101V88.424H301.188V101H297.972ZM315.777 101H312.561V93.944C312.561 92.936 312.385 92.2 312.033 91.736C311.681 91.272 311.193 91.04 310.569 91.04C310.137 91.04 309.697 91.152 309.249 91.376C308.817 91.6 308.425 91.912 308.073 92.312C307.721 92.696 307.465 93.144 307.305 93.656V101H304.089V88.424H306.993V90.752C307.457 89.968 308.129 89.352 309.009 88.904C309.889 88.44 310.881 88.208 311.985 88.208C312.769 88.208 313.409 88.352 313.905 88.64C314.401 88.912 314.785 89.288 315.057 89.768C315.329 90.232 315.513 90.76 315.609 91.352C315.721 91.944 315.777 92.544 315.777 93.152V101ZM324.405 101.24C323.045 101.24 321.869 100.944 320.877 100.352C319.901 99.76 319.141 98.976 318.597 98C318.053 97.008 317.781 95.936 317.781 94.784C317.781 93.6 318.045 92.512 318.573 91.52C319.117 90.512 319.885 89.712 320.877 89.12C321.869 88.512 323.053 88.208 324.429 88.208C325.805 88.208 326.981 88.512 327.957 89.12C328.933 89.712 329.677 90.504 330.189 91.496C330.717 92.472 330.981 93.528 330.981 94.664C330.981 95.08 330.957 95.44 330.909 95.744H321.189C321.269 96.72 321.629 97.488 322.269 98.048C322.925 98.608 323.677 98.888 324.525 98.888C325.165 98.888 325.765 98.736 326.325 98.432C326.901 98.112 327.293 97.696 327.501 97.184L330.261 97.952C329.797 98.912 329.053 99.704 328.029 100.328C327.005 100.936 325.797 101.24 324.405 101.24ZM321.117 93.704H327.693C327.597 92.76 327.237 92 326.613 91.424C326.005 90.832 325.261 90.536 324.381 90.536C323.517 90.536 322.773 90.832 322.149 91.424C321.541 92 321.197 92.76 321.117 93.704ZM332.173 94.712C332.173 93.512 332.413 92.416 332.893 91.424C333.373 90.432 334.037 89.648 334.885 89.072C335.733 88.496 336.701 88.208 337.789 88.208C338.717 88.208 339.549 88.44 340.285 88.904C341.037 89.352 341.621 89.928 342.037 90.632V83.48H345.253V97.4C345.253 97.752 345.309 98 345.421 98.144C345.533 98.272 345.725 98.352 345.997 98.384V101C345.421 101.112 344.965 101.168 344.629 101.168C344.053 101.168 343.573 101.024 343.189 100.736C342.821 100.448 342.613 100.072 342.565 99.608L342.517 98.816C342.053 99.6 341.421 100.2 340.621 100.616C339.837 101.032 339.013 101.24 338.149 101.24C336.981 101.24 335.949 100.952 335.053 100.376C334.157 99.784 333.453 99 332.941 98.024C332.429 97.032 332.173 95.928 332.173 94.712ZM342.037 96.392V93.392C341.781 92.688 341.341 92.104 340.717 91.64C340.093 91.176 339.453 90.944 338.797 90.944C338.141 90.944 337.565 91.128 337.069 91.496C336.573 91.848 336.189 92.32 335.917 92.912C335.645 93.488 335.509 94.112 335.509 94.784C335.509 95.472 335.661 96.104 335.965 96.68C336.269 97.24 336.677 97.688 337.189 98.024C337.717 98.344 338.317 98.504 338.989 98.504C339.597 98.504 340.197 98.304 340.789 97.904C341.397 97.504 341.813 97 342.037 96.392Z" fill="#87F2E7"/>
<path d="M157.808 43.464C157.424 43.0373 156.613 42.4827 155.376 41.8C154.139 41.0747 152.645 40.4347 150.896 39.88C149.189 39.2827 147.419 38.984 145.584 38.984C140.763 38.984 138.352 40.6907 138.352 44.104C138.352 45.3413 138.736 46.3227 139.504 47.048C140.272 47.7733 141.424 48.392 142.96 48.904C144.496 49.416 146.416 49.9707 148.72 50.568C151.707 51.336 154.288 52.232 156.464 53.256C158.683 54.28 160.368 55.6453 161.52 57.352C162.715 59.016 163.312 61.2347 163.312 64.008C163.312 67.2507 162.523 69.8747 160.944 71.88C159.408 73.8427 157.36 75.272 154.8 76.168C152.24 77.064 149.467 77.512 146.48 77.512C143.067 77.512 139.675 77 136.304 75.976C132.976 74.9093 130.011 73.4587 127.408 71.624L131.312 64.008C131.696 64.392 132.379 64.904 133.36 65.544C134.341 66.1413 135.536 66.76 136.944 67.4C138.352 67.9973 139.888 68.5093 141.552 68.936C143.216 69.3627 144.901 69.576 146.608 69.576C151.472 69.576 153.904 68.0187 153.904 64.904C153.904 63.5813 153.413 62.5147 152.432 61.704C151.451 60.8933 150.064 60.2107 148.272 59.656C146.523 59.1013 144.475 58.4827 142.128 57.8C139.227 56.9893 136.816 56.0933 134.896 55.112C133.019 54.088 131.611 52.8293 130.672 51.336C129.733 49.8 129.264 47.8587 129.264 45.512C129.264 42.3973 129.989 39.7947 131.44 37.704C132.933 35.5707 134.939 33.9707 137.456 32.904C139.973 31.7947 142.768 31.24 145.84 31.24C148.997 31.24 151.941 31.752 154.672 32.776C157.403 33.8 159.749 34.9733 161.712 36.296L157.808 43.464ZM169.986 77V31.56H189.25C191.341 31.56 193.261 31.9867 195.01 32.84C196.802 33.6933 198.338 34.8453 199.618 36.296C200.898 37.7467 201.901 39.368 202.626 41.16C203.351 42.952 203.714 44.7867 203.714 46.664C203.714 49.224 203.117 51.656 201.922 53.96C200.727 56.264 199.063 58.1413 196.93 59.592C194.839 61.0427 192.386 61.768 189.57 61.768H178.818V77H169.986ZM178.818 54.024H189.058C190.679 54.024 192.023 53.3627 193.09 52.04C194.199 50.6747 194.754 48.8827 194.754 46.664C194.754 44.3173 194.135 42.504 192.898 41.224C191.661 39.944 190.253 39.304 188.674 39.304H178.818V54.024ZM248.069 31.56V77H239.301V57.608H218.693V77H209.861V31.56H218.693V49.928H239.301V31.56H248.069ZM289.101 69.256V77H257.549V31.56H288.525V39.304H266.381V50.248H285.517V57.416H266.381V69.256H289.101ZM295.986 77V31.56H316.082C318.173 31.56 320.093 31.9867 321.842 32.84C323.634 33.6933 325.17 34.8453 326.45 36.296C327.773 37.7467 328.775 39.368 329.458 41.16C330.183 42.952 330.546 44.7867 330.546 46.664C330.546 49.5653 329.799 52.232 328.306 54.664C326.855 57.096 324.871 58.8453 322.354 59.912L332.722 77H322.994L313.65 61.768H304.818V77H295.986ZM304.818 54.024H315.89C317.554 54.024 318.919 53.32 319.986 51.912C321.095 50.4613 321.65 48.712 321.65 46.664C321.65 45.256 321.351 43.9973 320.754 42.888C320.157 41.7787 319.389 40.904 318.45 40.264C317.554 39.624 316.573 39.304 315.506 39.304H304.818V54.024ZM338.549 77V31.56H347.381V77H338.549ZM376.125 77.32C372.498 77.32 369.405 76.7227 366.845 75.528C364.328 74.2907 362.28 72.6053 360.701 70.472C359.165 68.3387 358.034 65.928 357.309 63.24C356.584 60.5093 356.221 57.672 356.221 54.728V31.56H365.053V54.728C365.053 57.2453 365.394 59.6347 366.077 61.896C366.76 64.1573 367.912 65.992 369.533 67.4C371.154 68.808 373.33 69.512 376.061 69.512C378.877 69.512 381.096 68.808 382.717 67.4C384.338 65.9493 385.49 64.0933 386.173 61.832C386.856 59.5707 387.197 57.2027 387.197 54.728V31.56H395.965V54.728C395.965 57.8427 395.581 60.7653 394.813 63.496C394.088 66.2267 392.914 68.6373 391.293 70.728C389.714 72.776 387.666 74.3973 385.149 75.592C382.632 76.744 379.624 77.32 376.125 77.32ZM441.917 77V47.176L430.269 69.384H425.341L413.693 47.176V77H404.861V31.56H414.333L427.773 57.416L441.341 31.56H450.749V77H441.917Z" fill="black"/>
<path d="M356.604 14.968H354.672V12.112H356.604V11.216C356.604 10.1333 356.837 9.144 357.304 8.248C357.789 7.352 358.471 6.63333 359.348 6.092C360.244 5.55067 361.317 5.28 362.568 5.28C363.632 5.28 364.603 5.45733 365.48 5.812C366.376 6.148 367.216 6.57733 368 7.1L366.516 9.9C366.031 9.47067 365.461 9.12533 364.808 8.864C364.155 8.60267 363.492 8.472 362.82 8.472C361.98 8.472 361.355 8.73333 360.944 9.256C360.552 9.77867 360.356 10.3853 360.356 11.076V12.112H368.224V26H364.472V14.968H360.356V26H356.604V14.968ZM385.258 26H381.506V17.768C381.506 16.592 381.301 15.7333 380.89 15.192C380.479 14.6507 379.91 14.38 379.182 14.38C378.678 14.38 378.165 14.5107 377.642 14.772C377.138 15.0333 376.681 15.3973 376.27 15.864C375.859 16.312 375.561 16.8347 375.374 17.432V26H371.622V11.328H375.01V14.044C375.551 13.1293 376.335 12.4107 377.362 11.888C378.389 11.3467 379.546 11.076 380.834 11.076C381.749 11.076 382.495 11.244 383.074 11.58C383.653 11.8973 384.101 12.336 384.418 12.896C384.735 13.4373 384.95 14.0533 385.062 14.744C385.193 15.4347 385.258 16.1347 385.258 16.844V26ZM387.513 21.66C387.513 20.708 387.774 19.8773 388.297 19.168C388.838 18.44 389.585 17.88 390.537 17.488C391.489 17.096 392.581 16.9 393.812 16.9C394.429 16.9 395.054 16.956 395.689 17.068C396.323 17.1613 396.874 17.3013 397.341 17.488V16.704C397.341 15.7707 397.061 15.052 396.501 14.548C395.959 14.044 395.147 13.792 394.065 13.792C393.262 13.792 392.497 13.932 391.769 14.212C391.041 14.492 390.275 14.9027 389.473 15.444L388.269 12.98C389.239 12.3453 390.229 11.8693 391.237 11.552C392.263 11.2347 393.337 11.076 394.457 11.076C396.547 11.076 398.171 11.5987 399.329 12.644C400.505 13.6893 401.093 15.1827 401.093 17.124V21.8C401.093 22.2107 401.158 22.5 401.289 22.668C401.419 22.8173 401.653 22.9107 401.989 22.948V26C401.653 26.0747 401.345 26.1213 401.065 26.14C400.803 26.1773 400.579 26.196 400.393 26.196C399.646 26.196 399.077 26.028 398.685 25.692C398.293 25.356 398.059 24.9453 397.985 24.46L397.901 23.704C397.247 24.544 396.445 25.188 395.493 25.636C394.559 26.0653 393.598 26.28 392.609 26.28C391.619 26.28 390.742 26.084 389.977 25.692C389.211 25.2813 388.605 24.7307 388.157 24.04C387.727 23.3307 387.513 22.5373 387.513 21.66ZM396.641 22.416C397.107 21.968 397.341 21.5387 397.341 21.128V19.644C396.37 19.252 395.39 19.056 394.401 19.056C393.411 19.056 392.609 19.2707 391.993 19.7C391.377 20.1107 391.069 20.6613 391.069 21.352C391.069 21.912 391.293 22.416 391.741 22.864C392.189 23.312 392.833 23.536 393.673 23.536C394.233 23.536 394.774 23.4333 395.297 23.228C395.838 23.0227 396.286 22.752 396.641 22.416ZM418.235 26H414.483V17.768C414.483 16.592 414.277 15.7333 413.867 15.192C413.456 14.6507 412.887 14.38 412.159 14.38C411.655 14.38 411.141 14.5107 410.619 14.772C410.115 15.0333 409.657 15.3973 409.247 15.864C408.836 16.312 408.537 16.8347 408.351 17.432V26H404.599V11.328H407.987V14.044C408.528 13.1293 409.312 12.4107 410.339 11.888C411.365 11.3467 412.523 11.076 413.811 11.076C414.725 11.076 415.472 11.244 416.051 11.58C416.629 11.8973 417.077 12.336 417.395 12.896C417.712 13.4373 417.927 14.0533 418.039 14.744C418.169 15.4347 418.235 16.1347 418.235 16.844V26ZM428.329 26.28C426.742 26.28 425.37 25.9253 424.213 25.216C423.056 24.5067 422.16 23.5733 421.525 22.416C420.89 21.2587 420.573 20.008 420.573 18.664C420.573 17.3013 420.881 16.0413 421.497 14.884C422.132 13.7267 423.028 12.8027 424.185 12.112C425.342 11.4213 426.714 11.076 428.301 11.076C429.906 11.076 431.269 11.4213 432.389 12.112C433.528 12.8027 434.377 13.708 434.937 14.828L431.269 15.948C430.616 14.828 429.617 14.268 428.273 14.268C427.545 14.268 426.892 14.4547 426.313 14.828C425.734 15.1827 425.277 15.696 424.941 16.368C424.605 17.0213 424.437 17.7867 424.437 18.664C424.437 19.5227 424.605 20.288 424.941 20.96C425.296 21.6133 425.762 22.136 426.341 22.528C426.92 22.9013 427.564 23.088 428.273 23.088C428.945 23.088 429.561 22.9293 430.121 22.612C430.7 22.276 431.101 21.856 431.325 21.352L434.993 22.472C434.489 23.5733 433.649 24.488 432.473 25.216C431.316 25.9253 429.934 26.28 428.329 26.28ZM443.969 26.28C442.382 26.28 441.01 25.9347 439.853 25.244C438.714 24.5533 437.828 23.6387 437.193 22.5C436.558 21.3427 436.241 20.092 436.241 18.748C436.241 17.3667 436.549 16.0973 437.165 14.94C437.8 13.764 438.696 12.8307 439.853 12.14C441.01 11.4307 442.392 11.076 443.997 11.076C445.602 11.076 446.974 11.4307 448.113 12.14C449.252 12.8307 450.12 13.7547 450.717 14.912C451.333 16.0507 451.641 17.2827 451.641 18.608C451.641 19.0933 451.613 19.5133 451.557 19.868H440.217C440.31 21.0067 440.73 21.9027 441.477 22.556C442.242 23.2093 443.12 23.536 444.109 23.536C444.856 23.536 445.556 23.3587 446.209 23.004C446.881 22.6307 447.338 22.1453 447.581 21.548L450.801 22.444C450.26 23.564 449.392 24.488 448.197 25.216C447.002 25.9253 445.593 26.28 443.969 26.28ZM440.133 17.488H447.805C447.693 16.3867 447.273 15.5 446.545 14.828C445.836 14.1373 444.968 13.792 443.941 13.792C442.933 13.792 442.065 14.1373 441.337 14.828C440.628 15.5 440.226 16.3867 440.133 17.488Z" fill="black"/>
<g clip-path="url(#clip0)">
<path d="M44.9376 23.6884C43.0059 22.1634 41.1759 20.7401 39.4476 19.3167C38.6343 18.6051 37.9226 17.9951 37.2109 17.3851C39.2443 14.4367 41.2776 11.285 44.9376 8.13338C48.4959 7.32005 52.5626 6.50671 58.3576 5.79504C58.866 6.20171 59.3743 6.71004 59.8826 7.11671C61.001 8.13338 62.3226 9.15005 63.6443 10.1667C61.8143 12.2 59.9843 14.5384 57.951 18.8084C53.2743 20.5367 49.6143 21.8584 44.9376 23.6884Z" fill="url(#paint0_linear)"/>
<path d="M27.1459 45.8512C24.9092 44.1229 22.7742 42.3946 20.8426 40.7679C19.9276 39.9546 19.0126 39.2429 18.1992 38.5312C19.2159 34.3629 20.3342 29.9912 22.6726 24.8062C25.8242 23.0779 29.4842 21.1462 35.0759 19.0112C35.7876 19.6212 36.6009 20.3329 37.4142 21.0446C39.1426 22.5696 41.0742 23.9929 43.0059 25.5179C41.8876 29.0762 40.6676 32.7362 39.6509 38.7346C35.5842 40.8696 31.7209 43.0046 27.1459 45.8512Z" fill="url(#paint1_linear)"/>
<path d="M16.6733 70.8614C14.6399 69.3364 12.6066 67.7098 10.8783 66.1848C10.0649 65.4731 9.25161 64.7614 8.53994 64.0498C8.0316 59.7798 7.72661 55.3064 8.13327 49.3081C10.1666 46.9698 12.5049 44.2248 16.8766 40.8698C17.6899 41.5814 18.6049 42.3948 19.5199 43.2081C21.4516 44.8348 23.5866 46.5631 25.925 48.2914C25.62 52.3581 25.2133 57.0348 25.4166 63.5414C22.3666 65.7781 19.5199 67.9131 16.6733 70.8614Z" fill="url(#paint2_linear)"/>
<path d="M106.343 60.9999C108.377 59.4749 110.41 57.8482 112.138 56.3232C112.952 55.6115 113.765 54.8999 114.477 54.1882C114.883 49.8165 115.29 45.4449 114.883 39.4465C112.85 37.1082 110.512 34.3632 106.14 31.0082C105.327 31.7198 104.412 32.5332 103.497 33.3465C101.565 34.9732 99.4301 36.7015 97.0918 38.4299C97.3968 42.4965 97.8035 47.1732 97.6001 53.6799C100.752 55.9165 103.497 58.0515 106.343 60.9999Z" fill="url(#paint3_linear)"/>
<path d="M15.7588 92.1099C14.3354 90.9916 12.9121 89.8732 11.6921 88.8566C11.0821 88.3482 10.5738 87.8399 10.0654 87.4332C8.43878 83.8749 6.81211 80.2149 5.28711 74.8265C5.89711 71.6749 6.20211 69.8449 8.13378 66.4899C8.84545 67.2015 9.65878 67.8115 10.4721 68.5232C12.2004 70.0482 14.1321 71.5732 16.1655 73.0982C16.8771 76.7582 17.5888 80.9265 19.1138 86.1115C17.7921 87.8399 16.3688 89.6699 15.7588 92.1099Z" fill="url(#paint4_linear)"/>
<path d="M79.1989 44.8347C75.5389 42.903 71.7772 40.9714 68.1172 38.8364C68.4222 34.7697 68.6255 30.8047 69.4389 26.2297C72.7939 24.3997 76.0472 22.5697 79.5039 20.333C82.0455 21.7563 84.4855 23.1797 87.0272 24.3997C87.3322 27.8563 87.6372 30.6013 88.3489 36.3964C86.0105 38.8364 83.6722 41.2764 79.1989 44.8347Z" fill="url(#paint5_linear)"/>
<path d="M66.6942 70.2514C62.4242 68.1164 58.1542 65.778 53.9858 63.338C54.0875 58.153 54.1892 53.6797 54.4942 48.393C60.1875 45.038 63.1359 43.4113 66.8975 41.073C70.6592 43.208 74.4209 45.2413 78.1825 47.173C78.3859 51.9513 78.6909 56.8313 78.8942 61.6097C75.6409 64.1514 72.3875 66.4897 66.6942 70.2514Z" fill="url(#paint6_linear)"/>
<path d="M52.8668 93.1266C49.0035 91.0932 45.0385 89.0599 41.1751 86.8232C40.8701 81.8415 40.5651 78.1815 40.3618 73.3015C49.9185 67.5065 49.9185 67.5065 52.6635 65.7782C56.8318 68.2182 61.1018 70.4549 65.3718 72.6915C65.2702 82.0449 65.2702 83.7732 65.1685 86.8232C61.5085 88.7549 58.2552 90.4832 52.8668 93.1266Z" fill="url(#paint7_linear)"/>
<path d="M41.1748 107.665C38.4298 106.242 35.6848 104.818 33.0414 103.192C32.1264 98.5149 31.7198 96.3799 31.2114 93.8382C33.7531 92.3132 35.4814 91.1949 40.2598 88.5515C44.0214 90.6865 47.8848 92.8215 51.6464 94.7532C51.5448 98.1082 51.5448 101.362 51.1381 104.615C43.4114 107.157 41.1748 107.665 41.1748 107.665Z" fill="url(#paint8_linear)"/>
<path d="M105.835 100.65C108.174 98.9213 110.614 97.0913 112.952 95.2613C114.07 90.7879 114.579 88.7546 115.087 86.3146C113.054 85.2979 111.63 84.4846 107.869 82.8579C104.615 85.3996 101.26 87.9412 97.9053 90.3813C97.702 93.5329 97.6003 96.4813 97.702 99.4296C104.005 100.548 105.835 100.65 105.835 100.65Z" fill="#C4C4C4"/>
<path d="M105.835 100.65C108.174 98.9213 110.614 97.0913 112.952 95.2613C114.07 90.7879 114.579 88.7546 115.087 86.3146C113.054 85.2979 111.63 84.4846 107.869 82.8579C104.615 85.3996 101.26 87.9412 97.9053 90.3813C97.702 93.5329 97.6003 96.4813 97.702 99.4296C104.005 100.548 105.835 100.65 105.835 100.65Z" fill="url(#paint9_linear)"/>
<path d="M53.3747 45.9529C49.5114 43.5129 45.7497 41.0729 42.1914 38.6329C43.0047 34.5662 43.8181 30.3979 45.4447 25.5179C50.0197 23.6879 52.1547 22.7729 58.4581 20.4346C61.3048 22.3662 64.2531 24.2979 67.3031 26.2296C66.7948 29.5846 66.1848 33.0412 65.7781 38.8363C60.8981 41.6829 60.1864 42.0896 53.3747 45.9529Z" fill="url(#paint10_linear)"/>
<path d="M22.773 22.7729C21.0447 20.8412 19.723 19.1129 18.9097 17.6896C22.0613 13.6229 23.7897 11.3862 28.0597 7.8279C31.1097 6.50623 34.668 5.0829 39.9547 3.76123C40.5647 4.87957 41.5814 6.20123 43.0047 7.72623C39.7514 10.8779 37.9213 12.6062 35.0747 16.9779C31.4147 18.7062 27.4497 20.2312 22.773 22.7729Z" fill="url(#paint11_linear)"/>
<path d="M107.056 19.0114C108.784 17.0798 110.106 15.3514 110.919 13.9281C107.768 9.86143 106.039 7.62476 101.769 4.06643C98.7192 2.74476 95.1609 1.32142 89.8742 -0.000244141C89.2642 1.11809 88.2476 2.43976 86.8242 3.96476C90.0776 7.11643 91.9076 8.84476 94.7542 13.2164C98.5159 14.8431 102.481 16.3681 107.056 19.0114Z" fill="url(#paint12_linear)"/>
<path d="M39.0402 70.9631C35.0752 68.5231 31.2119 65.9814 27.5519 63.4398C27.5519 58.5598 27.4502 54.3914 28.1619 48.1898C31.7202 45.9531 34.8719 44.0214 40.6669 40.8698C44.2252 43.3098 48.0886 45.8514 51.9519 48.1898C51.6469 52.7648 51.4436 56.1198 51.3419 63.2364C47.2752 65.8798 43.2086 68.4214 39.0402 70.9631Z" fill="#87F2E7"/>
<path d="M7.62467 47.0714C5.79467 45.1397 4.473 43.3097 3.65967 41.8864C4.67634 37.718 5.693 33.448 8.33634 27.958C10.573 25.3147 12.8097 22.6713 17.0797 19.6213C17.893 21.0447 19.113 22.773 20.943 24.7047C19.3163 28.4663 17.6897 32.3297 16.368 38.4297C13.5213 40.9714 10.573 43.513 7.62467 47.0714Z" fill="url(#paint13_linear)"/>
<path d="M29.8908 92.1099C26.6375 90.0765 23.4858 88.0432 20.5375 86.0099C19.6225 82.2482 18.7075 78.3849 17.7925 72.8949C19.9275 70.8615 22.1642 68.8282 26.4342 65.6765C29.9925 68.1165 33.8558 70.6582 37.8208 73.0982C38.1258 77.6732 38.2275 80.4182 38.7358 86.5182C35.5842 88.5515 32.7375 90.2799 29.8908 92.1099Z" fill="url(#paint14_linear)"/>
<path d="M4.47362 72.7931C2.94862 71.1664 1.93195 69.7431 1.32195 68.5231C0.61028 64.4564 0.000279605 60.3898 0.101946 54.6964C0.61028 51.6464 1.11861 48.4948 3.05028 44.4281C3.86362 45.9531 5.18528 47.5798 6.91362 49.6131C6.81195 53.5781 6.60862 58.1531 7.32029 64.2531C6.10029 66.6931 4.88028 69.2348 4.47362 72.7931Z" fill="url(#paint15_linear)"/>
<path d="M80.0118 91.8049C76.1485 90.2799 72.0818 88.5516 68.0151 86.6199C68.1168 83.3666 68.2185 78.7916 68.2185 72.4882C72.1835 69.7432 76.0468 67.2015 80.4185 63.7449C84.4851 65.6765 88.4501 67.4049 92.3135 68.9299C92.5168 73.5049 92.8218 77.7749 92.5168 83.0616C89.2635 85.6032 85.6035 88.4499 80.0118 91.8049Z" fill="url(#paint16_linear)"/>
<path d="M63.2376 109.088C60.0859 107.868 56.8325 106.445 53.4775 104.818C53.7825 102.378 54.0875 99.7349 54.2909 94.8549C58.2559 93.0249 61.9159 91.2965 66.6942 88.6532C70.7609 90.5849 74.8276 92.3132 78.5892 93.8382C78.0809 97.1932 77.5726 100.752 76.2509 104.412C66.5926 108.377 63.2376 109.088 63.2376 109.088Z" fill="url(#paint17_linear)"/>
<g clip-path="url(#clip1)">
<path d="M106.403 93.5112L104.459 94.3032L107.485 96.3962L107.537 90.561L106.403 93.5112ZM105.685 94.4252L106.605 94.0503L107.142 92.6534L107.118 95.4162L105.685 94.4252Z" fill="white"/>
<path d="M107.297 90.1168L104.381 88.1177L104.322 93.7333L106.199 92.9634L107.297 90.1168ZM104.747 89.0932L106.41 90.2334L105.339 90.6725L104.713 92.2961L104.747 89.0932ZM105.542 91.2111L106.638 90.7612L105.997 92.4248L104.9 92.8748L105.542 91.2111Z" fill="white"/>
</g>
<g clip-path="url(#clip2)">
<path d="M10.7793 34.5959L8.75977 34.0245L9.85756 37.536L13.4885 32.9677L10.7793 34.5959ZM9.65092 34.8747L10.6071 35.1452L11.8898 34.3743L10.1707 36.5373L9.65092 34.8747Z" fill="white"/>
<path d="M13.5716 32.4684L12.5031 29.0989L9.00179 33.4897L10.9549 34.0373L13.5716 32.4684ZM12.1915 30.093L12.8009 32.0149L11.6868 31.7026L10.1945 32.5974L12.1915 30.093ZM11.5148 32.2515L12.6562 32.5715L11.127 33.4884L9.98556 33.1684L11.5148 32.2515Z" fill="white"/>
</g>
<g clip-path="url(#clip3)">
<path d="M103.381 8.92176C102.715 7.77123 101.717 6.74301 100.572 6.02649C99.4269 5.30997 98.2713 4.99093 97.318 5.12814C96.3648 5.26538 95.7281 5.84241 95.5253 6.75297C95.3224 7.66352 95.5777 8.79862 96.2441 9.94917C96.9105 11.0997 97.9082 12.1279 99.0534 12.8444C99.4348 13.0831 99.8216 13.28 100.203 13.4296C100.273 13.457 100.324 13.4272 100.318 13.3631C100.312 13.299 100.25 13.2248 100.181 13.1975C99.8215 13.0566 99.4571 12.8711 99.0976 12.6461C98.019 11.9713 97.0793 11.0029 96.4517 9.91928C95.8241 8.83567 95.5836 7.76659 95.7747 6.909C95.9657 6.05142 96.5653 5.50792 97.4631 5.37869C98.3609 5.24945 99.4494 5.54994 100.528 6.22478C101.607 6.89963 102.546 7.86806 103.174 8.95165C103.802 10.0352 104.042 11.1043 103.851 11.9619C103.66 12.8195 103.06 13.363 102.162 13.4922C101.728 13.5547 101.25 13.5179 100.742 13.3827C100.674 13.3646 100.631 13.4044 100.647 13.4717C100.663 13.539 100.731 13.6082 100.799 13.6263C101.339 13.7699 101.847 13.8091 102.308 13.7428C103.261 13.6056 103.897 13.0285 104.1 12.118C104.303 11.2074 104.048 10.0723 103.381 8.92176Z" fill="white"/>
<path d="M103.381 8.92176C102.715 7.77123 101.717 6.74301 100.572 6.02649C99.4269 5.30997 98.2713 4.99093 97.318 5.12814C96.3648 5.26538 95.7281 5.84241 95.5253 6.75297C95.3224 7.66352 95.5777 8.79862 96.2441 9.94917C96.9105 11.0997 97.9082 12.1279 99.0534 12.8444C99.4348 13.0831 99.8216 13.28 100.203 13.4296C100.273 13.457 100.324 13.4272 100.318 13.3631C100.312 13.299 100.25 13.2248 100.181 13.1975C99.8215 13.0566 99.4571 12.8711 99.0976 12.6461C98.019 11.9713 97.0793 11.0029 96.4517 9.91928C95.8241 8.83567 95.5836 7.76659 95.7747 6.909C95.9657 6.05142 96.5653 5.50792 97.4631 5.37869C98.3609 5.24945 99.4494 5.54994 100.528 6.22478C101.607 6.89963 102.546 7.86806 103.174 8.95165C103.802 10.0352 104.042 11.1043 103.851 11.9619C103.66 12.8195 103.06 13.363 102.162 13.4922C101.728 13.5547 101.25 13.5179 100.742 13.3827C100.674 13.3646 100.631 13.4044 100.647 13.4717C100.663 13.539 100.731 13.6082 100.799 13.6263C101.339 13.7699 101.847 13.8091 102.308 13.7428C103.261 13.6056 103.897 13.0285 104.1 12.118C104.303 11.2074 104.048 10.0723 103.381 8.92176Z" fill="white"/>
<path d="M97.476 5.98724C97.4281 5.91989 97.348 5.87997 97.297 5.89799C96.7138 6.1039 96.3318 6.54357 96.1924 7.16951C95.8386 8.75765 97.1758 11.0664 99.1733 12.3161C101.171 13.5658 103.084 13.2905 103.437 11.7023C103.791 10.1142 102.454 7.80541 100.456 6.55571C99.5199 5.96973 98.5673 5.6977 97.7743 5.78973C97.7162 5.79649 97.7005 5.85817 97.7393 5.92752C97.7781 5.99684 97.8567 6.0476 97.9149 6.04086C98.6534 5.95518 99.5403 6.20843 100.412 6.75401C102.272 7.91766 103.517 10.0675 103.188 11.5463C102.858 13.0251 101.077 13.2815 99.2174 12.1178C97.3575 10.9542 96.1124 8.80435 96.4418 7.32554C96.5716 6.74278 96.9272 6.33342 97.4702 6.14173C97.5212 6.12369 97.5238 6.05453 97.476 5.98724Z" fill="white"/>
<path d="M97.476 5.98724C97.4281 5.91989 97.348 5.87997 97.297 5.89799C96.7138 6.1039 96.3318 6.54357 96.1924 7.16951C95.8386 8.75765 97.1758 11.0664 99.1733 12.3161C101.171 13.5658 103.084 13.2905 103.437 11.7023C103.791 10.1142 102.454 7.80541 100.456 6.55571C99.5199 5.96973 98.5673 5.6977 97.7743 5.78973C97.7162 5.79649 97.7005 5.85817 97.7393 5.92752C97.7781 5.99684 97.8567 6.0476 97.9149 6.04086C98.6534 5.95518 99.5403 6.20843 100.412 6.75401C102.272 7.91766 103.517 10.0675 103.188 11.5463C102.858 13.0251 101.077 13.2815 99.2174 12.1178C97.3575 10.9542 96.1124 8.80435 96.4418 7.32554C96.5716 6.74278 96.9272 6.33342 97.4702 6.14173C97.5212 6.12369 97.5238 6.05453 97.476 5.98724Z" fill="white"/>
<path d="M97.6208 9.44293C97.6715 9.54824 97.7602 9.64599 97.8643 9.71111L100.197 11.1705C100.506 11.3638 100.828 11.4688 101.103 11.4663C101.378 11.4637 101.597 11.3537 101.718 11.1564L102.103 10.5294C102.252 10.2874 102.231 9.92849 102.047 9.54489C101.862 9.16129 101.539 8.80524 101.16 8.56801L99.133 7.2999C98.9724 7.19943 98.8163 7.20088 98.7533 7.30342L98.3382 7.97931L97.7926 7.63791C97.6665 7.55902 97.5419 7.55847 97.4896 7.63658L97.2887 7.93691C97.2591 7.98118 97.2616 8.04801 97.2956 8.12028C97.3296 8.19255 97.39 8.25963 97.4615 8.30432L97.9507 8.6104L97.6054 9.17262C97.5645 9.23909 97.5702 9.3376 97.6208 9.44293ZM97.7208 7.83607C97.7256 7.82897 97.7369 7.82903 97.7484 7.8362L100.038 9.26896L99.8475 9.55418C99.8428 9.56128 99.8315 9.56124 99.82 9.55407L97.53 8.1213L97.7208 7.83607ZM98.939 9.22879L99.7758 9.75234C99.9019 9.83122 100.026 9.83178 100.079 9.75367L100.28 9.45334C100.309 9.40907 100.307 9.34224 100.273 9.26997C100.239 9.1977 100.178 9.13062 100.107 9.08593L99.3266 8.59769L99.461 8.37877L100.98 9.32909C101.069 9.3846 101.143 9.46452 101.185 9.54835C101.228 9.63578 101.233 9.71754 101.2 9.77265L100.815 10.3996C100.74 10.5203 100.557 10.522 100.368 10.4037L98.8143 9.43189L98.939 9.22879ZM98.6834 9.06887L98.5358 9.30915C98.5169 9.33996 98.5196 9.38561 98.543 9.43441C98.5665 9.48322 98.6076 9.52852 98.6559 9.5587L100.323 10.602C100.63 10.7938 100.928 10.7911 101.048 10.5953L101.433 9.96839C101.498 9.86368 101.487 9.70841 101.405 9.54242C101.326 9.38306 101.188 9.23304 101.024 9.1308L99.432 8.1347C99.3576 8.08813 99.2853 8.08881 99.2561 8.13633L99.071 8.43777L98.5938 8.13922L98.9869 7.49914C99.0038 7.47164 99.0457 7.47125 99.0888 7.4982L101.116 8.76632C101.419 8.95589 101.677 9.24043 101.824 9.54696C101.972 9.85352 101.988 10.1403 101.869 10.3337L101.484 10.9607C101.385 11.1219 101.207 11.2119 100.982 11.214C100.757 11.216 100.494 11.1302 100.241 10.9722L97.9085 9.51283C97.8702 9.48891 97.8511 9.45748 97.8432 9.44089C97.8352 9.42427 97.824 9.39277 97.839 9.36835L98.2063 8.77035L98.6834 9.06888L98.6834 9.06887Z" fill="white"/>
<path d="M97.6208 9.44293C97.6715 9.54824 97.7602 9.64599 97.8643 9.71111L100.197 11.1705C100.506 11.3638 100.828 11.4688 101.103 11.4663C101.378 11.4637 101.597 11.3537 101.718 11.1564L102.103 10.5294C102.252 10.2874 102.231 9.92849 102.047 9.54489C101.862 9.16129 101.539 8.80524 101.16 8.56801L99.133 7.2999C98.9724 7.19943 98.8163 7.20088 98.7533 7.30342L98.3382 7.97931L97.7926 7.63791C97.6665 7.55902 97.5419 7.55847 97.4896 7.63658L97.2887 7.93691C97.2591 7.98118 97.2616 8.04801 97.2956 8.12028C97.3296 8.19255 97.39 8.25963 97.4615 8.30432L97.9507 8.6104L97.6054 9.17262C97.5645 9.23909 97.5702 9.3376 97.6208 9.44293ZM97.7208 7.83607C97.7256 7.82897 97.7369 7.82903 97.7484 7.8362L100.038 9.26896L99.8475 9.55418C99.8428 9.56128 99.8315 9.56124 99.82 9.55407L97.53 8.1213L97.7208 7.83607ZM98.939 9.22879L99.7758 9.75234C99.9019 9.83122 100.026 9.83178 100.079 9.75367L100.28 9.45334C100.309 9.40907 100.307 9.34224 100.273 9.26997C100.239 9.1977 100.178 9.13062 100.107 9.08593L99.3266 8.59769L99.461 8.37877L100.98 9.32909C101.069 9.3846 101.143 9.46452 101.185 9.54835C101.228 9.63578 101.233 9.71754 101.2 9.77265L100.815 10.3996C100.74 10.5203 100.557 10.522 100.368 10.4037L98.8143 9.43189L98.939 9.22879ZM98.6834 9.06887L98.5358 9.30915C98.5169 9.33996 98.5196 9.38561 98.543 9.43441C98.5665 9.48322 98.6076 9.52852 98.6559 9.5587L100.323 10.602C100.63 10.7938 100.928 10.7911 101.048 10.5953L101.433 9.96839C101.498 9.86368 101.487 9.70841 101.405 9.54242C101.326 9.38306 101.188 9.23304 101.024 9.1308L99.432 8.1347C99.3576 8.08813 99.2853 8.08881 99.2561 8.13633L99.071 8.43777L98.5938 8.13922L98.9869 7.49914C99.0038 7.47164 99.0457 7.47125 99.0888 7.4982L101.116 8.76632C101.419 8.95589 101.677 9.24043 101.824 9.54696C101.972 9.85352 101.988 10.1403 101.869 10.3337L101.484 10.9607C101.385 11.1219 101.207 11.2119 100.982 11.214C100.757 11.216 100.494 11.1302 100.241 10.9722L97.9085 9.51283C97.8702 9.48891 97.8511 9.45748 97.8432 9.44089C97.8352 9.42427 97.824 9.39277 97.839 9.36835L98.2063 8.77035L98.6834 9.06888L98.6834 9.06887Z" fill="white"/>
</g>
<g clip-path="url(#clip4)">
<path d="M13.8773 78.6905C13.6373 77.5621 13.1579 76.5551 12.5275 75.8551C11.8971 75.1552 11.1912 74.846 10.5397 74.9846C9.88824 75.1232 9.36924 75.6929 9.07832 76.5888C8.7874 77.4847 8.75938 78.5996 8.9994 79.7281C9.23944 80.8566 9.71881 81.8636 10.3492 82.5635C10.5592 82.7966 10.7798 82.9887 11.005 83.1343C11.0462 83.161 11.0853 83.1315 11.0923 83.0685C11.0993 83.0055 11.0716 82.9328 11.0305 82.9063C10.8183 82.7691 10.6104 82.5881 10.4125 82.3684C9.81883 81.7092 9.36735 80.7608 9.14127 79.6979C8.91519 78.6351 8.9416 77.585 9.2156 76.7412C9.48959 75.8974 9.9784 75.3608 10.592 75.2303C11.2056 75.0998 11.8704 75.391 12.4642 76.0502C13.0579 76.7095 13.5094 77.6579 13.7354 78.7207C13.9615 79.7835 13.9351 80.8336 13.6611 81.6774C13.3871 82.5212 12.8983 83.0578 12.2847 83.1883C11.988 83.2514 11.6796 83.217 11.3681 83.0861C11.3263 83.0686 11.2915 83.1079 11.2903 83.174C11.2891 83.2401 11.322 83.3079 11.3637 83.3254C11.6947 83.4645 12.0221 83.501 12.337 83.4341C12.9885 83.2955 13.5075 82.7258 13.7984 81.8298C14.0893 80.9339 14.1173 79.819 13.8773 78.6905Z" fill="white"/>
<path d="M10.4946 75.8283C10.4748 75.7623 10.4289 75.7234 10.3922 75.7413C9.97252 75.946 9.645 76.3797 9.44501 76.9955C8.93761 78.5582 9.41929 80.8227 10.5188 82.0435C11.6182 83.2643 12.9255 82.9862 13.4329 81.4236C13.9404 79.861 13.4587 77.5965 12.3592 76.3757C11.8437 75.8032 11.2634 75.5395 10.7252 75.633C10.6858 75.6399 10.6648 75.7006 10.6784 75.7686C10.6919 75.8366 10.7349 75.8862 10.7744 75.8793C11.2755 75.7923 11.8159 76.0378 12.2958 76.5708C13.3196 77.7075 13.7681 79.8161 13.2957 81.2712C12.8232 82.7262 11.6059 82.9852 10.5821 81.8484C9.55834 80.7116 9.10982 78.603 9.58229 77.148C9.76848 76.5746 10.0734 76.1708 10.4641 75.9802C10.5008 75.9623 10.5145 75.8943 10.4946 75.8283Z" fill="white"/>
<path d="M9.99238 79.225C10.0075 79.3283 10.0491 79.4241 10.1064 79.4877L11.3903 80.9133C11.5604 81.1022 11.7541 81.2042 11.936 81.2006C12.1178 81.1971 12.2806 81.088 12.3945 80.8937L12.7564 80.2758C12.8961 80.0373 12.9446 79.6845 12.8894 79.3082C12.8342 78.9318 12.6829 78.583 12.4742 78.3512L11.3585 77.1124C11.2701 77.0143 11.1671 77.0163 11.1079 77.1174L10.7177 77.7834L10.4174 77.4499C10.348 77.3728 10.266 77.3728 10.2181 77.4498L10.0339 77.7458C10.0067 77.7894 9.99684 77.8551 10.0067 77.926C10.0166 77.9969 10.0448 78.0626 10.0842 78.1063L10.3535 78.4053L10.0289 78.9593C9.99054 79.0248 9.97722 79.1217 9.99238 79.225ZM10.3359 77.645C10.3403 77.638 10.3477 77.638 10.354 77.645L11.6145 79.0447L11.4396 79.3258C11.4352 79.3328 11.4278 79.3328 11.4215 79.3258L10.1609 77.9261L10.3359 77.645ZM10.8975 79.0094L11.3581 79.5209C11.4275 79.5979 11.5094 79.598 11.5574 79.521L11.7416 79.225C11.7688 79.1813 11.7786 79.1157 11.7687 79.0447C11.7589 78.9738 11.7306 78.9081 11.6913 78.8645L11.2618 78.3875L11.3881 78.1718L12.2242 79.1001C12.2731 79.1544 12.3084 79.2326 12.3212 79.3149C12.3346 79.4007 12.324 79.481 12.2922 79.5353L11.9303 80.1532C11.8606 80.2721 11.7393 80.2745 11.6353 80.1589L10.7802 79.2096L10.8975 79.0094ZM10.7568 78.8532L10.6181 79.09C10.6003 79.1203 10.5941 79.1652 10.6012 79.2131C10.6082 79.261 10.6275 79.3053 10.654 79.3348L11.5719 80.3541C11.7407 80.5414 11.9374 80.5376 12.0504 80.3447L12.4123 79.7269C12.4727 79.6237 12.4928 79.4711 12.4675 79.3082C12.4431 79.1518 12.3775 79.0049 12.2876 78.905L11.4112 77.9319C11.3703 77.8864 11.3225 77.8874 11.2951 77.9342L11.1211 78.2313L10.8584 77.9396L11.2279 77.3089C11.2438 77.2818 11.2714 77.2812 11.2951 77.3075L12.4108 78.5464C12.5776 78.7315 12.6986 79.0103 12.7427 79.3111C12.7868 79.6118 12.748 79.8937 12.6363 80.0843L12.2744 80.7022C12.1814 80.8611 12.0483 80.9502 11.8997 80.9531C11.7511 80.956 11.5927 80.8726 11.4537 80.7183L10.1697 79.2926C10.1487 79.2693 10.1415 79.2384 10.1391 79.2222C10.1368 79.2058 10.1349 79.1749 10.1489 79.1509L10.4941 78.5616L10.7568 78.8532L10.7568 78.8532Z" fill="white"/>
</g>
<g clip-path="url(#clip5)">
<path d="M105.831 46.5185L106.322 45.7353C106.547 45.3749 106.568 44.7782 106.369 44.4027C106.169 44.0271 105.825 44.0149 105.6 44.3753L105.11 45.1585C105.064 45.2306 105.06 45.35 105.1 45.4251L105.678 46.513C105.717 46.5882 105.786 46.5906 105.831 46.5185ZM105.336 45.3L105.744 44.6473C105.879 44.4311 106.086 44.4384 106.206 44.6637C106.325 44.8891 106.312 45.2471 106.177 45.4633L105.769 46.116L105.336 45.3Z" fill="white"/>
<path d="M106.92 44.6322C106.908 44.5377 106.891 44.4455 106.87 44.3566C106.667 43.5022 106.095 43.1227 105.592 43.5089L105.411 43.1676C105.371 43.0925 105.302 43.09 105.257 43.1621L104.931 43.6842C104.886 43.7563 104.881 43.8757 104.921 43.9508L105.066 44.2228L104.902 44.4838L104.758 44.2118C104.718 44.1367 104.649 44.1343 104.604 44.2064L104.277 44.7285C104.232 44.8006 104.228 44.9199 104.268 44.995L104.412 45.267L104.249 45.5281C104.204 45.6002 104.2 45.7195 104.239 45.7946L104.528 46.3386C104.568 46.4137 104.637 46.4161 104.682 46.3441L104.845 46.083L106.145 48.531L105.982 48.792C105.937 48.8641 105.932 48.9835 105.972 49.0586L106.261 49.6026C106.301 49.6777 106.37 49.6801 106.415 49.608L106.578 49.347L106.723 49.619C106.763 49.6941 106.831 49.6965 106.877 49.6244L107.203 49.1023C107.248 49.0302 107.253 48.9109 107.213 48.8358L107.068 48.5638L107.232 48.3027L107.376 48.5747C107.416 48.6498 107.485 48.6523 107.53 48.5802L107.857 48.058C107.902 47.986 107.906 47.8666 107.866 47.7915L107.722 47.5195C107.972 47.1187 108.092 46.533 108.041 45.9657C107.957 45.0466 107.455 44.4496 106.92 44.6322ZM107.577 47.2475L107.496 47.378C107.45 47.4501 107.446 47.5695 107.486 47.6446L107.63 47.9166L107.467 48.1776L107.323 47.9056C107.283 47.8305 107.214 47.8281 107.169 47.9002L106.842 48.4223C106.797 48.4944 106.793 48.6137 106.833 48.6888L106.977 48.9608L106.814 49.2219L106.669 48.9499C106.63 48.8748 106.561 48.8723 106.516 48.9444L106.352 49.2055L106.208 48.9335L106.371 48.6724C106.416 48.6003 106.42 48.481 106.381 48.4059L104.937 45.6859C104.897 45.6108 104.828 45.6084 104.783 45.6805L104.619 45.9415L104.475 45.6695L104.638 45.4085C104.683 45.3364 104.688 45.217 104.648 45.1419L104.503 44.8699L104.667 44.6089L104.811 44.8809C104.851 44.956 104.92 44.9584 104.965 44.8863L105.292 44.3642C105.337 44.2921 105.341 44.1728 105.301 44.0977L105.157 43.8257L105.32 43.5646L105.483 43.8706C105.515 43.9326 105.569 43.9465 105.614 43.9044C105.702 43.8206 105.798 43.7666 105.896 43.7452C106.316 43.6541 106.685 44.1664 106.721 44.8895C106.721 44.9017 106.723 44.9138 106.725 44.9255C106.741 45.0243 106.802 45.0775 106.86 45.0445C107.143 44.883 107.448 45.0143 107.643 45.3818C107.922 45.9073 107.893 46.7426 107.577 47.2475Z" fill="white"/>
<path d="M106.711 45.6158L105.976 46.7906C105.931 46.8627 105.926 46.982 105.966 47.0571L106.544 48.1451C106.584 48.2202 106.653 48.2227 106.698 48.1506L107.433 46.9758C107.658 46.6154 107.679 46.0187 107.48 45.6432C107.281 45.2676 106.936 45.2554 106.711 45.6158ZM107.288 46.7038L106.635 47.7481L106.202 46.9321L106.855 45.8878C106.99 45.6715 107.197 45.6789 107.317 45.9042C107.436 46.1296 107.424 46.4875 107.288 46.7038Z" fill="white"/>
<path d="M104.146 41.9217C102.793 44.0844 102.666 47.6643 103.862 49.9176C105.058 52.1709 107.125 52.2443 108.478 50.0816C109.829 47.9173 109.956 44.3404 108.762 42.0857C107.566 39.8324 105.499 39.759 104.146 41.9217ZM108.333 49.8096C107.07 51.8281 105.142 51.7596 104.025 49.6565C102.909 47.5535 103.027 44.2122 104.29 42.1937C105.554 40.1785 107.481 40.247 108.599 42.3468C109.715 44.4498 109.596 47.7911 108.333 49.8096Z" fill="white"/>
<path d="M104.435 42.466C103.262 44.3404 103.152 47.443 104.189 49.3958C105.225 51.3487 107.017 51.4123 108.189 49.5379C109.36 47.6622 109.47 44.5622 108.435 42.6082C107.399 40.6553 105.608 40.5917 104.435 42.466ZM108.045 49.2659C106.962 50.9961 105.309 50.9374 104.352 49.1348C103.395 47.3321 103.497 44.4682 104.579 42.738C105.662 41.0108 107.314 41.0695 108.272 42.8692C109.229 44.6719 109.127 47.5358 108.045 49.2659Z" fill="white"/>
</g>
<g clip-path="url(#clip6)">
<path d="M43.4541 103.65C43.2571 103.784 42.8046 103.522 42.8263 103.285C42.812 103.093 43.0877 103.027 43.3125 103.162C43.5436 103.291 43.6259 103.564 43.4541 103.65ZM46.084 103.237C45.9567 103.303 45.6952 103.185 45.6351 103.032C45.5359 102.867 45.7009 102.734 45.8992 102.804C46.1465 102.866 46.2754 103.174 46.084 103.237ZM40.2072 103.1C40.4642 103.114 40.6743 103.455 40.474 103.537C40.3316 103.626 40.0901 103.486 39.9862 103.332C39.9585 103.198 40.0216 103.071 40.2072 103.1ZM44.9294 102.216C44.7423 102.378 44.2601 102.178 44.1647 101.904C44.0414 101.629 44.3686 101.449 44.6904 101.622C44.9847 101.756 45.1179 102.092 44.9294 102.216ZM40.8683 102.27C40.8861 102.545 40.4185 102.578 40.1554 102.324C39.9228 102.127 39.958 101.866 40.1568 101.785C40.44 101.717 40.883 102.001 40.8683 102.27ZM42.8026 101.661C42.9205 101.891 42.7715 102.076 42.5343 102.105C42.3572 102.084 42.1491 102.031 42.006 101.888C41.7749 101.692 41.751 101.407 41.9393 101.302C42.0198 101.242 42.1568 101.256 42.2769 101.256C42.4949 101.325 42.7224 101.471 42.8026 101.661ZM46.7438 101.106C46.5709 101.25 46.1298 101.028 46.1043 100.791C46.0538 100.588 46.3141 100.49 46.5501 100.609C46.7937 100.719 46.9086 101.01 46.7438 101.106ZM37.9201 101.574C37.7881 101.725 37.3739 101.582 37.2839 101.351C37.1662 101.144 37.3762 100.971 37.6305 101.068C37.896 101.145 38.0707 101.449 37.9201 101.574ZM41.272 100.97C40.9919 101.095 40.5314 100.988 40.2082 100.731C39.7947 100.419 39.6805 99.9153 39.9764 99.7077C40.2695 99.4652 40.9521 99.6215 41.3025 100.017C41.652 100.37 41.6313 100.835 41.272 100.97ZM43.212 100.831C42.9203 101.007 42.3571 100.902 42.0093 100.573C41.6344 100.254 41.5676 99.7858 41.8584 99.5956C42.1391 99.3842 42.7425 99.5013 43.1014 99.8458C43.4765 100.178 43.5274 100.652 43.212 100.831ZM44.8726 100.127C44.951 100.342 44.7956 100.493 44.576 100.519C44.3185 100.505 44.0384 100.346 43.9013 100.126C43.8078 99.9054 43.89 99.681 44.1501 99.6686C44.4245 99.6315 44.8017 99.8726 44.8726 100.127ZM39.2424 100.754C39.0256 100.922 38.5077 100.721 38.3702 100.419C38.1906 100.1 38.5285 99.8511 38.9138 100.023C39.2948 100.163 39.4906 100.604 39.2424 100.754ZM43.3067 99.3824C43.0062 99.485 42.5421 99.361 42.2332 99.0877C41.9073 98.8133 41.7855 98.4147 41.9675 98.1912C42.1817 97.8662 42.9193 97.9531 43.3227 98.3599C43.7378 98.7303 43.7211 99.2572 43.3067 99.3824ZM39.5942 99.5805C39.3036 99.6835 38.8548 99.5892 38.54 99.3267C38.148 99.0283 38.0295 98.5584 38.2819 98.3392C38.535 98.0869 39.168 98.1788 39.5529 98.5321C39.9872 98.8956 40.005 99.4409 39.5942 99.5805ZM45.3346 98.9125C45.0886 99.0285 44.6144 98.7532 44.6031 98.4838C44.5568 98.2404 44.8894 98.1319 45.1722 98.2982C45.4828 98.452 45.5826 98.8255 45.3346 98.9125ZM37.1203 98.9556C37.2385 99.1749 37.1562 99.379 36.9108 99.4045C36.6937 99.3864 36.4234 99.2503 36.3407 99.0517C36.1918 98.7915 36.4544 98.5954 36.764 98.705C36.9069 98.7518 37.02 98.8557 37.1203 98.9556ZM46.7257 98.7064C46.5824 98.7855 46.2931 98.6589 46.2453 98.4795C46.1547 98.2784 46.4468 98.1837 46.6519 98.3449C46.8174 98.4557 46.8428 98.6386 46.7257 98.7064ZM35.4984 99.3048C35.4129 99.3914 35.183 99.3446 35.0678 99.2159C34.9119 99.077 34.9684 98.8724 35.1606 98.8871C35.4031 98.8531 35.6573 99.194 35.4984 99.3048ZM41.6199 97.9922C41.2058 98.1262 40.5273 97.8027 40.3085 97.3705C40.0599 96.9352 40.3626 96.5215 40.8927 96.597C41.2902 96.6309 41.7409 96.9355 41.8965 97.2719C42.0578 97.593 41.9363 97.9057 41.6199 97.9922ZM39.7644 98.0913C39.3482 98.2356 38.6516 97.9066 38.4383 97.4639C38.1992 97.0364 38.493 96.6366 39.0051 96.6968C39.4727 96.7246 40.016 97.1424 40.0844 97.5333C40.15 97.7927 40.0151 98.0136 39.7644 98.0913ZM43.21 97.6358C42.906 97.7035 42.4332 97.3908 42.4269 97.1037C42.3753 96.8002 42.8196 96.6936 43.1555 96.926C43.5237 97.1468 43.5496 97.5846 43.21 97.6358ZM37.7606 97.9107C37.5221 98.0364 37.0483 97.828 36.9284 97.5414C36.7598 97.2278 37.0965 96.9876 37.475 97.1558C37.8823 97.3032 38.0649 97.7909 37.7606 97.9107ZM35.5569 96.624C35.7676 96.8099 35.6859 97.0753 35.4303 97.0524C35.3128 97.0604 35.1883 96.9812 35.0775 96.9151C35.0051 96.8022 34.9113 96.6679 34.9729 96.5747C35.035 96.4048 35.3823 96.434 35.5569 96.624ZM44.4555 96.5198C44.2994 96.6642 43.8808 96.4834 43.8145 96.2479C43.7383 96.0405 43.9691 95.9075 44.2182 96.0143C44.4758 96.1095 44.619 96.4119 44.4555 96.5198ZM39.8486 96.3212C39.615 96.4517 39.131 96.2443 39.0152 95.9556C38.8352 95.6394 39.1841 95.3954 39.5637 95.5709C39.9615 95.7178 40.1491 96.202 39.8486 96.3212ZM41.6705 95.7884C41.4809 95.9183 41.0476 95.7341 40.9461 95.4844C40.8367 95.2807 40.9722 95.095 41.212 95.1132C41.3999 95.107 41.596 95.2501 41.7267 95.3891C41.801 95.5443 41.8159 95.7207 41.6705 95.7884ZM37.5484 96.0028C37.364 96.1575 36.9005 95.9739 36.7919 95.7069C36.6467 95.4294 36.9673 95.2298 37.2958 95.3997C37.5969 95.5306 37.7405 95.8759 37.5484 96.0028ZM36.0397 94.4536C36.2298 94.6014 36.1888 94.7936 36.0222 94.8384C35.8606 94.8193 35.6543 94.7278 35.6087 94.5724C35.5264 94.3631 35.8342 94.2813 36.0397 94.4536ZM41.7941 94.2861C41.8097 94.4103 41.7608 94.5372 41.5849 94.514C41.3442 94.5115 41.1177 94.2 41.2734 94.0921C41.4017 93.9715 41.6905 94.1121 41.7941 94.2861ZM38.9803 94.2916C39.0256 94.4741 38.809 94.5756 38.5896 94.4889C38.4544 94.4513 38.3645 94.3394 38.2872 94.2443C38.2776 94.1931 38.2664 94.142 38.255 94.091C38.288 94.0126 38.341 93.9333 38.4593 93.9298C38.6652 93.8954 38.9711 94.1052 38.9803 94.2916Z" fill="white"/>
</g>
<g clip-path="url(#clip7)">
<path d="M73.6788 34.784C73.5397 34.5739 73.8184 34.1315 74.0676 34.1704C74.2692 34.1694 74.3363 34.4549 74.193 34.6743C74.0561 34.9006 73.7676 34.965 73.6788 34.784ZM74.0937 37.492C74.0255 37.3577 74.1511 37.0997 74.3127 37.0492C74.4864 36.9599 74.6258 37.1375 74.5505 37.3345C74.4835 37.5819 74.1589 37.6914 74.0937 37.492ZM74.2808 31.5157C74.2647 31.7766 73.9041 31.9663 73.8197 31.7565C73.727 31.6052 73.8764 31.3691 74.0383 31.2742C74.1795 31.2555 74.313 31.3287 74.2808 31.5157ZM75.1752 36.3883C75.0066 36.1862 75.221 35.7093 75.5094 35.6316C75.7994 35.5255 75.9866 35.8715 75.8021 36.187C75.6592 36.4773 75.3051 36.5891 75.1752 36.3883ZM75.1485 32.2479C74.8593 32.2465 74.8279 31.7679 75.0976 31.518C75.3061 31.295 75.58 31.3494 75.6643 31.5576C75.7337 31.851 75.432 32.282 75.1485 32.2479ZM75.7755 34.2614C75.5319 34.3651 75.3389 34.2003 75.3105 33.9567C75.3334 33.7777 75.3904 33.5695 75.542 33.4339C75.7497 33.2124 76.0498 33.2082 76.1593 33.4076C76.2213 33.4938 76.2061 33.6324 76.2051 33.7547C76.1308 33.9718 75.9754 34.1931 75.7755 34.2614ZM76.3291 38.3151C76.179 38.1288 76.4163 37.6953 76.6654 37.6861C76.8796 37.6491 76.9802 37.9211 76.8534 38.1531C76.7356 38.3934 76.4297 38.4899 76.3291 38.3151ZM75.9027 29.2944C75.7445 29.1492 75.8987 28.7375 76.1412 28.6621C76.3606 28.557 76.5405 28.7831 76.4369 29.0353C76.3536 29.3002 76.0332 29.4566 75.9027 29.2944ZM76.5127 32.7513C76.3833 32.4571 76.4998 31.9957 76.7718 31.6847C77.1036 31.2857 77.6336 31.205 77.8497 31.5212C78.1025 31.8369 77.9332 32.5211 77.5145 32.85C77.1413 33.181 76.6523 33.1269 76.5127 32.7513ZM76.6447 34.7372C76.4618 34.4276 76.5763 33.8614 76.9253 33.5305C77.2633 33.1712 77.7558 33.1364 77.9537 33.4461C78.1739 33.747 78.0464 34.3532 77.6814 34.6944C77.3298 35.053 76.8302 35.0712 76.6447 34.7372ZM77.3729 36.4786C77.1463 36.5432 76.9889 36.3742 76.9628 36.1487C76.9788 35.8873 77.1488 35.6134 77.3813 35.4893C77.6136 35.4097 77.8489 35.5093 77.86 35.7751C77.897 36.0573 77.6407 36.4244 77.3729 36.4786ZM76.7554 30.6994C76.58 30.4667 76.7951 29.9534 77.114 29.8347C77.4502 29.6744 77.7096 30.0362 77.5259 30.4165C77.3758 30.7947 76.9108 30.9628 76.7554 30.6994ZM78.1672 34.9364C78.0615 34.623 78.1953 34.1591 78.485 33.8638C78.7759 33.5513 79.1959 33.4556 79.4296 33.6567C79.7698 33.898 79.6729 34.6431 79.2423 35.0252C78.8496 35.4218 78.2958 35.3674 78.1672 34.9364ZM77.9863 31.1409C77.8801 30.8376 77.9826 30.3872 78.2609 30.0851C78.5777 29.707 79.0726 29.6196 79.3012 29.8923C79.5646 30.1679 79.4633 30.8062 79.089 31.1732C78.7035 31.5898 78.1301 31.5692 77.9863 31.1409ZM78.6463 37.0353C78.5262 36.7765 78.8192 36.313 79.1024 36.3206C79.3588 36.2906 79.4704 36.6371 79.2934 36.9134C79.1294 37.2188 78.7359 37.2941 78.6463 37.0353ZM78.6617 28.6654C78.4302 28.7702 78.2162 28.6719 78.1912 28.4201C78.2118 28.2003 78.3569 27.9346 78.5663 27.8645C78.841 27.7312 79.0453 28.0127 78.9278 28.3202C78.8775 28.4624 78.7675 28.5703 78.6617 28.6654ZM78.8527 38.4669C78.7706 38.3153 78.9059 38.0295 79.0949 37.9936C79.307 37.9156 79.4044 38.2198 79.2334 38.4173C79.1157 38.578 78.9231 38.5909 78.8527 38.4669ZM78.3064 26.9885C78.216 26.8953 78.2669 26.6645 78.403 26.5562C78.5502 26.4074 78.765 26.4794 78.7481 26.6741C78.7821 26.9236 78.4217 27.1582 78.3064 26.9885ZM79.6415 33.3169C79.5036 32.8855 79.8488 32.2173 80.3048 32.0252C80.7644 31.8028 81.1971 32.1405 81.1138 32.6751C81.0752 33.0776 80.7516 33.515 80.3967 33.6496C80.058 33.7911 79.73 33.6452 79.6415 33.3169ZM79.5509 31.4199C79.4023 30.9857 79.7533 30.2994 80.2204 30.1136C80.6717 29.9003 81.0899 30.2279 81.0228 30.7453C80.9901 31.2196 80.5468 31.7434 80.1353 31.7854C79.8621 31.8337 79.6308 31.6807 79.5509 31.4199ZM80.0045 34.9617C79.9355 34.6473 80.2678 34.1878 80.5697 34.2018C80.8892 34.1708 80.998 34.6309 80.7512 34.9566C80.5163 35.3159 80.0557 35.3113 80.0045 34.9617ZM79.7556 29.3916C79.6252 29.1398 79.8479 28.672 80.1501 28.5702C80.481 28.4207 80.7311 28.7806 80.5515 29.1542C80.3934 29.5586 79.8793 29.7101 79.7556 29.3916ZM81.1248 27.2382C80.9278 27.4397 80.6493 27.3376 80.6753 27.0789C80.6677 26.9586 80.7519 26.8374 80.8222 26.7292C80.9415 26.6636 81.0834 26.5775 81.181 26.6469C81.3591 26.7222 81.3259 27.0738 81.1248 27.2382ZM81.1686 36.3095C81.018 36.1402 81.2112 35.7267 81.4593 35.6759C81.6779 35.613 81.8161 35.8575 81.702 36.1036C81.5999 36.3592 81.2809 36.4837 81.1686 36.3095ZM81.4115 31.6311C81.2761 31.3839 81.4977 30.9056 81.8021 30.8081C82.1359 30.6472 82.3899 31.0199 82.2026 31.3942C82.0452 31.7889 81.5347 31.9456 81.4115 31.6311ZM81.9583 33.5246C81.8231 33.3223 82.02 32.894 82.2833 32.8083C82.4983 32.7113 82.6926 32.8625 82.6716 33.1055C82.6768 33.2974 82.5249 33.4869 82.3777 33.6101C82.214 33.6748 82.0285 33.6775 81.9583 33.5246ZM81.7632 29.3108C81.602 29.1119 81.7984 28.6529 82.0801 28.5612C82.3729 28.433 82.5804 28.7737 82.3993 29.0962C82.2595 29.3937 81.8953 29.5154 81.7632 29.3108ZM83.4034 27.8839C83.2466 28.067 83.0448 28.0116 82.9989 27.8387C83.0202 27.6756 83.1179 27.4719 83.2817 27.4364C83.5023 27.3675 83.5861 27.6868 83.4034 27.8839ZM83.537 33.757C83.4063 33.7642 83.2733 33.7053 83.299 33.5278C83.3034 33.2828 83.6325 33.0741 83.7448 33.2404C83.8708 33.3796 83.7207 33.6639 83.537 33.757ZM83.5521 30.8906C83.3598 30.9238 83.2547 30.6959 83.3474 30.4786C83.388 30.3436 83.5063 30.26 83.6069 30.188C83.6607 30.1819 83.7146 30.174 83.7683 30.166C83.8504 30.2052 83.9335 30.2648 83.9363 30.3855C83.9709 30.5977 83.7481 30.8944 83.5521 30.8906Z" fill="white"/>
</g>
<g clip-path="url(#clip8)">
<path d="M85.7015 82.3777L85.6984 82.3728L83.9591 81.0495L85.3164 77.8052L85.3204 77.7957L85.331 77.7181L84.7843 74.8853C84.7841 74.8771 84.7823 74.8697 84.7789 74.8634L84.78 74.8557L84.7574 74.8357C84.7523 74.8225 84.7412 74.8141 84.7265 74.8123L82.4362 73.572L82.4226 73.5647L79.1979 74.4065C79.179 74.4114 79.1743 74.4156 79.1299 74.4554C79.1087 74.4744 79.0777 74.5024 79.0383 74.538C78.964 74.6052 78.8549 74.704 78.7144 74.8316C78.4776 75.0464 78.148 75.3458 77.7343 75.7215C77.0305 76.3611 76.3184 77.0088 76.3113 77.0153L76.3072 77.019L76.2514 77.0819L76.2466 77.1169L74.8514 80.445L74.8474 80.4546L74.8367 80.5325L75.3926 83.3598L75.3925 83.3604C75.3908 83.3709 75.3911 83.3808 75.3935 83.3895C75.3959 83.3983 75.4003 83.4056 75.4064 83.4112L75.4299 83.4321L77.7165 84.6528C77.7203 84.6606 77.7263 84.6664 77.7342 84.6697C77.742 84.673 77.7514 84.6737 77.7614 84.6718C77.7722 84.6754 77.7848 84.6754 77.798 84.672L80.9974 83.8369L81.0106 83.822C81.0178 83.8186 81.0249 83.8141 81.0316 83.8086L81.0338 83.8081L83.7606 81.3251L85.4704 82.6346C85.4815 82.6439 85.4957 82.6494 85.512 82.6506C85.5444 82.6524 85.5806 82.6429 85.616 82.6234C85.6397 82.6094 85.6608 82.5881 85.6753 82.5636C85.6988 82.5334 85.7137 82.4991 85.7172 82.467C85.722 82.4325 85.7165 82.4014 85.7015 82.3777ZM84.1961 77.9189L84.6289 75.6903L85.0152 77.7051L84.1961 77.9189ZM84.9775 77.9808L83.9903 80.3542L84.1583 78.1946L84.9775 77.9808ZM76.9888 82.4638L77.5454 84.1989L75.7963 83.2579L76.9888 82.4638ZM80.7332 76.1683L82.2796 74.0103L82.8806 75.8797L80.7332 76.1683ZM83.179 75.7867L82.6224 74.0515L84.3715 74.9925L83.179 75.7867ZM83.2717 76.0074L84.4563 75.2151L83.9974 77.5841L83.9929 77.6098L83.2717 76.0074ZM76.3155 79.6138L76.3178 79.5898L76.4978 77.2928L77.1164 77.4188L77.5452 77.5024L76.3155 79.6138ZM82.0536 73.9365L80.5025 76.1008L79.4423 74.6181L82.0536 73.9365ZM83.7886 78.2912L82.4744 80.5451L82.0744 79.4423L81.8528 78.7965L83.7888 78.2911L83.7886 78.2912ZM81.8913 78.5205L83.055 76.3065L83.8264 78.0154L81.8913 78.5205ZM80.6978 76.4545L82.8681 76.1606L81.6835 78.4132L80.6978 76.4545ZM80.3208 81.1181L81.6 79.0242L82.2326 80.8022L79.9856 81.6613L80.3208 81.1181ZM78.7739 79.3342L80.4305 76.6251L80.9264 77.6334L81.4319 78.6404L78.7739 79.3342ZM81.3941 78.9162L79.7464 81.6234L79.2413 80.6168L78.7362 79.61L81.3941 78.9162ZM79.881 77.0858L78.5775 79.2236L77.9449 77.4457L80.1835 76.5888L79.881 77.0858ZM79.4702 81.7961L77.309 82.0876L78.2013 80.386L78.4932 79.835L79.4702 81.7961ZM76.3889 79.9568L77.7025 77.7041L78.0989 78.8353L78.3233 79.4518L76.3889 79.9568ZM78.2861 79.7275L77.1226 81.9414L76.3511 80.2326L78.2861 79.7275ZM83.8533 78.6349L83.8525 78.6408L83.6699 80.9576L83.0512 80.8316L82.6224 80.748L83.8533 78.6349ZM76.652 77.0075L78.7981 75.0498L77.7074 77.2149L76.652 77.0075ZM76.8961 82.2431L75.7115 83.0354L76.1731 80.6464L76.1744 80.6394L76.8961 82.2431ZM79.6747 82.1471L80.7261 83.6322L78.1149 84.3138L79.6747 82.1471ZM83.5158 81.2429L81.3698 83.2006L82.4604 81.0356L83.5158 81.2429ZM78.0015 77.1535L79.1779 74.8202L80.2261 76.3007L78.0015 77.1535ZM75.1904 80.2696L76.1774 77.8963L76.0095 80.0558L75.1904 80.2696ZM75.9718 80.3316L75.539 82.5602L75.1526 80.5454L75.9717 80.3316L75.9718 80.3316ZM79.4346 82.0822L77.8882 84.2399L77.2873 82.3704L79.4346 82.0822ZM82.1663 81.0972L80.9899 83.4306L79.9416 81.9498L82.1663 81.0972Z" fill="white"/>
</g>
</g>
<defs>
<linearGradient id="paint0_linear" x1="6.0936" y1="-6.13423" x2="100.644" y2="37.074" gradientUnits="userSpaceOnUse">
<stop stop-color="#87F2E7"/>
<stop offset="1" stop-color="#2E37F2"/>
</linearGradient>
<linearGradient id="paint1_linear" x1="-4.1515" y1="16.2839" x2="90.3985" y2="59.4923" gradientUnits="userSpaceOnUse">
<stop stop-color="#87F2E7"/>
<stop offset="1" stop-color="#2E37F2"/>
</linearGradient>
<linearGradient id="paint2_linear" x1="-15.5089" y1="41.1342" x2="79.0416" y2="84.3428" gradientUnits="userSpaceOnUse">
<stop stop-color="#87F2E7"/>
<stop offset="1" stop-color="#2E37F2"/>
</linearGradient>
<linearGradient id="paint3_linear" x1="-15.8786" y1="39.3901" x2="109.51" y2="46.1679" gradientUnits="userSpaceOnUse">
<stop stop-color="#87F2E7"/>
<stop offset="1" stop-color="#2E37F2"/>
</linearGradient>
<linearGradient id="paint4_linear" x1="-25.178" y1="62.2946" x2="69.3719" y2="105.503" gradientUnits="userSpaceOnUse">
<stop stop-color="#87F2E7"/>
<stop offset="1" stop-color="#2E37F2"/>
</linearGradient>
<linearGradient id="paint5_linear" x1="4.10932" y1="-1.79374" x2="98.6596" y2="41.4147" gradientUnits="userSpaceOnUse">
<stop stop-color="#87F2E7"/>
<stop offset="1" stop-color="#2E37F2"/>
</linearGradient>
<linearGradient id="paint6_linear" x1="-6.76585" y1="22.0044" x2="87.7844" y2="65.2129" gradientUnits="userSpaceOnUse">
<stop stop-color="#87F2E7"/>
<stop offset="1" stop-color="#2E37F2"/>
</linearGradient>
<linearGradient id="paint7_linear" x1="-18.2028" y1="47.0303" x2="76.3474" y2="90.2387" gradientUnits="userSpaceOnUse">
<stop stop-color="#87F2E7"/>
<stop offset="1" stop-color="#2E37F2"/>
</linearGradient>
<linearGradient id="paint8_linear" x1="-27.3794" y1="67.1095" x2="67.1707" y2="110.318" gradientUnits="userSpaceOnUse">
<stop stop-color="#87F2E7"/>
<stop offset="1" stop-color="#2E37F2"/>
</linearGradient>
<linearGradient id="paint9_linear" x1="-15.6936" y1="45.8572" x2="111.051" y2="94.3182" gradientUnits="userSpaceOnUse">
<stop stop-color="#87F2E7"/>
<stop offset="1" stop-color="#2E37F2"/>
</linearGradient>
<linearGradient id="paint10_linear" x1="-0.175566" y1="7.58084" x2="94.3747" y2="50.7893" gradientUnits="userSpaceOnUse">
<stop stop-color="#87F2E7"/>
<stop offset="1" stop-color="#2E37F2"/>
</linearGradient>
<linearGradient id="paint11_linear" x1="3.12235" y1="0.364647" x2="97.6722" y2="43.5729" gradientUnits="userSpaceOnUse">
<stop stop-color="#87F2E7"/>
<stop offset="1" stop-color="#2E37F2"/>
</linearGradient>
<linearGradient id="paint12_linear" x1="-13.933" y1="3.40905" x2="111.456" y2="10.1869" gradientUnits="userSpaceOnUse">
<stop stop-color="#87F2E7"/>
<stop offset="1" stop-color="#2E37F2"/>
</linearGradient>
<linearGradient id="paint13_linear" x1="-7.75802" y1="24.173" x2="86.7925" y2="67.3814" gradientUnits="userSpaceOnUse">
<stop stop-color="#87F2E7"/>
<stop offset="1" stop-color="#2E37F2"/>
</linearGradient>
<linearGradient id="paint14_linear" x1="-22.247" y1="55.8812" x2="72.303" y2="99.0897" gradientUnits="userSpaceOnUse">
<stop stop-color="#87F2E7"/>
<stop offset="1" stop-color="#2E37F2"/>
</linearGradient>
<linearGradient id="paint15_linear" x1="-18.7969" y1="48.3299" x2="75.7538" y2="91.5385" gradientUnits="userSpaceOnUse">
<stop stop-color="#87F2E7"/>
<stop offset="1" stop-color="#2E37F2"/>
</linearGradient>
<linearGradient id="paint16_linear" x1="-12.8175" y1="35.246" x2="81.7325" y2="78.4544" gradientUnits="userSpaceOnUse">
<stop stop-color="#87F2E7"/>
<stop offset="1" stop-color="#2E37F2"/>
</linearGradient>
<linearGradient id="paint17_linear" x1="-23.4468" y1="58.5068" x2="71.1032" y2="101.715" gradientUnits="userSpaceOnUse">
<stop stop-color="#87F2E7"/>
<stop offset="1" stop-color="#2E37F2"/>
</linearGradient>
<clipPath id="clip0">
<rect width="115.087" height="109.61" fill="white"/>
</clipPath>
<clipPath id="clip1">
<rect width="8.84223" height="8.84223" fill="white" transform="matrix(0.635215 -0.772336 0.351184 0.936306 101.568 91.5361)"/>
</clipPath>
<clipPath id="clip2">
<rect width="8.84223" height="8.84223" fill="white" transform="matrix(0.975926 -0.218103 -0.299152 0.954206 8.18359 30.0643)"/>
</clipPath>
<clipPath id="clip3">
<rect width="10.115" height="6.98506" fill="white" transform="matrix(0.847749 0.530398 -0.217431 0.976076 96.2847 3.34399)"/>
</clipPath>
<clipPath id="clip4">
<rect width="7.05319" height="7.05319" fill="white" transform="matrix(0.669211 0.743072 -0.308842 0.951113 10.1675 73.2346)"/>
</clipPath>
<clipPath id="clip5">
<rect width="9.23849" height="9.23849" fill="white" transform="matrix(0.530401 -0.847747 0.468903 0.88325 101.695 45.8376)"/>
</clipPath>
<clipPath id="clip6">
<rect width="11.8032" height="10.9062" fill="white" transform="matrix(-0.998602 0.0528545 -0.446589 -0.894739 49.2173 103.375)"/>
</clipPath>
<clipPath id="clip7">
<rect width="12.0633" height="11.1465" fill="white" transform="matrix(-0.0471634 -0.998887 0.923746 -0.383007 73.9258 40.6736)"/>
</clipPath>
<clipPath id="clip8">
<rect width="14.0404" height="16.2736" fill="white" transform="translate(69.9844 78.9318) rotate(-48.4167)"/>
</clipPath>
</defs>
</svg>
