<svg xmlns="http://www.w3.org/2000/svg" width="1040" height="397" viewBox="0 0 1040 397">
  <defs>
    <style>
      .cls-1, .cls-11 {
        fill: #fff;
      }

      .cls-1, .cls-2, .cls-5 {
        stroke: #87f2e7;
      }

      .cls-10, .cls-2, .cls-5 {
        fill: none;
      }

      .cls-2, .cls-5 {
        stroke-linecap: round;
      }

      .cls-2 {
        stroke-width: 2px;
      }

      .cls-3 {
        fill: #000348;
      }

      .cls-4 {
        fill: rgba(0,0,0,0.8);
      }

      .cls-5 {
        stroke-width: 4px;
      }

      .cls-6, .cls-7 {
        fill: #87f2e7;
      }

      .cls-7 {
        stroke: #fff;
        stroke-width: 3px;
      }

      .cls-8 {
        fill: #2e37f2;
      }

      .cls-11, .cls-9 {
        stroke: none;
      }
    </style>
  </defs>
  <g id="Group_1242" data-name="Group 1242" transform="translate(-120 -1484)">
    <g id="Rectangle_101" data-name="Rectangle 101" class="cls-1" transform="translate(120 1484)">
      <rect class="cls-9" width="1040" height="397" rx="12"/>
      <rect class="cls-10" x="0.5" y="0.5" width="1039" height="396" rx="11.5"/>
    </g>
    <g id="Group_1066" data-name="Group 1066" transform="translate(30 43.278)">
      <line id="Line_6" data-name="Line 6" class="cls-2" y2="155" transform="translate(137.5 1507.5)"/>
      <line id="Line_8" data-name="Line 8" class="cls-2" y2="155" transform="translate(456 1507.5)"/>
      <line id="Line_10" data-name="Line 10" class="cls-2" y2="155" transform="translate(784.872 1507.5)"/>
      <g id="Group_1061" data-name="Group 1061" transform="translate(313.298 1706)">
        <g id="Group_1246" data-name="Group 1246" transform="translate(0 -26)">
          <path id="Path_5126" data-name="Path 5126" class="cls-3" d="M4.976.16C8.048.16,9.5-1.376,9.5-3.168c0-4.112-6.64-2.56-6.64-4.944,0-.848.7-1.52,2.432-1.52a6.224,6.224,0,0,1,3.088.88l.656-1.616a7.081,7.081,0,0,0-3.728-.992C2.24-11.36.8-9.824.8-8.016c0,4.16,6.656,2.576,6.656,4.992,0,.832-.736,1.456-2.48,1.456A6.206,6.206,0,0,1,1.28-2.8L.56-1.184A7.217,7.217,0,0,0,4.976.16Zm11.136-8.8A3.523,3.523,0,0,0,13.28-7.424v-1.12h-1.9V3.1h2V-1.04A3.51,3.51,0,0,0,16.112.112a4.162,4.162,0,0,0,4.336-4.384A4.158,4.158,0,0,0,16.112-8.64ZM15.888-1.6a2.5,2.5,0,0,1-2.544-2.672,2.5,2.5,0,0,1,2.544-2.672,2.485,2.485,0,0,1,2.528,2.672A2.485,2.485,0,0,1,15.888-1.6ZM27.2-8.64a3.809,3.809,0,0,0-2.848,1.088v-4.32h-2V0h2V-4.32A2.269,2.269,0,0,1,26.736-6.9c1.28,0,2.032.736,2.032,2.256V0h2V-4.9C30.768-7.472,29.248-8.64,27.2-8.64ZM41.424-4.224A4.167,4.167,0,0,0,37.1-8.64a4.249,4.249,0,0,0-4.416,4.368c0,2.544,1.856,4.384,4.72,4.384a4.331,4.331,0,0,0,3.44-1.392L39.776-2.512a3.062,3.062,0,0,1-2.32.928,2.586,2.586,0,0,1-2.768-2.048h6.7C41.408-3.824,41.424-4.064,41.424-4.224ZM37.1-7.04A2.326,2.326,0,0,1,39.52-4.96H34.672A2.361,2.361,0,0,1,37.1-7.04ZM45.248-7.3V-8.544h-1.9V0h2V-4.144a2.329,2.329,0,0,1,2.48-2.64,2.539,2.539,0,0,1,.464.048v-1.9A3.362,3.362,0,0,0,45.248-7.3ZM57.936-4.224a4.167,4.167,0,0,0-4.32-4.416A4.249,4.249,0,0,0,49.2-4.272c0,2.544,1.856,4.384,4.72,4.384A4.331,4.331,0,0,0,57.36-1.28L56.288-2.512a3.062,3.062,0,0,1-2.32.928A2.586,2.586,0,0,1,51.2-3.632h6.7C57.92-3.824,57.936-4.064,57.936-4.224ZM53.616-7.04a2.326,2.326,0,0,1,2.416,2.08H51.184A2.361,2.361,0,0,1,53.616-7.04Zm9.9,7.2c3.072,0,4.528-1.536,4.528-3.328,0-4.112-6.64-2.56-6.64-4.944,0-.848.7-1.52,2.432-1.52a6.224,6.224,0,0,1,3.088.88l.656-1.616a7.081,7.081,0,0,0-3.728-.992c-3.072,0-4.512,1.536-4.512,3.344C59.344-3.856,66-5.44,66-3.024c0,.832-.736,1.456-2.48,1.456a6.206,6.206,0,0,1-3.7-1.232L59.1-1.184A7.217,7.217,0,0,0,63.52.16Zm17.792-8.7-2.32,6.336-2.3-6.336h-1.68l-2.352,6.3L70.4-8.544H68.512L71.648,0h1.92l2.24-5.888L78.016,0h1.92l3.152-8.544Zm6.144-.1A6.007,6.007,0,0,0,83.84-7.584l.784,1.456a4.23,4.23,0,0,1,2.592-.848c1.424,0,2.128.688,2.128,1.856v.128H87.136c-2.592,0-3.552,1.12-3.552,2.544,0,1.488,1.232,2.56,3.184,2.56A3.028,3.028,0,0,0,89.456-1.04V0h1.888V-5.008C91.344-7.472,89.92-8.64,87.456-8.64Zm-.272,7.3c-1.024,0-1.632-.464-1.632-1.184,0-.624.368-1.136,1.728-1.136h2.064v.992A2.178,2.178,0,0,1,87.184-1.344ZM98.64-8.64a3.523,3.523,0,0,0-2.832,1.216v-1.12H93.9V3.1h2V-1.04A3.51,3.51,0,0,0,98.64.112a4.162,4.162,0,0,0,4.336-4.384A4.158,4.158,0,0,0,98.64-8.64ZM98.416-1.6a2.5,2.5,0,0,1-2.544-2.672,2.5,2.5,0,0,1,2.544-2.672,2.485,2.485,0,0,1,2.528,2.672A2.485,2.485,0,0,1,98.416-1.6ZM109.488,0h7.936V-1.76h-5.856V-11.2h-2.08Zm7.648-11.2v1.744H119.5V0h2.08V-11.2Z" transform="translate(0 40)"/>
          <path id="Path_5127" data-name="Path 5127" class="cls-4" d="M4.3,14.084c2.506,0,3.654-1.232,3.654-2.674,0-3.57-6.034-1.946-6.034-4.634,0-.98.8-1.778,2.59-1.778A5.045,5.045,0,0,1,7.2,5.81l.35-.826a5.532,5.532,0,0,0-3.038-.868C2.016,4.116.9,5.362.9,6.8.9,10.43,6.93,8.778,6.93,11.466c0,.966-.8,1.736-2.632,1.736a4.812,4.812,0,0,1-3.234-1.19l-.406.8A5.314,5.314,0,0,0,4.3,14.084Zm9.492-7.5a3.208,3.208,0,0,0-2.842,1.512V6.636H10v10.08h.994v-4.1a3.216,3.216,0,0,0,2.8,1.456,3.566,3.566,0,0,0,3.668-3.752A3.562,3.562,0,0,0,13.79,6.58Zm-.07,6.608a2.7,2.7,0,0,1-2.744-2.87,2.747,2.747,0,1,1,5.488,0A2.7,2.7,0,0,1,13.72,13.188ZM23.24,6.58a3.112,3.112,0,0,0-2.758,1.344V3.612h-.994V14h.994V10.136a2.414,2.414,0,0,1,2.576-2.66A2.056,2.056,0,0,1,25.27,9.828V14h.994V9.73A2.819,2.819,0,0,0,23.24,6.58Zm12.18,3.738A3.509,3.509,0,0,0,31.85,6.58a3.547,3.547,0,0,0-3.6,3.738,3.647,3.647,0,0,0,3.864,3.752,3.625,3.625,0,0,0,2.842-1.2l-.56-.644a2.9,2.9,0,0,1-2.254.966,2.726,2.726,0,0,1-2.9-2.562h6.16C35.406,10.514,35.42,10.4,35.42,10.318ZM31.85,7.434a2.561,2.561,0,0,1,2.618,2.45H29.246A2.558,2.558,0,0,1,31.85,7.434Zm6.552.644V6.636H37.45V14h.994V10.248c0-1.736.938-2.716,2.478-2.716.07,0,.154.014.238.014V6.58A2.777,2.777,0,0,0,38.4,8.078Zm10.906,2.24a3.509,3.509,0,0,0-3.57-3.738,3.547,3.547,0,0,0-3.6,3.738,3.893,3.893,0,0,0,6.706,2.548l-.56-.644a2.9,2.9,0,0,1-2.254.966,2.726,2.726,0,0,1-2.9-2.562h6.16C49.294,10.514,49.308,10.4,49.308,10.318Zm-3.57-2.884a2.561,2.561,0,0,1,2.618,2.45H43.134A2.558,2.558,0,0,1,45.738,7.434Zm8.512,6.65c2.506,0,3.654-1.232,3.654-2.674,0-3.57-6.034-1.946-6.034-4.634,0-.98.8-1.778,2.59-1.778a5.045,5.045,0,0,1,2.688.812l.35-.826a5.532,5.532,0,0,0-3.038-.868c-2.492,0-3.612,1.246-3.612,2.688,0,3.626,6.034,1.974,6.034,4.662,0,.966-.8,1.736-2.632,1.736a4.812,4.812,0,0,1-3.234-1.19l-.406.8A5.314,5.314,0,0,0,54.25,14.084ZM69.706,6.636l-2.338,6.258L65.016,6.636h-.854L61.8,12.894l-2.31-6.258h-.952L61.306,14h.938l2.324-6.034L66.892,14h.938l2.786-7.364Zm4.76-.056a4.676,4.676,0,0,0-3,.994l.448.742a3.751,3.751,0,0,1,2.45-.868c1.372,0,2.086.686,2.086,1.946v.448H74.116c-2.114,0-2.842.952-2.842,2.086,0,1.274,1.022,2.142,2.688,2.142A2.765,2.765,0,0,0,76.5,12.852V14h.952V9.436C77.448,7.532,76.37,6.58,74.466,6.58Zm-.35,6.706c-1.176,0-1.862-.532-1.862-1.386,0-.756.462-1.316,1.89-1.316h2.31v1.2A2.356,2.356,0,0,1,74.116,13.286ZM83.944,6.58A3.208,3.208,0,0,0,81.1,8.092V6.636H80.15v10.08h.994v-4.1a3.216,3.216,0,0,0,2.8,1.456,3.566,3.566,0,0,0,3.668-3.752A3.562,3.562,0,0,0,83.944,6.58Zm-.07,6.608a2.7,2.7,0,0,1-2.744-2.87,2.747,2.747,0,1,1,5.488,0A2.7,2.7,0,0,1,83.874,13.188ZM93.31,14H94.3V3.612H93.31Zm6.342-7.42a4.676,4.676,0,0,0-3,.994l.448.742a3.751,3.751,0,0,1,2.45-.868c1.372,0,2.086.686,2.086,1.946v.448H99.3c-2.114,0-2.842.952-2.842,2.086,0,1.274,1.022,2.142,2.688,2.142a2.765,2.765,0,0,0,2.534-1.218V14h.952V9.436C102.634,7.532,101.556,6.58,99.652,6.58Zm-.35,6.706c-1.176,0-1.862-.532-1.862-1.386,0-.756.462-1.316,1.89-1.316h2.31v1.2A2.356,2.356,0,0,1,99.3,13.286Zm11.1-6.65-2.772,6.258L104.86,6.636h-1.036l3.29,7.35-.322.714c-.42.924-.868,1.232-1.526,1.232a1.839,1.839,0,0,1-1.344-.56l-.462.742a2.52,2.52,0,0,0,1.792.672c1.05,0,1.834-.462,2.45-1.9l3.682-8.246Zm8.6,3.682a3.509,3.509,0,0,0-3.57-3.738,3.547,3.547,0,0,0-3.6,3.738,3.893,3.893,0,0,0,6.706,2.548l-.56-.644a2.9,2.9,0,0,1-2.254.966,2.726,2.726,0,0,1-2.9-2.562h6.16C118.986,10.514,119,10.4,119,10.318Zm-3.57-2.884a2.561,2.561,0,0,1,2.618,2.45h-5.222A2.558,2.558,0,0,1,115.43,7.434Zm6.552.644V6.636h-.952V14h.994V10.248c0-1.736.938-2.716,2.478-2.716.07,0,.154.014.238.014V6.58A2.777,2.777,0,0,0,121.982,8.078Zm7.07-3.878v.9h2.31V14h1.008V4.2ZM3.36,32.07c1.918,0,3.038-.826,3.038-2.1,0-2.828-4.774-1.33-4.774-3.318,0-.7.588-1.218,1.918-1.218a3.775,3.775,0,0,1,2.17.63l.434-.8a4.99,4.99,0,0,0-2.6-.686c-1.876,0-2.912.9-2.912,2.1C.63,29.592,5.4,28.08,5.4,30c0,.728-.574,1.2-1.974,1.2a4.448,4.448,0,0,1-2.618-.826l-.448.784A4.92,4.92,0,0,0,3.36,32.07Zm7.882,0a3.745,3.745,0,0,0,0-7.49,3.745,3.745,0,1,0,0,7.49Zm0-.882A2.7,2.7,0,0,1,8.5,28.318a2.74,2.74,0,1,1,5.474,0A2.685,2.685,0,0,1,11.242,31.188ZM17.01,32H18V21.612H17.01Zm9.408-7.364V28.5a2.394,2.394,0,0,1-2.506,2.674A2.061,2.061,0,0,1,21.7,28.808V24.636h-.994v4.27a2.852,2.852,0,0,0,3.108,3.164,2.929,2.929,0,0,0,2.646-1.414V32h.952V24.636Zm7.308,6.2a1.645,1.645,0,0,1-1.092.378,1.179,1.179,0,0,1-1.274-1.344v-4.4H33.6v-.84H31.36v-1.61h-.994v1.61H29.05v.84h1.316v4.452a1.951,1.951,0,0,0,2.156,2.142,2.367,2.367,0,0,0,1.554-.518Zm2.66-7.812a.714.714,0,0,0,.728-.728.706.706,0,0,0-.728-.686.707.707,0,1,0,0,1.414ZM35.882,32h.994V24.636h-.994Zm6.776.07a3.745,3.745,0,1,0-3.752-3.752A3.622,3.622,0,0,0,42.658,32.07Zm0-.882a2.7,2.7,0,0,1-2.744-2.87,2.74,2.74,0,1,1,5.474,0A2.685,2.685,0,0,1,42.658,31.188Zm9.52-6.608a3.1,3.1,0,0,0-2.8,1.414V24.636h-.952V32h.994V28.136A2.414,2.414,0,0,1,52,25.476a2.056,2.056,0,0,1,2.212,2.352V32H55.2V27.73A2.819,2.819,0,0,0,52.178,24.58Zm13.188,0a3.208,3.208,0,0,0-2.842,1.512V24.636h-.952v10.08h.994v-4.1a3.216,3.216,0,0,0,2.8,1.456,3.566,3.566,0,0,0,3.668-3.752A3.562,3.562,0,0,0,65.366,24.58Zm-.07,6.608a2.7,2.7,0,0,1-2.744-2.87,2.747,2.747,0,1,1,5.488,0A2.7,2.7,0,0,1,65.3,31.188ZM71.064,32h.994V21.612h-.994Zm6.342-7.42a4.676,4.676,0,0,0-3,.994l.448.742a3.751,3.751,0,0,1,2.45-.868c1.372,0,2.086.686,2.086,1.946v.448H77.056c-2.114,0-2.842.952-2.842,2.086,0,1.274,1.022,2.142,2.688,2.142a2.765,2.765,0,0,0,2.534-1.218V32h.952V27.436C80.388,25.532,79.31,24.58,77.406,24.58Zm-.35,6.706c-1.176,0-1.862-.532-1.862-1.386,0-.756.462-1.316,1.89-1.316h2.31v1.2A2.356,2.356,0,0,1,77.056,31.286Zm9.562-.448a1.645,1.645,0,0,1-1.092.378,1.179,1.179,0,0,1-1.274-1.344v-4.4h2.24v-.84h-2.24v-1.61h-.994v1.61H81.942v.84h1.316v4.452a1.951,1.951,0,0,0,2.156,2.142,2.367,2.367,0,0,0,1.554-.518Zm4.592-8.456a1.684,1.684,0,0,1,1.092.364L92.638,22a2.334,2.334,0,0,0-1.47-.462,2.028,2.028,0,0,0-2.226,2.184v.91H87.626v.84h1.316V32h.994V25.476h2.24v-.84H89.908v-.868C89.908,22.858,90.356,22.382,91.21,22.382ZM96.4,32.07a3.745,3.745,0,1,0-3.752-3.752A3.622,3.622,0,0,0,96.4,32.07Zm0-.882a2.7,2.7,0,0,1-2.744-2.87,2.74,2.74,0,1,1,5.474,0A2.685,2.685,0,0,1,96.4,31.188Zm6.72-5.11V24.636h-.952V32h.994V28.248c0-1.736.938-2.716,2.478-2.716.07,0,.154.014.238.014V24.58A2.777,2.777,0,0,0,103.124,26.078Zm13.734-1.5a3.207,3.207,0,0,0-2.912,1.554,2.645,2.645,0,0,0-2.618-1.554,2.978,2.978,0,0,0-2.7,1.4V24.636h-.952V32h.994V28.136a2.373,2.373,0,0,1,2.464-2.66c1.344,0,2.128.8,2.128,2.352V32h.994V28.136a2.367,2.367,0,0,1,2.464-2.66c1.33,0,2.114.8,2.114,2.352V32h.994V27.73C119.826,25.616,118.65,24.58,116.858,24.58ZM14.056,40.2l-2.87,8.47L8.3,40.2H7.336L4.41,48.628,1.582,40.2H.518l3.3,9.8H4.9l2.884-8.358L10.654,50h1.092l3.3-9.8Zm8.54,6.118a3.509,3.509,0,0,0-3.57-3.738,3.547,3.547,0,0,0-3.6,3.738,3.647,3.647,0,0,0,3.864,3.752,3.625,3.625,0,0,0,2.842-1.2l-.56-.644a2.9,2.9,0,0,1-2.254.966,2.726,2.726,0,0,1-2.9-2.562h6.16C22.582,46.514,22.6,46.4,22.6,46.318Zm-3.57-2.884a2.561,2.561,0,0,1,2.618,2.45H16.422A2.558,2.558,0,0,1,19.026,43.434Zm9.394-.854a3.216,3.216,0,0,0-2.8,1.456V39.612h-.994V50h.952V48.544A3.19,3.19,0,0,0,28.42,50.07a3.746,3.746,0,0,0,0-7.49Zm-.07,6.608a2.873,2.873,0,1,1,2.744-2.87A2.7,2.7,0,0,1,28.35,49.188ZM45.318,50H46.41l-4.48-9.8H40.908L36.428,50h1.078l1.176-2.618h5.46ZM39.06,46.542l2.352-5.264,2.352,5.264ZM51.618,42.58a3.208,3.208,0,0,0-2.842,1.512V42.636h-.952v10.08h.994v-4.1a3.216,3.216,0,0,0,2.8,1.456,3.746,3.746,0,0,0,0-7.49Zm-.07,6.608a2.873,2.873,0,1,1,2.744-2.87A2.7,2.7,0,0,1,51.548,49.188ZM61.11,42.58a3.208,3.208,0,0,0-2.842,1.512V42.636h-.952v10.08h.994v-4.1a3.216,3.216,0,0,0,2.8,1.456,3.746,3.746,0,0,0,0-7.49Zm-.07,6.608a2.873,2.873,0,1,1,2.744-2.87A2.7,2.7,0,0,1,61.04,49.188Z" transform="translate(0 54)"/>
        </g>
      </g>
      <g id="Group_1062" data-name="Group 1062" transform="translate(639.21 1680)">
        <g id="Group_1247" data-name="Group 1247">
          <path id="Path_5129" data-name="Path 5129" class="cls-3" d="M4.976.16C8.048.16,9.5-1.376,9.5-3.168c0-4.112-6.64-2.56-6.64-4.944,0-.848.7-1.52,2.432-1.52a6.224,6.224,0,0,1,3.088.88l.656-1.616a7.081,7.081,0,0,0-3.728-.992C2.24-11.36.8-9.824.8-8.016c0,4.16,6.656,2.576,6.656,4.992,0,.832-.736,1.456-2.48,1.456A6.206,6.206,0,0,1,1.28-2.8L.56-1.184A7.217,7.217,0,0,0,4.976.16Zm11.136-8.8A3.523,3.523,0,0,0,13.28-7.424v-1.12h-1.9V3.1h2V-1.04A3.51,3.51,0,0,0,16.112.112a4.162,4.162,0,0,0,4.336-4.384A4.158,4.158,0,0,0,16.112-8.64ZM15.888-1.6a2.5,2.5,0,0,1-2.544-2.672,2.5,2.5,0,0,1,2.544-2.672,2.485,2.485,0,0,1,2.528,2.672A2.485,2.485,0,0,1,15.888-1.6ZM27.2-8.64a3.809,3.809,0,0,0-2.848,1.088v-4.32h-2V0h2V-4.32A2.269,2.269,0,0,1,26.736-6.9c1.28,0,2.032.736,2.032,2.256V0h2V-4.9C30.768-7.472,29.248-8.64,27.2-8.64ZM41.424-4.224A4.167,4.167,0,0,0,37.1-8.64a4.249,4.249,0,0,0-4.416,4.368c0,2.544,1.856,4.384,4.72,4.384a4.331,4.331,0,0,0,3.44-1.392L39.776-2.512a3.062,3.062,0,0,1-2.32.928,2.586,2.586,0,0,1-2.768-2.048h6.7C41.408-3.824,41.424-4.064,41.424-4.224ZM37.1-7.04A2.326,2.326,0,0,1,39.52-4.96H34.672A2.361,2.361,0,0,1,37.1-7.04ZM45.248-7.3V-8.544h-1.9V0h2V-4.144a2.329,2.329,0,0,1,2.48-2.64,2.539,2.539,0,0,1,.464.048v-1.9A3.362,3.362,0,0,0,45.248-7.3ZM57.936-4.224a4.167,4.167,0,0,0-4.32-4.416A4.249,4.249,0,0,0,49.2-4.272c0,2.544,1.856,4.384,4.72,4.384A4.331,4.331,0,0,0,57.36-1.28L56.288-2.512a3.062,3.062,0,0,1-2.32.928A2.586,2.586,0,0,1,51.2-3.632h6.7C57.92-3.824,57.936-4.064,57.936-4.224ZM53.616-7.04a2.326,2.326,0,0,1,2.416,2.08H51.184A2.361,2.361,0,0,1,53.616-7.04Zm9.9,7.2c3.072,0,4.528-1.536,4.528-3.328,0-4.112-6.64-2.56-6.64-4.944,0-.848.7-1.52,2.432-1.52a6.224,6.224,0,0,1,3.088.88l.656-1.616a7.081,7.081,0,0,0-3.728-.992c-3.072,0-4.512,1.536-4.512,3.344C59.344-3.856,66-5.44,66-3.024c0,.832-.736,1.456-2.48,1.456a6.206,6.206,0,0,1-3.7-1.232L59.1-1.184A7.217,7.217,0,0,0,63.52.16Zm17.792-8.7-2.32,6.336-2.3-6.336h-1.68l-2.352,6.3L70.4-8.544H68.512L71.648,0h1.92l2.24-5.888L78.016,0h1.92l3.152-8.544Zm6.144-.1A6.007,6.007,0,0,0,83.84-7.584l.784,1.456a4.23,4.23,0,0,1,2.592-.848c1.424,0,2.128.688,2.128,1.856v.128H87.136c-2.592,0-3.552,1.12-3.552,2.544,0,1.488,1.232,2.56,3.184,2.56A3.028,3.028,0,0,0,89.456-1.04V0h1.888V-5.008C91.344-7.472,89.92-8.64,87.456-8.64Zm-.272,7.3c-1.024,0-1.632-.464-1.632-1.184,0-.624.368-1.136,1.728-1.136h2.064v.992A2.178,2.178,0,0,1,87.184-1.344ZM98.64-8.64a3.523,3.523,0,0,0-2.832,1.216v-1.12H93.9V3.1h2V-1.04A3.51,3.51,0,0,0,98.64.112a4.162,4.162,0,0,0,4.336-4.384A4.158,4.158,0,0,0,98.64-8.64ZM98.416-1.6a2.5,2.5,0,0,1-2.544-2.672,2.5,2.5,0,0,1,2.544-2.672,2.485,2.485,0,0,1,2.528,2.672A2.485,2.485,0,0,1,98.416-1.6ZM109.488,0h7.936V-1.76h-5.856V-11.2h-2.08ZM121.1-1.76,124.1-4.608c1.552-1.456,1.856-2.448,1.856-3.536,0-1.984-1.568-3.216-4-3.216A5.172,5.172,0,0,0,117.7-9.5l1.456,1.12a3.161,3.161,0,0,1,2.624-1.168c1.376,0,2.08.592,2.08,1.616,0,.624-.192,1.28-1.28,2.32l-4.448,4.224V0h8.256V-1.76Z" transform="translate(0 40)"/>
          <path id="Path_5130" data-name="Path 5130" class="cls-4" d="M4.3,14.084c2.506,0,3.654-1.232,3.654-2.674,0-3.57-6.034-1.946-6.034-4.634,0-.98.8-1.778,2.59-1.778A5.045,5.045,0,0,1,7.2,5.81l.35-.826a5.532,5.532,0,0,0-3.038-.868C2.016,4.116.9,5.362.9,6.8.9,10.43,6.93,8.778,6.93,11.466c0,.966-.8,1.736-2.632,1.736a4.812,4.812,0,0,1-3.234-1.19l-.406.8A5.314,5.314,0,0,0,4.3,14.084Zm9.492-7.5a3.208,3.208,0,0,0-2.842,1.512V6.636H10v10.08h.994v-4.1a3.216,3.216,0,0,0,2.8,1.456,3.566,3.566,0,0,0,3.668-3.752A3.562,3.562,0,0,0,13.79,6.58Zm-.07,6.608a2.7,2.7,0,0,1-2.744-2.87,2.747,2.747,0,1,1,5.488,0A2.7,2.7,0,0,1,13.72,13.188ZM23.24,6.58a3.112,3.112,0,0,0-2.758,1.344V3.612h-.994V14h.994V10.136a2.414,2.414,0,0,1,2.576-2.66A2.056,2.056,0,0,1,25.27,9.828V14h.994V9.73A2.819,2.819,0,0,0,23.24,6.58Zm12.18,3.738A3.509,3.509,0,0,0,31.85,6.58a3.547,3.547,0,0,0-3.6,3.738,3.647,3.647,0,0,0,3.864,3.752,3.625,3.625,0,0,0,2.842-1.2l-.56-.644a2.9,2.9,0,0,1-2.254.966,2.726,2.726,0,0,1-2.9-2.562h6.16C35.406,10.514,35.42,10.4,35.42,10.318ZM31.85,7.434a2.561,2.561,0,0,1,2.618,2.45H29.246A2.558,2.558,0,0,1,31.85,7.434Zm6.552.644V6.636H37.45V14h.994V10.248c0-1.736.938-2.716,2.478-2.716.07,0,.154.014.238.014V6.58A2.777,2.777,0,0,0,38.4,8.078Zm10.906,2.24a3.509,3.509,0,0,0-3.57-3.738,3.547,3.547,0,0,0-3.6,3.738,3.893,3.893,0,0,0,6.706,2.548l-.56-.644a2.9,2.9,0,0,1-2.254.966,2.726,2.726,0,0,1-2.9-2.562h6.16C49.294,10.514,49.308,10.4,49.308,10.318Zm-3.57-2.884a2.561,2.561,0,0,1,2.618,2.45H43.134A2.558,2.558,0,0,1,45.738,7.434Zm8.512,6.65c2.506,0,3.654-1.232,3.654-2.674,0-3.57-6.034-1.946-6.034-4.634,0-.98.8-1.778,2.59-1.778a5.045,5.045,0,0,1,2.688.812l.35-.826a5.532,5.532,0,0,0-3.038-.868c-2.492,0-3.612,1.246-3.612,2.688,0,3.626,6.034,1.974,6.034,4.662,0,.966-.8,1.736-2.632,1.736a4.812,4.812,0,0,1-3.234-1.19l-.406.8A5.314,5.314,0,0,0,54.25,14.084ZM69.706,6.636l-2.338,6.258L65.016,6.636h-.854L61.8,12.894l-2.31-6.258h-.952L61.306,14h.938l2.324-6.034L66.892,14h.938l2.786-7.364Zm4.76-.056a4.676,4.676,0,0,0-3,.994l.448.742a3.751,3.751,0,0,1,2.45-.868c1.372,0,2.086.686,2.086,1.946v.448H74.116c-2.114,0-2.842.952-2.842,2.086,0,1.274,1.022,2.142,2.688,2.142A2.765,2.765,0,0,0,76.5,12.852V14h.952V9.436C77.448,7.532,76.37,6.58,74.466,6.58Zm-.35,6.706c-1.176,0-1.862-.532-1.862-1.386,0-.756.462-1.316,1.89-1.316h2.31v1.2A2.356,2.356,0,0,1,74.116,13.286ZM83.944,6.58A3.208,3.208,0,0,0,81.1,8.092V6.636H80.15v10.08h.994v-4.1a3.216,3.216,0,0,0,2.8,1.456,3.566,3.566,0,0,0,3.668-3.752A3.562,3.562,0,0,0,83.944,6.58Zm-.07,6.608a2.7,2.7,0,0,1-2.744-2.87,2.747,2.747,0,1,1,5.488,0A2.7,2.7,0,0,1,83.874,13.188ZM93.31,14H94.3V3.612H93.31Zm6.342-7.42a4.676,4.676,0,0,0-3,.994l.448.742a3.751,3.751,0,0,1,2.45-.868c1.372,0,2.086.686,2.086,1.946v.448H99.3c-2.114,0-2.842.952-2.842,2.086,0,1.274,1.022,2.142,2.688,2.142a2.765,2.765,0,0,0,2.534-1.218V14h.952V9.436C102.634,7.532,101.556,6.58,99.652,6.58Zm-.35,6.706c-1.176,0-1.862-.532-1.862-1.386,0-.756.462-1.316,1.89-1.316h2.31v1.2A2.356,2.356,0,0,1,99.3,13.286Zm11.1-6.65-2.772,6.258L104.86,6.636h-1.036l3.29,7.35-.322.714c-.42.924-.868,1.232-1.526,1.232a1.839,1.839,0,0,1-1.344-.56l-.462.742a2.52,2.52,0,0,0,1.792.672c1.05,0,1.834-.462,2.45-1.9l3.682-8.246Zm8.6,3.682a3.509,3.509,0,0,0-3.57-3.738,3.547,3.547,0,0,0-3.6,3.738,3.893,3.893,0,0,0,6.706,2.548l-.56-.644a2.9,2.9,0,0,1-2.254.966,2.726,2.726,0,0,1-2.9-2.562h6.16C118.986,10.514,119,10.4,119,10.318Zm-3.57-2.884a2.561,2.561,0,0,1,2.618,2.45h-5.222A2.558,2.558,0,0,1,115.43,7.434Zm6.552.644V6.636h-.952V14h.994V10.248c0-1.736.938-2.716,2.478-2.716.07,0,.154.014.238.014V6.58A2.777,2.777,0,0,0,121.982,8.078Zm8.974,5.026,3.332-3.276C135.6,8.54,135.9,7.7,135.9,6.762c0-1.638-1.26-2.646-3.248-2.646a4.4,4.4,0,0,0-3.472,1.4l.714.616a3.327,3.327,0,0,1,2.674-1.092c1.5,0,2.3.7,2.3,1.834,0,.672-.21,1.33-1.316,2.422l-4.074,3.99V14h6.874v-.9ZM3.36,32.07c1.918,0,3.038-.826,3.038-2.1,0-2.828-4.774-1.33-4.774-3.318,0-.7.588-1.218,1.918-1.218a3.775,3.775,0,0,1,2.17.63l.434-.8a4.99,4.99,0,0,0-2.6-.686c-1.876,0-2.912.9-2.912,2.1C.63,29.592,5.4,28.08,5.4,30c0,.728-.574,1.2-1.974,1.2a4.448,4.448,0,0,1-2.618-.826l-.448.784A4.92,4.92,0,0,0,3.36,32.07Zm7.882,0a3.745,3.745,0,0,0,0-7.49,3.745,3.745,0,1,0,0,7.49Zm0-.882A2.7,2.7,0,0,1,8.5,28.318a2.74,2.74,0,1,1,5.474,0A2.685,2.685,0,0,1,11.242,31.188ZM17.01,32H18V21.612H17.01Zm9.408-7.364V28.5a2.394,2.394,0,0,1-2.506,2.674A2.061,2.061,0,0,1,21.7,28.808V24.636h-.994v4.27a2.852,2.852,0,0,0,3.108,3.164,2.929,2.929,0,0,0,2.646-1.414V32h.952V24.636Zm7.308,6.2a1.645,1.645,0,0,1-1.092.378,1.179,1.179,0,0,1-1.274-1.344v-4.4H33.6v-.84H31.36v-1.61h-.994v1.61H29.05v.84h1.316v4.452a1.951,1.951,0,0,0,2.156,2.142,2.367,2.367,0,0,0,1.554-.518Zm2.66-7.812a.714.714,0,0,0,.728-.728.706.706,0,0,0-.728-.686.707.707,0,1,0,0,1.414ZM35.882,32h.994V24.636h-.994Zm6.776.07a3.745,3.745,0,1,0-3.752-3.752A3.622,3.622,0,0,0,42.658,32.07Zm0-.882a2.7,2.7,0,0,1-2.744-2.87,2.74,2.74,0,1,1,5.474,0A2.685,2.685,0,0,1,42.658,31.188Zm9.52-6.608a3.1,3.1,0,0,0-2.8,1.414V24.636h-.952V32h.994V28.136A2.414,2.414,0,0,1,52,25.476a2.056,2.056,0,0,1,2.212,2.352V32H55.2V27.73A2.819,2.819,0,0,0,52.178,24.58Z" transform="translate(0 54)"/>
        </g>
      </g>
      <g id="Group_1063" data-name="Group 1063" transform="translate(955.257 1680)">
        <g id="Group_1248" data-name="Group 1248">
          <path id="Path_5135" data-name="Path 5135" class="cls-3" d="M4.976.16C8.048.16,9.5-1.376,9.5-3.168c0-4.112-6.64-2.56-6.64-4.944,0-.848.7-1.52,2.432-1.52a6.224,6.224,0,0,1,3.088.88l.656-1.616a7.081,7.081,0,0,0-3.728-.992C2.24-11.36.8-9.824.8-8.016c0,4.16,6.656,2.576,6.656,4.992,0,.832-.736,1.456-2.48,1.456A6.206,6.206,0,0,1,1.28-2.8L.56-1.184A7.217,7.217,0,0,0,4.976.16Zm11.136-8.8A3.523,3.523,0,0,0,13.28-7.424v-1.12h-1.9V3.1h2V-1.04A3.51,3.51,0,0,0,16.112.112a4.162,4.162,0,0,0,4.336-4.384A4.158,4.158,0,0,0,16.112-8.64ZM15.888-1.6a2.5,2.5,0,0,1-2.544-2.672,2.5,2.5,0,0,1,2.544-2.672,2.485,2.485,0,0,1,2.528,2.672A2.485,2.485,0,0,1,15.888-1.6ZM27.2-8.64a3.809,3.809,0,0,0-2.848,1.088v-4.32h-2V0h2V-4.32A2.269,2.269,0,0,1,26.736-6.9c1.28,0,2.032.736,2.032,2.256V0h2V-4.9C30.768-7.472,29.248-8.64,27.2-8.64ZM41.424-4.224A4.167,4.167,0,0,0,37.1-8.64a4.249,4.249,0,0,0-4.416,4.368c0,2.544,1.856,4.384,4.72,4.384a4.331,4.331,0,0,0,3.44-1.392L39.776-2.512a3.062,3.062,0,0,1-2.32.928,2.586,2.586,0,0,1-2.768-2.048h6.7C41.408-3.824,41.424-4.064,41.424-4.224ZM37.1-7.04A2.326,2.326,0,0,1,39.52-4.96H34.672A2.361,2.361,0,0,1,37.1-7.04ZM45.248-7.3V-8.544h-1.9V0h2V-4.144a2.329,2.329,0,0,1,2.48-2.64,2.539,2.539,0,0,1,.464.048v-1.9A3.362,3.362,0,0,0,45.248-7.3ZM57.936-4.224a4.167,4.167,0,0,0-4.32-4.416A4.249,4.249,0,0,0,49.2-4.272c0,2.544,1.856,4.384,4.72,4.384A4.331,4.331,0,0,0,57.36-1.28L56.288-2.512a3.062,3.062,0,0,1-2.32.928A2.586,2.586,0,0,1,51.2-3.632h6.7C57.92-3.824,57.936-4.064,57.936-4.224ZM53.616-7.04a2.326,2.326,0,0,1,2.416,2.08H51.184A2.361,2.361,0,0,1,53.616-7.04ZM65.232.16A5.684,5.684,0,0,0,69.68-1.712l-1.344-1.28a3.894,3.894,0,0,1-2.992,1.328,3.824,3.824,0,0,1-4-3.936,3.824,3.824,0,0,1,4-3.936,3.933,3.933,0,0,1,2.992,1.312L69.68-9.488a5.673,5.673,0,0,0-4.432-1.872,5.708,5.708,0,0,0-6,5.76A5.7,5.7,0,0,0,65.232.16ZM75.008.112a4.309,4.309,0,0,0,4.56-4.384,4.3,4.3,0,0,0-4.56-4.368,4.3,4.3,0,0,0-4.544,4.368A4.313,4.313,0,0,0,75.008.112Zm0-1.712A2.485,2.485,0,0,1,72.48-4.272a2.485,2.485,0,0,1,2.528-2.672,2.488,2.488,0,0,1,2.544,2.672A2.488,2.488,0,0,1,75.008-1.6ZM92.272-8.64a3.988,3.988,0,0,0-3.2,1.424,3.2,3.2,0,0,0-2.88-1.424,3.539,3.539,0,0,0-2.8,1.184V-8.544h-1.9V0h2V-4.336c0-1.7.9-2.56,2.224-2.56,1.216,0,1.92.736,1.92,2.256V0h2V-4.336c0-1.7.912-2.56,2.224-2.56,1.216,0,1.92.736,1.92,2.256V0h2V-4.9C95.776-7.472,94.336-8.64,92.272-8.64Zm10.8,0a3.523,3.523,0,0,0-2.832,1.216v-1.12h-1.9V3.1h2V-1.04A3.51,3.51,0,0,0,103.072.112a4.162,4.162,0,0,0,4.336-4.384A4.158,4.158,0,0,0,103.072-8.64Zm-.224,7.04A2.5,2.5,0,0,1,100.3-4.272a2.5,2.5,0,0,1,2.544-2.672,2.485,2.485,0,0,1,2.528,2.672A2.485,2.485,0,0,1,102.848-1.6ZM113.92,0h7.936V-1.76H116V-11.2h-2.08Zm11.616-1.76,2.992-2.848c1.552-1.456,1.856-2.448,1.856-3.536,0-1.984-1.568-3.216-4-3.216A5.172,5.172,0,0,0,122.128-9.5l1.456,1.12a3.161,3.161,0,0,1,2.624-1.168c1.376,0,2.08.592,2.08,1.616,0,.624-.192,1.28-1.28,2.32L122.56-1.392V0h8.256V-1.76Z" transform="translate(0 40)"/>
          <path id="Path_5136" data-name="Path 5136" class="cls-4" d="M4.3,14.084c2.506,0,3.654-1.232,3.654-2.674,0-3.57-6.034-1.946-6.034-4.634,0-.98.8-1.778,2.59-1.778A5.045,5.045,0,0,1,7.2,5.81l.35-.826a5.532,5.532,0,0,0-3.038-.868C2.016,4.116.9,5.362.9,6.8.9,10.43,6.93,8.778,6.93,11.466c0,.966-.8,1.736-2.632,1.736a4.812,4.812,0,0,1-3.234-1.19l-.406.8A5.314,5.314,0,0,0,4.3,14.084Zm9.492-7.5a3.208,3.208,0,0,0-2.842,1.512V6.636H10v10.08h.994v-4.1a3.216,3.216,0,0,0,2.8,1.456,3.566,3.566,0,0,0,3.668-3.752A3.562,3.562,0,0,0,13.79,6.58Zm-.07,6.608a2.7,2.7,0,0,1-2.744-2.87,2.747,2.747,0,1,1,5.488,0A2.7,2.7,0,0,1,13.72,13.188ZM23.24,6.58a3.112,3.112,0,0,0-2.758,1.344V3.612h-.994V14h.994V10.136a2.414,2.414,0,0,1,2.576-2.66A2.056,2.056,0,0,1,25.27,9.828V14h.994V9.73A2.819,2.819,0,0,0,23.24,6.58Zm12.18,3.738A3.509,3.509,0,0,0,31.85,6.58a3.547,3.547,0,0,0-3.6,3.738,3.647,3.647,0,0,0,3.864,3.752,3.625,3.625,0,0,0,2.842-1.2l-.56-.644a2.9,2.9,0,0,1-2.254.966,2.726,2.726,0,0,1-2.9-2.562h6.16C35.406,10.514,35.42,10.4,35.42,10.318ZM31.85,7.434a2.561,2.561,0,0,1,2.618,2.45H29.246A2.558,2.558,0,0,1,31.85,7.434Zm6.552.644V6.636H37.45V14h.994V10.248c0-1.736.938-2.716,2.478-2.716.07,0,.154.014.238.014V6.58A2.777,2.777,0,0,0,38.4,8.078Zm5.054-3.052a.714.714,0,0,0,.728-.728.706.706,0,0,0-.728-.686.707.707,0,1,0,0,1.414ZM42.952,14h.994V6.636h-.994ZM52.36,6.636V10.5a2.394,2.394,0,0,1-2.506,2.674,2.061,2.061,0,0,1-2.212-2.366V6.636h-.994v4.27a2.852,2.852,0,0,0,3.108,3.164A2.929,2.929,0,0,0,52.4,12.656V14h.952V6.636ZM65.324,6.58a3.207,3.207,0,0,0-2.912,1.554A2.645,2.645,0,0,0,59.794,6.58a2.978,2.978,0,0,0-2.7,1.4V6.636H56.14V14h.994V10.136A2.373,2.373,0,0,1,59.6,7.476c1.344,0,2.128.8,2.128,2.352V14h.994V10.136a2.367,2.367,0,0,1,2.464-2.66c1.33,0,2.114.8,2.114,2.352V14h.994V9.73C68.292,7.616,67.116,6.58,65.324,6.58ZM74.662,14h.994V3.612h-.994ZM81,6.58a4.676,4.676,0,0,0-3,.994l.448.742a3.751,3.751,0,0,1,2.45-.868c1.372,0,2.086.686,2.086,1.946v.448H80.654c-2.114,0-2.842.952-2.842,2.086,0,1.274,1.022,2.142,2.688,2.142a2.765,2.765,0,0,0,2.534-1.218V14h.952V9.436C83.986,7.532,82.908,6.58,81,6.58Zm-.35,6.706c-1.176,0-1.862-.532-1.862-1.386,0-.756.462-1.316,1.89-1.316h2.31v1.2A2.356,2.356,0,0,1,80.654,13.286Zm11.1-6.65-2.772,6.258L86.212,6.636H85.176l3.29,7.35-.322.714c-.42.924-.868,1.232-1.526,1.232a1.839,1.839,0,0,1-1.344-.56l-.462.742a2.52,2.52,0,0,0,1.792.672c1.05,0,1.834-.462,2.45-1.9l3.682-8.246Zm8.6,3.682a3.509,3.509,0,0,0-3.57-3.738,3.547,3.547,0,0,0-3.6,3.738,3.893,3.893,0,0,0,6.706,2.548l-.56-.644a2.9,2.9,0,0,1-2.254.966,2.726,2.726,0,0,1-2.9-2.562h6.16C100.338,10.514,100.352,10.4,100.352,10.318Zm-3.57-2.884A2.561,2.561,0,0,1,99.4,9.884H94.178A2.558,2.558,0,0,1,96.782,7.434Zm6.552.644V6.636h-.952V14h.994V10.248c0-1.736.938-2.716,2.478-2.716.07,0,.154.014.238.014V6.58A2.777,2.777,0,0,0,103.334,8.078Zm8.974,5.026,3.332-3.276c1.316-1.288,1.61-2.128,1.61-3.066,0-1.638-1.26-2.646-3.248-2.646a4.4,4.4,0,0,0-3.472,1.4l.714.616a3.327,3.327,0,0,1,2.674-1.092c1.5,0,2.3.7,2.3,1.834,0,.672-.21,1.33-1.316,2.422l-4.074,3.99V14H117.7v-.9ZM3.36,32.07c1.918,0,3.038-.826,3.038-2.1,0-2.828-4.774-1.33-4.774-3.318,0-.7.588-1.218,1.918-1.218a3.775,3.775,0,0,1,2.17.63l.434-.8a4.99,4.99,0,0,0-2.6-.686c-1.876,0-2.912.9-2.912,2.1C.63,29.592,5.4,28.08,5.4,30c0,.728-.574,1.2-1.974,1.2a4.448,4.448,0,0,1-2.618-.826l-.448.784A4.92,4.92,0,0,0,3.36,32.07Zm7.882,0a3.745,3.745,0,0,0,0-7.49,3.745,3.745,0,1,0,0,7.49Zm0-.882A2.7,2.7,0,0,1,8.5,28.318a2.74,2.74,0,1,1,5.474,0A2.685,2.685,0,0,1,11.242,31.188ZM17.01,32H18V21.612H17.01Zm9.408-7.364V28.5a2.394,2.394,0,0,1-2.506,2.674A2.061,2.061,0,0,1,21.7,28.808V24.636h-.994v4.27a2.852,2.852,0,0,0,3.108,3.164,2.929,2.929,0,0,0,2.646-1.414V32h.952V24.636Zm7.308,6.2a1.645,1.645,0,0,1-1.092.378,1.179,1.179,0,0,1-1.274-1.344v-4.4H33.6v-.84H31.36v-1.61h-.994v1.61H29.05v.84h1.316v4.452a1.951,1.951,0,0,0,2.156,2.142,2.367,2.367,0,0,0,1.554-.518Zm2.66-7.812a.714.714,0,0,0,.728-.728.706.706,0,0,0-.728-.686.707.707,0,1,0,0,1.414ZM35.882,32h.994V24.636h-.994Zm6.776.07a3.745,3.745,0,1,0-3.752-3.752A3.622,3.622,0,0,0,42.658,32.07Zm0-.882a2.7,2.7,0,0,1-2.744-2.87,2.74,2.74,0,1,1,5.474,0A2.685,2.685,0,0,1,42.658,31.188Zm9.52-6.608a3.1,3.1,0,0,0-2.8,1.414V24.636h-.952V32h.994V28.136A2.414,2.414,0,0,1,52,25.476a2.056,2.056,0,0,1,2.212,2.352V32H55.2V27.73A2.819,2.819,0,0,0,52.178,24.58Zm11.83-2.2a1.684,1.684,0,0,1,1.092.364L65.436,22a2.334,2.334,0,0,0-1.47-.462,2.028,2.028,0,0,0-2.226,2.184v.91H60.424v.84H61.74V32h.994V25.476h2.24v-.84H62.706v-.868C62.706,22.858,63.154,22.382,64.008,22.382ZM69.2,32.07a3.745,3.745,0,1,0-3.752-3.752A3.622,3.622,0,0,0,69.2,32.07Zm0-.882a2.7,2.7,0,0,1-2.744-2.87,2.74,2.74,0,1,1,5.474,0A2.685,2.685,0,0,1,69.2,31.188Zm6.72-5.11V24.636H74.97V32h.994V28.248c0-1.736.938-2.716,2.478-2.716.07,0,.154.014.238.014V24.58A2.777,2.777,0,0,0,75.922,26.078ZM84.252,32h.994V21.612h-.994Zm10.192-3.682a3.509,3.509,0,0,0-3.57-3.738,3.547,3.547,0,0,0-3.6,3.738,3.893,3.893,0,0,0,6.706,2.548l-.56-.644a2.9,2.9,0,0,1-2.254.966,2.726,2.726,0,0,1-2.9-2.562h6.16C94.43,28.514,94.444,28.4,94.444,28.318Zm-3.57-2.884a2.561,2.561,0,0,1,2.618,2.45H88.27A2.558,2.558,0,0,1,90.874,25.434Zm9.352-.854a3.1,3.1,0,0,0-2.8,1.414V24.636h-.952V32h.994V28.136a2.414,2.414,0,0,1,2.576-2.66,2.056,2.056,0,0,1,2.212,2.352V32h.994V27.73A2.819,2.819,0,0,0,100.226,24.58Zm11.48-2.968v4.424a3.216,3.216,0,0,0-2.8-1.456,3.562,3.562,0,0,0-3.668,3.738,3.574,3.574,0,0,0,3.668,3.752,3.19,3.19,0,0,0,2.842-1.526V32h.952V21.612Zm-2.716,9.576a2.7,2.7,0,0,1-2.744-2.87,2.74,2.74,0,1,1,5.474,0A2.693,2.693,0,0,1,108.99,31.188Zm6.986-8.162a.714.714,0,0,0,.728-.728.706.706,0,0,0-.728-.686.707.707,0,1,0,0,1.414Zm-.5,8.974h.994V24.636h-.994Zm7.518-7.42a3.1,3.1,0,0,0-2.8,1.414V24.636h-.952V32h.994V28.136a2.414,2.414,0,0,1,2.576-2.66,2.056,2.056,0,0,1,2.212,2.352V32h.994V27.73A2.819,2.819,0,0,0,122.99,24.58Zm11.62.056V26.05a3.323,3.323,0,0,0-2.912-1.47,3.572,3.572,0,1,0,0,7.14,3.314,3.314,0,0,0,2.87-1.428v.938c0,1.82-.854,2.674-2.716,2.674a4.383,4.383,0,0,1-2.9-1.008l-.5.756a5.136,5.136,0,0,0,3.43,1.134c2.436,0,3.682-1.148,3.682-3.682V24.636Zm-2.814,6.2a2.7,2.7,0,1,1,2.8-2.7A2.632,2.632,0,0,1,131.8,30.838ZM9.184,49.5l-1.4-1.442A6.706,6.706,0,0,0,8.652,45.8l-.812-.252a6.113,6.113,0,0,1-.658,1.89L4.494,44.666c1.6-.924,2.184-1.61,2.184-2.59,0-1.218-.9-1.946-2.282-1.946-1.512,0-2.478.84-2.478,2.086A3.174,3.174,0,0,0,3.15,44.54C1.358,45.576.686,46.43.686,47.592c0,1.484,1.372,2.492,3.29,2.492a4.325,4.325,0,0,0,3.276-1.33l1.358,1.4ZM4.4,40.872c.91,0,1.428.49,1.428,1.218,0,.7-.462,1.19-1.876,2-.9-.91-1.106-1.316-1.106-1.89C2.842,41.418,3.416,40.872,4.4,40.872Zm-.364,8.386c-1.414,0-2.366-.7-2.366-1.764,0-.868.476-1.484,2.044-2.38l2.954,3.038A3.406,3.406,0,0,1,4.032,49.258ZM18.214,42.58a3.216,3.216,0,0,0-2.8,1.456V39.612H14.42V50h.952V48.544a3.19,3.19,0,0,0,2.842,1.526,3.746,3.746,0,0,0,0-7.49Zm-.07,6.608a2.873,2.873,0,1,1,2.744-2.87A2.7,2.7,0,0,1,18.144,49.188Zm8.778.882a3.745,3.745,0,1,0-3.752-3.752A3.622,3.622,0,0,0,26.922,50.07Zm0-.882a2.874,2.874,0,1,1,2.73-2.87A2.7,2.7,0,0,1,26.922,49.188Zm6.72-5.11V42.636H32.69V50h.994V46.248c0-1.736.938-2.716,2.478-2.716.07,0,.154.014.238.014V42.58A2.777,2.777,0,0,0,33.642,44.078Zm5.5,0V42.636h-.952V50h.994V46.248c0-1.736.938-2.716,2.478-2.716.07,0,.154.014.238.014V42.58A2.777,2.777,0,0,0,39.144,44.078Zm7.49,5.992a3.745,3.745,0,1,0-3.752-3.752A3.622,3.622,0,0,0,46.634,50.07Zm0-.882a2.874,2.874,0,1,1,2.73-2.87A2.7,2.7,0,0,1,46.634,49.188ZM62.09,42.636l-2.338,6.258L57.4,42.636h-.854L54.18,48.894l-2.31-6.258h-.952L53.69,50h.938l2.324-6.034L59.276,50h.938L63,42.636ZM65,41.026a.714.714,0,0,0,.728-.728A.706.706,0,0,0,65,39.612a.707.707,0,1,0,0,1.414ZM64.5,50h.994V42.636H64.5Zm7.518-7.42a3.1,3.1,0,0,0-2.8,1.414V42.636h-.952V50h.994V46.136a2.414,2.414,0,0,1,2.576-2.66,2.056,2.056,0,0,1,2.212,2.352V50h.994V45.73A2.819,2.819,0,0,0,72.016,42.58Zm11.62.056V44.05a3.323,3.323,0,0,0-2.912-1.47,3.572,3.572,0,1,0,0,7.14,3.314,3.314,0,0,0,2.87-1.428v.938c0,1.82-.854,2.674-2.716,2.674a4.383,4.383,0,0,1-2.9-1.008l-.5.756a5.136,5.136,0,0,0,3.43,1.134c2.436,0,3.682-1.148,3.682-3.682V42.636Zm-2.814,6.2a2.7,2.7,0,1,1,2.8-2.7A2.632,2.632,0,0,1,80.822,48.838Z" transform="translate(0 54)"/>
        </g>
      </g>
      <line id="Line_5" data-name="Line 5" class="cls-5" x2="798.256" transform="translate(136.5 1662.5)"/>
      <g id="Path_1587" data-name="Path 1587" class="cls-6" transform="translate(607.688 1662.728) rotate(-45)">
        <path class="cls-9" d="M 12.01124858856201 25.52229881286621 L -1.547241254229448e-06 25.52229881286621 L -1.500001549720764 25.52229881286621 L -1.500001549720764 24.02229881286621 L -1.500001549720764 12.01104831695557 C -1.500001549720764 8.402118682861328 -0.09461154788732529 5.009198665618896 2.457288503646851 2.457288503646851 C 5.009198665618896 -0.09461154788732529 8.402118682861328 -1.500001549720764 12.01104831695557 -1.500001549720764 C 15.62017822265625 -1.500001549720764 19.01309776306152 -0.09461154788732529 21.56500816345215 2.457288503646851 C 24.11690902709961 5.009198665618896 25.52229881286621 8.402118682861328 25.52229881286621 12.01104831695557 C 25.52229881286621 15.62017822265625 24.11690902709961 19.01309776306152 21.56500816345215 21.56500816345215 C 19.01309776306152 24.11690902709961 15.62017822265625 25.52229881286621 12.01124858856201 25.52229881286621 Z"/>
        <path class="cls-11" d="M 12.01104831695557 -1.9073486328125e-06 C 5.377529144287109 -1.9073486328125e-06 -1.9073486328125e-06 5.377529144287109 -1.9073486328125e-06 12.01104831695557 L -1.9073486328125e-06 24.02229881286621 L 12.01124858856201 24.02229881286621 C 18.64476776123047 24.02229881286621 24.02229881286621 18.64476776123047 24.02229881286621 12.01124858856201 L 24.02229881286621 12.01104831695557 C 24.02229881286621 5.377529144287109 18.64476776123047 -1.9073486328125e-06 12.01124858856201 -1.9073486328125e-06 L 12.01104831695557 -1.9073486328125e-06 M 12.01104831695557 -3.000001907348633 L 12.01124858856201 -3.000001907348633 C 14.03640842437744 -3.000001907348633 16.00257873535156 -2.602701187133789 17.85514831542969 -1.819131851196289 C 19.64300918579102 -1.062921524047852 21.24804878234863 0.01900863647460938 22.62566757202148 1.396629333496094 C 24.00328826904297 2.774248123168945 25.08521842956543 4.379287719726562 25.84142875671387 6.167148590087891 C 26.62499809265137 8.019718170166016 27.02229881286621 9.985888481140137 27.02229881286621 12.01104831695557 C 27.02229881286621 14.03640842437744 26.62499809265137 16.00257873535156 25.84142875671387 17.85514831542969 C 25.08521842956543 19.64300918579102 24.00328826904297 21.24804878234863 22.62566757202148 22.62566757202148 C 21.24804878234863 24.00328826904297 19.64300918579102 25.08521842956543 17.85514831542969 25.84142875671387 C 16.00257873535156 26.62499809265137 14.03640842437744 27.02229881286621 12.01124858856201 27.02229881286621 L -1.9073486328125e-06 27.02229881286621 L -3.000001907348633 27.02229881286621 L -3.000001907348633 24.02229881286621 L -3.000001907348633 12.01104831695557 C -3.000001907348633 9.985888481140137 -2.602701187133789 8.019718170166016 -1.819131851196289 6.167148590087891 C -1.062921524047852 4.379287719726562 0.01900863647460938 2.774248123168945 1.396629333496094 1.396629333496094 C 2.774248123168945 0.01900863647460938 4.379287719726562 -1.062921524047852 6.167148590087891 -1.819131851196289 C 8.019718170166016 -2.602701187133789 9.985888481140137 -3.000001907348633 12.01104831695557 -3.000001907348633 Z"/>
      </g>
      <g id="Path_1588" data-name="Path 1588" class="cls-6" transform="translate(917.999 1662.728) rotate(-45)">
        <path class="cls-9" d="M 12.01124858856201 25.52229881286621 L -1.547241254229448e-06 25.52229881286621 L -1.500001549720764 25.52229881286621 L -1.500001549720764 24.02229881286621 L -1.500001549720764 12.01104831695557 C -1.500001549720764 8.402118682861328 -0.09461154788732529 5.009198665618896 2.457288503646851 2.457288503646851 C 5.009198665618896 -0.09461154788732529 8.402118682861328 -1.500001549720764 12.01104831695557 -1.500001549720764 C 15.62017822265625 -1.500001549720764 19.01309776306152 -0.09461154788732529 21.56500816345215 2.457288503646851 C 24.11690902709961 5.009198665618896 25.52229881286621 8.402118682861328 25.52229881286621 12.01104831695557 C 25.52229881286621 15.62017822265625 24.11690902709961 19.01309776306152 21.56500816345215 21.56500816345215 C 19.01309776306152 24.11690902709961 15.62017822265625 25.52229881286621 12.01124858856201 25.52229881286621 Z"/>
        <path class="cls-11" d="M 12.01104831695557 -1.9073486328125e-06 C 5.377529144287109 -1.9073486328125e-06 -1.9073486328125e-06 5.377529144287109 -1.9073486328125e-06 12.01104831695557 L -1.9073486328125e-06 24.02229881286621 L 12.01124858856201 24.02229881286621 C 18.64476776123047 24.02229881286621 24.02229881286621 18.64476776123047 24.02229881286621 12.01124858856201 L 24.02229881286621 12.01104831695557 C 24.02229881286621 5.377529144287109 18.64476776123047 -1.9073486328125e-06 12.01124858856201 -1.9073486328125e-06 L 12.01104831695557 -1.9073486328125e-06 M 12.01104831695557 -3.000001907348633 L 12.01124858856201 -3.000001907348633 C 14.03640842437744 -3.000001907348633 16.00257873535156 -2.602701187133789 17.85514831542969 -1.819131851196289 C 19.64300918579102 -1.062921524047852 21.24804878234863 0.01900863647460938 22.62566757202148 1.396629333496094 C 24.00328826904297 2.774248123168945 25.08521842956543 4.379287719726562 25.84142875671387 6.167148590087891 C 26.62499809265137 8.019718170166016 27.02229881286621 9.985888481140137 27.02229881286621 12.01104831695557 C 27.02229881286621 14.03640842437744 26.62499809265137 16.00257873535156 25.84142875671387 17.85514831542969 C 25.08521842956543 19.64300918579102 24.00328826904297 21.24804878234863 22.62566757202148 22.62566757202148 C 21.24804878234863 24.00328826904297 19.64300918579102 25.08521842956543 17.85514831542969 25.84142875671387 C 16.00257873535156 26.62499809265137 14.03640842437744 27.02229881286621 12.01124858856201 27.02229881286621 L -1.9073486328125e-06 27.02229881286621 L -3.000001907348633 27.02229881286621 L -3.000001907348633 24.02229881286621 L -3.000001907348633 12.01104831695557 C -3.000001907348633 9.985888481140137 -2.602701187133789 8.019718170166016 -1.819131851196289 6.167148590087891 C -1.062921524047852 4.379287719726562 0.01900863647460938 2.774248123168945 1.396629333496094 1.396629333496094 C 2.774248123168945 0.01900863647460938 4.379287719726562 -1.062921524047852 6.167148590087891 -1.819131851196289 C 8.019718170166016 -2.602701187133789 9.985888481140137 -3.000001907348633 12.01104831695557 -3.000001907348633 Z"/>
      </g>
      <g id="Rectangle_88" data-name="Rectangle 88" class="cls-7" transform="translate(120 1661.5) rotate(-45)">
        <path class="cls-9" d="M12.5,0H25a0,0,0,0,1,0,0V12.5A12.5,12.5,0,0,1,12.5,25h0A12.5,12.5,0,0,1,0,12.5v0A12.5,12.5,0,0,1,12.5,0Z"/>
        <path class="cls-10" d="M12.5-1.5H25.523a.977.977,0,0,1,.977.977V12.5a14,14,0,0,1-14,14h0a14,14,0,0,1-14-14v0a14,14,0,0,1,14-14Z"/>
      </g>
      <rect id="Rectangle_89" data-name="Rectangle 89" class="cls-8" width="11" height="11" rx="5.5" transform="translate(129.899 1661.5) rotate(-45)"/>
      <rect id="Rectangle_95" data-name="Rectangle 95" class="cls-8" width="11" height="11" rx="5.5" transform="translate(129.899 1503.5) rotate(-45)"/>
      <line id="Line_7" data-name="Line 7" class="cls-2" y2="36.064" transform="translate(299.855 1709.786) rotate(180)"/>
      <rect id="Rectangle_97" data-name="Rectangle 97" class="cls-8" width="11" height="11" rx="5.5" transform="translate(448.514 1503.5) rotate(-45)"/>
      <g id="Rectangle_102" data-name="Rectangle 102" class="cls-7" transform="translate(299.185 1644.822) rotate(45)">
        <path class="cls-9" d="M12.5,0h0A12.5,12.5,0,0,1,25,12.5V25a0,0,0,0,1,0,0H12.5A12.5,12.5,0,0,1,0,12.5v0A12.5,12.5,0,0,1,12.5,0Z"/>
        <path class="cls-10" d="M12.5-1.5h0a14,14,0,0,1,14,14V25.523a.977.977,0,0,1-.977.977H12.5a14,14,0,0,1-14-14v0A14,14,0,0,1,12.5-1.5Z"/>
      </g>
      <rect id="Rectangle_96" data-name="Rectangle 96" class="cls-8" width="11" height="11" rx="5.5" transform="translate(307.456 1713.786) rotate(135)"/>
      <rect id="Rectangle_99" data-name="Rectangle 99" class="cls-8" width="11" height="11" rx="5.5" transform="translate(777.123 1503.5) rotate(-45)"/>
      <line id="Line_9" data-name="Line 9" class="cls-2" y2="36.064" transform="translate(623.626 1709.786) rotate(180)"/>
      <g id="Group_1056" data-name="Group 1056" transform="translate(281.507 1644.822)">
        <rect id="Rectangle_89-2" data-name="Rectangle 89" class="cls-8" width="11" height="11" rx="5.5" transform="translate(17.678 9.899) rotate(45)"/>
      </g>
      <rect id="Rectangle_98" data-name="Rectangle 98" class="cls-8" width="11" height="11" rx="5.5" transform="translate(631.224 1713.786) rotate(135)"/>
      <line id="Line_11" data-name="Line 11" class="cls-2" y2="36.064" transform="translate(933.854 1709.786) rotate(180)"/>
      <rect id="Rectangle_100" data-name="Rectangle 100" class="cls-8" width="11" height="11" rx="5.5" transform="translate(941.455 1713.786) rotate(135)"/>
      <g id="Group_1057" data-name="Group 1057" transform="translate(605.753 1644.822)">
        <g id="Rectangle_88-2" data-name="Rectangle 88" class="cls-7" transform="translate(17.678 0) rotate(45)">
          <path class="cls-9" d="M12.5,0h0A12.5,12.5,0,0,1,25,12.5V25a0,0,0,0,1,0,0H12.5A12.5,12.5,0,0,1,0,12.5v0A12.5,12.5,0,0,1,12.5,0Z"/>
          <path class="cls-10" d="M12.5-1.5h0a14,14,0,0,1,14,14V25.523a.977.977,0,0,1-.977.977H12.5a14,14,0,0,1-14-14v0A14,14,0,0,1,12.5-1.5Z"/>
        </g>
        <rect id="Rectangle_89-3" data-name="Rectangle 89" class="cls-8" width="11" height="11" rx="5.5" transform="translate(17.678 9.899) rotate(45)"/>
      </g>
      <g id="Group_1060" data-name="Group 1060" transform="translate(915.999 1644.822)">
        <g id="Rectangle_88-3" data-name="Rectangle 88" class="cls-7" transform="translate(17.678 0) rotate(45)">
          <path class="cls-9" d="M12.5,0h0A12.5,12.5,0,0,1,25,12.5V25a0,0,0,0,1,0,0H12.5A12.5,12.5,0,0,1,0,12.5v0A12.5,12.5,0,0,1,12.5,0Z"/>
          <path class="cls-10" d="M12.5-1.5h0a14,14,0,0,1,14,14V25.523a.977.977,0,0,1-.977.977H12.5a14,14,0,0,1-14-14v0A14,14,0,0,1,12.5-1.5Z"/>
        </g>
        <rect id="Rectangle_89-4" data-name="Rectangle 89" class="cls-8" width="11" height="11" rx="5.5" transform="translate(17.678 9.899) rotate(45)"/>
      </g>
      <g id="Group_1243" data-name="Group 1243" transform="translate(0 -25)">
        <path id="Path_5119" data-name="Path 5119" class="cls-3" d="M4.976.16C8.048.16,9.5-1.376,9.5-3.168c0-4.112-6.64-2.56-6.64-4.944,0-.848.7-1.52,2.432-1.52a6.224,6.224,0,0,1,3.088.88l.656-1.616a7.081,7.081,0,0,0-3.728-.992C2.24-11.36.8-9.824.8-8.016c0,4.16,6.656,2.576,6.656,4.992,0,.832-.736,1.456-2.48,1.456A6.206,6.206,0,0,1,1.28-2.8L.56-1.184A7.217,7.217,0,0,0,4.976.16Zm11.136-8.8A3.523,3.523,0,0,0,13.28-7.424v-1.12h-1.9V3.1h2V-1.04A3.51,3.51,0,0,0,16.112.112a4.162,4.162,0,0,0,4.336-4.384A4.158,4.158,0,0,0,16.112-8.64ZM15.888-1.6a2.5,2.5,0,0,1-2.544-2.672,2.5,2.5,0,0,1,2.544-2.672,2.485,2.485,0,0,1,2.528,2.672A2.485,2.485,0,0,1,15.888-1.6ZM27.2-8.64a3.809,3.809,0,0,0-2.848,1.088v-4.32h-2V0h2V-4.32A2.269,2.269,0,0,1,26.736-6.9c1.28,0,2.032.736,2.032,2.256V0h2V-4.9C30.768-7.472,29.248-8.64,27.2-8.64ZM41.424-4.224A4.167,4.167,0,0,0,37.1-8.64a4.249,4.249,0,0,0-4.416,4.368c0,2.544,1.856,4.384,4.72,4.384a4.331,4.331,0,0,0,3.44-1.392L39.776-2.512a3.062,3.062,0,0,1-2.32.928,2.586,2.586,0,0,1-2.768-2.048h6.7C41.408-3.824,41.424-4.064,41.424-4.224ZM37.1-7.04A2.326,2.326,0,0,1,39.52-4.96H34.672A2.361,2.361,0,0,1,37.1-7.04ZM45.248-7.3V-8.544h-1.9V0h2V-4.144a2.329,2.329,0,0,1,2.48-2.64,2.539,2.539,0,0,1,.464.048v-1.9A3.362,3.362,0,0,0,45.248-7.3Zm5.744-2.656a1.228,1.228,0,0,0,1.28-1.248,1.191,1.191,0,0,0-1.28-1.152,1.218,1.218,0,0,0-1.28,1.2A1.218,1.218,0,0,0,50.992-9.952ZM49.984,0h2V-8.544h-2Zm10.9-8.544v4.32c0,1.712-.944,2.576-2.336,2.576-1.264,0-2-.736-2-2.288V-8.544h-2v4.88c0,2.576,1.488,3.776,3.68,3.776a3.49,3.49,0,0,0,2.752-1.2V0h1.9V-8.544Zm15.408-.1a3.988,3.988,0,0,0-3.2,1.424,3.2,3.2,0,0,0-2.88-1.424,3.539,3.539,0,0,0-2.8,1.184V-8.544H65.5V0h2V-4.336c0-1.7.9-2.56,2.224-2.56,1.216,0,1.92.736,1.92,2.256V0h2V-4.336c0-1.7.912-2.56,2.224-2.56,1.216,0,1.92.736,1.92,2.256V0h2V-4.9C79.792-7.472,78.352-8.64,76.288-8.64Zm22.032.1L96-2.208,93.7-8.544h-1.68l-2.352,6.3-2.256-6.3H85.52L88.656,0h1.92l2.24-5.888L95.024,0h1.92L100.1-8.544Zm10.944,4.32a4.167,4.167,0,0,0-4.32-4.416,4.249,4.249,0,0,0-4.416,4.368c0,2.544,1.856,4.384,4.72,4.384a4.331,4.331,0,0,0,3.44-1.392l-1.072-1.232a3.062,3.062,0,0,1-2.32.928,2.586,2.586,0,0,1-2.768-2.048h6.7C109.248-3.824,109.264-4.064,109.264-4.224Zm-4.32-2.816a2.326,2.326,0,0,1,2.416,2.08h-4.848A2.361,2.361,0,0,1,104.944-7.04Zm10.976-1.6A3.552,3.552,0,0,0,113.184-7.5v-4.368h-2V0h1.9V-1.1A3.523,3.523,0,0,0,115.92.112a4.162,4.162,0,0,0,4.336-4.384A4.149,4.149,0,0,0,115.92-8.64ZM115.7-1.6a2.5,2.5,0,0,1-2.544-2.672A2.5,2.5,0,0,1,115.7-6.944a2.485,2.485,0,0,1,2.528,2.672A2.485,2.485,0,0,1,115.7-1.6ZM124.8.112c2.4,0,3.872-1.04,3.872-2.64,0-3.344-5.28-1.808-5.28-3.536,0-.56.576-.96,1.792-.96a4.677,4.677,0,0,1,2.448.64L128.4-7.9a6.8,6.8,0,0,0-3.2-.736c-2.3,0-3.76,1.056-3.76,2.672,0,3.408,5.28,1.872,5.28,3.5,0,.592-.528.944-1.792.944a5.749,5.749,0,0,1-2.976-.848l-.768,1.52A6.788,6.788,0,0,0,124.8.112Zm6.608-10.064a1.228,1.228,0,0,0,1.28-1.248,1.191,1.191,0,0,0-1.28-1.152,1.218,1.218,0,0,0-1.28,1.2A1.218,1.218,0,0,0,131.408-9.952ZM130.4,0h2V-8.544h-2Zm9.2-1.888a1.8,1.8,0,0,1-1.12.352c-.768,0-1.184-.448-1.184-1.28V-6.88h2.288v-1.6H137.3v-1.952h-2V-8.48h-1.408v1.6H135.3v4.112A2.625,2.625,0,0,0,138.24.112a3.143,3.143,0,0,0,1.92-.576Zm9.952-2.336a4.167,4.167,0,0,0-4.32-4.416,4.249,4.249,0,0,0-4.416,4.368c0,2.544,1.856,4.384,4.72,4.384a4.331,4.331,0,0,0,3.44-1.392L147.9-2.512a3.062,3.062,0,0,1-2.32.928,2.586,2.586,0,0,1-2.768-2.048h6.7C149.536-3.824,149.552-4.064,149.552-4.224Zm-4.32-2.816a2.326,2.326,0,0,1,2.416,2.08H142.8A2.361,2.361,0,0,1,145.232-7.04Z" transform="translate(159.258 1534.728)"/>
        <path id="Path_5121" data-name="Path 5121" class="cls-4" d="M5.852,14.084a4.765,4.765,0,0,0,3.6-1.442l-.658-.658a3.844,3.844,0,0,1-2.9,1.176A4,4,0,0,1,1.75,9.1,4,4,0,0,1,5.894,5.04,3.884,3.884,0,0,1,8.792,6.2l.658-.658A4.745,4.745,0,0,0,5.866,4.116,4.92,4.92,0,0,0,.728,9.1,4.917,4.917,0,0,0,5.852,14.084Zm8.288-.014a3.622,3.622,0,0,0,3.738-3.752A3.611,3.611,0,0,0,14.14,6.58a3.622,3.622,0,0,0-3.752,3.738A3.634,3.634,0,0,0,14.14,14.07Zm0-.882a2.7,2.7,0,0,1-2.744-2.87,2.74,2.74,0,1,1,5.474,0A2.685,2.685,0,0,1,14.14,13.188ZM29.092,6.58A3.207,3.207,0,0,0,26.18,8.134,2.645,2.645,0,0,0,23.562,6.58a2.978,2.978,0,0,0-2.7,1.4V6.636h-.952V14H20.9V10.136a2.373,2.373,0,0,1,2.464-2.66c1.344,0,2.128.8,2.128,2.352V14h.994V10.136a2.367,2.367,0,0,1,2.464-2.66c1.33,0,2.114.8,2.114,2.352V14h.994V9.73C32.06,7.616,30.884,6.58,29.092,6.58Zm9.464,0a3.208,3.208,0,0,0-2.842,1.512V6.636h-.952v10.08h.994v-4.1a3.216,3.216,0,0,0,2.8,1.456,3.566,3.566,0,0,0,3.668-3.752A3.562,3.562,0,0,0,38.556,6.58Zm-.07,6.608a2.7,2.7,0,0,1-2.744-2.87,2.747,2.747,0,1,1,5.488,0A2.7,2.7,0,0,1,38.486,13.188ZM44.254,14h.994V3.612h-.994Zm10.192-3.682a3.509,3.509,0,0,0-3.57-3.738,3.547,3.547,0,0,0-3.6,3.738,3.893,3.893,0,0,0,6.706,2.548l-.56-.644a2.9,2.9,0,0,1-2.254.966,2.726,2.726,0,0,1-2.9-2.562h6.16C54.432,10.514,54.446,10.4,54.446,10.318Zm-3.57-2.884a2.561,2.561,0,0,1,2.618,2.45H48.272A2.558,2.558,0,0,1,50.876,7.434ZM60,12.838a1.645,1.645,0,0,1-1.092.378,1.179,1.179,0,0,1-1.274-1.344v-4.4h2.24v-.84h-2.24V5.026h-.994v1.61H55.328v.84h1.316v4.452A1.951,1.951,0,0,0,58.8,14.07a2.367,2.367,0,0,0,1.554-.518Zm8.316-2.52A3.509,3.509,0,0,0,64.75,6.58a3.547,3.547,0,0,0-3.6,3.738,3.893,3.893,0,0,0,6.706,2.548l-.56-.644a2.9,2.9,0,0,1-2.254.966,2.726,2.726,0,0,1-2.9-2.562h6.16C68.306,10.514,68.32,10.4,68.32,10.318ZM64.75,7.434a2.561,2.561,0,0,1,2.618,2.45H62.146A2.558,2.558,0,0,1,64.75,7.434Zm19.166-.8-2.338,6.258L79.226,6.636h-.854l-2.366,6.258L73.7,6.636h-.952L75.516,14h.938l2.324-6.034L81.1,14h.938l2.786-7.364Zm8.624,3.682A3.509,3.509,0,0,0,88.97,6.58a3.547,3.547,0,0,0-3.6,3.738,3.893,3.893,0,0,0,6.706,2.548l-.56-.644a2.9,2.9,0,0,1-2.254.966,2.726,2.726,0,0,1-2.9-2.562h6.16C92.526,10.514,92.54,10.4,92.54,10.318ZM88.97,7.434a2.561,2.561,0,0,1,2.618,2.45H86.366A2.558,2.558,0,0,1,88.97,7.434Zm9.394-.854a3.216,3.216,0,0,0-2.8,1.456V3.612H94.57V14h.952V12.544a3.19,3.19,0,0,0,2.842,1.526,3.574,3.574,0,0,0,3.668-3.752A3.562,3.562,0,0,0,98.364,6.58Zm-.07,6.608a2.7,2.7,0,0,1-2.744-2.87,2.747,2.747,0,1,1,5.488,0A2.7,2.7,0,0,1,98.294,13.188Zm7.742.882c1.918,0,3.038-.826,3.038-2.1,0-2.828-4.774-1.33-4.774-3.318,0-.7.588-1.218,1.918-1.218a3.775,3.775,0,0,1,2.17.63l.434-.8a4.99,4.99,0,0,0-2.6-.686c-1.876,0-2.912.9-2.912,2.1,0,2.912,4.774,1.4,4.774,3.318,0,.728-.574,1.2-1.974,1.2a4.448,4.448,0,0,1-2.618-.826l-.448.784A4.92,4.92,0,0,0,106.036,14.07Zm5.376-9.044a.714.714,0,0,0,.728-.728.706.706,0,0,0-.728-.686.707.707,0,1,0,0,1.414Zm-.5,8.974h.994V6.636h-.994Zm7.294-1.162a1.645,1.645,0,0,1-1.092.378,1.179,1.179,0,0,1-1.274-1.344v-4.4h2.24v-.84h-2.24V5.026h-.994v1.61h-1.316v.84h1.316v4.452A1.951,1.951,0,0,0,117,14.07a2.367,2.367,0,0,0,1.554-.518Zm8.316-2.52a3.509,3.509,0,0,0-3.57-3.738,3.547,3.547,0,0,0-3.6,3.738,3.893,3.893,0,0,0,6.706,2.548l-.56-.644a2.9,2.9,0,0,1-2.254.966,2.726,2.726,0,0,1-2.9-2.562h6.16C126.5,10.514,126.518,10.4,126.518,10.318Zm-3.57-2.884a2.561,2.561,0,0,1,2.618,2.45h-5.222A2.558,2.558,0,0,1,122.948,7.434Zm19.166-.8-2.338,6.258-2.352-6.258h-.854L134.2,12.894l-2.31-6.258h-.952L133.714,14h.938l2.324-6.034L139.3,14h.938l2.786-7.364Zm2.912-1.61a.714.714,0,0,0,.728-.728.706.706,0,0,0-.728-.686.707.707,0,1,0,0,1.414Zm-.5,8.974h.994V6.636h-.994Zm7.294-1.162a1.645,1.645,0,0,1-1.092.378,1.179,1.179,0,0,1-1.274-1.344v-4.4h2.24v-.84h-2.24V5.026h-.994v1.61H147.14v.84h1.316v4.452a1.951,1.951,0,0,0,2.156,2.142,2.367,2.367,0,0,0,1.554-.518Zm5.908-6.258a3.112,3.112,0,0,0-2.758,1.344V3.612h-.994V14h.994V10.136a2.414,2.414,0,0,1,2.576-2.66,2.056,2.056,0,0,1,2.212,2.352V14h.994V9.73A2.819,2.819,0,0,0,157.724,6.58ZM5.18,24.58a3.208,3.208,0,0,0-2.842,1.512V24.636H1.386v10.08H2.38v-4.1a3.216,3.216,0,0,0,2.8,1.456,3.566,3.566,0,0,0,3.668-3.752A3.562,3.562,0,0,0,5.18,24.58Zm-.07,6.608a2.7,2.7,0,0,1-2.744-2.87,2.7,2.7,0,0,1,2.744-2.87,2.712,2.712,0,0,1,2.744,2.87A2.7,2.7,0,0,1,5.11,31.188Zm6.72-5.11V24.636h-.952V32h.994V28.248c0-1.736.938-2.716,2.478-2.716.07,0,.154.014.238.014V24.58A2.777,2.777,0,0,0,11.83,26.078Zm7.49,5.992a3.745,3.745,0,0,0,0-7.49,3.745,3.745,0,1,0,0,7.49Zm0-.882a2.7,2.7,0,0,1-2.744-2.87,2.74,2.74,0,1,1,5.474,0A2.685,2.685,0,0,1,19.32,31.188Zm11.494-9.576v4.424a3.216,3.216,0,0,0-2.8-1.456,3.562,3.562,0,0,0-3.668,3.738,3.574,3.574,0,0,0,3.668,3.752,3.19,3.19,0,0,0,2.842-1.526V32h.952V21.612ZM28.1,31.188a2.7,2.7,0,0,1-2.744-2.87,2.74,2.74,0,1,1,5.474,0A2.693,2.693,0,0,1,28.1,31.188Zm12.124-6.552V28.5a2.394,2.394,0,0,1-2.506,2.674A2.061,2.061,0,0,1,35.5,28.808V24.636H34.51v4.27a2.852,2.852,0,0,0,3.108,3.164,2.929,2.929,0,0,0,2.646-1.414V32h.952V24.636Zm6.832,7.434a3.246,3.246,0,0,0,2.884-1.456l-.742-.5a2.491,2.491,0,0,1-2.142,1.078,2.7,2.7,0,0,1-2.786-2.87,2.706,2.706,0,0,1,2.786-2.87A2.5,2.5,0,0,1,49.2,26.54l.742-.5a3.216,3.216,0,0,0-2.884-1.456,3.745,3.745,0,1,0,0,7.49ZM55.5,30.838a1.645,1.645,0,0,1-1.092.378,1.179,1.179,0,0,1-1.274-1.344v-4.4h2.24v-.84H53.13v-1.61h-.994v1.61H50.82v.84h1.316v4.452a1.951,1.951,0,0,0,2.156,2.142,2.367,2.367,0,0,0,1.554-.518Zm4.13,1.232c1.918,0,3.038-.826,3.038-2.1,0-2.828-4.774-1.33-4.774-3.318,0-.7.588-1.218,1.918-1.218a3.775,3.775,0,0,1,2.17.63l.434-.8a4.99,4.99,0,0,0-2.6-.686c-1.876,0-2.912.9-2.912,2.1,0,2.912,4.774,1.4,4.774,3.318,0,.728-.574,1.2-1.974,1.2a4.448,4.448,0,0,1-2.618-.826l-.448.784A4.92,4.92,0,0,0,59.626,32.07Zm11.116-7.49a4.676,4.676,0,0,0-3,.994l.448.742a3.751,3.751,0,0,1,2.45-.868c1.372,0,2.086.686,2.086,1.946v.448H70.392c-2.114,0-2.842.952-2.842,2.086,0,1.274,1.022,2.142,2.688,2.142a2.765,2.765,0,0,0,2.534-1.218V32h.952V27.436C73.724,25.532,72.646,24.58,70.742,24.58Zm-.35,6.706c-1.176,0-1.862-.532-1.862-1.386,0-.756.462-1.316,1.89-1.316h2.31v1.2A2.356,2.356,0,0,1,70.392,31.286Zm9.786-6.706a3.1,3.1,0,0,0-2.8,1.414V24.636h-.952V32h.994V28.136A2.414,2.414,0,0,1,80,25.476a2.056,2.056,0,0,1,2.212,2.352V32H83.2V27.73A2.819,2.819,0,0,0,80.178,24.58Zm11.48-2.968v4.424a3.216,3.216,0,0,0-2.8-1.456,3.562,3.562,0,0,0-3.668,3.738,3.574,3.574,0,0,0,3.668,3.752A3.19,3.19,0,0,0,91.7,30.544V32h.952V21.612Zm-2.716,9.576a2.7,2.7,0,0,1-2.744-2.87,2.74,2.74,0,1,1,5.474,0A2.693,2.693,0,0,1,88.942,31.188Zm12.586-8.806a1.684,1.684,0,0,1,1.092.364l.336-.742a2.334,2.334,0,0,0-1.47-.462,2.028,2.028,0,0,0-2.226,2.184v.91H97.944v.84H99.26V32h.994V25.476h2.24v-.84h-2.268v-.868C100.226,22.858,100.674,22.382,101.528,22.382Zm8.61,5.936a3.509,3.509,0,0,0-3.57-3.738,3.547,3.547,0,0,0-3.6,3.738,3.893,3.893,0,0,0,6.706,2.548l-.56-.644a2.9,2.9,0,0,1-2.254.966,2.726,2.726,0,0,1-2.9-2.562h6.16C110.124,28.514,110.138,28.4,110.138,28.318Zm-3.57-2.884a2.561,2.561,0,0,1,2.618,2.45h-5.222A2.558,2.558,0,0,1,106.568,25.434Zm7.966-.854a4.676,4.676,0,0,0-3,.994l.448.742a3.751,3.751,0,0,1,2.45-.868c1.372,0,2.086.686,2.086,1.946v.448h-2.338c-2.114,0-2.842.952-2.842,2.086,0,1.274,1.022,2.142,2.688,2.142a2.765,2.765,0,0,0,2.534-1.218V32h.952V27.436C117.516,25.532,116.438,24.58,114.534,24.58Zm-.35,6.706c-1.176,0-1.862-.532-1.862-1.386,0-.756.462-1.316,1.89-1.316h2.31v1.2A2.356,2.356,0,0,1,114.184,31.286Zm9.562-.448a1.645,1.645,0,0,1-1.092.378,1.179,1.179,0,0,1-1.274-1.344v-4.4h2.24v-.84h-2.24v-1.61h-.994v1.61H119.07v.84h1.316v4.452a1.951,1.951,0,0,0,2.156,2.142,2.367,2.367,0,0,0,1.554-.518Zm7.8-6.2V28.5a2.4,2.4,0,0,1-2.506,2.674,2.061,2.061,0,0,1-2.212-2.366V24.636h-.994v4.27a2.852,2.852,0,0,0,3.108,3.164,2.929,2.929,0,0,0,2.646-1.414V32h.952V24.636Zm4.732,1.442V24.636h-.952V32h.994V28.248c0-1.736.938-2.716,2.478-2.716.07,0,.154.014.238.014V24.58A2.777,2.777,0,0,0,136.276,26.078Zm10.906,2.24a3.509,3.509,0,0,0-3.57-3.738,3.547,3.547,0,0,0-3.6,3.738,3.893,3.893,0,0,0,6.706,2.548l-.56-.644a2.9,2.9,0,0,1-2.254.966,2.726,2.726,0,0,1-2.9-2.562h6.16C147.168,28.514,147.182,28.4,147.182,28.318Zm-3.57-2.884a2.561,2.561,0,0,1,2.618,2.45h-5.222A2.558,2.558,0,0,1,143.612,25.434ZM7.112,39.612v4.424a3.216,3.216,0,0,0-2.8-1.456,3.746,3.746,0,0,0,0,7.49,3.19,3.19,0,0,0,2.842-1.526V50h.952V39.612ZM4.4,49.188a2.873,2.873,0,0,1,0-5.74,2.874,2.874,0,0,1,0,5.74ZM17.3,46.318a3.509,3.509,0,0,0-3.57-3.738,3.547,3.547,0,0,0-3.6,3.738A3.647,3.647,0,0,0,14,50.07a3.625,3.625,0,0,0,2.842-1.2l-.56-.644a2.9,2.9,0,0,1-2.254.966,2.726,2.726,0,0,1-2.9-2.562h6.16C17.29,46.514,17.3,46.4,17.3,46.318Zm-3.57-2.884a2.561,2.561,0,0,1,2.618,2.45H11.13A2.558,2.558,0,0,1,13.734,43.434Zm9.128,5.4a1.645,1.645,0,0,1-1.092.378A1.179,1.179,0,0,1,20.5,47.872v-4.4h2.24v-.84H20.5v-1.61H19.5v1.61H18.186v.84H19.5v4.452a1.951,1.951,0,0,0,2.156,2.142,2.367,2.367,0,0,0,1.554-.518Zm4.732-6.258a4.676,4.676,0,0,0-3,.994l.448.742a3.751,3.751,0,0,1,2.45-.868c1.372,0,2.086.686,2.086,1.946v.448H27.244c-2.114,0-2.842.952-2.842,2.086,0,1.274,1.022,2.142,2.688,2.142a2.765,2.765,0,0,0,2.534-1.218V50h.952V45.436C30.576,43.532,29.5,42.58,27.594,42.58Zm-.35,6.706c-1.176,0-1.862-.532-1.862-1.386,0-.756.462-1.316,1.89-1.316h2.31v1.2A2.356,2.356,0,0,1,27.244,49.286Zm6.538-8.26a.714.714,0,0,0,.728-.728.706.706,0,0,0-.728-.686.707.707,0,1,0,0,1.414ZM33.278,50h.994V42.636h-.994Zm3.766,0h.994V39.612h-.994Zm5.74.07c1.918,0,3.038-.826,3.038-2.1,0-2.828-4.774-1.33-4.774-3.318,0-.7.588-1.218,1.918-1.218a3.775,3.775,0,0,1,2.17.63l.434-.8a4.99,4.99,0,0,0-2.6-.686c-1.876,0-2.912.9-2.912,2.1,0,2.912,4.774,1.4,4.774,3.318,0,.728-.574,1.2-1.974,1.2a4.448,4.448,0,0,1-2.618-.826l-.448.784A4.92,4.92,0,0,0,42.784,50.07Z" transform="translate(159.258 1548.728)"/>
      </g>
      <g id="Group_1244" data-name="Group 1244" transform="translate(0 -25)">
        <path id="Path_5123" data-name="Path 5123" class="cls-3" d="M4.976,15.16c3.072,0,4.528-1.536,4.528-3.328,0-4.112-6.64-2.56-6.64-4.944,0-.848.7-1.52,2.432-1.52a6.224,6.224,0,0,1,3.088.88L9.04,4.632A7.081,7.081,0,0,0,5.312,3.64C2.24,3.64.8,5.176.8,6.984c0,4.16,6.656,2.576,6.656,4.992,0,.832-.736,1.456-2.48,1.456A6.206,6.206,0,0,1,1.28,12.2L.56,13.816A7.217,7.217,0,0,0,4.976,15.16ZM16.176,3.8H11.568V15h2.08V11.768h2.528c2.944,0,4.768-1.52,4.768-3.984C20.944,5.3,19.12,3.8,16.176,3.8Zm-.1,6.208H13.648V5.56H16.08c1.824,0,2.768.816,2.768,2.224S17.9,10.008,16.08,10.008ZM30.9,3.8V8.424H25.1V3.8h-2.08V15H25.1V10.2H30.9V15h2.08V3.8Zm4.464,7.584h4.4V9.72h-4.4ZM45.376,15.16c3.072,0,4.528-1.536,4.528-3.328,0-4.112-6.64-2.56-6.64-4.944,0-.848.7-1.52,2.432-1.52a6.224,6.224,0,0,1,3.088.88l.656-1.616a7.081,7.081,0,0,0-3.728-.992C42.64,3.64,41.2,5.176,41.2,6.984c0,4.16,6.656,2.576,6.656,4.992,0,.832-.736,1.456-2.48,1.456a6.206,6.206,0,0,1-3.7-1.232l-.72,1.616A7.217,7.217,0,0,0,45.376,15.16ZM66.352,3.8l-2.864,8.56L60.656,3.8h-1.92l-2.9,8.512L53.056,3.8H50.9L54.608,15h2.224l2.816-8.288L62.416,15h2.208L68.336,3.8ZM78.064,15H80.24L75.184,3.8H73.136L68.1,15H70.24l1.1-2.592h5.6Zm-6.016-4.224,2.1-4.9,2.112,4.9ZM86.272,3.8H81.664V15h2.08V11.768h2.528c2.944,0,4.768-1.52,4.768-3.984C91.04,5.3,89.216,3.8,86.272,3.8Zm-.1,6.208H83.744V5.56h2.432c1.824,0,2.768.816,2.768,2.224S88,10.008,86.176,10.008Zm6.4,1.376h4.4V9.72h-4.4ZM99.36,15H107.3V13.24H101.44V3.8H99.36Zm7.648-11.2V5.544h2.368V15h2.08V3.8ZM3.952,37.112c2.4,0,3.872-1.04,3.872-2.64,0-3.344-5.28-1.808-5.28-3.536,0-.56.576-.96,1.792-.96a4.677,4.677,0,0,1,2.448.64l.768-1.52a6.8,6.8,0,0,0-3.2-.736c-2.3,0-3.76,1.056-3.76,2.672,0,3.408,5.28,1.872,5.28,3.5,0,.592-.528.944-1.792.944A5.749,5.749,0,0,1,1.1,34.632l-.768,1.52A6.788,6.788,0,0,0,3.952,37.112Zm10.176-2a1.8,1.8,0,0,1-1.12.352c-.768,0-1.184-.448-1.184-1.28V30.12h2.288v-1.6H11.824V26.568h-2V28.52H8.416v1.6H9.824v4.112a2.625,2.625,0,0,0,2.944,2.88,3.143,3.143,0,0,0,1.92-.576ZM19.6,28.36a6.007,6.007,0,0,0-3.616,1.056l.784,1.456a4.23,4.23,0,0,1,2.592-.848c1.424,0,2.128.688,2.128,1.856v.128H19.28c-2.592,0-3.552,1.12-3.552,2.544,0,1.488,1.232,2.56,3.184,2.56A3.028,3.028,0,0,0,21.6,35.96V37h1.888V31.992C23.488,29.528,22.064,28.36,19.6,28.36Zm-.272,7.3c-1.024,0-1.632-.464-1.632-1.184,0-.624.368-1.136,1.728-1.136h2.064v.992A2.178,2.178,0,0,1,19.328,35.656ZM32.5,37h2.432l-3.9-4.96,3.568-3.584h-2.4L28.048,32.3V25.128h-2V37h2V34.744l1.488-1.408ZM43.9,32.776a4.167,4.167,0,0,0-4.32-4.416,4.249,4.249,0,0,0-4.416,4.368c0,2.544,1.856,4.384,4.72,4.384a4.331,4.331,0,0,0,3.44-1.392l-1.072-1.232a3.062,3.062,0,0,1-2.32.928,2.586,2.586,0,0,1-2.768-2.048h6.7C43.888,33.176,43.9,32.936,43.9,32.776Zm-4.32-2.816A2.326,2.326,0,0,1,42,32.04H37.152A2.361,2.361,0,0,1,39.584,29.96Zm20.352,5.92-1.408-1.344a7.651,7.651,0,0,0,1.008-2.56l-1.616-.528a7.264,7.264,0,0,1-.624,1.888l-2.416-2.3c1.616-.912,2.288-1.744,2.288-2.9,0-1.52-1.184-2.464-2.992-2.464-1.968,0-3.248,1.072-3.248,2.64a3.391,3.391,0,0,0,1.248,2.464c-1.824,1.024-2.592,2-2.592,3.392,0,1.76,1.712,2.992,4.08,2.992a5.658,5.658,0,0,0,3.76-1.344l1.408,1.36ZM54.176,27.1c.832,0,1.3.432,1.3,1.072,0,.608-.416,1.072-1.712,1.776-.8-.8-1.008-1.168-1.008-1.664C52.752,27.592,53.28,27.1,54.176,27.1Zm-.368,8.432c-1.376,0-2.272-.64-2.272-1.568,0-.8.448-1.392,1.744-2.112l2.96,2.832A3.752,3.752,0,0,1,53.808,35.528ZM67.856,29.7V28.456h-1.9V37h2V32.856a2.329,2.329,0,0,1,2.48-2.64,2.539,2.539,0,0,1,.464.048v-1.9A3.362,3.362,0,0,0,67.856,29.7Zm12.688,3.072a4.167,4.167,0,0,0-4.32-4.416,4.249,4.249,0,0,0-4.416,4.368c0,2.544,1.856,4.384,4.72,4.384a4.331,4.331,0,0,0,3.44-1.392L78.9,34.488a3.062,3.062,0,0,1-2.32.928,2.586,2.586,0,0,1-2.768-2.048h6.7C80.528,33.176,80.544,32.936,80.544,32.776Zm-4.32-2.816a2.326,2.326,0,0,1,2.416,2.08H73.792A2.361,2.361,0,0,1,76.224,29.96Zm17.632-1.5-2.32,6.336-2.3-6.336h-1.68L85.2,34.76l-2.256-6.3H81.056L84.192,37h1.92l2.24-5.888L90.56,37h1.92l3.152-8.544Zm6.144-.1a6.007,6.007,0,0,0-3.616,1.056l.784,1.456a4.23,4.23,0,0,1,2.592-.848c1.424,0,2.128.688,2.128,1.856v.128H99.68c-2.592,0-3.552,1.12-3.552,2.544,0,1.488,1.232,2.56,3.184,2.56A3.028,3.028,0,0,0,102,35.96V37h1.888V31.992C103.888,29.528,102.464,28.36,100,28.36Zm-.272,7.3c-1.024,0-1.632-.464-1.632-1.184,0-.624.368-1.136,1.728-1.136h2.064v.992A2.178,2.178,0,0,1,99.728,35.656Zm8.624-5.952V28.456h-1.9V37h2V32.856a2.329,2.329,0,0,1,2.48-2.64,2.539,2.539,0,0,1,.464.048v-1.9A3.362,3.362,0,0,0,108.352,29.7Zm11.024-4.576v4.384a3.5,3.5,0,0,0-2.752-1.152,4.145,4.145,0,0,0-4.32,4.368,4.158,4.158,0,0,0,4.32,4.384,3.523,3.523,0,0,0,2.832-1.216V37h1.92V25.128ZM116.864,35.4a2.5,2.5,0,0,1-2.544-2.672,2.547,2.547,0,1,1,5.088,0A2.5,2.5,0,0,1,116.864,35.4Zm9.776,1.712c2.4,0,3.872-1.04,3.872-2.64,0-3.344-5.28-1.808-5.28-3.536,0-.56.576-.96,1.792-.96a4.677,4.677,0,0,1,2.448.64l.768-1.52a6.8,6.8,0,0,0-3.2-.736c-2.3,0-3.76,1.056-3.76,2.672,0,3.408,5.28,1.872,5.28,3.5,0,.592-.528.944-1.792.944a5.749,5.749,0,0,1-2.976-.848l-.768,1.52A6.788,6.788,0,0,0,126.64,37.112Z" transform="translate(473.614 1519.728)"/>
        <path id="Path_5124" data-name="Path 5124" class="cls-4" d="M4.3,14.084c2.506,0,3.654-1.232,3.654-2.674,0-3.57-6.034-1.946-6.034-4.634,0-.98.8-1.778,2.59-1.778A5.045,5.045,0,0,1,7.2,5.81l.35-.826a5.532,5.532,0,0,0-3.038-.868C2.016,4.116.9,5.362.9,6.8.9,10.43,6.93,8.778,6.93,11.466c0,.966-.8,1.736-2.632,1.736a4.812,4.812,0,0,1-3.234-1.19l-.406.8A5.314,5.314,0,0,0,4.3,14.084Zm9.492-7.5a3.208,3.208,0,0,0-2.842,1.512V6.636H10v10.08h.994v-4.1a3.216,3.216,0,0,0,2.8,1.456,3.566,3.566,0,0,0,3.668-3.752A3.562,3.562,0,0,0,13.79,6.58Zm-.07,6.608a2.7,2.7,0,0,1-2.744-2.87,2.747,2.747,0,1,1,5.488,0A2.7,2.7,0,0,1,13.72,13.188ZM23.24,6.58a3.112,3.112,0,0,0-2.758,1.344V3.612h-.994V14h.994V10.136a2.414,2.414,0,0,1,2.576-2.66A2.056,2.056,0,0,1,25.27,9.828V14h.994V9.73A2.819,2.819,0,0,0,23.24,6.58Zm12.18,3.738A3.509,3.509,0,0,0,31.85,6.58a3.547,3.547,0,0,0-3.6,3.738,3.647,3.647,0,0,0,3.864,3.752,3.625,3.625,0,0,0,2.842-1.2l-.56-.644a2.9,2.9,0,0,1-2.254.966,2.726,2.726,0,0,1-2.9-2.562h6.16C35.406,10.514,35.42,10.4,35.42,10.318ZM31.85,7.434a2.561,2.561,0,0,1,2.618,2.45H29.246A2.558,2.558,0,0,1,31.85,7.434Zm6.552.644V6.636H37.45V14h.994V10.248c0-1.736.938-2.716,2.478-2.716.07,0,.154.014.238.014V6.58A2.777,2.777,0,0,0,38.4,8.078Zm5.054-3.052a.714.714,0,0,0,.728-.728.706.706,0,0,0-.728-.686.707.707,0,1,0,0,1.414ZM42.952,14h.994V6.636h-.994ZM52.36,6.636V10.5a2.394,2.394,0,0,1-2.506,2.674,2.061,2.061,0,0,1-2.212-2.366V6.636h-.994v4.27a2.852,2.852,0,0,0,3.108,3.164A2.929,2.929,0,0,0,52.4,12.656V14h.952V6.636ZM65.324,6.58a3.207,3.207,0,0,0-2.912,1.554A2.645,2.645,0,0,0,59.794,6.58a2.978,2.978,0,0,0-2.7,1.4V6.636H56.14V14h.994V10.136A2.373,2.373,0,0,1,59.6,7.476c1.344,0,2.128.8,2.128,2.352V14h.994V10.136a2.367,2.367,0,0,1,2.464-2.66c1.33,0,2.114.8,2.114,2.352V14h.994V9.73C68.292,7.616,67.116,6.58,65.324,6.58ZM82.04,4.2V8.568H75.908V4.2H74.872V14h1.036V9.478H82.04V14h1.022V4.2Zm9.212,2.436L88.48,12.894,85.708,6.636H84.672l3.29,7.35-.322.714c-.42.924-.868,1.232-1.526,1.232a1.839,1.839,0,0,1-1.344-.56l-.462.742a2.52,2.52,0,0,0,1.792.672c1.05,0,1.834-.462,2.45-1.9l3.682-8.246Zm6.174-.056a3.208,3.208,0,0,0-2.842,1.512V6.636h-.952v10.08h.994v-4.1a3.216,3.216,0,0,0,2.8,1.456,3.566,3.566,0,0,0,3.668-3.752A3.562,3.562,0,0,0,97.426,6.58Zm-.07,6.608a2.7,2.7,0,0,1-2.744-2.87,2.747,2.747,0,1,1,5.488,0A2.7,2.7,0,0,1,97.356,13.188Zm12.194-2.87a3.509,3.509,0,0,0-3.57-3.738,3.547,3.547,0,0,0-3.6,3.738,3.893,3.893,0,0,0,6.706,2.548l-.56-.644a2.9,2.9,0,0,1-2.254.966,2.726,2.726,0,0,1-2.9-2.562h6.16C109.536,10.514,109.55,10.4,109.55,10.318Zm-3.57-2.884a2.561,2.561,0,0,1,2.618,2.45h-5.222A2.558,2.558,0,0,1,105.98,7.434Zm6.552.644V6.636h-.952V14h.994V10.248c0-1.736.938-2.716,2.478-2.716.07,0,.154.014.238.014V6.58A2.777,2.777,0,0,0,112.532,8.078Zm7.308,6.006c2.506,0,3.654-1.232,3.654-2.674,0-3.57-6.034-1.946-6.034-4.634,0-.98.8-1.778,2.59-1.778a5.045,5.045,0,0,1,2.688.812l.35-.826a5.532,5.532,0,0,0-3.038-.868c-2.492,0-3.612,1.246-3.612,2.688,0,3.626,6.034,1.974,6.034,4.662,0,.966-.8,1.736-2.632,1.736a4.812,4.812,0,0,1-3.234-1.19l-.406.8A5.314,5.314,0,0,0,119.84,14.084ZM135.3,6.636l-2.338,6.258-2.352-6.258h-.854l-2.366,6.258-2.31-6.258h-.952L126.9,14h.938l2.324-6.034L132.482,14h.938l2.786-7.364Zm4.76-.056a4.676,4.676,0,0,0-3,.994l.448.742a3.751,3.751,0,0,1,2.45-.868c1.372,0,2.086.686,2.086,1.946v.448h-2.338c-2.114,0-2.842.952-2.842,2.086,0,1.274,1.022,2.142,2.688,2.142a2.765,2.765,0,0,0,2.534-1.218V14h.952V9.436C143.038,7.532,141.96,6.58,140.056,6.58Zm-.35,6.706c-1.176,0-1.862-.532-1.862-1.386,0-.756.462-1.316,1.89-1.316h2.31v1.2A2.356,2.356,0,0,1,139.706,13.286Zm9.828-6.706a3.208,3.208,0,0,0-2.842,1.512V6.636h-.952v10.08h.994v-4.1a3.216,3.216,0,0,0,2.8,1.456,3.566,3.566,0,0,0,3.668-3.752A3.562,3.562,0,0,0,149.534,6.58Zm-.07,6.608a2.7,2.7,0,0,1-2.744-2.87,2.747,2.747,0,1,1,5.488,0A2.7,2.7,0,0,1,149.464,13.188ZM1.386,32H2.38V21.612H1.386Zm6.342-7.42a4.676,4.676,0,0,0-3,.994l.448.742a3.751,3.751,0,0,1,2.45-.868c1.372,0,2.086.686,2.086,1.946v.448H7.378c-2.114,0-2.842.952-2.842,2.086,0,1.274,1.022,2.142,2.688,2.142a2.765,2.765,0,0,0,2.534-1.218V32h.952V27.436C10.71,25.532,9.632,24.58,7.728,24.58Zm-.35,6.706c-1.176,0-1.862-.532-1.862-1.386,0-.756.462-1.316,1.89-1.316h2.31v1.2A2.356,2.356,0,0,1,7.378,31.286Zm11.1-6.65-2.772,6.258-2.772-6.258H11.9l3.29,7.35-.322.714c-.42.924-.868,1.232-1.526,1.232A1.839,1.839,0,0,1,12,33.372l-.462.742a2.52,2.52,0,0,0,1.792.672c1.05,0,1.834-.462,2.45-1.9l3.682-8.246Zm8.6,3.682a3.509,3.509,0,0,0-3.57-3.738,3.547,3.547,0,0,0-3.6,3.738,3.647,3.647,0,0,0,3.864,3.752,3.625,3.625,0,0,0,2.842-1.2l-.56-.644a2.9,2.9,0,0,1-2.254.966,2.726,2.726,0,0,1-2.9-2.562h6.16C27.062,28.514,27.076,28.4,27.076,28.318Zm-3.57-2.884a2.561,2.561,0,0,1,2.618,2.45H20.9A2.558,2.558,0,0,1,23.506,25.434Zm6.552.644V24.636h-.952V32H30.1V28.248c0-1.736.938-2.716,2.478-2.716.07,0,.154.014.238.014V24.58A2.777,2.777,0,0,0,30.058,26.078Zm7.07-3.878v.9h2.31V32h1.008V22.2Zm11.956,9.87c1.918,0,3.038-.826,3.038-2.1,0-2.828-4.774-1.33-4.774-3.318,0-.7.588-1.218,1.918-1.218a3.775,3.775,0,0,1,2.17.63l.434-.8a4.99,4.99,0,0,0-2.6-.686c-1.876,0-2.912.9-2.912,2.1,0,2.912,4.774,1.4,4.774,3.318,0,.728-.574,1.2-1.974,1.2a4.448,4.448,0,0,1-2.618-.826l-.448.784A4.92,4.92,0,0,0,49.084,32.07Zm8.4-1.232a1.645,1.645,0,0,1-1.092.378,1.179,1.179,0,0,1-1.274-1.344v-4.4h2.24v-.84h-2.24v-1.61h-.994v1.61H52.808v.84h1.316v4.452A1.951,1.951,0,0,0,56.28,32.07a2.367,2.367,0,0,0,1.554-.518Zm4.732-6.258a4.676,4.676,0,0,0-3,.994l.448.742a3.751,3.751,0,0,1,2.45-.868c1.372,0,2.086.686,2.086,1.946v.448H61.866c-2.114,0-2.842.952-2.842,2.086,0,1.274,1.022,2.142,2.688,2.142a2.765,2.765,0,0,0,2.534-1.218V32H65.2V27.436C65.2,25.532,64.12,24.58,62.216,24.58Zm-.35,6.706C60.69,31.286,60,30.754,60,29.9c0-.756.462-1.316,1.89-1.316H64.2v1.2A2.356,2.356,0,0,1,61.866,31.286ZM73.6,32h1.218l-3.444-4.354,3.15-3.01H73.29l-4.4,4.018V21.612H67.9V32h.994V29.9l1.736-1.6Zm3.108-8.974a.714.714,0,0,0,.728-.728.706.706,0,0,0-.728-.686.707.707,0,1,0,0,1.414ZM76.2,32H77.2V24.636H76.2Zm7.518-7.42a3.1,3.1,0,0,0-2.8,1.414V24.636h-.952V32h.994V28.136a2.414,2.414,0,0,1,2.576-2.66,2.056,2.056,0,0,1,2.212,2.352V32h.994V27.73A2.819,2.819,0,0,0,83.72,24.58Zm11.62.056V26.05a3.323,3.323,0,0,0-2.912-1.47,3.572,3.572,0,1,0,0,7.14,3.314,3.314,0,0,0,2.87-1.428v.938c0,1.82-.854,2.674-2.716,2.674a4.383,4.383,0,0,1-2.9-1.008l-.5.756a5.136,5.136,0,0,0,3.43,1.134c2.436,0,3.682-1.148,3.682-3.682V24.636Zm-2.814,6.2a2.7,2.7,0,1,1,2.8-2.7A2.632,2.632,0,0,1,92.526,30.838ZM106.54,24.58a3.208,3.208,0,0,0-2.842,1.512V24.636h-.952v10.08h.994v-4.1a3.216,3.216,0,0,0,2.8,1.456,3.566,3.566,0,0,0,3.668-3.752A3.562,3.562,0,0,0,106.54,24.58Zm-.07,6.608a2.7,2.7,0,0,1-2.744-2.87,2.747,2.747,0,1,1,5.488,0A2.7,2.7,0,0,1,106.47,31.188Zm8.778.882a3.745,3.745,0,1,0-3.752-3.752A3.622,3.622,0,0,0,115.248,32.07Zm0-.882a2.7,2.7,0,0,1-2.744-2.87,2.74,2.74,0,1,1,5.474,0A2.685,2.685,0,0,1,115.248,31.188Zm8.778.882a3.745,3.745,0,1,0-3.752-3.752A3.622,3.622,0,0,0,124.026,32.07Zm0-.882a2.7,2.7,0,0,1-2.744-2.87,2.74,2.74,0,1,1,5.474,0A2.685,2.685,0,0,1,124.026,31.188Zm5.768.812h.994V21.612h-.994Zm10.01-7.42a4.676,4.676,0,0,0-3,.994l.448.742a3.751,3.751,0,0,1,2.45-.868c1.372,0,2.086.686,2.086,1.946v.448h-2.338c-2.114,0-2.842.952-2.842,2.086,0,1.274,1.022,2.142,2.688,2.142a2.765,2.765,0,0,0,2.534-1.218V32h.952V27.436C142.786,25.532,141.708,24.58,139.8,24.58Zm-.35,6.706c-1.176,0-1.862-.532-1.862-1.386,0-.756.462-1.316,1.89-1.316h2.31v1.2A2.356,2.356,0,0,1,139.454,31.286Zm9.786-6.706a3.1,3.1,0,0,0-2.8,1.414V24.636h-.952V32h.994V28.136a2.414,2.414,0,0,1,2.576-2.66,2.056,2.056,0,0,1,2.212,2.352V32h.994V27.73A2.819,2.819,0,0,0,149.24,24.58Zm11.48-2.968v4.424a3.216,3.216,0,0,0-2.8-1.456,3.562,3.562,0,0,0-3.668,3.738,3.574,3.574,0,0,0,3.668,3.752,3.19,3.19,0,0,0,2.842-1.526V32h.952V21.612ZM158,31.188a2.7,2.7,0,0,1-2.744-2.87,2.74,2.74,0,1,1,5.474,0A2.693,2.693,0,0,1,158,31.188ZM2.338,44.078V42.636H1.386V50H2.38V46.248c0-1.736.938-2.716,2.478-2.716.07,0,.154.014.238.014V42.58A2.777,2.777,0,0,0,2.338,44.078Zm10.906,2.24a3.509,3.509,0,0,0-3.57-3.738,3.547,3.547,0,0,0-3.6,3.738A3.647,3.647,0,0,0,9.94,50.07a3.625,3.625,0,0,0,2.842-1.2l-.56-.644a2.9,2.9,0,0,1-2.254.966,2.726,2.726,0,0,1-2.9-2.562h6.16C13.23,46.514,13.244,46.4,13.244,46.318Zm-3.57-2.884a2.561,2.561,0,0,1,2.618,2.45H7.07A2.558,2.558,0,0,1,9.674,43.434Zm15.358-.8-2.338,6.258-2.352-6.258h-.854l-2.366,6.258-2.31-6.258H13.86L16.632,50h.938l2.324-6.034L22.218,50h.938l2.786-7.364Zm4.76-.056a4.676,4.676,0,0,0-3,.994l.448.742a3.751,3.751,0,0,1,2.45-.868c1.372,0,2.086.686,2.086,1.946v.448H29.442c-2.114,0-2.842.952-2.842,2.086,0,1.274,1.022,2.142,2.688,2.142a2.765,2.765,0,0,0,2.534-1.218V50h.952V45.436C32.774,43.532,31.7,42.58,29.792,42.58Zm-.35,6.706c-1.176,0-1.862-.532-1.862-1.386,0-.756.462-1.316,1.89-1.316h2.31v1.2A2.356,2.356,0,0,1,29.442,49.286Zm6.986-5.208V42.636h-.952V50h.994V46.248c0-1.736.938-2.716,2.478-2.716.07,0,.154.014.238.014V42.58A2.777,2.777,0,0,0,36.428,44.078Zm10.206-4.466v4.424a3.216,3.216,0,0,0-2.8-1.456,3.746,3.746,0,0,0,0,7.49,3.19,3.19,0,0,0,2.842-1.526V50h.952V39.612Zm-2.716,9.576a2.874,2.874,0,1,1,2.73-2.87A2.7,2.7,0,0,1,43.918,49.188Zm12.124.882c1.918,0,3.038-.826,3.038-2.1,0-2.828-4.774-1.33-4.774-3.318,0-.7.588-1.218,1.918-1.218a3.775,3.775,0,0,1,2.17.63l.434-.8a4.99,4.99,0,0,0-2.6-.686c-1.876,0-2.912.9-2.912,2.1,0,2.912,4.774,1.4,4.774,3.318,0,.728-.574,1.2-1.974,1.2a4.448,4.448,0,0,1-2.618-.826l-.448.784A4.92,4.92,0,0,0,56.042,50.07Zm7.882,0a3.745,3.745,0,1,0-3.752-3.752A3.622,3.622,0,0,0,63.924,50.07Zm0-.882a2.874,2.874,0,1,1,2.73-2.87A2.7,2.7,0,0,1,63.924,49.188ZM69.692,50h.994V39.612h-.994ZM79.1,42.636V46.5a2.394,2.394,0,0,1-2.506,2.674,2.061,2.061,0,0,1-2.212-2.366V42.636h-.994v4.27A2.852,2.852,0,0,0,76.5,50.07a2.929,2.929,0,0,0,2.646-1.414V50h.952V42.636Zm7.308,6.2a1.645,1.645,0,0,1-1.092.378,1.179,1.179,0,0,1-1.274-1.344v-4.4h2.24v-.84h-2.24v-1.61h-.994v1.61H81.732v.84h1.316v4.452A1.951,1.951,0,0,0,85.2,50.07a2.367,2.367,0,0,0,1.554-.518Zm2.66-7.812A.714.714,0,0,0,89.8,40.3a.706.706,0,0,0-.728-.686.707.707,0,1,0,0,1.414ZM88.564,50h.994V42.636h-.994Zm6.776.07a3.745,3.745,0,1,0-3.752-3.752A3.622,3.622,0,0,0,95.34,50.07Zm0-.882a2.874,2.874,0,1,1,2.73-2.87A2.7,2.7,0,0,1,95.34,49.188Zm9.52-6.608a3.1,3.1,0,0,0-2.8,1.414V42.636h-.952V50h.994V46.136a2.414,2.414,0,0,1,2.576-2.66,2.056,2.056,0,0,1,2.212,2.352V50h.994V45.73A2.819,2.819,0,0,0,104.86,42.58Z" transform="translate(473.036 1570.728)"/>
      </g>
      <g id="Group_1245" data-name="Group 1245" transform="translate(0 -25)">
        <path id="Path_5132" data-name="Path 5132" class="cls-3" d="M4.976.16C8.048.16,9.5-1.376,9.5-3.168c0-4.112-6.64-2.56-6.64-4.944,0-.848.7-1.52,2.432-1.52a6.224,6.224,0,0,1,3.088.88l.656-1.616a7.081,7.081,0,0,0-3.728-.992C2.24-11.36.8-9.824.8-8.016c0,4.16,6.656,2.576,6.656,4.992,0,.832-.736,1.456-2.48,1.456A6.206,6.206,0,0,1,1.28-2.8L.56-1.184A7.217,7.217,0,0,0,4.976.16Zm11.136-8.8A3.523,3.523,0,0,0,13.28-7.424v-1.12h-1.9V3.1h2V-1.04A3.51,3.51,0,0,0,16.112.112a4.162,4.162,0,0,0,4.336-4.384A4.158,4.158,0,0,0,16.112-8.64ZM15.888-1.6a2.5,2.5,0,0,1-2.544-2.672,2.5,2.5,0,0,1,2.544-2.672,2.485,2.485,0,0,1,2.528,2.672A2.485,2.485,0,0,1,15.888-1.6ZM27.2-8.64a3.809,3.809,0,0,0-2.848,1.088v-4.32h-2V0h2V-4.32A2.269,2.269,0,0,1,26.736-6.9c1.28,0,2.032.736,2.032,2.256V0h2V-4.9C30.768-7.472,29.248-8.64,27.2-8.64ZM41.424-4.224A4.167,4.167,0,0,0,37.1-8.64a4.249,4.249,0,0,0-4.416,4.368c0,2.544,1.856,4.384,4.72,4.384a4.331,4.331,0,0,0,3.44-1.392L39.776-2.512a3.062,3.062,0,0,1-2.32.928,2.586,2.586,0,0,1-2.768-2.048h6.7C41.408-3.824,41.424-4.064,41.424-4.224ZM37.1-7.04A2.326,2.326,0,0,1,39.52-4.96H34.672A2.361,2.361,0,0,1,37.1-7.04ZM45.248-7.3V-8.544h-1.9V0h2V-4.144a2.329,2.329,0,0,1,2.48-2.64,2.539,2.539,0,0,1,.464.048v-1.9A3.362,3.362,0,0,0,45.248-7.3ZM57.936-4.224a4.167,4.167,0,0,0-4.32-4.416A4.249,4.249,0,0,0,49.2-4.272c0,2.544,1.856,4.384,4.72,4.384A4.331,4.331,0,0,0,57.36-1.28L56.288-2.512a3.062,3.062,0,0,1-2.32.928A2.586,2.586,0,0,1,51.2-3.632h6.7C57.92-3.824,57.936-4.064,57.936-4.224ZM53.616-7.04a2.326,2.326,0,0,1,2.416,2.08H51.184A2.361,2.361,0,0,1,53.616-7.04ZM65.232.16A5.684,5.684,0,0,0,69.68-1.712l-1.344-1.28a3.894,3.894,0,0,1-2.992,1.328,3.824,3.824,0,0,1-4-3.936,3.824,3.824,0,0,1,4-3.936,3.933,3.933,0,0,1,2.992,1.312L69.68-9.488a5.673,5.673,0,0,0-4.432-1.872,5.708,5.708,0,0,0-6,5.76A5.7,5.7,0,0,0,65.232.16ZM75.008.112a4.309,4.309,0,0,0,4.56-4.384,4.3,4.3,0,0,0-4.56-4.368,4.3,4.3,0,0,0-4.544,4.368A4.313,4.313,0,0,0,75.008.112Zm0-1.712A2.485,2.485,0,0,1,72.48-4.272a2.485,2.485,0,0,1,2.528-2.672,2.488,2.488,0,0,1,2.544,2.672A2.488,2.488,0,0,1,75.008-1.6ZM92.272-8.64a3.988,3.988,0,0,0-3.2,1.424,3.2,3.2,0,0,0-2.88-1.424,3.539,3.539,0,0,0-2.8,1.184V-8.544h-1.9V0h2V-4.336c0-1.7.9-2.56,2.224-2.56,1.216,0,1.92.736,1.92,2.256V0h2V-4.336c0-1.7.912-2.56,2.224-2.56,1.216,0,1.92.736,1.92,2.256V0h2V-4.9C95.776-7.472,94.336-8.64,92.272-8.64Zm10.8,0a3.523,3.523,0,0,0-2.832,1.216v-1.12h-1.9V3.1h2V-1.04A3.51,3.51,0,0,0,103.072.112a4.162,4.162,0,0,0,4.336-4.384A4.158,4.158,0,0,0,103.072-8.64Zm-.224,7.04A2.5,2.5,0,0,1,100.3-4.272a2.5,2.5,0,0,1,2.544-2.672,2.485,2.485,0,0,1,2.528,2.672A2.485,2.485,0,0,1,102.848-1.6ZM113.92,0h7.936V-1.76H116V-11.2h-2.08Zm7.648-11.2v1.744h2.368V0h2.08V-11.2Z" transform="translate(800 1534.728)"/>
        <path id="Path_5133" data-name="Path 5133" class="cls-4" d="M4.3,14.084c2.506,0,3.654-1.232,3.654-2.674,0-3.57-6.034-1.946-6.034-4.634,0-.98.8-1.778,2.59-1.778A5.045,5.045,0,0,1,7.2,5.81l.35-.826a5.532,5.532,0,0,0-3.038-.868C2.016,4.116.9,5.362.9,6.8.9,10.43,6.93,8.778,6.93,11.466c0,.966-.8,1.736-2.632,1.736a4.812,4.812,0,0,1-3.234-1.19l-.406.8A5.314,5.314,0,0,0,4.3,14.084Zm9.492-7.5a3.208,3.208,0,0,0-2.842,1.512V6.636H10v10.08h.994v-4.1a3.216,3.216,0,0,0,2.8,1.456,3.566,3.566,0,0,0,3.668-3.752A3.562,3.562,0,0,0,13.79,6.58Zm-.07,6.608a2.7,2.7,0,0,1-2.744-2.87,2.747,2.747,0,1,1,5.488,0A2.7,2.7,0,0,1,13.72,13.188ZM23.24,6.58a3.112,3.112,0,0,0-2.758,1.344V3.612h-.994V14h.994V10.136a2.414,2.414,0,0,1,2.576-2.66A2.056,2.056,0,0,1,25.27,9.828V14h.994V9.73A2.819,2.819,0,0,0,23.24,6.58Zm12.18,3.738A3.509,3.509,0,0,0,31.85,6.58a3.547,3.547,0,0,0-3.6,3.738,3.647,3.647,0,0,0,3.864,3.752,3.625,3.625,0,0,0,2.842-1.2l-.56-.644a2.9,2.9,0,0,1-2.254.966,2.726,2.726,0,0,1-2.9-2.562h6.16C35.406,10.514,35.42,10.4,35.42,10.318ZM31.85,7.434a2.561,2.561,0,0,1,2.618,2.45H29.246A2.558,2.558,0,0,1,31.85,7.434Zm6.552.644V6.636H37.45V14h.994V10.248c0-1.736.938-2.716,2.478-2.716.07,0,.154.014.238.014V6.58A2.777,2.777,0,0,0,38.4,8.078Zm5.054-3.052a.714.714,0,0,0,.728-.728.706.706,0,0,0-.728-.686.707.707,0,1,0,0,1.414ZM42.952,14h.994V6.636h-.994ZM52.36,6.636V10.5a2.394,2.394,0,0,1-2.506,2.674,2.061,2.061,0,0,1-2.212-2.366V6.636h-.994v4.27a2.852,2.852,0,0,0,3.108,3.164A2.929,2.929,0,0,0,52.4,12.656V14h.952V6.636ZM65.324,6.58a3.207,3.207,0,0,0-2.912,1.554A2.645,2.645,0,0,0,59.794,6.58a2.978,2.978,0,0,0-2.7,1.4V6.636H56.14V14h.994V10.136A2.373,2.373,0,0,1,59.6,7.476c1.344,0,2.128.8,2.128,2.352V14h.994V10.136a2.367,2.367,0,0,1,2.464-2.66c1.33,0,2.114.8,2.114,2.352V14h.994V9.73C68.292,7.616,67.116,6.58,65.324,6.58ZM74.662,14h.994V3.612h-.994Zm10.192-3.682a3.509,3.509,0,0,0-3.57-3.738,3.547,3.547,0,0,0-3.6,3.738,3.893,3.893,0,0,0,6.706,2.548l-.56-.644a2.9,2.9,0,0,1-2.254.966,2.726,2.726,0,0,1-2.9-2.562h6.16C84.84,10.514,84.854,10.4,84.854,10.318Zm-3.57-2.884A2.561,2.561,0,0,1,83.9,9.884H78.68A2.558,2.558,0,0,1,81.284,7.434Zm9.352-.854a3.1,3.1,0,0,0-2.8,1.414V6.636h-.952V14h.994V10.136a2.414,2.414,0,0,1,2.576-2.66,2.056,2.056,0,0,1,2.212,2.352V14h.994V9.73A2.819,2.819,0,0,0,90.636,6.58Zm11.48-2.968V8.036a3.216,3.216,0,0,0-2.8-1.456,3.562,3.562,0,0,0-3.668,3.738,3.574,3.574,0,0,0,3.668,3.752,3.19,3.19,0,0,0,2.842-1.526V14h.952V3.612ZM99.4,13.188a2.7,2.7,0,0,1-2.744-2.87,2.74,2.74,0,1,1,5.474,0A2.693,2.693,0,0,1,99.4,13.188Zm6.986-8.162a.714.714,0,0,0,.728-.728.706.706,0,0,0-.728-.686.707.707,0,1,0,0,1.414Zm-.5,8.974h.994V6.636h-.994ZM113.4,6.58a3.1,3.1,0,0,0-2.8,1.414V6.636h-.952V14h.994V10.136a2.414,2.414,0,0,1,2.576-2.66,2.056,2.056,0,0,1,2.212,2.352V14h.994V9.73A2.819,2.819,0,0,0,113.4,6.58Zm11.62.056V8.05a3.323,3.323,0,0,0-2.912-1.47,3.5,3.5,0,0,0-3.7,3.556,3.524,3.524,0,0,0,3.7,3.584,3.314,3.314,0,0,0,2.87-1.428v.938c0,1.82-.854,2.674-2.716,2.674a4.383,4.383,0,0,1-2.9-1.008l-.5.756a5.136,5.136,0,0,0,3.43,1.134c2.436,0,3.682-1.148,3.682-3.682V6.636Zm-2.814,6.2a2.632,2.632,0,0,1-2.786-2.7,2.8,2.8,0,0,1,5.586,0A2.644,2.644,0,0,1,122.206,12.838ZM135,6.58a4.676,4.676,0,0,0-3,.994l.448.742a3.751,3.751,0,0,1,2.45-.868c1.372,0,2.086.686,2.086,1.946v.448h-2.338c-2.114,0-2.842.952-2.842,2.086,0,1.274,1.022,2.142,2.688,2.142a2.765,2.765,0,0,0,2.534-1.218V14h.952V9.436C137.984,7.532,136.906,6.58,135,6.58Zm-.35,6.706c-1.176,0-1.862-.532-1.862-1.386,0-.756.462-1.316,1.89-1.316h2.31v1.2A2.356,2.356,0,0,1,134.652,13.286Zm9.786-6.706a3.1,3.1,0,0,0-2.8,1.414V6.636h-.952V14h.994V10.136a2.414,2.414,0,0,1,2.576-2.66,2.056,2.056,0,0,1,2.212,2.352V14h.994V9.73A2.819,2.819,0,0,0,144.438,6.58Zm11.48-2.968V8.036a3.216,3.216,0,0,0-2.8-1.456,3.562,3.562,0,0,0-3.668,3.738,3.574,3.574,0,0,0,3.668,3.752,3.19,3.19,0,0,0,2.842-1.526V14h.952V3.612ZM153.2,13.188a2.7,2.7,0,0,1-2.744-2.87,2.74,2.74,0,1,1,5.474,0A2.693,2.693,0,0,1,153.2,13.188ZM5.18,24.58a3.216,3.216,0,0,0-2.8,1.456V21.612H1.386V32h.952V30.544A3.19,3.19,0,0,0,5.18,32.07a3.574,3.574,0,0,0,3.668-3.752A3.562,3.562,0,0,0,5.18,24.58Zm-.07,6.608a2.7,2.7,0,0,1-2.744-2.87,2.7,2.7,0,0,1,2.744-2.87,2.7,2.7,0,0,1,2.744,2.87A2.7,2.7,0,0,1,5.11,31.188Zm8.778.882a3.745,3.745,0,0,0,0-7.49,3.745,3.745,0,1,0,0,7.49Zm0-.882a2.7,2.7,0,0,1-2.744-2.87,2.74,2.74,0,1,1,5.474,0A2.685,2.685,0,0,1,13.888,31.188Zm6.72-5.11V24.636h-.952V32h.994V28.248c0-1.736.938-2.716,2.478-2.716.07,0,.154.014.238.014V24.58A2.777,2.777,0,0,0,20.608,26.078Zm5.5,0V24.636h-.952V32h.994V28.248c0-1.736.938-2.716,2.478-2.716.07,0,.154.014.238.014V24.58A2.777,2.777,0,0,0,26.11,26.078ZM33.6,32.07a3.745,3.745,0,1,0-3.752-3.752A3.622,3.622,0,0,0,33.6,32.07Zm0-.882a2.7,2.7,0,0,1-2.744-2.87,2.74,2.74,0,1,1,5.474,0A2.685,2.685,0,0,1,33.6,31.188Zm15.456-6.552-2.338,6.258-2.352-6.258h-.854l-2.366,6.258-2.31-6.258h-.952L40.656,32h.938l2.324-6.034L46.242,32h.938l2.786-7.364Zm2.912-1.61A.714.714,0,0,0,52.7,22.3a.706.706,0,0,0-.728-.686.707.707,0,1,0,0,1.414ZM51.464,32h.994V24.636h-.994Zm7.518-7.42a3.1,3.1,0,0,0-2.8,1.414V24.636H55.23V32h.994V28.136a2.414,2.414,0,0,1,2.576-2.66,2.056,2.056,0,0,1,2.212,2.352V32h.994V27.73A2.819,2.819,0,0,0,58.982,24.58Zm11.62.056V26.05a3.323,3.323,0,0,0-2.912-1.47,3.572,3.572,0,1,0,0,7.14,3.314,3.314,0,0,0,2.87-1.428v.938c0,1.82-.854,2.674-2.716,2.674a4.383,4.383,0,0,1-2.9-1.008l-.5.756a5.136,5.136,0,0,0,3.43,1.134c2.436,0,3.682-1.148,3.682-3.682V24.636Zm-2.814,6.2a2.7,2.7,0,1,1,2.8-2.7A2.632,2.632,0,0,1,67.788,30.838ZM81.8,24.58a3.208,3.208,0,0,0-2.842,1.512V24.636h-.952v10.08H79v-4.1a3.216,3.216,0,0,0,2.8,1.456,3.566,3.566,0,0,0,3.668-3.752A3.562,3.562,0,0,0,81.8,24.58Zm-.07,6.608a2.7,2.7,0,0,1-2.744-2.87,2.747,2.747,0,1,1,5.488,0A2.7,2.7,0,0,1,81.732,31.188Zm6.72-5.11V24.636H87.5V32h.994V28.248c0-1.736.938-2.716,2.478-2.716.07,0,.154.014.238.014V24.58A2.777,2.777,0,0,0,88.452,26.078Zm7.49,5.992a3.745,3.745,0,1,0-3.752-3.752A3.622,3.622,0,0,0,95.942,32.07Zm0-.882a2.7,2.7,0,0,1-2.744-2.87,2.74,2.74,0,1,1,5.474,0A2.685,2.685,0,0,1,95.942,31.188Zm9.3-.35a1.645,1.645,0,0,1-1.092.378,1.179,1.179,0,0,1-1.274-1.344v-4.4h2.24v-.84h-2.24v-1.61h-.994v1.61h-1.316v.84h1.316v4.452a1.951,1.951,0,0,0,2.156,2.142,2.367,2.367,0,0,0,1.554-.518Zm4.9,1.232a3.745,3.745,0,1,0-3.752-3.752A3.622,3.622,0,0,0,110.138,32.07Zm0-.882a2.7,2.7,0,0,1-2.744-2.87,2.74,2.74,0,1,1,5.474,0A2.685,2.685,0,0,1,110.138,31.188Zm8.82.882a3.246,3.246,0,0,0,2.884-1.456l-.742-.5a2.491,2.491,0,0,1-2.142,1.078,2.7,2.7,0,0,1-2.786-2.87,2.706,2.706,0,0,1,2.786-2.87A2.5,2.5,0,0,1,121.1,26.54l.742-.5a3.216,3.216,0,0,0-2.884-1.456,3.745,3.745,0,1,0,0,7.49Zm7.714,0a3.745,3.745,0,1,0-3.752-3.752A3.622,3.622,0,0,0,126.672,32.07Zm0-.882a2.7,2.7,0,0,1-2.744-2.87,2.74,2.74,0,1,1,5.474,0A2.685,2.685,0,0,1,126.672,31.188ZM132.44,32h.994V21.612h-.994ZM3.36,50.07c1.918,0,3.038-.826,3.038-2.1,0-2.828-4.774-1.33-4.774-3.318,0-.7.588-1.218,1.918-1.218a3.775,3.775,0,0,1,2.17.63l.434-.8a4.99,4.99,0,0,0-2.6-.686c-1.876,0-2.912.9-2.912,2.1C.63,47.592,5.4,46.08,5.4,48c0,.728-.574,1.2-1.974,1.2a4.448,4.448,0,0,1-2.618-.826l-.448.784A4.92,4.92,0,0,0,3.36,50.07Zm7.882,0a3.745,3.745,0,0,0,0-7.49,3.745,3.745,0,1,0,0,7.49Zm0-.882a2.874,2.874,0,1,1,2.73-2.87A2.7,2.7,0,0,1,11.242,49.188ZM17.01,50H18V39.612H17.01Zm9.408-7.364V46.5a2.394,2.394,0,0,1-2.506,2.674A2.061,2.061,0,0,1,21.7,46.808V42.636h-.994v4.27a2.852,2.852,0,0,0,3.108,3.164,2.929,2.929,0,0,0,2.646-1.414V50h.952V42.636Zm7.308,6.2a1.645,1.645,0,0,1-1.092.378,1.179,1.179,0,0,1-1.274-1.344v-4.4H33.6v-.84H31.36v-1.61h-.994v1.61H29.05v.84h1.316v4.452a1.951,1.951,0,0,0,2.156,2.142,2.367,2.367,0,0,0,1.554-.518Zm2.66-7.812a.714.714,0,0,0,.728-.728.706.706,0,0,0-.728-.686.707.707,0,1,0,0,1.414ZM35.882,50h.994V42.636h-.994Zm6.776.07a3.745,3.745,0,1,0-3.752-3.752A3.622,3.622,0,0,0,42.658,50.07Zm0-.882a2.874,2.874,0,1,1,2.73-2.87A2.7,2.7,0,0,1,42.658,49.188Zm9.52-6.608a3.1,3.1,0,0,0-2.8,1.414V42.636h-.952V50h.994V46.136A2.414,2.414,0,0,1,52,43.476a2.056,2.056,0,0,1,2.212,2.352V50H55.2V45.73A2.819,2.819,0,0,0,52.178,42.58Zm12.4,7.49a3.745,3.745,0,1,0-3.752-3.752A3.622,3.622,0,0,0,64.582,50.07Zm0-.882a2.874,2.874,0,1,1,2.73-2.87A2.7,2.7,0,0,1,64.582,49.188ZM74.1,42.58a3.1,3.1,0,0,0-2.8,1.414V42.636H70.35V50h.994V46.136a2.414,2.414,0,0,1,2.576-2.66,2.056,2.056,0,0,1,2.212,2.352V50h.994V45.73A2.819,2.819,0,0,0,74.1,42.58ZM83.5,50h.994V39.612H83.5Zm6.342-7.42a4.676,4.676,0,0,0-3,.994l.448.742a3.751,3.751,0,0,1,2.45-.868c1.372,0,2.086.686,2.086,1.946v.448H89.488c-2.114,0-2.842.952-2.842,2.086,0,1.274,1.022,2.142,2.688,2.142a2.765,2.765,0,0,0,2.534-1.218V50h.952V45.436C92.82,43.532,91.742,42.58,89.838,42.58Zm-.35,6.706c-1.176,0-1.862-.532-1.862-1.386,0-.756.462-1.316,1.89-1.316h2.31v1.2A2.356,2.356,0,0,1,89.488,49.286Zm11.1-6.65-2.772,6.258-2.772-6.258H94.01l3.29,7.35-.322.714c-.42.924-.868,1.232-1.526,1.232a1.839,1.839,0,0,1-1.344-.56l-.462.742a2.52,2.52,0,0,0,1.792.672c1.05,0,1.834-.462,2.45-1.9l3.682-8.246Zm8.6,3.682a3.509,3.509,0,0,0-3.57-3.738,3.547,3.547,0,0,0-3.6,3.738,3.893,3.893,0,0,0,6.706,2.548l-.56-.644a2.9,2.9,0,0,1-2.254.966,2.726,2.726,0,0,1-2.9-2.562h6.16C109.172,46.514,109.186,46.4,109.186,46.318Zm-3.57-2.884a2.561,2.561,0,0,1,2.618,2.45h-5.222A2.558,2.558,0,0,1,105.616,43.434Zm6.552.644V42.636h-.952V50h.994V46.248c0-1.736.938-2.716,2.478-2.716.07,0,.154.014.238.014V42.58A2.777,2.777,0,0,0,112.168,44.078Zm7.07-3.878v.9h2.31V50h1.008V40.2Z" transform="translate(800 1548.728)"/>
      </g>
      <g id="Group_1058" data-name="Group 1058" transform="translate(438.776 1644.822)">
        <g id="Rectangle_88-4" data-name="Rectangle 88" class="cls-7" transform="translate(0 17.678) rotate(-45)">
          <path class="cls-9" d="M12.5,0H25a0,0,0,0,1,0,0V12.5A12.5,12.5,0,0,1,12.5,25h0A12.5,12.5,0,0,1,0,12.5v0A12.5,12.5,0,0,1,12.5,0Z"/>
          <path class="cls-10" d="M12.5-1.5H25.523a.977.977,0,0,1,.977.977V12.5a14,14,0,0,1-14,14h0a14,14,0,0,1-14-14v0a14,14,0,0,1,14-14Z"/>
        </g>
        <rect id="Rectangle_89-5" data-name="Rectangle 89" class="cls-8" width="11" height="11" rx="5.5" transform="translate(9.9 17.678) rotate(-45)"/>
      </g>
      <g id="Group_1059" data-name="Group 1059" transform="translate(767.039 1644.822)">
        <g id="Rectangle_88-5" data-name="Rectangle 88" class="cls-7" transform="translate(0 17.678) rotate(-45)">
          <path class="cls-9" d="M12.5,0H25a0,0,0,0,1,0,0V12.5A12.5,12.5,0,0,1,12.5,25h0A12.5,12.5,0,0,1,0,12.5v0A12.5,12.5,0,0,1,12.5,0Z"/>
          <path class="cls-10" d="M12.5-1.5H25.523a.977.977,0,0,1,.977.977V12.5a14,14,0,0,1-14,14h0a14,14,0,0,1-14-14v0a14,14,0,0,1,14-14Z"/>
        </g>
        <rect id="Rectangle_89-6" data-name="Rectangle 89" class="cls-8" width="11" height="11" rx="5.5" transform="translate(9.9 17.678) rotate(-45)"/>
      </g>
    </g>
  </g>
</svg>
