<svg xmlns="http://www.w3.org/2000/svg" width="351.97" height="569.971" viewBox="0 0 351.97 569.971">
    <defs>
        <style>
            .cls-1{fill:#000348;font-size:14px}.cls-1,.cls-3{font-family:Montserrat-SemiBold,Montserrat;font-weight:600}.cls-2{fill:rgba(57,57,57,.8);font-size:12px;font-family:Montserrat-Regular,Montserrat}.cls-3{fill:#009687;font-size:13px}.cls-8{fill:none}.cls-5{stroke-width:3px;fill:#87f2e7;stroke:#fff}.cls-6{fill:#22265d}.cls-7{stroke:none}
        </style>
    </defs>
    <g id="Group_910" transform="translate(-32.03 -1628.029)">
        <text id="Spherium_website" class="cls-1" transform="translate(70 1675)">
            <tspan x="0" y="0">Spherium website</tspan>
        </text>
        <text id="SPH-SWAP-L1_stake_rewards" class="cls-1" transform="translate(70 1856)">
            <tspan x="0" y="0">SPH-SWAP-L1 stake &amp; rewards</tspan>
        </text>
        <text id="SphereComp_L1" class="cls-1" transform="translate(70 2051.728)">
            <tspan x="0" y="0">SphereComp L1</tspan>
        </text>
        <text id="SphereSwap_L1" class="cls-1" transform="translate(70 1766)">
            <tspan x="0" y="0">SphereSwap L1</tspan>
        </text>
        <text id="SphereSwap_L2" class="cls-1" transform="translate(70 1963)">
            <tspan x="0" y="0">SphereSwap L2</tspan>
        </text>
        <text id="SphereComp_L2" class="cls-1" transform="translate(70 2157)">
            <tspan x="0" y="0">SphereComp L2</tspan>
        </text>
        <text id="Complete_website_with_products_and_feature_details" class="cls-2" transform="translate(70 1684)">
            <tspan x="0" y="12">Complete website with products and feature details</tspan>
        </text>
        <text id="Spherium_HyperSwap_layer_1_staking_pool_and_reward_solution" class="cls-2" transform="translate(70 1865)">
            <tspan x="0" y="12">Spherium HyperSwap layer 1 staking pool and </tspan><tspan x="0" y="27">reward solution</tspan>
        </text>
        <text id="Spherium_lending_and_borrowing_protocol_solution_on_layer_1" class="cls-2" transform="translate(70 2060.728)">
            <tspan x="0" y="12">Spherium lending and borrowing protocol </tspan><tspan x="0" y="27">solution on layer 1</tspan>
        </text>
        <text id="SphereSwap_layer_1_solution_platform_Web_App" class="cls-2" transform="translate(70 1775)">
            <tspan x="0" y="12">SphereSwap layer 1 solution</tspan>
        </text>
        <text id="SphereSwap_layer_2_solution_" class="cls-2" transform="translate(70 1970)">
            <tspan x="0" y="12">SphereSwap layer 2 solution</tspan>
        </text>
        <text id="Spherium_layer_2_solution_for_lending_and_borrowing" class="cls-2" transform="translate(70 2166)">
            <tspan x="0" y="12">Spherium layer 2 solution for lending and </tspan><tspan x="0" y="27">borrowing</tspan>
        </text>
        <text id="Jan-2021" class="cls-3" transform="translate(70 1650)">
            <tspan x="0" y="0">Jan-2021</tspan>
        </text>
        <text id="Mar-2021" class="cls-3" transform="translate(70 1831)">
            <tspan x="0" y="0">Mar-2021</tspan>
        </text>
        <text id="May-2021" class="cls-3" transform="translate(70 2026.728)">
            <tspan x="0" y="0">May-2021</tspan>
        </text>
        <text id="Feb-2021" class="cls-3" transform="translate(70 1741)">
            <tspan x="0" y="0">Feb-2021</tspan>
        </text>
        <text id="Apr-2021" class="cls-3" transform="translate(70 1938)">
            <tspan x="0" y="0">Apr-2021</tspan>
        </text>
        <text id="Jul-2021" class="cls-3" transform="translate(70 2132)">
            <tspan x="0" y="0">Jul-2021</tspan>
        </text>
        <path id="Line_3" fill="none" stroke="#87f2e7" stroke-linecap="round" stroke-width="3px" d="M0 0L0 490" transform="translate(48.5 1647.5)"/>
        <g id="Group_912">
            <g id="Rectangle_57" class="cls-5">
                <path d="M9 0a9 9 0 0 1 9 9 9 9 0 0 1-9 9H0V9a9 9 0 0 1 9-9z" class="cls-7" transform="rotate(-135 367.827 818.716)"/>
                <path d="M9-1.5A10.5 10.5 0 0 1 19.5 9 10.5 10.5 0 0 1 9 19.5H0A1.5 1.5 0 0 1-1.5 18V9A10.5 10.5 0 0 1 9-1.5z" class="cls-8" transform="rotate(-135 367.827 818.716)"/>
            </g>
            <g id="Rectangle_61" class="cls-5">
                <path d="M9 0a9 9 0 0 1 9 9 9 9 0 0 1-9 9H0V9a9 9 0 0 1 9-9z" class="cls-7" transform="rotate(-135 405.313 909.216)"/>
                <path d="M9-1.5A10.5 10.5 0 0 1 19.5 9 10.5 10.5 0 0 1 9 19.5H0A1.5 1.5 0 0 1-1.5 18V9A10.5 10.5 0 0 1 9-1.5z" class="cls-8" transform="rotate(-135 405.313 909.216)"/>
            </g>
            <g id="Rectangle_63" class="cls-5">
                <path d="M9 0a9 9 0 0 1 9 9 9 9 0 0 1-9 9H0V9a9 9 0 0 1 9-9z" class="cls-7" transform="rotate(-135 445.85 1007.08)"/>
                <path d="M9-1.5A10.5 10.5 0 0 1 19.5 9 10.5 10.5 0 0 1 9 19.5H0A1.5 1.5 0 0 1-1.5 18V9A10.5 10.5 0 0 1 9-1.5z" class="cls-8" transform="rotate(-135 445.85 1007.08)"/>
            </g>
            <g id="Rectangle_60" class="cls-5">
                <path d="M9 0a9 9 0 0 1 9 9 9 9 0 0 1-9 9H0V9a9 9 0 0 1 9-9z" class="cls-7" transform="rotate(-135 386.673 864.216)"/>
                <path d="M9-1.5A10.5 10.5 0 0 1 19.5 9 10.5 10.5 0 0 1 9 19.5H0A1.5 1.5 0 0 1-1.5 18V9A10.5 10.5 0 0 1 9-1.5z" class="cls-8" transform="rotate(-135 386.673 864.216)"/>
            </g>
            <g id="Rectangle_62" class="cls-5">
                <path d="M9 0a9 9 0 0 1 9 9 9 9 0 0 1-9 9H0V9a9 9 0 0 1 9-9z" class="cls-7" transform="rotate(-135 427.473 962.716)"/>
                <path d="M9-1.5A10.5 10.5 0 0 1 19.5 9 10.5 10.5 0 0 1 9 19.5H0A1.5 1.5 0 0 1-1.5 18V9A10.5 10.5 0 0 1 9-1.5z" class="cls-8" transform="rotate(-135 427.473 962.716)"/>
            </g>
            <g id="Rectangle_64" class="cls-5">
                <path d="M9 0a9 9 0 0 1 9 9 9 9 0 0 1-9 9H0V9a9 9 0 0 1 9-9z" class="cls-7" transform="rotate(-135 467.652 1059.716)"/>
                <path d="M9-1.5A10.5 10.5 0 0 1 19.5 9 10.5 10.5 0 0 1 9 19.5H0A1.5 1.5 0 0 1-1.5 18V9A10.5 10.5 0 0 1 9-1.5z" class="cls-8" transform="rotate(-135 467.652 1059.716)"/>
            </g>
            <rect id="Rectangle_82" width="8" height="8" class="cls-6" rx="4" transform="rotate(-135 366.362 815.18)"/>
            <rect id="Rectangle_83" width="8" height="8" class="cls-6" rx="4" transform="rotate(-135 385.209 860.68)"/>
            <rect id="Rectangle_84" width="8" height="8" class="cls-6" rx="4" transform="rotate(-135 403.849 905.68)"/>
            <rect id="Rectangle_85" width="8" height="8" class="cls-6" rx="4" transform="rotate(-135 426.009 959.18)"/>
            <rect id="Rectangle_86" width="8" height="8" class="cls-6" rx="4" transform="rotate(-135 444.442 1003.68)"/>
            <rect id="Rectangle_87" width="8" height="8" class="cls-6" rx="4" transform="rotate(-135 466.188 1056.18)"/>
        </g>
    </g>
</svg>
