<svg width="150" height="150" viewBox="0 0 150 150" fill="none" xmlns="http://www.w3.org/2000/svg">
<path d="M59.4676 37.1556C59.0441 36.8215 58.6249 36.4916 58.21 36.165C56.4105 34.7486 54.6921 33.3961 53.049 32.0431C52.193 31.2942 51.4297 30.6379 50.6799 29.9949C50.7891 29.836 50.8984 29.6767 51.0079 29.5171C53.2737 26.2143 55.6353 22.7717 59.6155 19.3226C63.8447 18.3585 68.6764 17.3958 75.5058 16.5496C75.7479 16.7514 75.9929 16.9718 76.2468 17.2002L76.2525 17.2053C76.5528 17.4756 76.8658 17.7573 77.1812 18.0104C78.4308 19.1453 79.8826 20.2772 81.3364 21.3969C79.2361 23.7727 77.1223 26.5726 74.7999 31.4092C73.7677 31.7905 72.7756 32.1558 71.8084 32.5119C67.6326 34.0495 63.9226 35.4157 59.4676 37.1556Z" stroke="url(#paint0_linear)"/>
<path d="M37.839 63.9941C35.2341 61.9751 32.7478 59.96 30.4911 58.0597C29.9309 57.5619 29.3719 57.0961 28.834 56.6504C28.7834 56.6085 28.733 56.5667 28.6827 56.5252C28.2792 56.191 27.8895 55.8683 27.5166 55.5477C28.7189 50.63 30.0558 45.4949 32.7704 39.4398C36.4961 37.3991 40.8154 35.1306 47.3245 32.6282C48.1292 33.3206 49.0283 34.1073 49.9295 34.8959C51.4475 36.2352 53.0993 37.5148 54.7724 38.8108C55.3339 39.2457 55.8978 39.6826 56.4598 40.1241C56.4006 40.312 56.3411 40.5003 56.2815 40.6893C55.0188 44.6898 53.6657 48.9765 52.5206 55.6444C47.7493 58.1531 43.1898 60.6759 37.839 63.9941Z" stroke="url(#paint1_linear)"/>
<path d="M18.4127 88.8845L18.4112 88.8832C17.4693 88.0591 16.5419 87.2473 15.7224 86.4385C15.1257 81.3751 14.7725 76.0662 15.2408 68.9951C15.2808 68.9491 15.3208 68.903 15.361 68.8568C17.7177 66.1446 20.4446 63.0064 25.3356 59.2084C26.2401 60.0025 27.2338 60.8858 28.2291 61.7704L28.2289 61.7706L28.2392 61.7792C30.5257 63.7047 33.0492 65.7496 35.809 67.7986C35.7902 68.0483 35.7711 68.2999 35.7518 68.5538C35.3995 73.1924 34.9915 78.5649 35.2041 85.8064C31.6921 88.3843 28.3729 90.8883 25.058 94.2664C22.718 92.5002 20.3969 90.6353 18.4127 88.8845Z" stroke="url(#paint2_linear)"/>
<mask id="path-4-inside-1" fill="white">
<path d="M133.848 82.9718C136.313 81.1225 138.779 79.1499 140.875 77.3006C141.861 76.4376 142.848 75.5746 143.711 74.7116C144.204 69.4103 144.697 64.109 144.204 56.8351C141.738 53.9995 138.902 50.6707 133.601 46.6023C132.615 47.4653 131.505 48.4516 130.396 49.4379C128.053 51.4105 125.464 53.5063 122.629 55.6022C122.998 60.5336 123.492 66.2048 123.245 74.0951C127.067 76.8074 130.396 79.3965 133.848 82.9718Z"/>
</mask>
<path d="M133.848 82.9718L133.128 83.6664L133.741 84.3014L134.448 83.7718L133.848 82.9718ZM140.875 77.3006L140.216 76.548L140.213 76.5508L140.875 77.3006ZM143.711 74.7116L144.418 75.4187L144.673 75.1635L144.706 74.8042L143.711 74.7116ZM144.204 56.8351L145.201 56.7674L145.179 56.4323L144.958 56.1789L144.204 56.8351ZM133.601 46.6023L134.21 45.809L133.56 45.3099L132.943 45.8497L133.601 46.6023ZM130.396 49.4379L131.04 50.2028L131.05 50.1942L131.06 50.1853L130.396 49.4379ZM122.629 55.6022L122.034 54.798L121.59 55.1263L121.631 55.677L122.629 55.6022ZM123.245 74.0951L122.246 74.0639L122.229 74.6002L122.666 74.9107L123.245 74.0951ZM134.448 83.7718C136.928 81.9111 139.416 79.9216 141.537 78.0504L140.213 76.5508C138.142 78.3781 135.698 80.3338 133.248 82.1718L134.448 83.7718ZM141.533 78.0532C142.514 77.195 143.527 76.3096 144.418 75.4187L143.003 74.0045C142.168 74.8396 141.208 75.6802 140.216 76.548L141.533 78.0532ZM144.706 74.8042C145.2 69.497 145.7 64.1273 145.201 56.7674L143.206 56.9027C143.693 64.0906 143.207 69.3235 142.715 74.619L144.706 74.8042ZM144.958 56.1789C142.485 53.3346 139.595 49.9418 134.21 45.809L132.992 47.3956C138.21 51.3997 140.991 54.6644 143.449 57.4912L144.958 56.1789ZM132.943 45.8497C131.953 46.7158 130.84 47.7049 129.731 48.6905L131.06 50.1853C132.17 49.1983 133.277 48.2148 134.26 47.3549L132.943 45.8497ZM129.752 48.673C127.42 50.6367 124.848 52.7184 122.034 54.798L123.223 56.4064C126.081 54.2942 128.687 52.1843 131.04 50.2028L129.752 48.673ZM121.631 55.677C122.002 60.6125 122.49 66.2338 122.246 74.0639L124.245 74.1264C124.493 66.1759 123.995 60.4548 123.626 55.5274L121.631 55.677ZM122.666 74.9107C126.464 77.6056 129.737 80.1539 133.128 83.6664L134.567 82.2772C131.054 78.639 127.67 76.0093 123.824 73.2796L122.666 74.9107Z" fill="url(#paint3_linear)" mask="url(#path-4-inside-1)"/>
<path d="M27.5169 113.321C26.0936 115.181 24.5433 117.225 23.7212 119.843C22.1939 118.642 20.6939 117.456 19.3882 116.368C19.0448 116.082 18.7281 115.795 18.4177 115.515L18.371 115.472C18.0801 115.209 17.7916 114.949 17.5014 114.712C15.5601 110.463 13.6288 106.098 11.8145 99.7168C11.8334 99.6191 11.8521 99.5224 11.8705 99.4267C12.5241 96.0399 12.9292 93.9411 14.8723 90.4345C15.3157 90.8411 15.7863 91.2323 16.2558 91.6227C16.5942 91.904 16.932 92.1848 17.2586 92.4706C19.3241 94.2931 21.6238 96.1123 24.0385 97.9271C24.1428 98.4658 24.2475 99.0142 24.3542 99.5733C25.1046 103.505 25.9563 107.968 27.5169 113.321Z" stroke="url(#paint4_linear)"/>
<path d="M100.874 62.7744C100.204 62.421 99.5312 62.0677 98.8571 61.7136C95.2452 59.8163 91.5914 57.8971 88.0139 55.8205C88.0585 55.2184 88.1015 54.6186 88.1445 54.0193C88.4415 49.8774 88.7365 45.7626 89.5454 41.1315C93.4613 38.9932 97.2776 36.8423 101.318 34.2406C101.783 34.5012 102.245 34.762 102.706 35.0221C105.119 36.3833 107.498 37.7254 109.95 38.9156C110.309 42.9383 110.677 46.2497 111.501 52.9618C108.77 55.8108 106.004 58.6725 100.874 62.7744Z" stroke="url(#paint5_linear)"/>
<path d="M85.7315 93.6144C80.737 91.1092 75.7431 88.3754 70.861 85.5239C70.9806 79.4482 71.1038 74.1653 71.4556 67.9796C73.823 66.5856 75.7984 65.4381 77.5608 64.4145C80.7232 62.5776 83.1997 61.1391 86.0242 59.3891C90.4194 61.8792 94.8148 64.2551 99.2104 66.5167C99.3316 69.3218 99.4807 72.1542 99.6296 74.9838L99.6296 74.9845C99.7792 77.8263 99.9286 80.6653 100.05 83.4757C96.2307 86.4512 92.3617 89.2285 85.7315 93.6144Z" stroke="url(#paint6_linear)"/>
<path d="M69.007 121.369C68.2743 120.984 67.5392 120.599 66.8025 120.213C62.9723 118.206 59.0992 116.177 55.3038 113.988C55.1885 112.119 55.0736 110.404 54.9626 108.748C54.7282 105.25 54.5116 102.017 54.347 98.1637C65.3816 91.4725 65.701 91.2783 68.7623 89.351C73.657 92.2056 78.6631 94.833 83.6601 97.4505C83.6365 99.6299 83.6175 101.461 83.6013 103.025C83.5372 109.197 83.5164 111.199 83.4266 113.98C83.2875 114.053 83.1488 114.127 83.0105 114.2C78.8899 116.375 75.0696 118.392 69.007 121.369Z" stroke="url(#paint7_linear)"/>
<path d="M54.8851 139.03C51.6747 137.365 48.4836 135.706 45.4068 133.824C45.0033 131.761 44.6822 130.11 44.4066 128.693C43.9729 126.464 43.6517 124.812 43.2984 123.041C43.8367 122.717 44.3482 122.406 44.8594 122.096C47.0866 120.743 49.3068 119.395 53.7086 116.956C58.1027 119.447 62.6104 121.937 67.0106 124.203C66.9904 124.901 66.9734 125.593 66.9565 126.281C66.8799 129.407 66.8053 132.446 66.4453 135.486C61.9361 136.966 59.0113 137.861 57.2086 138.387C56.2873 138.655 55.6596 138.828 55.2636 138.932C55.0986 138.976 54.9739 139.008 54.8851 139.03Z" stroke="url(#paint8_linear)"/>
<path d="M141.418 124.231C138.679 126.372 135.827 128.512 133.084 130.541C133.016 130.535 132.927 130.527 132.815 130.516C132.493 130.483 131.983 130.426 131.232 130.327C129.784 130.135 127.445 129.785 123.855 129.152C123.757 125.807 123.872 122.448 124.099 118.868C128.029 116.006 131.956 113.032 135.771 110.055C139.13 111.515 140.9 112.421 142.653 113.318C143.057 113.525 143.46 113.732 143.882 113.944C143.299 116.701 142.688 119.15 141.418 124.231Z" stroke="url(#paint9_linear)"/>
<path d="M69.6293 64.1427C65.1348 61.3013 60.7587 58.4616 56.609 55.6229C56.616 55.588 56.623 55.5531 56.6299 55.5182C57.5763 50.7828 58.5437 45.9428 60.4005 40.3228C61.4844 39.8888 62.456 39.4971 63.3775 39.1256C67.0013 37.6646 69.8511 36.5157 75.7123 34.3389C79.0168 36.5779 82.4334 38.8167 85.9623 41.0554C85.8967 41.4844 85.8299 41.9159 85.7622 42.353C85.2122 45.9037 84.605 49.8232 84.1763 55.7965C78.5269 59.0918 77.5415 59.6551 69.6293 64.1427Z" stroke="url(#paint10_linear)"/>
<path d="M42.7833 31.1373C39.678 32.5106 36.3224 33.9945 32.6168 35.9881C30.7759 33.9074 29.3522 32.0461 28.4236 30.4912C32.0963 25.7528 34.1807 23.0979 39.1822 18.9233C42.779 17.3663 46.9587 15.6976 53.0945 14.1396C53.8192 15.3764 54.9062 16.7808 56.3417 18.3504C52.634 21.9409 50.4187 24.093 47.0827 29.197C45.6997 29.8476 44.2702 30.4797 42.7833 31.1373Z" stroke="url(#paint11_linear)"/>
<path d="M138.794 25.9296C137.866 27.4825 136.445 29.3411 134.607 31.4186C130.167 28.8846 126.192 27.2011 122.459 25.6206C121.673 25.2874 120.897 24.9589 120.13 24.6279C116.796 19.5293 114.581 17.3775 110.875 13.7888C112.311 12.2192 113.398 10.8148 114.123 9.57795C120.258 11.136 124.438 12.8047 128.035 14.3616C133.036 18.5362 135.121 21.1912 138.794 25.9296Z" stroke="url(#paint12_linear)"/>
<path d="M52.2335 94.4674C47.6025 91.6106 43.0879 88.6409 38.8008 85.669C38.8005 85.0943 38.7991 84.5277 38.7978 83.966C38.7859 78.9089 38.7749 74.2545 39.5102 67.7332C43.6812 65.1134 47.4392 62.8166 54.1749 59.1467C58.345 62.0013 62.8536 64.9651 67.3705 67.7078C67.0152 73.0522 66.7762 77.1077 66.6538 85.4102C61.8868 88.5051 57.1174 91.4869 52.2335 94.4674Z" stroke="#87F2E7"/>
<path d="M23.5554 55.9876C20.4868 58.7193 17.3028 61.5538 14.116 65.3272C12.1911 63.2404 10.774 61.2783 9.86191 59.7175C9.86811 59.6921 9.87431 59.6667 9.8805 59.6413C11.0875 54.6905 12.3192 49.6385 15.4227 43.178C18.0358 40.0899 20.6358 37.0293 25.4491 33.5215C26.4114 35.123 27.7726 36.9976 29.698 39.0618C27.7784 43.5078 25.8566 48.147 24.2854 55.3373C24.0428 55.5537 23.7995 55.7703 23.5554 55.9876Z" stroke="url(#paint13_linear)"/>
<path d="M41.1329 120.105C37.3442 117.734 33.6754 115.365 30.2348 112.997C29.156 108.558 28.0793 103.987 27.0023 97.5756C29.4745 95.2272 32.1089 92.8505 36.9558 89.2566C41.1288 92.1124 45.6405 95.078 50.2709 97.9333C50.3783 99.5568 50.4651 100.996 50.5506 102.413C50.7447 105.633 50.9323 108.743 51.3392 113.659C49.5233 114.828 47.7894 115.915 46.0953 116.976C45.9932 117.04 45.8913 117.103 45.7895 117.167C44.2155 118.153 42.6734 119.118 41.1329 120.105Z" stroke="url(#paint14_linear)"/>
<path d="M9.96364 96.1448C8.55721 94.5526 7.58865 93.1495 6.97272 91.936C6.11911 87.0512 5.39417 82.1787 5.51276 75.3738C5.5184 75.3399 5.52404 75.3061 5.52968 75.2722C6.10037 71.8467 6.68266 68.3517 8.63831 63.964C9.63407 65.5821 11.0441 67.3096 12.7689 69.3418C12.7603 69.6718 12.7511 70.0056 12.7418 70.3435C12.6185 74.845 12.4754 80.0678 13.253 86.8266C11.9144 89.5076 10.5629 92.3502 9.96364 96.1448Z" stroke="url(#paint15_linear)"/>
<path d="M101.871 119.772C97.3564 117.985 92.6191 115.97 87.8786 113.728C87.9971 109.847 88.1125 104.472 88.1152 97.1652C88.9575 96.5829 89.7972 96.007 90.6381 95.4302C94.4401 92.8226 98.268 90.1971 102.476 86.8851C107.213 89.1284 111.837 91.1447 116.349 92.9339C116.382 93.6595 116.417 94.3785 116.451 95.0946C116.673 99.6811 116.888 104.15 116.594 109.47C112.739 112.481 108.404 115.836 101.871 119.772Z" stroke="url(#paint16_linear)"/>
<path d="M81.6114 140.764C77.9492 139.342 74.1719 137.692 70.2794 135.814C70.6291 132.993 70.9746 129.86 71.2118 124.352C75.8564 122.207 80.1938 120.151 85.7835 117.067C90.5177 119.309 95.2446 121.322 99.6373 123.108C99.6347 123.125 99.6321 123.142 99.6295 123.159C99.0431 127.038 98.4314 131.084 96.9593 135.237C91.2254 137.586 87.355 138.976 84.9163 139.779C83.6825 140.185 82.8157 140.441 82.2599 140.594C81.982 140.671 81.7819 140.723 81.6527 140.754C81.638 140.758 81.6242 140.761 81.6114 140.764Z" stroke="url(#paint17_linear)"/>
<g clip-path="url(#clip0)">
<path d="M51.2118 71.908C51.1444 71.8548 51.0776 71.8023 51.0116 71.7503C50.7279 71.527 50.4569 71.3137 50.1978 71.1004C50.0617 70.9813 49.9405 70.8771 49.8213 70.7749C49.8393 70.7487 49.8573 70.7225 49.8753 70.6962C50.2326 70.1753 50.6054 69.632 51.2338 69.0876C51.9012 68.9354 52.6638 68.7835 53.7422 68.6499C53.7809 68.6821 53.8201 68.7174 53.8606 68.7538L53.8615 68.7546C53.9089 68.7973 53.9582 68.8416 54.0078 68.8815C54.2058 69.0613 54.436 69.2406 54.6665 69.4181C54.3343 69.7934 54.0002 70.2352 53.6328 71.0006C53.4694 71.061 53.3125 71.1188 53.1594 71.1751C52.5005 71.4178 51.9151 71.6333 51.2118 71.908Z" stroke="#87F2E7" stroke-width="0.148649"/>
<path d="M47.8028 76.1391C47.3912 75.8201 46.9983 75.5018 46.6418 75.2016C46.5536 75.1231 46.4655 75.0497 46.3807 74.9795C46.3727 74.9729 46.3647 74.9663 46.3568 74.9597C46.2925 74.9064 46.2303 74.8549 46.1709 74.8038C46.3607 74.0273 46.5716 73.2163 47.0006 72.2597C47.5888 71.9375 48.2707 71.5793 49.2992 71.184C49.4266 71.2936 49.5691 71.4183 49.712 71.5433C49.9511 71.7543 50.2114 71.9559 50.4751 72.1601C50.5644 72.2294 50.6542 72.2989 50.7436 72.3692C50.734 72.3998 50.7243 72.4305 50.7146 72.4613C50.5154 73.0923 50.302 73.7683 50.1215 74.8204C49.3679 75.2165 48.648 75.6148 47.8028 76.1391Z" stroke="#87F2E7" stroke-width="0.148649"/>
<path d="M44.7379 80.0607L44.7376 80.0605C44.5888 79.9302 44.442 79.8018 44.3125 79.6739C44.2182 78.8746 44.1624 78.0367 44.2364 76.9202C44.2431 76.9126 44.2497 76.9049 44.2564 76.8972C44.6284 76.4691 45.0591 75.9734 45.8323 75.3734C45.9757 75.4993 46.1333 75.6394 46.2913 75.7798L46.2912 75.7798L46.2928 75.7811C46.6537 76.085 47.0521 76.4078 47.4878 76.7313C47.4848 76.7714 47.4817 76.8119 47.4786 76.8528C47.423 77.5845 47.3587 78.4319 47.3924 79.5743C46.8371 79.9819 46.3126 80.3774 45.7888 80.9117C45.4188 80.6325 45.0516 80.3376 44.7379 80.0607Z" stroke="#87F2E7" stroke-width="0.148649"/>
<path d="M63.9966 78.1754L63.9963 78.1756C63.6826 78.4524 63.3154 78.7474 62.9454 79.0265C62.4228 78.4925 61.9159 78.0971 61.3419 77.6885C61.3755 76.5464 61.3111 75.6992 61.2556 74.9676C61.2525 74.9268 61.2494 74.8863 61.2464 74.8461C61.6821 74.5227 62.0805 74.1999 62.4414 73.8959L62.4415 73.896L62.4429 73.8946C62.6009 73.7543 62.7585 73.6141 62.9019 73.4883C63.6751 74.0883 64.1058 74.584 64.4778 75.0121C64.4845 75.0198 64.4911 75.0274 64.4978 75.0351C64.5715 76.1504 64.4973 76.9693 64.421 77.7895C64.2916 77.9172 64.1452 78.0454 63.9966 78.1754Z" stroke="#87F2E7" stroke-width="0.148649"/>
<path d="M46.1809 83.9103C45.955 84.2056 45.7091 84.5294 45.58 84.945C45.3375 84.7544 45.0991 84.566 44.8917 84.3932C44.8375 84.348 44.7875 84.3028 44.7386 84.2585L44.7312 84.2519C44.6851 84.2101 44.6394 84.169 44.5935 84.1314C44.2872 83.4611 43.9824 82.7724 43.6961 81.7651C43.6991 81.7493 43.7021 81.7337 43.7051 81.7183C43.8085 81.1826 43.8725 80.8509 44.1816 80.2944C44.2525 80.3598 44.328 80.4226 44.4034 80.4853C44.4568 80.5296 44.5102 80.574 44.5619 80.6192C44.8877 80.9067 45.2506 81.1938 45.6317 81.4802C45.6483 81.5657 45.6649 81.6527 45.6819 81.7414C45.8002 82.3618 45.9346 83.0658 46.1809 83.9103Z" stroke="#87F2E7" stroke-width="0.148649"/>
<path d="M57.7403 75.9468C57.6338 75.8906 57.5269 75.8345 57.4198 75.7782C56.8496 75.4787 56.2727 75.1756 55.7078 74.8477C55.7149 74.7519 55.7218 74.6564 55.7286 74.561C55.7755 73.9074 55.8221 73.2579 55.9499 72.5268C56.5686 72.189 57.1713 71.8493 57.8096 71.4382C57.8836 71.4797 57.9573 71.5213 58.0308 71.5627C58.412 71.7777 58.7876 71.9896 59.1748 72.1774C59.2314 72.8131 59.2895 73.3352 59.4197 74.3962C58.9883 74.8463 58.5516 75.2982 57.7403 75.9468Z" stroke="#87F2E7" stroke-width="0.148649"/>
<path d="M55.3531 80.8081C54.5642 80.4124 53.7753 79.9806 53.0041 79.5301C53.023 78.5704 53.0424 77.7363 53.0981 76.7592C53.4722 76.5389 53.7843 76.3576 54.0626 76.1959C54.562 75.9059 54.9527 75.6789 55.3989 75.4025C56.0932 75.7959 56.7876 76.1712 57.482 76.5285C57.5011 76.9715 57.5247 77.4189 57.5482 77.8658L57.5482 77.8659C57.5718 78.3146 57.5954 78.763 57.6145 79.2068C57.0114 79.6768 56.4008 80.1151 55.3531 80.8081Z" stroke="#87F2E7" stroke-width="0.148649"/>
<path d="M52.7163 85.1832C52.6002 85.1222 52.4836 85.0611 52.3669 84.9999C51.7623 84.6832 51.151 84.3628 50.5519 84.0173C50.5337 83.7218 50.5155 83.4507 50.498 83.1889C50.461 82.6367 50.4268 82.1263 50.4008 81.5176C52.1453 80.4598 52.1928 80.4309 52.6777 80.1256C53.4508 80.5766 54.2415 80.9915 55.0308 81.405C55.0271 81.7497 55.0241 82.0393 55.0215 82.2864C55.0114 83.2614 55.0081 83.5763 54.9939 84.0161C54.9712 84.0281 54.9485 84.04 54.9259 84.052C54.2759 84.3951 53.6733 84.7133 52.7163 85.1832Z" stroke="#87F2E7" stroke-width="0.148649"/>
<path d="M50.4897 87.967C49.9825 87.704 49.4782 87.4418 48.9921 87.1444C48.9283 86.8182 48.8775 86.5574 48.834 86.3336C48.7654 85.9809 48.7146 85.7199 48.6587 85.4394C48.7445 85.3878 48.826 85.3383 48.9074 85.2889C49.2589 85.0754 49.6094 84.8626 50.3048 84.4773C50.999 84.8709 51.7111 85.2642 52.4062 85.6223C52.403 85.7331 52.4003 85.8432 52.3976 85.9526C52.3855 86.4463 52.3738 86.9265 52.3167 87.4069C51.6043 87.6408 51.1424 87.7821 50.8578 87.8651C50.7125 87.9075 50.6135 87.9347 50.551 87.9512C50.524 87.9583 50.5038 87.9635 50.4897 87.967Z" stroke="#87F2E7" stroke-width="0.148649"/>
<path d="M64.1351 85.6319C63.7024 85.9701 63.2519 86.3082 62.8186 86.6286C62.8077 86.6276 62.7931 86.6263 62.7745 86.6244C62.7238 86.6194 62.6432 86.6104 62.5248 86.5947C62.296 86.5643 61.9261 86.509 61.3582 86.4089C61.3425 85.8794 61.3607 85.348 61.3966 84.7814C62.0174 84.3294 62.6378 83.8596 63.2402 83.3895C63.7715 83.6203 64.0511 83.7634 64.3279 83.9051C64.3926 83.9382 64.4571 83.9712 64.5247 84.0052C64.4325 84.4416 64.3361 84.8278 64.1351 85.6319Z" stroke="#87F2E7" stroke-width="0.148649"/>
<path d="M52.8143 76.1623C52.1041 75.7134 51.4126 75.2646 50.7569 74.8161C50.7582 74.8096 50.7595 74.8031 50.7608 74.7966C50.9101 74.0496 51.0628 73.2858 51.356 72.3988C51.5276 72.3301 51.6814 72.2681 51.8272 72.2093C52.3989 71.9788 52.8485 71.7975 53.774 71.4538C54.2962 71.8077 54.8362 72.1616 55.394 72.5154C55.3835 72.584 55.3729 72.653 55.362 72.7229C55.2753 73.2831 55.1795 73.9013 55.1119 74.8441C54.2189 75.365 54.0647 75.4531 52.8143 76.1623Z" stroke="#87F2E7" stroke-width="0.148649"/>
<path d="M48.5841 70.9584C48.0938 71.1752 47.5641 71.4095 46.9789 71.7245C46.6864 71.3942 46.4604 71.0987 46.3135 70.852C46.8938 70.1033 47.2225 69.6843 48.0125 69.0249C48.5804 68.7791 49.2405 68.5155 50.2101 68.2695C50.3247 68.4657 50.4974 68.6888 50.7261 68.9387C50.1396 69.5067 49.7903 69.8455 49.2634 70.6518C49.0448 70.7547 48.819 70.8545 48.5841 70.9584Z" stroke="#87F2E7" stroke-width="0.148649"/>
<path d="M63.7228 70.1329C63.5761 70.3792 63.3504 70.6743 63.0584 71.0042C62.3575 70.6039 61.7301 70.3382 61.1408 70.0887C61.0164 70.036 60.8936 69.984 60.7722 69.9316C60.2457 69.1261 59.8965 68.7873 59.3102 68.2196C59.5389 67.9697 59.7116 67.7465 59.8262 67.5504C60.7958 67.7964 61.4559 68.06 62.0238 68.3058C62.8138 68.9652 63.1425 69.3842 63.7228 70.1329Z" stroke="#87F2E7" stroke-width="0.148649"/>
<path d="M50.0723 80.9427C49.3407 80.4914 48.6274 80.0223 47.9503 79.5528C47.9502 79.4614 47.95 79.3713 47.9498 79.282C47.9479 78.4843 47.9462 77.7498 48.0624 76.7204C48.7212 76.3066 49.3142 75.9441 50.3786 75.3643C51.0373 75.8152 51.7496 76.2835 52.4631 76.7167C52.407 77.5609 52.3692 78.2004 52.3499 79.5121C51.597 80.001 50.8437 80.4719 50.0723 80.9427Z" stroke="#87F2E7" stroke-width="0.148649"/>
<path d="M45.5545 74.8748C45.0697 75.3064 44.5669 75.754 44.0637 76.3506C43.7576 76.0193 43.5326 75.7077 43.3881 75.4602C43.3892 75.4555 43.3904 75.4509 43.3915 75.4463C43.5818 74.6657 43.7761 73.8688 44.2657 72.8497C44.6785 72.3619 45.0894 71.8781 45.8514 71.3234C46.0034 71.5771 46.2191 71.8746 46.5251 72.2024C46.2221 72.9043 45.9186 73.636 45.6707 74.7714C45.6321 74.8058 45.5934 74.8403 45.5545 74.8748Z" stroke="#87F2E7" stroke-width="0.148649"/>
<path d="M48.3223 84.9843C47.7237 84.6096 47.144 84.2353 46.6004 83.8611C46.43 83.1602 46.26 82.4387 46.0899 81.4258C46.4807 81.0545 46.8967 80.6791 47.6637 80.1105C48.3228 80.5616 49.0356 81.0301 49.7671 81.4812C49.7841 81.7381 49.7979 81.9657 49.8114 82.1898C49.842 82.6979 49.8716 83.1887 49.9359 83.9651C49.6488 84.1499 49.3747 84.3218 49.107 84.4894C49.0909 84.4995 49.0748 84.5096 49.0587 84.5196C48.8098 84.6754 48.5659 84.8281 48.3223 84.9843Z" stroke="#87F2E7" stroke-width="0.148649"/>
<path d="M43.4119 81.212C43.1863 80.9575 43.0313 80.7335 42.9331 80.5398C42.7985 79.7693 42.6841 79.0007 42.7028 77.9271C42.7037 77.9216 42.7046 77.9162 42.7055 77.9107C42.7958 77.3686 42.8881 76.8151 43.1994 76.1193C43.3566 76.3764 43.5806 76.651 43.8557 76.975C43.8543 77.0276 43.8528 77.0808 43.8514 77.1347C43.8319 77.8446 43.8094 78.668 43.9321 79.7337C43.7198 80.1588 43.5056 80.6092 43.4119 81.212Z" stroke="#87F2E7" stroke-width="0.148649"/>
<path d="M57.8973 84.9314C57.1842 84.6492 56.4356 84.3309 55.6866 83.9765C55.7054 83.3641 55.7236 82.5152 55.724 81.3604C55.8575 81.2681 55.9905 81.1769 56.1237 81.0855C56.7237 80.674 57.3277 80.2597 57.9917 79.7369C58.7402 80.0915 59.4708 80.41 60.1836 80.6926C60.1888 80.8079 60.1944 80.9222 60.1999 81.0361C60.2348 81.7597 60.2688 82.4649 60.2223 83.3048C59.6137 83.7801 58.9294 84.3097 57.8973 84.9314Z" stroke="#87F2E7" stroke-width="0.148649"/>
<path d="M54.703 88.2403C54.1242 88.0155 53.5273 87.7548 52.9121 87.4579C52.9674 87.0119 53.0221 86.5174 53.0596 85.6455C53.7932 85.3066 54.4779 84.9821 55.3609 84.495C56.1089 84.8492 56.8559 85.1674 57.5499 85.4495C57.5493 85.4534 57.5487 85.4573 57.5481 85.4612C57.4556 86.0731 57.359 86.7119 57.1263 87.3677C56.2213 87.7385 55.6105 87.9578 55.2257 88.0845C55.0312 88.1485 54.8945 88.1889 54.8068 88.2131C54.7629 88.2252 54.7313 88.2333 54.7109 88.2384L54.703 88.2403Z" stroke="#87F2E7" stroke-width="0.148649"/>
<g clip-path="url(#clip1)">
<path d="M62.9491 85.3402L62.5775 85.4916L63.1559 85.8917L63.1659 84.7762L62.9491 85.3402ZM62.8118 85.5149L62.9877 85.4432L63.0904 85.1762L63.0856 85.7043L62.8118 85.5149Z" fill="#87F2E7"/>
<path d="M63.1195 84.6913L62.5622 84.3091L62.5509 85.3826L62.9097 85.2354L63.1195 84.6913ZM62.6322 84.4956L62.95 84.7136L62.7454 84.7975L62.6257 85.1079L62.6322 84.4956ZM62.784 84.9005L62.9937 84.8145L62.8711 85.1325L62.6614 85.2185L62.784 84.9005Z" fill="#87F2E7"/>
</g>
<g clip-path="url(#clip2)">
<path d="M61.9387 68.7128C61.7231 68.5073 61.4742 68.3627 61.2379 68.3054C61.0016 68.2482 60.8062 68.2852 60.6876 68.4096C60.569 68.5341 60.5414 68.7311 60.61 68.9644C60.6786 69.1976 60.8351 69.4392 61.0507 69.6447C61.2663 69.8501 61.5152 69.9948 61.7515 70.052C61.8302 70.0711 61.9052 70.0799 61.9744 70.0781C61.987 70.0777 61.991 70.0658 61.9834 70.0513C61.9757 70.0369 61.9592 70.0254 61.9465 70.0258C61.8814 70.0275 61.8107 70.0192 61.7365 70.0012C61.514 69.9473 61.2796 69.811 61.0765 69.6176C60.8735 69.4241 60.7261 69.1965 60.6615 68.9768C60.5969 68.7571 60.6228 68.5716 60.7345 68.4544C60.8462 68.3371 61.0303 68.3023 61.2529 68.3562C61.4754 68.4101 61.7098 68.5464 61.9129 68.7399C62.1159 68.9334 62.2633 69.1609 62.3279 69.3806C62.3925 69.6003 62.3666 69.7859 62.2549 69.9031C62.2008 69.9598 62.1301 69.9974 62.0447 70.0149C62.0332 70.0172 62.0315 70.0307 62.0409 70.0449C62.0503 70.0592 62.0672 70.0688 62.0786 70.0665C62.1694 70.0479 62.2445 70.008 62.3018 69.9478C62.4204 69.8233 62.4479 69.6263 62.3794 69.3931C62.3108 69.1598 62.1543 68.9182 61.9387 68.7128Z" fill="#87F2E7"/>
<path d="M60.8007 68.596C60.7869 68.5848 60.7714 68.5832 60.7662 68.5924C60.7066 68.6971 60.7001 68.8373 60.7472 68.9976C60.8668 69.4045 61.2994 69.8167 61.7116 69.9166C62.1237 70.0164 62.3617 69.7667 62.2421 69.3598C62.1225 68.953 61.6899 68.5407 61.2777 68.4409C61.0845 68.394 60.9224 68.4224 60.8214 68.5208C60.814 68.528 60.8184 68.544 60.8312 68.5565C60.844 68.569 60.8604 68.5733 60.8678 68.5661C60.9618 68.4745 61.1127 68.4481 61.2926 68.4917C61.6764 68.5847 62.0792 68.9685 62.1906 69.3474C62.302 69.7262 62.0804 69.9587 61.6966 69.8658C61.3129 69.7728 60.91 69.3889 60.7987 69.0101C60.7548 68.8608 60.7609 68.7303 60.8164 68.6328C60.8216 68.6236 60.8146 68.6071 60.8007 68.596Z" fill="#87F2E7"/>
<path d="M61.1891 69.3927C61.2074 69.4125 61.2302 69.4268 61.2517 69.432L61.733 69.5486C61.7967 69.5641 61.8529 69.5576 61.8911 69.5303C61.9293 69.5031 61.9481 69.4561 61.944 69.3981L61.9311 69.2137C61.9261 69.1425 61.885 69.0603 61.8184 68.9882C61.7518 68.916 61.6687 68.8638 61.5905 68.8448L61.1723 68.7435C61.1391 68.7355 61.1175 68.7509 61.1196 68.7811L61.1336 68.9798L61.021 68.9525C60.9949 68.9462 60.9775 68.9582 60.9785 68.9816L60.9824 69.0715C60.983 69.0847 60.9904 69.1002 61.0029 69.1138C61.0153 69.1275 61.0309 69.1374 61.0456 69.1409L61.1466 69.1654L61.1582 69.3307C61.1595 69.3503 61.1708 69.3728 61.1891 69.3927ZM61.032 69.006C61.0319 69.0039 61.0335 69.0028 61.0359 69.0033L61.5084 69.1178L61.5121 69.2032C61.5122 69.2054 61.5106 69.2064 61.5082 69.2059L61.0357 69.0914L61.032 69.006ZM61.3505 69.2148L61.5232 69.2567C61.5492 69.263 61.5667 69.251 61.5656 69.2277L61.5618 69.1377C61.5612 69.1245 61.5537 69.1091 61.5413 69.0954C61.5288 69.0817 61.5132 69.0718 61.4985 69.0683L61.3375 69.0292L61.333 68.9649L61.6464 69.0408C61.6647 69.0452 61.6836 69.0568 61.6983 69.0724C61.7137 69.0888 61.7231 69.1074 61.7243 69.1236L61.7372 69.308C61.7397 69.3435 61.7142 69.3617 61.6752 69.3522L61.3547 69.2746L61.3505 69.2148ZM61.2978 69.202L61.3027 69.2727C61.3034 69.2818 61.3086 69.2922 61.3171 69.3014C61.3255 69.3106 61.3361 69.3172 61.3461 69.3196L61.6901 69.403C61.7534 69.4183 61.7947 69.3888 61.7907 69.3313L61.7778 69.1469C61.7756 69.1161 61.7577 69.0807 61.7285 69.0497C61.7005 69.0199 61.6652 68.9982 61.6314 68.99L61.3029 68.9104C61.2876 68.9067 61.2775 68.9139 61.2785 68.9278L61.2847 69.0165L61.1863 68.9926L61.1731 68.8044C61.1725 68.7963 61.1783 68.7922 61.1872 68.7943L61.6054 68.8956C61.668 68.9108 61.7343 68.9525 61.7876 69.0102C61.8408 69.0679 61.8736 69.1335 61.8776 69.1904L61.8905 69.3748C61.8939 69.4222 61.8785 69.4606 61.8473 69.4829C61.816 69.5051 61.7701 69.5105 61.718 69.4978L61.2367 69.3812C61.2288 69.3793 61.2228 69.3738 61.22 69.3707C61.2171 69.3675 61.2122 69.3612 61.2117 69.354L61.1993 69.1782L61.2978 69.202L61.2978 69.202Z" fill="#87F2E7"/>
</g>
<g clip-path="url(#clip3)">
<path d="M63.0214 76.3497L63.1007 76.1858C63.1372 76.1104 63.1287 75.9931 63.0816 75.9238C63.0345 75.8544 62.9668 75.8594 62.9303 75.9348L62.851 76.0987C62.8437 76.1137 62.8454 76.1372 62.8548 76.1511L62.9911 76.3519C63.0005 76.3658 63.0141 76.3648 63.0214 76.3497ZM62.8983 76.1216L62.9644 75.985C62.9863 75.9398 63.0269 75.9368 63.0552 75.9784C63.0834 76.02 63.0885 76.0904 63.0666 76.1356L63.0005 76.2722L62.8983 76.1216Z" fill="#87F2E7"/>
<path d="M63.1945 75.957C63.1901 75.9387 63.1849 75.921 63.1789 75.904C63.1209 75.741 63.0008 75.6788 62.9105 75.7652L62.8677 75.7022C62.8583 75.6883 62.8448 75.6893 62.8375 75.7044L62.7846 75.8136C62.7773 75.8287 62.779 75.8522 62.7884 75.866L62.8225 75.9162L62.7961 75.9709L62.762 75.9207C62.7526 75.9068 62.739 75.9078 62.7317 75.9229L62.6789 76.0321C62.6716 76.0472 62.6733 76.0707 62.6827 76.0845L62.7168 76.1347L62.6903 76.1894C62.683 76.2044 62.6847 76.2279 62.6941 76.2418L62.7623 76.3422C62.7717 76.3561 62.7853 76.3551 62.7926 76.34L62.819 76.2854L63.1257 76.7373L63.0993 76.7919C63.092 76.807 63.0937 76.8304 63.1031 76.8443L63.1713 76.9447C63.1807 76.9586 63.1942 76.9576 63.2015 76.9425L63.228 76.8879L63.2621 76.9381C63.2715 76.952 63.285 76.951 63.2923 76.9359L63.3452 76.8266C63.3525 76.8116 63.3508 76.7881 63.3414 76.7742L63.3073 76.724L63.3337 76.6694L63.3678 76.7196C63.3772 76.7335 63.3908 76.7325 63.3981 76.7174L63.451 76.6082C63.4583 76.5931 63.4565 76.5696 63.4471 76.5557L63.413 76.5055C63.4536 76.4217 63.4647 76.3044 63.4425 76.1943C63.4065 76.0161 63.2954 75.9098 63.1945 75.957ZM63.379 76.4553L63.3657 76.4826C63.3584 76.4977 63.3602 76.5212 63.3696 76.535L63.4037 76.5853L63.3772 76.6399L63.3431 76.5897C63.3337 76.5758 63.3202 76.5768 63.3129 76.5919L63.26 76.7011C63.2527 76.7162 63.2544 76.7397 63.2638 76.7535L63.2979 76.8037L63.2715 76.8584L63.2374 76.8082C63.228 76.7943 63.2144 76.7953 63.2071 76.8104L63.1807 76.865L63.1466 76.8148L63.173 76.7602C63.1803 76.7451 63.1786 76.7216 63.1692 76.7077L62.8284 76.2056C62.819 76.1918 62.8054 76.1928 62.7981 76.2078L62.7717 76.2625L62.7376 76.2123L62.7641 76.1576C62.7714 76.1426 62.7696 76.1191 62.7602 76.1052L62.7262 76.055L62.7526 76.0004L62.7867 76.0506C62.7961 76.0645 62.8096 76.0635 62.8169 76.0484L62.8698 75.9391C62.8771 75.9241 62.8754 75.9006 62.866 75.8867L62.8319 75.8365L62.8583 75.7819L62.8967 75.8384C62.9045 75.8498 62.9153 75.8514 62.9231 75.8422C62.9385 75.8239 62.9562 75.8113 62.975 75.805C63.0553 75.7782 63.1386 75.8707 63.1609 76.0116C63.1613 76.014 63.1618 76.0163 63.1625 76.0186C63.1678 76.0376 63.1808 76.0467 63.1914 76.039C63.2435 76.0014 63.306 76.0206 63.3521 76.0884C63.418 76.1854 63.43 76.3497 63.379 76.4553Z" fill="#87F2E7"/>
<path d="M63.1745 76.1541L63.0556 76.3999C63.0483 76.415 63.05 76.4385 63.0594 76.4524L63.1957 76.6532C63.2051 76.6671 63.2187 76.6661 63.226 76.651L63.345 76.4052C63.3815 76.3298 63.3729 76.2124 63.3258 76.1431C63.2788 76.0738 63.211 76.0787 63.1745 76.1541ZM63.3109 76.355L63.2051 76.5735L63.1029 76.4228L63.2086 76.2043C63.2305 76.1591 63.2712 76.1561 63.2994 76.1977C63.3276 76.2393 63.3328 76.3097 63.3109 76.355Z" fill="#87F2E7"/>
<path d="M62.5933 75.4851C62.3743 75.9376 62.4257 76.6416 62.708 77.0576C62.9903 77.4735 63.3968 77.4439 63.6158 76.9914C63.8344 76.5386 63.7831 75.8352 63.5011 75.4189C63.2188 75.003 62.8124 75.0326 62.5933 75.4851ZM63.5817 76.9412C63.3773 77.3635 62.998 77.3912 62.7344 77.003C62.4709 76.6147 62.423 75.9577 62.6274 75.5353C62.832 75.1136 63.2111 75.086 63.4747 75.4735C63.7382 75.8618 63.7861 76.5188 63.5817 76.9412Z" fill="#87F2E7"/>
<path d="M62.6616 75.5856C62.4717 75.9777 62.5162 76.5879 62.7609 76.9484C63.0056 77.3089 63.3579 77.2832 63.5477 76.891C63.7371 76.4986 63.6927 75.889 63.4483 75.5282C63.2036 75.1677 62.8514 75.1934 62.6616 75.5856ZM63.5136 76.8408C63.3384 77.2028 63.0132 77.2265 62.7874 76.8938C62.5615 76.561 62.5204 75.9978 62.6956 75.6358C62.871 75.2743 63.1959 75.2506 63.4219 75.5828C63.6478 75.9156 63.6888 76.4788 63.5136 76.8408Z" fill="#87F2E7"/>
</g>
</g>
<defs>
<linearGradient id="paint0_linear" x1="12.2786" y1="1.56118" x2="126.935" y2="53.9577" gradientUnits="userSpaceOnUse">
<stop stop-color="#87F2E7"/>
<stop offset="1" stop-color="#2E37F2"/>
</linearGradient>
<linearGradient id="paint1_linear" x1="-0.145139" y1="28.7473" x2="114.511" y2="81.144" gradientUnits="userSpaceOnUse">
<stop stop-color="#87F2E7"/>
<stop offset="1" stop-color="#2E37F2"/>
</linearGradient>
<linearGradient id="paint2_linear" x1="-13.9166" y1="58.8818" x2="100.74" y2="111.279" gradientUnits="userSpaceOnUse">
<stop stop-color="#87F2E7"/>
<stop offset="1" stop-color="#2E37F2"/>
</linearGradient>
<linearGradient id="paint3_linear" x1="-14.3651" y1="56.7666" x2="137.688" y2="64.9858" gradientUnits="userSpaceOnUse">
<stop stop-color="#87F2E7"/>
<stop offset="1" stop-color="#2E37F2"/>
</linearGradient>
<linearGradient id="paint4_linear" x1="-25.6426" y1="84.5419" x2="89.0136" y2="136.939" gradientUnits="userSpaceOnUse">
<stop stop-color="#87F2E7"/>
<stop offset="1" stop-color="#2E37F2"/>
</linearGradient>
<linearGradient id="paint5_linear" x1="9.87278" y1="6.82519" x2="124.529" y2="59.222" gradientUnits="userSpaceOnUse">
<stop stop-color="#87F2E7"/>
<stop offset="1" stop-color="#2E37F2"/>
</linearGradient>
<linearGradient id="paint6_linear" x1="-3.31533" y1="35.6842" x2="111.341" y2="88.081" gradientUnits="userSpaceOnUse">
<stop stop-color="#87F2E7"/>
<stop offset="1" stop-color="#2E37F2"/>
</linearGradient>
<linearGradient id="paint7_linear" x1="-17.1835" y1="66.0316" x2="97.4729" y2="118.428" gradientUnits="userSpaceOnUse">
<stop stop-color="#87F2E7"/>
<stop offset="1" stop-color="#2E37F2"/>
</linearGradient>
<linearGradient id="paint8_linear" x1="-28.3111" y1="90.3807" x2="86.3452" y2="142.778" gradientUnits="userSpaceOnUse">
<stop stop-color="#87F2E7"/>
<stop offset="1" stop-color="#2E37F2"/>
</linearGradient>
<linearGradient id="paint9_linear" x1="-14.141" y1="64.6094" x2="139.556" y2="123.376" gradientUnits="userSpaceOnUse">
<stop stop-color="#87F2E7"/>
<stop offset="1" stop-color="#2E37F2"/>
</linearGradient>
<linearGradient id="paint10_linear" x1="4.67759" y1="18.1934" x2="119.334" y2="70.5902" gradientUnits="userSpaceOnUse">
<stop stop-color="#87F2E7"/>
<stop offset="1" stop-color="#2E37F2"/>
</linearGradient>
<linearGradient id="paint11_linear" x1="8.67702" y1="9.44277" x2="123.333" y2="61.8393" gradientUnits="userSpaceOnUse">
<stop stop-color="#87F2E7"/>
<stop offset="1" stop-color="#2E37F2"/>
</linearGradient>
<linearGradient id="paint12_linear" x1="-12.0066" y1="13.1343" x2="140.047" y2="21.3534" gradientUnits="userSpaceOnUse">
<stop stop-color="#87F2E7"/>
<stop offset="1" stop-color="#2E37F2"/>
</linearGradient>
<linearGradient id="paint13_linear" x1="-4.51706" y1="38.3138" x2="110.14" y2="90.7107" gradientUnits="userSpaceOnUse">
<stop stop-color="#87F2E7"/>
<stop offset="1" stop-color="#2E37F2"/>
</linearGradient>
<linearGradient id="paint14_linear" x1="-22.0886" y1="76.7647" x2="92.5676" y2="129.161" gradientUnits="userSpaceOnUse">
<stop stop-color="#87F2E7"/>
<stop offset="1" stop-color="#2E37F2"/>
</linearGradient>
<linearGradient id="paint15_linear" x1="-17.9042" y1="67.6076" x2="96.7528" y2="120.005" gradientUnits="userSpaceOnUse">
<stop stop-color="#87F2E7"/>
<stop offset="1" stop-color="#2E37F2"/>
</linearGradient>
<linearGradient id="paint16_linear" x1="-10.6531" y1="51.7413" x2="104.003" y2="104.138" gradientUnits="userSpaceOnUse">
<stop stop-color="#87F2E7"/>
<stop offset="1" stop-color="#2E37F2"/>
</linearGradient>
<linearGradient id="paint17_linear" x1="-23.5435" y1="79.9486" x2="91.1127" y2="132.345" gradientUnits="userSpaceOnUse">
<stop stop-color="#87F2E7"/>
<stop offset="1" stop-color="#2E37F2"/>
</linearGradient>
<clipPath id="clip0">
<rect width="20.7454" height="19.6642" fill="white" transform="translate(42.6091 67.4645)"/>
</clipPath>
<clipPath id="clip1">
<rect width="1.69028" height="1.69028" fill="white" transform="matrix(0.635215 -0.772336 0.351184 0.936307 62.0248 84.9625)"/>
</clipPath>
<clipPath id="clip2">
<rect width="1.82053" height="1.82053" fill="white" transform="matrix(0.971877 0.235489 0.282072 0.959393 60.3533 68.0911)"/>
</clipPath>
<clipPath id="clip3">
<rect width="1.82053" height="1.82053" fill="white" transform="matrix(0.435662 -0.90011 0.561625 0.827392 62.1968 76.3044)"/>
</clipPath>
</defs>
</svg>
