<svg width="150" height="150" viewBox="0 0 150 150" fill="none" xmlns="http://www.w3.org/2000/svg">
<path d="M105.925 127H52.4583C49.2179 127 49.2179 118.132 52.4583 118.132H105.925V100.395H89.723C86.4826 100.395 85.6725 96.3643 85.6725 94.3488C85.6725 89.5116 88.3728 88.3023 89.723 88.3023H105.925V71.3721H33.8874C29.0041 71.3721 24.2252 70.4849 19.9182 68.1838C19.0473 67.7185 18.2455 67.2817 17.6239 66.938C8.55078 62.1008 6.55255 51.2171 6.68758 46.3798C6.36354 35.093 16.5439 27.1654 21.6745 24.6124C7.90283 35.8992 11.9533 45.9767 11.9533 46.3798C13.7614 52.3779 18.4841 57.6321 22.6186 60.4827C25.0343 62.1482 28.0261 62.5039 30.9603 62.5039H105.925C113.054 62.5039 114.836 67.8786 114.836 70.5659V118.132C114.836 124.904 108.896 126.866 105.925 127Z" fill="url(#paint0_linear)"/>
<path d="M7.9027 112.891C13.7354 125.146 34.096 126.328 43.5472 125.388C46.7876 125.388 46.7876 116.435 43.5472 116.519C31.2336 116.842 20.8643 113.698 17.2189 112.085C7.49768 108.86 9.3879 98.6486 11.5482 93.9457C5.06734 103.943 6.41751 110.742 7.9027 112.891Z" fill="url(#paint1_linear)"/>
<path d="M6.06883 81.236C6.15812 82.1904 6.45515 83.1128 6.91116 83.9559C13.6152 96.3517 35.5305 98.4966 45.9775 97.9767C50.0281 97.9767 50.0281 89.1085 45.9775 89.1085C28.8033 89.7535 18.1515 84.6744 14.3836 82.6589C8.02526 79.8372 9.52295 70.8346 11.5482 66.938C6.4785 71.4226 5.73366 77.6532 6.06883 81.236Z" fill="url(#paint2_linear)"/>
<path d="M33.016 31.8682C20.7024 32.8357 16.2739 42.4832 15.5988 47.186C12.0685 32.2544 22.2936 25.4964 29.3603 23.4732C30.6982 23.0901 32.0956 23 33.4872 23H96.204C101.065 23 101.065 31.8682 96.204 31.8682H33.016Z" fill="url(#paint3_linear)"/>
<path d="M33.016 36.7054H88.103C92.1535 36.7054 92.1535 45.5736 88.103 45.5736H33.016C29.3705 45.5736 28.9655 36.7054 33.016 36.7054Z" fill="url(#paint4_linear)"/>
<path d="M33.016 49.6047H102.28C106.33 49.6047 106.33 58.4729 102.28 58.4729H33.016C29.3705 58.4729 28.9655 49.6047 33.016 49.6047Z" fill="url(#paint5_linear)"/>
<path d="M102.685 41.5426C102.685 43.7689 100.871 45.5736 98.6343 45.5736C96.3972 45.5736 94.5838 43.7689 94.5838 41.5426C94.5838 39.3164 96.3972 37.5116 98.6343 37.5116C100.871 37.5116 102.685 39.3164 102.685 41.5426Z" fill="url(#paint6_linear)"/>
<path d="M118.887 27.8372C118.887 30.0635 117.073 31.8682 114.836 31.8682C112.599 31.8682 110.786 30.0635 110.786 27.8372C110.786 25.6109 112.599 23.8062 114.836 23.8062C117.073 23.8062 118.887 25.6109 118.887 27.8372Z" fill="url(#paint7_linear)"/>
<path d="M137.519 27.8372C137.519 30.0635 135.706 31.8682 133.469 31.8682C131.232 31.8682 129.418 30.0635 129.418 27.8372C129.418 25.6109 131.232 23.8062 133.469 23.8062C135.706 23.8062 137.519 25.6109 137.519 27.8372Z" fill="url(#paint8_linear)"/>
<path d="M144 41.5426C144 43.7689 142.187 45.5736 139.949 45.5736C137.712 45.5736 135.899 43.7689 135.899 41.5426C135.899 39.3164 137.712 37.5116 139.949 37.5116C142.187 37.5116 144 39.3164 144 41.5426Z" fill="url(#paint9_linear)"/>
<path d="M124.558 41.5426C124.558 43.7689 122.744 45.5736 120.507 45.5736C118.27 45.5736 116.457 43.7689 116.457 41.5426C116.457 39.3164 118.27 37.5116 120.507 37.5116C122.744 37.5116 124.558 39.3164 124.558 41.5426Z" fill="url(#paint10_linear)"/>
<path d="M120.507 53.6357C120.507 55.8619 118.694 57.6667 116.457 57.6667C114.219 57.6667 112.406 55.8619 112.406 53.6357C112.406 51.4094 114.219 49.6047 116.457 49.6047C118.694 49.6047 120.507 51.4094 120.507 53.6357Z" fill="url(#paint11_linear)"/>
<path d="M137.519 53.6357C137.519 55.8619 135.706 57.6667 133.469 57.6667C131.232 57.6667 129.418 55.8619 129.418 53.6357C129.418 51.4094 131.232 49.6047 133.469 49.6047C135.706 49.6047 137.519 51.4094 137.519 53.6357Z" fill="url(#paint12_linear)"/>
<defs>
<linearGradient id="paint0_linear" x1="81.2171" y1="23" x2="9.22056" y2="141.015" gradientUnits="userSpaceOnUse">
<stop stop-color="#29B6F6"/>
<stop offset="0.462778" stop-color="#508AE9"/>
<stop offset="1" stop-color="#2E37F2"/>
</linearGradient>
<linearGradient id="paint1_linear" x1="81.2171" y1="23" x2="9.22056" y2="141.015" gradientUnits="userSpaceOnUse">
<stop stop-color="#29B6F6"/>
<stop offset="0.462778" stop-color="#508AE9"/>
<stop offset="1" stop-color="#2E37F2"/>
</linearGradient>
<linearGradient id="paint2_linear" x1="81.2171" y1="23" x2="9.22056" y2="141.015" gradientUnits="userSpaceOnUse">
<stop stop-color="#29B6F6"/>
<stop offset="0.462778" stop-color="#508AE9"/>
<stop offset="1" stop-color="#2E37F2"/>
</linearGradient>
<linearGradient id="paint3_linear" x1="81.2171" y1="23" x2="9.22056" y2="141.015" gradientUnits="userSpaceOnUse">
<stop stop-color="#29B6F6"/>
<stop offset="0.462778" stop-color="#508AE9"/>
<stop offset="1" stop-color="#2E37F2"/>
</linearGradient>
<linearGradient id="paint4_linear" x1="81.2171" y1="23" x2="9.22056" y2="141.015" gradientUnits="userSpaceOnUse">
<stop stop-color="#29B6F6"/>
<stop offset="0.462778" stop-color="#508AE9"/>
<stop offset="1" stop-color="#2E37F2"/>
</linearGradient>
<linearGradient id="paint5_linear" x1="81.2171" y1="23" x2="9.22056" y2="141.015" gradientUnits="userSpaceOnUse">
<stop stop-color="#29B6F6"/>
<stop offset="0.462778" stop-color="#508AE9"/>
<stop offset="1" stop-color="#2E37F2"/>
</linearGradient>
<linearGradient id="paint6_linear" x1="81.2171" y1="23" x2="9.22056" y2="141.015" gradientUnits="userSpaceOnUse">
<stop stop-color="#29B6F6"/>
<stop offset="0.462778" stop-color="#508AE9"/>
<stop offset="1" stop-color="#2E37F2"/>
</linearGradient>
<linearGradient id="paint7_linear" x1="81.2171" y1="23" x2="9.22056" y2="141.015" gradientUnits="userSpaceOnUse">
<stop stop-color="#29B6F6"/>
<stop offset="0.462778" stop-color="#508AE9"/>
<stop offset="1" stop-color="#2E37F2"/>
</linearGradient>
<linearGradient id="paint8_linear" x1="81.2171" y1="23" x2="9.22056" y2="141.015" gradientUnits="userSpaceOnUse">
<stop stop-color="#29B6F6"/>
<stop offset="0.462778" stop-color="#508AE9"/>
<stop offset="1" stop-color="#2E37F2"/>
</linearGradient>
<linearGradient id="paint9_linear" x1="81.2171" y1="23" x2="9.22056" y2="141.015" gradientUnits="userSpaceOnUse">
<stop stop-color="#29B6F6"/>
<stop offset="0.462778" stop-color="#508AE9"/>
<stop offset="1" stop-color="#2E37F2"/>
</linearGradient>
<linearGradient id="paint10_linear" x1="81.2171" y1="23" x2="9.22056" y2="141.015" gradientUnits="userSpaceOnUse">
<stop stop-color="#29B6F6"/>
<stop offset="0.462778" stop-color="#508AE9"/>
<stop offset="1" stop-color="#2E37F2"/>
</linearGradient>
<linearGradient id="paint11_linear" x1="81.2171" y1="23" x2="9.22056" y2="141.015" gradientUnits="userSpaceOnUse">
<stop stop-color="#29B6F6"/>
<stop offset="0.462778" stop-color="#508AE9"/>
<stop offset="1" stop-color="#2E37F2"/>
</linearGradient>
<linearGradient id="paint12_linear" x1="81.2171" y1="23" x2="9.22056" y2="141.015" gradientUnits="userSpaceOnUse">
<stop stop-color="#29B6F6"/>
<stop offset="0.462778" stop-color="#508AE9"/>
<stop offset="1" stop-color="#2E37F2"/>
</linearGradient>
</defs>
</svg>
