<svg width="423" height="414" viewBox="0 0 423 414" fill="none" xmlns="http://www.w3.org/2000/svg">
<g filter="url(#filter0_di)">
<g filter="url(#filter1_ii)">
<path d="M199.623 208.458C199.037 209.434 197.536 208.828 197.792 207.718L226.49 83.2236C226.614 82.6851 227.152 82.3494 227.69 82.4771C241.483 85.7545 252.882 90.3532 265.079 97.5814C265.554 97.863 265.708 98.4783 265.424 98.9517L199.623 208.458Z" fill="#835AF7"/>
</g>
</g>
<g filter="url(#filter2_ii)">
<path d="M193.611 207.088C193.73 208.221 192.166 208.64 191.703 207.6L139.688 90.8552C139.463 90.3507 139.691 89.7587 140.197 89.537C153.157 83.8585 165.041 80.6788 179.141 79.1178C179.69 79.057 180.183 79.4556 180.241 80.0046L193.611 207.088Z" fill="#C394FF"/>
</g>
<g filter="url(#filter3_ii)">
<path d="M196.788 207.159C196.541 208.27 194.926 208.171 194.816 207.038L182.557 79.8193C182.504 79.2695 182.908 78.7805 183.458 78.7309C197.551 77.4607 209.83 78.2189 223.696 81.2151C224.236 81.3317 224.577 81.8662 224.457 82.4052L196.788 207.159Z" fill="#897EFF"/>
</g>
<g filter="url(#filter4_ii)">
<path d="M205.012 213.227C204.129 213.624 203.253 212.659 203.734 211.818L268.816 98.0397C269.091 97.5603 269.704 97.3951 270.182 97.6724C295.331 112.267 312.905 131.644 324.991 158.091C325.22 158.593 324.997 159.187 324.493 159.414L205.012 213.227Z" fill="#A8B4F8"/>
</g>
<g filter="url(#filter5_ii)">
<path d="M205.635 217.863C204.686 217.665 204.546 216.369 205.43 215.972L324.988 162.331C325.492 162.106 326.085 162.333 326.308 162.838C338.066 189.432 340.887 215.463 335.114 243.936C335.004 244.477 334.473 244.826 333.933 244.713L205.635 217.863Z" fill="#897EFF"/>
</g>
<g filter="url(#filter6_di)">
<path d="M194.693 221.105C194.827 221.396 195.092 221.606 195.406 221.668L341.081 250.804C341.622 250.912 341.973 251.444 341.861 251.985C325.156 332.755 246.399 385.016 165.454 368.827C84.1811 352.572 31.485 273.468 47.7512 192.137C57.444 143.674 86.6573 106.432 131.328 85.5379C131.828 85.3037 132.426 85.5224 132.657 86.0246L194.693 221.105Z" fill="#941CF5"/>
</g>
<path d="M40 45.5H138L162 91.5" stroke="#88F1E7" stroke-linecap="round" stroke-linejoin="round"/>
<circle cx="163" cy="93" r="1.5" stroke="#88F1E7"/>
<path d="M44.58 31.26C46.5533 31.26 48.0067 31.6533 48.94 32.44C49.8867 33.2267 50.36 34.28 50.36 35.6C50.36 36.4533 50.1467 37.2333 49.72 37.94C49.2933 38.6333 48.64 39.1933 47.76 39.62C46.8933 40.0333 45.82 40.24 44.54 40.24C43.5533 40.24 42.58 40.1133 41.62 39.86C40.6733 39.5933 39.8667 39.22 39.2 38.74L40.48 36.26C41.0133 36.66 41.6267 36.9733 42.32 37.2C43.0133 37.4133 43.7267 37.52 44.46 37.52C45.2733 37.52 45.9133 37.36 46.38 37.04C46.8467 36.72 47.08 36.2733 47.08 35.7C47.08 35.1 46.8333 34.6467 46.34 34.34C45.86 34.0333 45.02 33.88 43.82 33.88H40.24L40.96 26H49.5V28.6H43.66L43.44 31.26H44.58ZM54.7192 33.56C53.6926 33.56 52.8526 33.2133 52.1992 32.52C51.5592 31.8133 51.2392 30.8733 51.2392 29.7C51.2392 28.5267 51.5592 27.5933 52.1992 26.9C52.8526 26.1933 53.6926 25.84 54.7192 25.84C55.7459 25.84 56.5792 26.1933 57.2192 26.9C57.8592 27.5933 58.1792 28.5267 58.1792 29.7C58.1792 30.8733 57.8592 31.8133 57.2192 32.52C56.5792 33.2133 55.7459 33.56 54.7192 33.56ZM63.0592 26H65.4392L55.8792 40H53.4992L63.0592 26ZM54.7192 31.92C55.1726 31.92 55.5259 31.7333 55.7792 31.36C56.0459 30.9867 56.1792 30.4333 56.1792 29.7C56.1792 28.9667 56.0459 28.4133 55.7792 28.04C55.5259 27.6667 55.1726 27.48 54.7192 27.48C54.2792 27.48 53.9259 27.6733 53.6592 28.06C53.3926 28.4333 53.2592 28.98 53.2592 29.7C53.2592 30.42 53.3926 30.9733 53.6592 31.36C53.9259 31.7333 54.2792 31.92 54.7192 31.92ZM64.2192 40.16C63.5526 40.16 62.9526 40.0067 62.4192 39.7C61.8992 39.38 61.4926 38.9267 61.1992 38.34C60.9059 37.7533 60.7592 37.0733 60.7592 36.3C60.7592 35.5267 60.9059 34.8467 61.1992 34.26C61.4926 33.6733 61.8992 33.2267 62.4192 32.92C62.9526 32.6 63.5526 32.44 64.2192 32.44C65.2459 32.44 66.0792 32.7933 66.7192 33.5C67.3726 34.1933 67.6992 35.1267 67.6992 36.3C67.6992 37.4733 67.3726 38.4133 66.7192 39.12C66.0792 39.8133 65.2459 40.16 64.2192 40.16ZM64.2192 38.52C64.6726 38.52 65.0259 38.3333 65.2792 37.96C65.5459 37.5733 65.6792 37.02 65.6792 36.3C65.6792 35.58 65.5459 35.0333 65.2792 34.66C65.0259 34.2733 64.6726 34.08 64.2192 34.08C63.7792 34.08 63.4259 34.2667 63.1592 34.64C62.8926 35.0133 62.7592 35.5667 62.7592 36.3C62.7592 37.0333 62.8926 37.5867 63.1592 37.96C63.4259 38.3333 63.7792 38.52 64.2192 38.52Z" fill="#23265D"/>
<path d="M40.14 49H42.99C43.73 49 44.3833 49.15 44.95 49.45C45.5167 49.7433 45.9567 50.1567 46.27 50.69C46.5833 51.2167 46.74 51.82 46.74 52.5C46.74 53.18 46.5833 53.7867 46.27 54.32C45.9567 54.8467 45.5167 55.26 44.95 55.56C44.3833 55.8533 43.73 56 42.99 56H40.14V49ZM42.95 55.36C43.5633 55.36 44.1 55.24 44.56 55C45.02 54.7533 45.3767 54.4167 45.63 53.99C45.8833 53.5567 46.01 53.06 46.01 52.5C46.01 51.94 45.8833 51.4467 45.63 51.02C45.3767 50.5867 45.02 50.25 44.56 50.01C44.1 49.7633 43.5633 49.64 42.95 49.64H40.88V55.36H42.95ZM52.8317 53.59H48.4317C48.4717 54.1367 48.6817 54.58 49.0617 54.92C49.4417 55.2533 49.9217 55.42 50.5017 55.42C50.8284 55.42 51.1284 55.3633 51.4017 55.25C51.6751 55.13 51.9117 54.9567 52.1117 54.73L52.5117 55.19C52.2784 55.47 51.9851 55.6833 51.6317 55.83C51.2851 55.9767 50.9017 56.05 50.4817 56.05C49.9417 56.05 49.4617 55.9367 49.0417 55.71C48.6284 55.4767 48.3051 55.1567 48.0717 54.75C47.8384 54.3433 47.7217 53.8833 47.7217 53.37C47.7217 52.8567 47.8317 52.3967 48.0517 51.99C48.2784 51.5833 48.5851 51.2667 48.9717 51.04C49.3651 50.8133 49.8051 50.7 50.2917 50.7C50.7784 50.7 51.2151 50.8133 51.6017 51.04C51.9884 51.2667 52.2917 51.5833 52.5117 51.99C52.7317 52.39 52.8417 52.85 52.8417 53.37L52.8317 53.59ZM50.2917 51.31C49.7851 51.31 49.3584 51.4733 49.0117 51.8C48.6717 52.12 48.4784 52.54 48.4317 53.06H52.1617C52.1151 52.54 51.9184 52.12 51.5717 51.8C51.2317 51.4733 50.8051 51.31 50.2917 51.31ZM58.6092 50.74L56.2692 56H55.5392L53.2092 50.74H53.9492L55.9192 55.22L57.9092 50.74H58.6092ZM64.0427 53.59H59.6427C59.6827 54.1367 59.8927 54.58 60.2727 54.92C60.6527 55.2533 61.1327 55.42 61.7127 55.42C62.0393 55.42 62.3393 55.3633 62.6127 55.25C62.886 55.13 63.1227 54.9567 63.3227 54.73L63.7227 55.19C63.4893 55.47 63.196 55.6833 62.8427 55.83C62.496 55.9767 62.1127 56.05 61.6927 56.05C61.1527 56.05 60.6727 55.9367 60.2527 55.71C59.8393 55.4767 59.516 55.1567 59.2827 54.75C59.0493 54.3433 58.9327 53.8833 58.9327 53.37C58.9327 52.8567 59.0427 52.3967 59.2627 51.99C59.4893 51.5833 59.796 51.2667 60.1827 51.04C60.576 50.8133 61.016 50.7 61.5027 50.7C61.9893 50.7 62.426 50.8133 62.8127 51.04C63.1993 51.2667 63.5027 51.5833 63.7227 51.99C63.9427 52.39 64.0527 52.85 64.0527 53.37L64.0427 53.59ZM61.5027 51.31C60.996 51.31 60.5693 51.4733 60.2227 51.8C59.8827 52.12 59.6893 52.54 59.6427 53.06H63.3727C63.326 52.54 63.1293 52.12 62.7827 51.8C62.4427 51.4733 62.016 51.31 61.5027 51.31ZM65.4978 48.58H66.2078V56H65.4978V48.58ZM70.3334 56.05C69.8267 56.05 69.37 55.9367 68.9634 55.71C68.5567 55.4767 68.2367 55.1567 68.0034 54.75C67.77 54.3433 67.6534 53.8833 67.6534 53.37C67.6534 52.8567 67.77 52.3967 68.0034 51.99C68.2367 51.5833 68.5567 51.2667 68.9634 51.04C69.37 50.8133 69.8267 50.7 70.3334 50.7C70.84 50.7 71.2967 50.8133 71.7034 51.04C72.11 51.2667 72.4267 51.5833 72.6534 51.99C72.8867 52.3967 73.0034 52.8567 73.0034 53.37C73.0034 53.8833 72.8867 54.3433 72.6534 54.75C72.4267 55.1567 72.11 55.4767 71.7034 55.71C71.2967 55.9367 70.84 56.05 70.3334 56.05ZM70.3334 55.42C70.7067 55.42 71.04 55.3367 71.3334 55.17C71.6334 54.9967 71.8667 54.7533 72.0334 54.44C72.2 54.1267 72.2834 53.77 72.2834 53.37C72.2834 52.97 72.2 52.6133 72.0334 52.3C71.8667 51.9867 71.6334 51.7467 71.3334 51.58C71.04 51.4067 70.7067 51.32 70.3334 51.32C69.96 51.32 69.6234 51.4067 69.3234 51.58C69.03 51.7467 68.7967 51.9867 68.6234 52.3C68.4567 52.6133 68.3734 52.97 68.3734 53.37C68.3734 53.77 68.4567 54.1267 68.6234 54.44C68.7967 54.7533 69.03 54.9967 69.3234 55.17C69.6234 55.3367 69.96 55.42 70.3334 55.42ZM77.1629 50.7C77.6562 50.7 78.1029 50.8133 78.5029 51.04C78.9029 51.26 79.2162 51.5733 79.4429 51.98C79.6696 52.3867 79.7829 52.85 79.7829 53.37C79.7829 53.8967 79.6696 54.3633 79.4429 54.77C79.2162 55.1767 78.9029 55.4933 78.5029 55.72C78.1096 55.94 77.6629 56.05 77.1629 56.05C76.7362 56.05 76.3496 55.9633 76.0029 55.79C75.6629 55.61 75.3829 55.35 75.1629 55.01V57.94H74.4529V50.74H75.1329V51.78C75.3462 51.4333 75.6262 51.1667 75.9729 50.98C76.3262 50.7933 76.7229 50.7 77.1629 50.7ZM77.1129 55.42C77.4796 55.42 77.8129 55.3367 78.1129 55.17C78.4129 54.9967 78.6462 54.7533 78.8129 54.44C78.9862 54.1267 79.0729 53.77 79.0729 53.37C79.0729 52.97 78.9862 52.6167 78.8129 52.31C78.6462 51.9967 78.4129 51.7533 78.1129 51.58C77.8129 51.4067 77.4796 51.32 77.1129 51.32C76.7396 51.32 76.4029 51.4067 76.1029 51.58C75.8096 51.7533 75.5762 51.9967 75.4029 52.31C75.2362 52.6167 75.1529 52.97 75.1529 53.37C75.1529 53.77 75.2362 54.1267 75.4029 54.44C75.5762 54.7533 75.8096 54.9967 76.1029 55.17C76.4029 55.3367 76.7396 55.42 77.1129 55.42ZM87.7902 50.7C88.4502 50.7 88.9669 50.89 89.3402 51.27C89.7202 51.65 89.9102 52.21 89.9102 52.95V56H89.2002V53.02C89.2002 52.4733 89.0669 52.0567 88.8002 51.77C88.5402 51.4833 88.1702 51.34 87.6902 51.34C87.1436 51.34 86.7136 51.51 86.4002 51.85C86.0869 52.1833 85.9302 52.6467 85.9302 53.24V56H85.2202V53.02C85.2202 52.4733 85.0869 52.0567 84.8202 51.77C84.5602 51.4833 84.1869 51.34 83.7002 51.34C83.1602 51.34 82.7302 51.51 82.4102 51.85C82.0969 52.1833 81.9402 52.6467 81.9402 53.24V56H81.2302V50.74H81.9102V51.7C82.0969 51.38 82.3569 51.1333 82.6902 50.96C83.0236 50.7867 83.4069 50.7 83.8402 50.7C84.2802 50.7 84.6602 50.7933 84.9802 50.98C85.3069 51.1667 85.5502 51.4433 85.7102 51.81C85.9036 51.4633 86.1802 51.1933 86.5402 51C86.9069 50.8 87.3236 50.7 87.7902 50.7ZM96.4352 53.59H92.0352C92.0752 54.1367 92.2852 54.58 92.6652 54.92C93.0452 55.2533 93.5252 55.42 94.1052 55.42C94.4319 55.42 94.7319 55.3633 95.0052 55.25C95.2786 55.13 95.5152 54.9567 95.7152 54.73L96.1152 55.19C95.8819 55.47 95.5886 55.6833 95.2352 55.83C94.8886 55.9767 94.5052 56.05 94.0852 56.05C93.5452 56.05 93.0652 55.9367 92.6452 55.71C92.2319 55.4767 91.9086 55.1567 91.6752 54.75C91.4419 54.3433 91.3252 53.8833 91.3252 53.37C91.3252 52.8567 91.4352 52.3967 91.6552 51.99C91.8819 51.5833 92.1886 51.2667 92.5752 51.04C92.9686 50.8133 93.4086 50.7 93.8952 50.7C94.3819 50.7 94.8186 50.8133 95.2052 51.04C95.5919 51.2667 95.8952 51.5833 96.1152 51.99C96.3352 52.39 96.4452 52.85 96.4452 53.37L96.4352 53.59ZM93.8952 51.31C93.3886 51.31 92.9619 51.4733 92.6152 51.8C92.2752 52.12 92.0819 52.54 92.0352 53.06H95.7652C95.7186 52.54 95.5219 52.12 95.1752 51.8C94.8352 51.4733 94.4086 51.31 93.8952 51.31ZM100.57 50.7C101.23 50.7 101.754 50.8933 102.14 51.28C102.534 51.66 102.73 52.2167 102.73 52.95V56H102.02V53.02C102.02 52.4733 101.884 52.0567 101.61 51.77C101.337 51.4833 100.947 51.34 100.44 51.34C99.8737 51.34 99.4237 51.51 99.0904 51.85C98.7637 52.1833 98.6004 52.6467 98.6004 53.24V56H97.8904V50.74H98.5704V51.71C98.7637 51.39 99.0304 51.1433 99.3704 50.97C99.7171 50.79 100.117 50.7 100.57 50.7ZM107.428 55.68C107.295 55.8 107.128 55.8933 106.928 55.96C106.735 56.02 106.531 56.05 106.318 56.05C105.825 56.05 105.445 55.9167 105.178 55.65C104.911 55.3833 104.778 55.0067 104.778 54.52V51.34H103.838V50.74H104.778V49.59H105.488V50.74H107.088V51.34H105.488V54.48C105.488 54.7933 105.565 55.0333 105.718 55.2C105.878 55.36 106.105 55.44 106.398 55.44C106.545 55.44 106.685 55.4167 106.818 55.37C106.958 55.3233 107.078 55.2567 107.178 55.17L107.428 55.68ZM41.83 62.7C42.5167 62.7 43.0433 62.8733 43.41 63.22C43.7767 63.56 43.96 64.0667 43.96 64.74V68H43.28V67.18C43.12 67.4533 42.8833 67.6667 42.57 67.82C42.2633 67.9733 41.8967 68.05 41.47 68.05C40.8833 68.05 40.4167 67.91 40.07 67.63C39.7233 67.35 39.55 66.98 39.55 66.52C39.55 66.0733 39.71 65.7133 40.03 65.44C40.3567 65.1667 40.8733 65.03 41.58 65.03H43.25V64.71C43.25 64.2567 43.1233 63.9133 42.87 63.68C42.6167 63.44 42.2467 63.32 41.76 63.32C41.4267 63.32 41.1067 63.3767 40.8 63.49C40.4933 63.5967 40.23 63.7467 40.01 63.94L39.69 63.41C39.9567 63.1833 40.2767 63.01 40.65 62.89C41.0233 62.7633 41.4167 62.7 41.83 62.7ZM41.58 67.49C41.98 67.49 42.3233 67.4 42.61 67.22C42.8967 67.0333 43.11 66.7667 43.25 66.42V65.56H41.6C40.7 65.56 40.25 65.8733 40.25 66.5C40.25 66.8067 40.3667 67.05 40.6 67.23C40.8333 67.4033 41.16 67.49 41.58 67.49ZM48.5684 62.7C49.2284 62.7 49.7518 62.8933 50.1384 63.28C50.5318 63.66 50.7284 64.2167 50.7284 64.95V68H50.0184V65.02C50.0184 64.4733 49.8818 64.0567 49.6084 63.77C49.3351 63.4833 48.9451 63.34 48.4384 63.34C47.8718 63.34 47.4218 63.51 47.0884 63.85C46.7618 64.1833 46.5984 64.6467 46.5984 65.24V68H45.8884V62.74H46.5684V63.71C46.7618 63.39 47.0284 63.1433 47.3684 62.97C47.7151 62.79 48.1151 62.7 48.5684 62.7ZM57.4755 60.58V68H56.7955V66.96C56.5822 67.3133 56.2989 67.5833 55.9455 67.77C55.5989 67.9567 55.2055 68.05 54.7655 68.05C54.2722 68.05 53.8255 67.9367 53.4255 67.71C53.0255 67.4833 52.7122 67.1667 52.4855 66.76C52.2589 66.3533 52.1455 65.89 52.1455 65.37C52.1455 64.85 52.2589 64.3867 52.4855 63.98C52.7122 63.5733 53.0255 63.26 53.4255 63.04C53.8255 62.8133 54.2722 62.7 54.7655 62.7C55.1922 62.7 55.5755 62.79 55.9155 62.97C56.2622 63.1433 56.5455 63.4 56.7655 63.74V60.58H57.4755ZM54.8255 67.42C55.1922 67.42 55.5222 67.3367 55.8155 67.17C56.1155 66.9967 56.3489 66.7533 56.5155 66.44C56.6889 66.1267 56.7755 65.77 56.7755 65.37C56.7755 64.97 56.6889 64.6133 56.5155 64.3C56.3489 63.9867 56.1155 63.7467 55.8155 63.58C55.5222 63.4067 55.1922 63.32 54.8255 63.32C54.4522 63.32 54.1155 63.4067 53.8155 63.58C53.5222 63.7467 53.2889 63.9867 53.1155 64.3C52.9489 64.6133 52.8655 64.97 52.8655 65.37C52.8655 65.77 52.9489 66.1267 53.1155 66.44C53.2889 66.7533 53.5222 66.9967 53.8155 67.17C54.1155 67.3367 54.4522 67.42 54.8255 67.42ZM45.09 79.36V80H40.14V73H44.94V73.64H40.88V76.13H44.5V76.76H40.88V79.36H45.09ZM48.7813 80.05C48.2613 80.05 47.7947 79.9367 47.3813 79.71C46.9747 79.4833 46.6547 79.1667 46.4213 78.76C46.188 78.3467 46.0713 77.8833 46.0713 77.37C46.0713 76.8567 46.188 76.3967 46.4213 75.99C46.6547 75.5833 46.9747 75.2667 47.3813 75.04C47.7947 74.8133 48.2613 74.7 48.7813 74.7C49.2347 74.7 49.638 74.79 49.9913 74.97C50.3513 75.1433 50.6347 75.4 50.8413 75.74L50.3113 76.1C50.138 75.84 49.918 75.6467 49.6513 75.52C49.3847 75.3867 49.0947 75.32 48.7813 75.32C48.4013 75.32 48.058 75.4067 47.7513 75.58C47.4513 75.7467 47.2147 75.9867 47.0413 76.3C46.8747 76.6133 46.7913 76.97 46.7913 77.37C46.7913 77.7767 46.8747 78.1367 47.0413 78.45C47.2147 78.7567 47.4513 78.9967 47.7513 79.17C48.058 79.3367 48.4013 79.42 48.7813 79.42C49.0947 79.42 49.3847 79.3567 49.6513 79.23C49.918 79.1033 50.138 78.91 50.3113 78.65L50.8413 79.01C50.6347 79.35 50.3513 79.61 49.9913 79.79C49.6313 79.9633 49.228 80.05 48.7813 80.05ZM54.2982 80.05C53.7915 80.05 53.3349 79.9367 52.9282 79.71C52.5215 79.4767 52.2015 79.1567 51.9682 78.75C51.7349 78.3433 51.6182 77.8833 51.6182 77.37C51.6182 76.8567 51.7349 76.3967 51.9682 75.99C52.2015 75.5833 52.5215 75.2667 52.9282 75.04C53.3349 74.8133 53.7915 74.7 54.2982 74.7C54.8049 74.7 55.2615 74.8133 55.6682 75.04C56.0749 75.2667 56.3915 75.5833 56.6182 75.99C56.8515 76.3967 56.9682 76.8567 56.9682 77.37C56.9682 77.8833 56.8515 78.3433 56.6182 78.75C56.3915 79.1567 56.0749 79.4767 55.6682 79.71C55.2615 79.9367 54.8049 80.05 54.2982 80.05ZM54.2982 79.42C54.6715 79.42 55.0049 79.3367 55.2982 79.17C55.5982 78.9967 55.8315 78.7533 55.9982 78.44C56.1649 78.1267 56.2482 77.77 56.2482 77.37C56.2482 76.97 56.1649 76.6133 55.9982 76.3C55.8315 75.9867 55.5982 75.7467 55.2982 75.58C55.0049 75.4067 54.6715 75.32 54.2982 75.32C53.9249 75.32 53.5882 75.4067 53.2882 75.58C52.9949 75.7467 52.7615 75.9867 52.5882 76.3C52.4215 76.6133 52.3382 76.97 52.3382 77.37C52.3382 77.77 52.4215 78.1267 52.5882 78.44C52.7615 78.7533 52.9949 78.9967 53.2882 79.17C53.5882 79.3367 53.9249 79.42 54.2982 79.42ZM59.8277 80.05C59.4011 80.05 58.9911 79.99 58.5977 79.87C58.2111 79.7433 57.9077 79.5867 57.6877 79.4L58.0077 78.84C58.2277 79.0133 58.5044 79.1567 58.8377 79.27C59.1711 79.3767 59.5177 79.43 59.8777 79.43C60.3577 79.43 60.7111 79.3567 60.9377 79.21C61.1711 79.0567 61.2877 78.8433 61.2877 78.57C61.2877 78.3767 61.2244 78.2267 61.0977 78.12C60.9711 78.0067 60.8111 77.9233 60.6177 77.87C60.4244 77.81 60.1677 77.7533 59.8477 77.7C59.4211 77.62 59.0777 77.54 58.8177 77.46C58.5577 77.3733 58.3344 77.23 58.1477 77.03C57.9677 76.83 57.8777 76.5533 57.8777 76.2C57.8777 75.76 58.0611 75.4 58.4277 75.12C58.7944 74.84 59.3044 74.7 59.9577 74.7C60.2977 74.7 60.6377 74.7467 60.9777 74.84C61.3177 74.9267 61.5977 75.0433 61.8177 75.19L61.5077 75.76C61.0744 75.46 60.5577 75.31 59.9577 75.31C59.5044 75.31 59.1611 75.39 58.9277 75.55C58.7011 75.71 58.5877 75.92 58.5877 76.18C58.5877 76.38 58.6511 76.54 58.7777 76.66C58.9111 76.78 59.0744 76.87 59.2677 76.93C59.4611 76.9833 59.7277 77.04 60.0677 77.1C60.4877 77.18 60.8244 77.26 61.0777 77.34C61.3311 77.42 61.5477 77.5567 61.7277 77.75C61.9077 77.9433 61.9977 78.21 61.9977 78.55C61.9977 79.01 61.8044 79.3767 61.4177 79.65C61.0377 79.9167 60.5077 80.05 59.8277 80.05ZM67.6327 74.74L65.0027 80.63C64.7893 81.1233 64.5427 81.4733 64.2627 81.68C63.9827 81.8867 63.646 81.99 63.2527 81.99C62.9993 81.99 62.7627 81.95 62.5427 81.87C62.3227 81.79 62.1327 81.67 61.9727 81.51L62.3027 80.98C62.5693 81.2467 62.8893 81.38 63.2627 81.38C63.5027 81.38 63.706 81.3133 63.8727 81.18C64.046 81.0467 64.206 80.82 64.3527 80.5L64.5827 79.99L62.2327 74.74H62.9727L64.9527 79.21L66.9327 74.74H67.6327ZM69.984 80.05C69.5573 80.05 69.1473 79.99 68.754 79.87C68.3673 79.7433 68.064 79.5867 67.844 79.4L68.164 78.84C68.384 79.0133 68.6607 79.1567 68.994 79.27C69.3273 79.3767 69.674 79.43 70.034 79.43C70.514 79.43 70.8673 79.3567 71.094 79.21C71.3273 79.0567 71.444 78.8433 71.444 78.57C71.444 78.3767 71.3807 78.2267 71.254 78.12C71.1273 78.0067 70.9673 77.9233 70.774 77.87C70.5807 77.81 70.324 77.7533 70.004 77.7C69.5773 77.62 69.234 77.54 68.974 77.46C68.714 77.3733 68.4907 77.23 68.304 77.03C68.124 76.83 68.034 76.5533 68.034 76.2C68.034 75.76 68.2173 75.4 68.584 75.12C68.9507 74.84 69.4607 74.7 70.114 74.7C70.454 74.7 70.794 74.7467 71.134 74.84C71.474 74.9267 71.754 75.0433 71.974 75.19L71.664 75.76C71.2307 75.46 70.714 75.31 70.114 75.31C69.6607 75.31 69.3173 75.39 69.084 75.55C68.8573 75.71 68.744 75.92 68.744 76.18C68.744 76.38 68.8073 76.54 68.934 76.66C69.0673 76.78 69.2307 76.87 69.424 76.93C69.6173 76.9833 69.884 77.04 70.224 77.1C70.644 77.18 70.9807 77.26 71.234 77.34C71.4873 77.42 71.704 77.5567 71.884 77.75C72.064 77.9433 72.154 78.21 72.154 78.55C72.154 79.01 71.9607 79.3767 71.574 79.65C71.194 79.9167 70.664 80.05 69.984 80.05ZM76.2366 79.68C76.1032 79.8 75.9366 79.8933 75.7366 79.96C75.5432 80.02 75.3399 80.05 75.1266 80.05C74.6332 80.05 74.2532 79.9167 73.9866 79.65C73.7199 79.3833 73.5866 79.0067 73.5866 78.52V75.34H72.6466V74.74H73.5866V73.59H74.2966V74.74H75.8966V75.34H74.2966V78.48C74.2966 78.7933 74.3732 79.0333 74.5266 79.2C74.6866 79.36 74.9132 79.44 75.2066 79.44C75.3532 79.44 75.4932 79.4167 75.6266 79.37C75.7666 79.3233 75.8866 79.2567 75.9866 79.17L76.2366 79.68ZM81.9235 77.59H77.5235C77.5635 78.1367 77.7735 78.58 78.1535 78.92C78.5335 79.2533 79.0135 79.42 79.5935 79.42C79.9202 79.42 80.2202 79.3633 80.4935 79.25C80.7668 79.13 81.0035 78.9567 81.2035 78.73L81.6035 79.19C81.3702 79.47 81.0768 79.6833 80.7235 79.83C80.3768 79.9767 79.9935 80.05 79.5735 80.05C79.0335 80.05 78.5535 79.9367 78.1335 79.71C77.7202 79.4767 77.3968 79.1567 77.1635 78.75C76.9302 78.3433 76.8135 77.8833 76.8135 77.37C76.8135 76.8567 76.9235 76.3967 77.1435 75.99C77.3702 75.5833 77.6768 75.2667 78.0635 75.04C78.4568 74.8133 78.8968 74.7 79.3835 74.7C79.8702 74.7 80.3068 74.8133 80.6935 75.04C81.0802 75.2667 81.3835 75.5833 81.6035 75.99C81.8235 76.39 81.9335 76.85 81.9335 77.37L81.9235 77.59ZM79.3835 75.31C78.8768 75.31 78.4502 75.4733 78.1035 75.8C77.7635 76.12 77.5702 76.54 77.5235 77.06H81.2535C81.2068 76.54 81.0102 76.12 80.6635 75.8C80.3235 75.4733 79.8968 75.31 79.3835 75.31ZM89.9387 74.7C90.5987 74.7 91.1153 74.89 91.4887 75.27C91.8687 75.65 92.0587 76.21 92.0587 76.95V80H91.3487V77.02C91.3487 76.4733 91.2153 76.0567 90.9487 75.77C90.6887 75.4833 90.3187 75.34 89.8387 75.34C89.292 75.34 88.862 75.51 88.5487 75.85C88.2353 76.1833 88.0787 76.6467 88.0787 77.24V80H87.3687V77.02C87.3687 76.4733 87.2353 76.0567 86.9687 75.77C86.7087 75.4833 86.3353 75.34 85.8487 75.34C85.3087 75.34 84.8787 75.51 84.5587 75.85C84.2453 76.1833 84.0887 76.6467 84.0887 77.24V80H83.3787V74.74H84.0587V75.7C84.2453 75.38 84.5053 75.1333 84.8387 74.96C85.172 74.7867 85.5553 74.7 85.9887 74.7C86.4287 74.7 86.8087 74.7933 87.1287 74.98C87.4553 75.1667 87.6987 75.4433 87.8587 75.81C88.052 75.4633 88.3287 75.1933 88.6887 75C89.0553 74.8 89.472 74.7 89.9387 74.7ZM98.3413 73.13C98.0347 73.13 97.8013 73.2133 97.6413 73.38C97.488 73.5467 97.4113 73.7933 97.4113 74.12V74.74H99.0313V75.34H97.4313V80H96.7213V75.34H95.7813V74.74H96.7213V74.09C96.7213 73.61 96.858 73.23 97.1313 72.95C97.4113 72.67 97.8047 72.53 98.3113 72.53C98.5113 72.53 98.7047 72.56 98.8913 72.62C99.078 72.6733 99.2347 72.7533 99.3613 72.86L99.1213 73.39C98.9147 73.2167 98.6547 73.13 98.3413 73.13ZM104.73 74.74V80H104.05V79.04C103.863 79.36 103.607 79.61 103.28 79.79C102.953 79.9633 102.58 80.05 102.16 80.05C101.473 80.05 100.93 79.86 100.53 79.48C100.137 79.0933 99.94 78.53 99.94 77.79V74.74H100.65V77.72C100.65 78.2733 100.787 78.6933 101.06 78.98C101.333 79.2667 101.723 79.41 102.23 79.41C102.783 79.41 103.22 79.2433 103.54 78.91C103.86 78.57 104.02 78.1 104.02 77.5V74.74H104.73ZM109.399 74.7C110.059 74.7 110.582 74.8933 110.969 75.28C111.362 75.66 111.559 76.2167 111.559 76.95V80H110.849V77.02C110.849 76.4733 110.712 76.0567 110.439 75.77C110.165 75.4833 109.775 75.34 109.269 75.34C108.702 75.34 108.252 75.51 107.919 75.85C107.592 76.1833 107.429 76.6467 107.429 77.24V80H106.719V74.74H107.399V75.71C107.592 75.39 107.859 75.1433 108.199 74.97C108.545 74.79 108.945 74.7 109.399 74.7ZM118.306 72.58V80H117.626V78.96C117.412 79.3133 117.129 79.5833 116.776 79.77C116.429 79.9567 116.036 80.05 115.596 80.05C115.102 80.05 114.656 79.9367 114.256 79.71C113.856 79.4833 113.542 79.1667 113.316 78.76C113.089 78.3533 112.976 77.89 112.976 77.37C112.976 76.85 113.089 76.3867 113.316 75.98C113.542 75.5733 113.856 75.26 114.256 75.04C114.656 74.8133 115.102 74.7 115.596 74.7C116.022 74.7 116.406 74.79 116.746 74.97C117.092 75.1433 117.376 75.4 117.596 75.74V72.58H118.306ZM115.656 79.42C116.022 79.42 116.352 79.3367 116.646 79.17C116.946 78.9967 117.179 78.7533 117.346 78.44C117.519 78.1267 117.606 77.77 117.606 77.37C117.606 76.97 117.519 76.6133 117.346 76.3C117.179 75.9867 116.946 75.7467 116.646 75.58C116.352 75.4067 116.022 75.32 115.656 75.32C115.282 75.32 114.946 75.4067 114.646 75.58C114.352 75.7467 114.119 75.9867 113.946 76.3C113.779 76.6133 113.696 76.97 113.696 77.37C113.696 77.77 113.779 78.1267 113.946 78.44C114.119 78.7533 114.352 78.9967 114.646 79.17C114.946 79.3367 115.282 79.42 115.656 79.42Z" fill="#23265D"/>
<path d="M9 111L71 111L98 150.5" stroke="#88F1E7" stroke-linecap="round" stroke-linejoin="round"/>
<circle cx="99" cy="152" r="1.5" stroke="#88F1E7"/>
<path d="M15.52 97.22C16.4133 97.22 17.2267 97.4 17.96 97.76C18.6933 98.12 19.2733 98.6333 19.7 99.3C20.1267 99.9533 20.34 100.713 20.34 101.58C20.34 102.513 20.1067 103.333 19.64 104.04C19.1733 104.747 18.5333 105.293 17.72 105.68C16.92 106.053 16.0267 106.24 15.04 106.24C13.08 106.24 11.5467 105.64 10.44 104.44C9.33333 103.24 8.78 101.527 8.78 99.3C8.78 97.7133 9.08 96.3533 9.68 95.22C10.28 94.0867 11.1133 93.2267 12.18 92.64C13.26 92.0533 14.5067 91.76 15.92 91.76C16.6667 91.76 17.38 91.8467 18.06 92.02C18.7533 92.18 19.34 92.4133 19.82 92.72L18.62 95.1C17.9267 94.6333 17.0533 94.4 16 94.4C14.8133 94.4 13.8733 94.7467 13.18 95.44C12.4867 96.1333 12.1133 97.14 12.06 98.46C12.8867 97.6333 14.04 97.22 15.52 97.22ZM14.86 103.82C15.5533 103.82 16.1133 103.633 16.54 103.26C16.98 102.887 17.2 102.38 17.2 101.74C17.2 101.1 16.98 100.593 16.54 100.22C16.1133 99.8333 15.54 99.64 14.82 99.64C14.1133 99.64 13.5333 99.84 13.08 100.24C12.6267 100.627 12.4 101.127 12.4 101.74C12.4 102.353 12.62 102.853 13.06 103.24C13.5 103.627 14.1 103.82 14.86 103.82ZM26.3144 97.26C28.2877 97.26 29.741 97.6533 30.6744 98.44C31.621 99.2267 32.0944 100.28 32.0944 101.6C32.0944 102.453 31.881 103.233 31.4544 103.94C31.0277 104.633 30.3744 105.193 29.4944 105.62C28.6277 106.033 27.5544 106.24 26.2744 106.24C25.2877 106.24 24.3144 106.113 23.3544 105.86C22.4077 105.593 21.601 105.22 20.9344 104.74L22.2144 102.26C22.7477 102.66 23.361 102.973 24.0544 103.2C24.7477 103.413 25.461 103.52 26.1944 103.52C27.0077 103.52 27.6477 103.36 28.1144 103.04C28.581 102.72 28.8144 102.273 28.8144 101.7C28.8144 101.1 28.5677 100.647 28.0744 100.34C27.5944 100.033 26.7544 99.88 25.5544 99.88H21.9744L22.6944 92H31.2344V94.6H25.3944L25.1744 97.26H26.3144ZM36.4536 99.56C35.4269 99.56 34.5869 99.2133 33.9336 98.52C33.2936 97.8133 32.9736 96.8733 32.9736 95.7C32.9736 94.5267 33.2936 93.5933 33.9336 92.9C34.5869 92.1933 35.4269 91.84 36.4536 91.84C37.4803 91.84 38.3136 92.1933 38.9536 92.9C39.5936 93.5933 39.9136 94.5267 39.9136 95.7C39.9136 96.8733 39.5936 97.8133 38.9536 98.52C38.3136 99.2133 37.4803 99.56 36.4536 99.56ZM44.7936 92H47.1736L37.6136 106H35.2336L44.7936 92ZM36.4536 97.92C36.9069 97.92 37.2603 97.7333 37.5136 97.36C37.7803 96.9867 37.9136 96.4333 37.9136 95.7C37.9136 94.9667 37.7803 94.4133 37.5136 94.04C37.2603 93.6667 36.9069 93.48 36.4536 93.48C36.0136 93.48 35.6603 93.6733 35.3936 94.06C35.1269 94.4333 34.9936 94.98 34.9936 95.7C34.9936 96.42 35.1269 96.9733 35.3936 97.36C35.6603 97.7333 36.0136 97.92 36.4536 97.92ZM45.9536 106.16C45.2869 106.16 44.6869 106.007 44.1536 105.7C43.6336 105.38 43.2269 104.927 42.9336 104.34C42.6403 103.753 42.4936 103.073 42.4936 102.3C42.4936 101.527 42.6403 100.847 42.9336 100.26C43.2269 99.6733 43.6336 99.2267 44.1536 98.92C44.6869 98.6 45.2869 98.44 45.9536 98.44C46.9803 98.44 47.8136 98.7933 48.4536 99.5C49.1069 100.193 49.4336 101.127 49.4336 102.3C49.4336 103.473 49.1069 104.413 48.4536 105.12C47.8136 105.813 46.9803 106.16 45.9536 106.16ZM45.9536 104.52C46.4069 104.52 46.7603 104.333 47.0136 103.96C47.2803 103.573 47.4136 103.02 47.4136 102.3C47.4136 101.58 47.2803 101.033 47.0136 100.66C46.7603 100.273 46.4069 100.08 45.9536 100.08C45.5136 100.08 45.1603 100.267 44.8936 100.64C44.6269 101.013 44.4936 101.567 44.4936 102.3C44.4936 103.033 44.6269 103.587 44.8936 103.96C45.1603 104.333 45.5136 104.52 45.9536 104.52Z" fill="#23265D"/>
<path d="M11.76 115C12.6533 115 13.3533 115.213 13.86 115.64C14.3667 116.067 14.62 116.653 14.62 117.4C14.62 118.147 14.3667 118.733 13.86 119.16C13.3533 119.58 12.6533 119.79 11.76 119.79H9.88V122H9.14V115H11.76ZM11.74 119.14C12.4333 119.14 12.9633 118.99 13.33 118.69C13.6967 118.383 13.88 117.953 13.88 117.4C13.88 116.833 13.6967 116.4 13.33 116.1C12.9633 115.793 12.4333 115.64 11.74 115.64H9.88V119.14H11.74ZM20.9077 116.74V122H20.2277V121.04C20.0411 121.36 19.7844 121.61 19.4577 121.79C19.1311 121.963 18.7577 122.05 18.3377 122.05C17.6511 122.05 17.1077 121.86 16.7077 121.48C16.3144 121.093 16.1177 120.53 16.1177 119.79V116.74H16.8277V119.72C16.8277 120.273 16.9644 120.693 17.2377 120.98C17.5111 121.267 17.9011 121.41 18.4077 121.41C18.9611 121.41 19.3977 121.243 19.7177 120.91C20.0377 120.57 20.1977 120.1 20.1977 119.5V116.74H20.9077ZM25.6063 116.7C26.0996 116.7 26.5463 116.813 26.9463 117.04C27.3463 117.26 27.6596 117.573 27.8863 117.98C28.1129 118.387 28.2263 118.85 28.2263 119.37C28.2263 119.89 28.1129 120.353 27.8863 120.76C27.6596 121.167 27.3463 121.483 26.9463 121.71C26.5463 121.937 26.0996 122.05 25.6063 122.05C25.1663 122.05 24.7696 121.957 24.4163 121.77C24.0696 121.583 23.7896 121.313 23.5763 120.96V122H22.8963V114.58H23.6063V117.74C23.8263 117.4 24.1063 117.143 24.4463 116.97C24.7929 116.79 25.1796 116.7 25.6063 116.7ZM25.5563 121.42C25.9229 121.42 26.2563 121.337 26.5563 121.17C26.8563 120.997 27.0896 120.753 27.2563 120.44C27.4296 120.127 27.5163 119.77 27.5163 119.37C27.5163 118.97 27.4296 118.613 27.2563 118.3C27.0896 117.987 26.8563 117.747 26.5563 117.58C26.2563 117.407 25.9229 117.32 25.5563 117.32C25.1829 117.32 24.8463 117.407 24.5462 117.58C24.2529 117.747 24.0196 117.987 23.8463 118.3C23.6796 118.613 23.5963 118.97 23.5963 119.37C23.5963 119.77 23.6796 120.127 23.8463 120.44C24.0196 120.753 24.2529 120.997 24.5462 121.17C24.8463 121.337 25.1829 121.42 25.5563 121.42ZM29.6736 114.58H30.3836V122H29.6736V114.58ZM32.3591 116.74H33.0691V122H32.3591V116.74ZM32.7191 115.59C32.5725 115.59 32.4491 115.54 32.3491 115.44C32.2491 115.34 32.1991 115.22 32.1991 115.08C32.1991 114.947 32.2491 114.83 32.3491 114.73C32.4491 114.63 32.5725 114.58 32.7191 114.58C32.8658 114.58 32.9891 114.63 33.0891 114.73C33.1891 114.823 33.2391 114.937 33.2391 115.07C33.2391 115.217 33.1891 115.34 33.0891 115.44C32.9891 115.54 32.8658 115.59 32.7191 115.59ZM37.2247 122.05C36.7047 122.05 36.238 121.937 35.8247 121.71C35.418 121.483 35.098 121.167 34.8647 120.76C34.6314 120.347 34.5147 119.883 34.5147 119.37C34.5147 118.857 34.6314 118.397 34.8647 117.99C35.098 117.583 35.418 117.267 35.8247 117.04C36.238 116.813 36.7047 116.7 37.2247 116.7C37.678 116.7 38.0814 116.79 38.4347 116.97C38.7947 117.143 39.078 117.4 39.2847 117.74L38.7547 118.1C38.5814 117.84 38.3614 117.647 38.0947 117.52C37.828 117.387 37.538 117.32 37.2247 117.32C36.8447 117.32 36.5014 117.407 36.1947 117.58C35.8947 117.747 35.658 117.987 35.4847 118.3C35.318 118.613 35.2347 118.97 35.2347 119.37C35.2347 119.777 35.318 120.137 35.4847 120.45C35.658 120.757 35.8947 120.997 36.1947 121.17C36.5014 121.337 36.8447 121.42 37.2247 121.42C37.538 121.42 37.828 121.357 38.0947 121.23C38.3614 121.103 38.5814 120.91 38.7547 120.65L39.2847 121.01C39.078 121.35 38.7947 121.61 38.4347 121.79C38.0747 121.963 37.6714 122.05 37.2247 122.05ZM11.07 134.06C10.55 134.06 10.05 133.977 9.57 133.81C9.09667 133.643 8.73 133.423 8.47 133.15L8.76 132.58C9.01333 132.833 9.35 133.04 9.77 133.2C10.19 133.353 10.6233 133.43 11.07 133.43C11.6967 133.43 12.1667 133.317 12.48 133.09C12.7933 132.857 12.95 132.557 12.95 132.19C12.95 131.91 12.8633 131.687 12.69 131.52C12.5233 131.353 12.3167 131.227 12.07 131.14C11.8233 131.047 11.48 130.947 11.04 130.84C10.5133 130.707 10.0933 130.58 9.78 130.46C9.46667 130.333 9.19667 130.143 8.97 129.89C8.75 129.637 8.64 129.293 8.64 128.86C8.64 128.507 8.73333 128.187 8.92 127.9C9.10667 127.607 9.39333 127.373 9.78 127.2C10.1667 127.027 10.6467 126.94 11.22 126.94C11.62 126.94 12.01 126.997 12.39 127.11C12.7767 127.217 13.11 127.367 13.39 127.56L13.14 128.15C12.8467 127.957 12.5333 127.813 12.2 127.72C11.8667 127.62 11.54 127.57 11.22 127.57C10.6067 127.57 10.1433 127.69 9.83 127.93C9.52333 128.163 9.37 128.467 9.37 128.84C9.37 129.12 9.45333 129.347 9.62 129.52C9.79333 129.687 10.0067 129.817 10.26 129.91C10.52 129.997 10.8667 130.093 11.3 130.2C11.8133 130.327 12.2267 130.453 12.54 130.58C12.86 130.7 13.13 130.887 13.35 131.14C13.57 131.387 13.68 131.723 13.68 132.15C13.68 132.503 13.5833 132.827 13.39 133.12C13.2033 133.407 12.9133 133.637 12.52 133.81C12.1267 133.977 11.6433 134.06 11.07 134.06ZM16.9823 128.7C17.669 128.7 18.1957 128.873 18.5623 129.22C18.929 129.56 19.1123 130.067 19.1123 130.74V134H18.4323V133.18C18.2723 133.453 18.0357 133.667 17.7223 133.82C17.4157 133.973 17.049 134.05 16.6223 134.05C16.0357 134.05 15.569 133.91 15.2223 133.63C14.8757 133.35 14.7023 132.98 14.7023 132.52C14.7023 132.073 14.8623 131.713 15.1823 131.44C15.509 131.167 16.0257 131.03 16.7323 131.03H18.4023V130.71C18.4023 130.257 18.2757 129.913 18.0223 129.68C17.769 129.44 17.399 129.32 16.9123 129.32C16.579 129.32 16.259 129.377 15.9523 129.49C15.6457 129.597 15.3823 129.747 15.1623 129.94L14.8423 129.41C15.109 129.183 15.429 129.01 15.8023 128.89C16.1757 128.763 16.569 128.7 16.9823 128.7ZM16.7323 133.49C17.1323 133.49 17.4757 133.4 17.7623 133.22C18.049 133.033 18.2623 132.767 18.4023 132.42V131.56H16.7523C15.8523 131.56 15.4023 131.873 15.4023 132.5C15.4023 132.807 15.519 133.05 15.7523 133.23C15.9857 133.403 16.3123 133.49 16.7323 133.49ZM21.0408 126.58H21.7508V134H21.0408V126.58ZM28.3063 131.59H23.9063C23.9463 132.137 24.1563 132.58 24.5363 132.92C24.9163 133.253 25.3963 133.42 25.9763 133.42C26.303 133.42 26.603 133.363 26.8763 133.25C27.1497 133.13 27.3863 132.957 27.5863 132.73L27.9863 133.19C27.753 133.47 27.4597 133.683 27.1063 133.83C26.7597 133.977 26.3763 134.05 25.9563 134.05C25.4163 134.05 24.9363 133.937 24.5163 133.71C24.103 133.477 23.7797 133.157 23.5463 132.75C23.313 132.343 23.1963 131.883 23.1963 131.37C23.1963 130.857 23.3063 130.397 23.5263 129.99C23.753 129.583 24.0597 129.267 24.4463 129.04C24.8397 128.813 25.2797 128.7 25.7663 128.7C26.253 128.7 26.6897 128.813 27.0763 129.04C27.463 129.267 27.7663 129.583 27.9863 129.99C28.2063 130.39 28.3163 130.85 28.3163 131.37L28.3063 131.59ZM25.7663 129.31C25.2597 129.31 24.833 129.473 24.4863 129.8C24.1463 130.12 23.953 130.54 23.9063 131.06H27.6363C27.5897 130.54 27.393 130.12 27.0463 129.8C26.7063 129.473 26.2797 129.31 25.7663 129.31Z" fill="#23265D"/>
<path d="M294.5 43H207.5L202 84" stroke="#88F1E7" stroke-linecap="round" stroke-linejoin="round"/>
<circle cx="202" cy="85.5" r="1.5" stroke="#88F1E7"/>
<path d="M270.342 29.26C272.315 29.26 273.768 29.6533 274.702 30.44C275.648 31.2267 276.122 32.28 276.122 33.6C276.122 34.4533 275.908 35.2333 275.482 35.94C275.055 36.6333 274.402 37.1933 273.522 37.62C272.655 38.0333 271.582 38.24 270.302 38.24C269.315 38.24 268.342 38.1133 267.382 37.86C266.435 37.5933 265.628 37.22 264.962 36.74L266.242 34.26C266.775 34.66 267.388 34.9733 268.082 35.2C268.775 35.4133 269.488 35.52 270.222 35.52C271.035 35.52 271.675 35.36 272.142 35.04C272.608 34.72 272.842 34.2733 272.842 33.7C272.842 33.1 272.595 32.6467 272.102 32.34C271.622 32.0333 270.782 31.88 269.582 31.88H266.002L266.722 24H275.262V26.6H269.422L269.202 29.26H270.342ZM280.481 31.56C279.454 31.56 278.614 31.2133 277.961 30.52C277.321 29.8133 277.001 28.8733 277.001 27.7C277.001 26.5267 277.321 25.5933 277.961 24.9C278.614 24.1933 279.454 23.84 280.481 23.84C281.508 23.84 282.341 24.1933 282.981 24.9C283.621 25.5933 283.941 26.5267 283.941 27.7C283.941 28.8733 283.621 29.8133 282.981 30.52C282.341 31.2133 281.508 31.56 280.481 31.56ZM288.821 24H291.201L281.641 38H279.261L288.821 24ZM280.481 29.92C280.934 29.92 281.288 29.7333 281.541 29.36C281.808 28.9867 281.941 28.4333 281.941 27.7C281.941 26.9667 281.808 26.4133 281.541 26.04C281.288 25.6667 280.934 25.48 280.481 25.48C280.041 25.48 279.688 25.6733 279.421 26.06C279.154 26.4333 279.021 26.98 279.021 27.7C279.021 28.42 279.154 28.9733 279.421 29.36C279.688 29.7333 280.041 29.92 280.481 29.92ZM289.981 38.16C289.314 38.16 288.714 38.0067 288.181 37.7C287.661 37.38 287.254 36.9267 286.961 36.34C286.668 35.7533 286.521 35.0733 286.521 34.3C286.521 33.5267 286.668 32.8467 286.961 32.26C287.254 31.6733 287.661 31.2267 288.181 30.92C288.714 30.6 289.314 30.44 289.981 30.44C291.008 30.44 291.841 30.7933 292.481 31.5C293.134 32.1933 293.461 33.1267 293.461 34.3C293.461 35.4733 293.134 36.4133 292.481 37.12C291.841 37.8133 291.008 38.16 289.981 38.16ZM289.981 36.52C290.434 36.52 290.788 36.3333 291.041 35.96C291.308 35.5733 291.441 35.02 291.441 34.3C291.441 33.58 291.308 33.0333 291.041 32.66C290.788 32.2733 290.434 32.08 289.981 32.08C289.541 32.08 289.188 32.2667 288.921 32.64C288.654 33.0133 288.521 33.5667 288.521 34.3C288.521 35.0333 288.654 35.5867 288.921 35.96C289.188 36.3333 289.541 36.52 289.981 36.52Z" fill="#23265D"/>
<path d="M223.901 47.64V50.39H227.521V51.03H223.901V54H223.161V47H227.961V47.64H223.901ZM233.904 48.74V54H233.224V53.04C233.037 53.36 232.78 53.61 232.454 53.79C232.127 53.9633 231.754 54.05 231.334 54.05C230.647 54.05 230.104 53.86 229.704 53.48C229.31 53.0933 229.114 52.53 229.114 51.79V48.74H229.824V51.72C229.824 52.2733 229.96 52.6933 230.234 52.98C230.507 53.2667 230.897 53.41 231.404 53.41C231.957 53.41 232.394 53.2433 232.714 52.91C233.034 52.57 233.194 52.1 233.194 51.5V48.74H233.904ZM238.572 48.7C239.232 48.7 239.756 48.8933 240.142 49.28C240.536 49.66 240.732 50.2167 240.732 50.95V54H240.022V51.02C240.022 50.4733 239.886 50.0567 239.612 49.77C239.339 49.4833 238.949 49.34 238.442 49.34C237.876 49.34 237.426 49.51 237.092 49.85C236.766 50.1833 236.602 50.6467 236.602 51.24V54H235.892V48.74H236.572V49.71C236.766 49.39 237.032 49.1433 237.372 48.97C237.719 48.79 238.119 48.7 238.572 48.7ZM247.479 46.58V54H246.799V52.96C246.586 53.3133 246.303 53.5833 245.949 53.77C245.603 53.9567 245.209 54.05 244.769 54.05C244.276 54.05 243.829 53.9367 243.429 53.71C243.029 53.4833 242.716 53.1667 242.489 52.76C242.263 52.3533 242.149 51.89 242.149 51.37C242.149 50.85 242.263 50.3867 242.489 49.98C242.716 49.5733 243.029 49.26 243.429 49.04C243.829 48.8133 244.276 48.7 244.769 48.7C245.196 48.7 245.579 48.79 245.919 48.97C246.266 49.1433 246.549 49.4 246.769 49.74V46.58H247.479ZM244.829 53.42C245.196 53.42 245.526 53.3367 245.819 53.17C246.119 52.9967 246.353 52.7533 246.519 52.44C246.693 52.1267 246.779 51.77 246.779 51.37C246.779 50.97 246.693 50.6133 246.519 50.3C246.353 49.9867 246.119 49.7467 245.819 49.58C245.526 49.4067 245.196 49.32 244.829 49.32C244.456 49.32 244.119 49.4067 243.819 49.58C243.526 49.7467 243.293 49.9867 243.119 50.3C242.953 50.6133 242.869 50.97 242.869 51.37C242.869 51.77 242.953 52.1267 243.119 52.44C243.293 52.7533 243.526 52.9967 243.819 53.17C244.119 53.3367 244.456 53.42 244.829 53.42ZM249.457 48.74H250.167V54H249.457V48.74ZM249.817 47.59C249.67 47.59 249.547 47.54 249.447 47.44C249.347 47.34 249.297 47.22 249.297 47.08C249.297 46.9467 249.347 46.83 249.447 46.73C249.547 46.63 249.67 46.58 249.817 46.58C249.963 46.58 250.087 46.63 250.187 46.73C250.287 46.8233 250.337 46.9367 250.337 47.07C250.337 47.2167 250.287 47.34 250.187 47.44C250.087 47.54 249.963 47.59 249.817 47.59ZM254.822 48.7C255.482 48.7 256.006 48.8933 256.392 49.28C256.786 49.66 256.982 50.2167 256.982 50.95V54H256.272V51.02C256.272 50.4733 256.136 50.0567 255.862 49.77C255.589 49.4833 255.199 49.34 254.692 49.34C254.126 49.34 253.676 49.51 253.342 49.85C253.016 50.1833 252.852 50.6467 252.852 51.24V54H252.142V48.74H252.822V49.71C253.016 49.39 253.282 49.1433 253.622 48.97C253.969 48.79 254.369 48.7 254.822 48.7ZM263.799 48.74V53.36C263.799 54.2533 263.579 54.9133 263.139 55.34C262.706 55.7733 262.049 55.99 261.169 55.99C260.683 55.99 260.219 55.9167 259.779 55.77C259.346 55.63 258.993 55.4333 258.719 55.18L259.079 54.64C259.333 54.8667 259.639 55.0433 259.999 55.17C260.366 55.2967 260.749 55.36 261.149 55.36C261.816 55.36 262.306 55.2033 262.619 54.89C262.933 54.5833 263.089 54.1033 263.089 53.45V52.78C262.869 53.1133 262.579 53.3667 262.219 53.54C261.866 53.7133 261.473 53.8 261.039 53.8C260.546 53.8 260.096 53.6933 259.689 53.48C259.289 53.26 258.973 52.9567 258.739 52.57C258.513 52.1767 258.399 51.7333 258.399 51.24C258.399 50.7467 258.513 50.3067 258.739 49.92C258.973 49.5333 259.289 49.2333 259.689 49.02C260.089 48.8067 260.539 48.7 261.039 48.7C261.486 48.7 261.889 48.79 262.249 48.97C262.609 49.15 262.899 49.41 263.119 49.75V48.74H263.799ZM261.109 53.17C261.489 53.17 261.833 53.09 262.139 52.93C262.446 52.7633 262.683 52.5333 262.849 52.24C263.023 51.9467 263.109 51.6133 263.109 51.24C263.109 50.8667 263.023 50.5367 262.849 50.25C262.683 49.9567 262.446 49.73 262.139 49.57C261.839 49.4033 261.496 49.32 261.109 49.32C260.729 49.32 260.386 49.4 260.079 49.56C259.779 49.72 259.543 49.9467 259.369 50.24C259.203 50.5333 259.119 50.8667 259.119 51.24C259.119 51.6133 259.203 51.9467 259.369 52.24C259.543 52.5333 259.779 52.7633 260.079 52.93C260.386 53.09 260.729 53.17 261.109 53.17ZM269.912 47.64H267.452V47H273.112V47.64H270.652V54H269.912V47.64ZM278.177 51.59H273.777C273.817 52.1367 274.027 52.58 274.407 52.92C274.787 53.2533 275.267 53.42 275.847 53.42C276.174 53.42 276.474 53.3633 276.747 53.25C277.021 53.13 277.257 52.9567 277.457 52.73L277.857 53.19C277.624 53.47 277.331 53.6833 276.977 53.83C276.631 53.9767 276.247 54.05 275.827 54.05C275.287 54.05 274.807 53.9367 274.387 53.71C273.974 53.4767 273.651 53.1567 273.417 52.75C273.184 52.3433 273.067 51.8833 273.067 51.37C273.067 50.8567 273.177 50.3967 273.397 49.99C273.624 49.5833 273.931 49.2667 274.317 49.04C274.711 48.8133 275.151 48.7 275.637 48.7C276.124 48.7 276.561 48.8133 276.947 49.04C277.334 49.2667 277.637 49.5833 277.857 49.99C278.077 50.39 278.187 50.85 278.187 51.37L278.177 51.59ZM275.637 49.31C275.131 49.31 274.704 49.4733 274.357 49.8C274.017 50.12 273.824 50.54 273.777 51.06H277.507C277.461 50.54 277.264 50.12 276.917 49.8C276.577 49.4733 276.151 49.31 275.637 49.31ZM281.326 48.7C282.013 48.7 282.539 48.8733 282.906 49.22C283.273 49.56 283.456 50.0667 283.456 50.74V54H282.776V53.18C282.616 53.4533 282.379 53.6667 282.066 53.82C281.759 53.9733 281.393 54.05 280.966 54.05C280.379 54.05 279.913 53.91 279.566 53.63C279.219 53.35 279.046 52.98 279.046 52.52C279.046 52.0733 279.206 51.7133 279.526 51.44C279.853 51.1667 280.369 51.03 281.076 51.03H282.746V50.71C282.746 50.2567 282.619 49.9133 282.366 49.68C282.113 49.44 281.743 49.32 281.256 49.32C280.923 49.32 280.603 49.3767 280.296 49.49C279.989 49.5967 279.726 49.7467 279.506 49.94L279.186 49.41C279.453 49.1833 279.773 49.01 280.146 48.89C280.519 48.7633 280.913 48.7 281.326 48.7ZM281.076 53.49C281.476 53.49 281.819 53.4 282.106 53.22C282.393 53.0333 282.606 52.7667 282.746 52.42V51.56H281.096C280.196 51.56 279.746 51.8733 279.746 52.5C279.746 52.8067 279.863 53.05 280.096 53.23C280.329 53.4033 280.656 53.49 281.076 53.49ZM291.945 48.7C292.605 48.7 293.121 48.89 293.495 49.27C293.875 49.65 294.065 50.21 294.065 50.95V54H293.355V51.02C293.355 50.4733 293.221 50.0567 292.955 49.77C292.695 49.4833 292.325 49.34 291.845 49.34C291.298 49.34 290.868 49.51 290.555 49.85C290.241 50.1833 290.085 50.6467 290.085 51.24V54H289.375V51.02C289.375 50.4733 289.241 50.0567 288.975 49.77C288.715 49.4833 288.341 49.34 287.855 49.34C287.315 49.34 286.885 49.51 286.565 49.85C286.251 50.1833 286.095 50.6467 286.095 51.24V54H285.385V48.74H286.065V49.7C286.251 49.38 286.511 49.1333 286.845 48.96C287.178 48.7867 287.561 48.7 287.995 48.7C288.435 48.7 288.815 48.7933 289.135 48.98C289.461 49.1667 289.705 49.4433 289.865 49.81C290.058 49.4633 290.335 49.1933 290.695 49C291.061 48.8 291.478 48.7 291.945 48.7ZM249.812 66.11L248.842 65.11C248.249 65.7433 247.469 66.06 246.502 66.06C246.049 66.06 245.642 65.9867 245.282 65.84C244.929 65.6867 244.652 65.4767 244.452 65.21C244.252 64.9367 244.152 64.6267 244.152 64.28C244.152 63.86 244.285 63.4833 244.552 63.15C244.819 62.8167 245.272 62.4667 245.912 62.1C245.579 61.7533 245.349 61.46 245.222 61.22C245.095 60.9733 245.032 60.7133 245.032 60.44C245.032 59.9933 245.192 59.6333 245.512 59.36C245.832 59.0867 246.262 58.95 246.802 58.95C247.302 58.95 247.699 59.0733 247.992 59.32C248.285 59.5667 248.432 59.9067 248.432 60.34C248.432 60.6867 248.315 61 248.082 61.28C247.849 61.5533 247.445 61.8567 246.872 62.19L248.792 64.17C249.005 63.79 249.162 63.34 249.262 62.82L249.842 63C249.715 63.6267 249.509 64.1633 249.222 64.61L250.222 65.64L249.812 66.11ZM246.802 59.48C246.455 59.48 246.182 59.5667 245.982 59.74C245.789 59.9133 245.692 60.1433 245.692 60.43C245.692 60.6367 245.745 60.8333 245.852 61.02C245.959 61.2067 246.169 61.46 246.482 61.78C246.989 61.4867 247.339 61.2367 247.532 61.03C247.725 60.8233 247.822 60.5967 247.822 60.35C247.822 60.0833 247.732 59.8733 247.552 59.72C247.372 59.56 247.122 59.48 246.802 59.48ZM246.542 65.47C247.315 65.47 247.942 65.2067 248.422 64.68L246.312 62.51C245.759 62.8233 245.375 63.1067 245.162 63.36C244.955 63.6133 244.852 63.8967 244.852 64.21C244.852 64.59 245.005 64.8967 245.312 65.13C245.625 65.3567 246.035 65.47 246.542 65.47ZM258.499 64.13H254.599L253.759 66H252.989L256.189 59H256.919L260.119 66H259.339L258.499 64.13ZM258.229 63.53L256.549 59.77L254.869 63.53H258.229ZM265.878 58.58V66H265.198V64.96C264.985 65.3133 264.701 65.5833 264.348 65.77C264.001 65.9567 263.608 66.05 263.168 66.05C262.675 66.05 262.228 65.9367 261.828 65.71C261.428 65.4833 261.115 65.1667 260.888 64.76C260.661 64.3533 260.548 63.89 260.548 63.37C260.548 62.85 260.661 62.3867 260.888 61.98C261.115 61.5733 261.428 61.26 261.828 61.04C262.228 60.8133 262.675 60.7 263.168 60.7C263.595 60.7 263.978 60.79 264.318 60.97C264.665 61.1433 264.948 61.4 265.168 61.74V58.58H265.878ZM263.228 65.42C263.595 65.42 263.925 65.3367 264.218 65.17C264.518 64.9967 264.751 64.7533 264.918 64.44C265.091 64.1267 265.178 63.77 265.178 63.37C265.178 62.97 265.091 62.6133 264.918 62.3C264.751 61.9867 264.518 61.7467 264.218 61.58C263.925 61.4067 263.595 61.32 263.228 61.32C262.855 61.32 262.518 61.4067 262.218 61.58C261.925 61.7467 261.691 61.9867 261.518 62.3C261.351 62.6133 261.268 62.97 261.268 63.37C261.268 63.77 261.351 64.1267 261.518 64.44C261.691 64.7533 261.925 64.9967 262.218 65.17C262.518 65.3367 262.855 65.42 263.228 65.42ZM272.275 60.74L269.935 66H269.205L266.875 60.74H267.615L269.585 65.22L271.575 60.74H272.275ZM273.275 60.74H273.985V66H273.275V60.74ZM273.635 59.59C273.488 59.59 273.365 59.54 273.265 59.44C273.165 59.34 273.115 59.22 273.115 59.08C273.115 58.9467 273.165 58.83 273.265 58.73C273.365 58.63 273.488 58.58 273.635 58.58C273.782 58.58 273.905 58.63 274.005 58.73C274.105 58.8233 274.155 58.9367 274.155 59.07C274.155 59.2167 274.105 59.34 274.005 59.44C273.905 59.54 273.782 59.59 273.635 59.59ZM277.371 66.05C276.944 66.05 276.534 65.99 276.141 65.87C275.754 65.7433 275.451 65.5867 275.231 65.4L275.551 64.84C275.771 65.0133 276.047 65.1567 276.381 65.27C276.714 65.3767 277.061 65.43 277.421 65.43C277.901 65.43 278.254 65.3567 278.481 65.21C278.714 65.0567 278.831 64.8433 278.831 64.57C278.831 64.3767 278.767 64.2267 278.641 64.12C278.514 64.0067 278.354 63.9233 278.161 63.87C277.967 63.81 277.711 63.7533 277.391 63.7C276.964 63.62 276.621 63.54 276.361 63.46C276.101 63.3733 275.877 63.23 275.691 63.03C275.511 62.83 275.421 62.5533 275.421 62.2C275.421 61.76 275.604 61.4 275.971 61.12C276.337 60.84 276.847 60.7 277.501 60.7C277.841 60.7 278.181 60.7467 278.521 60.84C278.861 60.9267 279.141 61.0433 279.361 61.19L279.051 61.76C278.617 61.46 278.101 61.31 277.501 61.31C277.047 61.31 276.704 61.39 276.471 61.55C276.244 61.71 276.131 61.92 276.131 62.18C276.131 62.38 276.194 62.54 276.321 62.66C276.454 62.78 276.617 62.87 276.811 62.93C277.004 62.9833 277.271 63.04 277.611 63.1C278.031 63.18 278.367 63.26 278.621 63.34C278.874 63.42 279.091 63.5567 279.271 63.75C279.451 63.9433 279.541 64.21 279.541 64.55C279.541 65.01 279.347 65.3767 278.961 65.65C278.581 65.9167 278.051 66.05 277.371 66.05ZM283.003 66.05C282.497 66.05 282.04 65.9367 281.633 65.71C281.227 65.4767 280.907 65.1567 280.673 64.75C280.44 64.3433 280.323 63.8833 280.323 63.37C280.323 62.8567 280.44 62.3967 280.673 61.99C280.907 61.5833 281.227 61.2667 281.633 61.04C282.04 60.8133 282.497 60.7 283.003 60.7C283.51 60.7 283.967 60.8133 284.373 61.04C284.78 61.2667 285.097 61.5833 285.323 61.99C285.557 62.3967 285.673 62.8567 285.673 63.37C285.673 63.8833 285.557 64.3433 285.323 64.75C285.097 65.1567 284.78 65.4767 284.373 65.71C283.967 65.9367 283.51 66.05 283.003 66.05ZM283.003 65.42C283.377 65.42 283.71 65.3367 284.003 65.17C284.303 64.9967 284.537 64.7533 284.703 64.44C284.87 64.1267 284.953 63.77 284.953 63.37C284.953 62.97 284.87 62.6133 284.703 62.3C284.537 61.9867 284.303 61.7467 284.003 61.58C283.71 61.4067 283.377 61.32 283.003 61.32C282.63 61.32 282.293 61.4067 281.993 61.58C281.7 61.7467 281.467 61.9867 281.293 62.3C281.127 62.6133 281.043 62.97 281.043 63.37C281.043 63.77 281.127 64.1267 281.293 64.44C281.467 64.7533 281.7 64.9967 281.993 65.17C282.293 65.3367 282.63 65.42 283.003 65.42ZM287.803 61.77C287.969 61.4167 288.216 61.15 288.543 60.97C288.876 60.79 289.286 60.7 289.773 60.7V61.39L289.603 61.38C289.049 61.38 288.616 61.55 288.303 61.89C287.989 62.23 287.833 62.7067 287.833 63.32V66H287.123V60.74H287.803V61.77ZM292.507 66.05C292.081 66.05 291.671 65.99 291.277 65.87C290.891 65.7433 290.587 65.5867 290.367 65.4L290.687 64.84C290.907 65.0133 291.184 65.1567 291.517 65.27C291.851 65.3767 292.197 65.43 292.557 65.43C293.037 65.43 293.391 65.3567 293.617 65.21C293.851 65.0567 293.967 64.8433 293.967 64.57C293.967 64.3767 293.904 64.2267 293.777 64.12C293.651 64.0067 293.491 63.9233 293.297 63.87C293.104 63.81 292.847 63.7533 292.527 63.7C292.101 63.62 291.757 63.54 291.497 63.46C291.237 63.3733 291.014 63.23 290.827 63.03C290.647 62.83 290.557 62.5533 290.557 62.2C290.557 61.76 290.741 61.4 291.107 61.12C291.474 60.84 291.984 60.7 292.637 60.7C292.977 60.7 293.317 60.7467 293.657 60.84C293.997 60.9267 294.277 61.0433 294.497 61.19L294.187 61.76C293.754 61.46 293.237 61.31 292.637 61.31C292.184 61.31 291.841 61.39 291.607 61.55C291.381 61.71 291.267 61.92 291.267 62.18C291.267 62.38 291.331 62.54 291.457 62.66C291.591 62.78 291.754 62.87 291.947 62.93C292.141 62.9833 292.407 63.04 292.747 63.1C293.167 63.18 293.504 63.26 293.757 63.34C294.011 63.42 294.227 63.5567 294.407 63.75C294.587 63.9433 294.677 64.21 294.677 64.55C294.677 65.01 294.484 65.3767 294.097 65.65C293.717 65.9167 293.187 66.05 292.507 66.05Z" fill="#23265D"/>
<path d="M412 74H266L251 96" stroke="#88F1E7" stroke-linecap="round" stroke-linejoin="round"/>
<circle cx="250" cy="97.5" r="1.5" stroke="#88F1E7"/>
<path d="M388.342 61.26C390.315 61.26 391.768 61.6533 392.702 62.44C393.648 63.2267 394.122 64.28 394.122 65.6C394.122 66.4533 393.908 67.2333 393.482 67.94C393.055 68.6333 392.402 69.1933 391.522 69.62C390.655 70.0333 389.582 70.24 388.302 70.24C387.315 70.24 386.342 70.1133 385.382 69.86C384.435 69.5933 383.628 69.22 382.962 68.74L384.242 66.26C384.775 66.66 385.388 66.9733 386.082 67.2C386.775 67.4133 387.488 67.52 388.222 67.52C389.035 67.52 389.675 67.36 390.142 67.04C390.608 66.72 390.842 66.2733 390.842 65.7C390.842 65.1 390.595 64.6467 390.102 64.34C389.622 64.0333 388.782 63.88 387.582 63.88H384.002L384.722 56H393.262V58.6H387.422L387.202 61.26H388.342ZM398.481 63.56C397.454 63.56 396.614 63.2133 395.961 62.52C395.321 61.8133 395.001 60.8733 395.001 59.7C395.001 58.5267 395.321 57.5933 395.961 56.9C396.614 56.1933 397.454 55.84 398.481 55.84C399.508 55.84 400.341 56.1933 400.981 56.9C401.621 57.5933 401.941 58.5267 401.941 59.7C401.941 60.8733 401.621 61.8133 400.981 62.52C400.341 63.2133 399.508 63.56 398.481 63.56ZM406.821 56H409.201L399.641 70H397.261L406.821 56ZM398.481 61.92C398.934 61.92 399.288 61.7333 399.541 61.36C399.808 60.9867 399.941 60.4333 399.941 59.7C399.941 58.9667 399.808 58.4133 399.541 58.04C399.288 57.6667 398.934 57.48 398.481 57.48C398.041 57.48 397.688 57.6733 397.421 58.06C397.154 58.4333 397.021 58.98 397.021 59.7C397.021 60.42 397.154 60.9733 397.421 61.36C397.688 61.7333 398.041 61.92 398.481 61.92ZM407.981 70.16C407.314 70.16 406.714 70.0067 406.181 69.7C405.661 69.38 405.254 68.9267 404.961 68.34C404.668 67.7533 404.521 67.0733 404.521 66.3C404.521 65.5267 404.668 64.8467 404.961 64.26C405.254 63.6733 405.661 63.2267 406.181 62.92C406.714 62.6 407.314 62.44 407.981 62.44C409.008 62.44 409.841 62.7933 410.481 63.5C411.134 64.1933 411.461 65.1267 411.461 66.3C411.461 67.4733 411.134 68.4133 410.481 69.12C409.841 69.8133 409.008 70.16 407.981 70.16ZM407.981 68.52C408.434 68.52 408.788 68.3333 409.041 67.96C409.308 67.5733 409.441 67.02 409.441 66.3C409.441 65.58 409.308 65.0333 409.041 64.66C408.788 64.2733 408.434 64.08 407.981 64.08C407.541 64.08 407.188 64.2667 406.921 64.64C406.654 65.0133 406.521 65.5667 406.521 66.3C406.521 67.0333 406.654 67.5867 406.921 67.96C407.188 68.3333 407.541 68.52 407.981 68.52Z" fill="#23265D"/>
<path d="M341.464 78H342.204V84.36H346.124V85H341.464V78ZM347.203 79.74H347.913V85H347.203V79.74ZM347.563 78.59C347.416 78.59 347.293 78.54 347.193 78.44C347.093 78.34 347.043 78.22 347.043 78.08C347.043 77.9467 347.093 77.83 347.193 77.73C347.293 77.63 347.416 77.58 347.563 77.58C347.71 77.58 347.833 77.63 347.933 77.73C348.033 77.8233 348.083 77.9367 348.083 78.07C348.083 78.2167 348.033 78.34 347.933 78.44C347.833 78.54 347.71 78.59 347.563 78.59ZM354.688 79.74V86.94H353.978V84.01C353.758 84.35 353.475 84.61 353.128 84.79C352.788 84.9633 352.405 85.05 351.978 85.05C351.478 85.05 351.028 84.94 350.628 84.72C350.235 84.4933 349.925 84.1767 349.698 83.77C349.472 83.3633 349.358 82.8967 349.358 82.37C349.358 81.85 349.472 81.3867 349.698 80.98C349.925 80.5733 350.238 80.26 350.638 80.04C351.038 79.8133 351.485 79.7 351.978 79.7C352.418 79.7 352.812 79.7933 353.158 79.98C353.512 80.1667 353.795 80.4333 354.008 80.78V79.74H354.688ZM352.038 84.42C352.405 84.42 352.735 84.3367 353.028 84.17C353.328 83.9967 353.562 83.7533 353.728 83.44C353.902 83.1267 353.988 82.77 353.988 82.37C353.988 81.97 353.902 81.6167 353.728 81.31C353.562 80.9967 353.328 80.7533 353.028 80.58C352.735 80.4067 352.405 80.32 352.038 80.32C351.665 80.32 351.328 80.4067 351.028 80.58C350.735 80.7533 350.502 80.9967 350.328 81.31C350.162 81.6167 350.078 81.97 350.078 82.37C350.078 82.77 350.162 83.1267 350.328 83.44C350.502 83.7533 350.735 83.9967 351.028 84.17C351.328 84.3367 351.665 84.42 352.038 84.42ZM361.406 79.74V85H360.726V84.04C360.539 84.36 360.282 84.61 359.956 84.79C359.629 84.9633 359.256 85.05 358.836 85.05C358.149 85.05 357.606 84.86 357.206 84.48C356.812 84.0933 356.616 83.53 356.616 82.79V79.74H357.326V82.72C357.326 83.2733 357.462 83.6933 357.736 83.98C358.009 84.2667 358.399 84.41 358.906 84.41C359.459 84.41 359.896 84.2433 360.216 83.91C360.536 83.57 360.696 83.1 360.696 82.5V79.74H361.406ZM363.394 79.74H364.104V85H363.394V79.74ZM363.754 78.59C363.608 78.59 363.484 78.54 363.384 78.44C363.284 78.34 363.234 78.22 363.234 78.08C363.234 77.9467 363.284 77.83 363.384 77.73C363.484 77.63 363.608 77.58 363.754 77.58C363.901 77.58 364.024 77.63 364.124 77.73C364.224 77.8233 364.274 77.9367 364.274 78.07C364.274 78.2167 364.224 78.34 364.124 78.44C364.024 78.54 363.901 78.59 363.754 78.59ZM370.88 77.58V85H370.2V83.96C369.987 84.3133 369.703 84.5833 369.35 84.77C369.003 84.9567 368.61 85.05 368.17 85.05C367.677 85.05 367.23 84.9367 366.83 84.71C366.43 84.4833 366.117 84.1667 365.89 83.76C365.663 83.3533 365.55 82.89 365.55 82.37C365.55 81.85 365.663 81.3867 365.89 80.98C366.117 80.5733 366.43 80.26 366.83 80.04C367.23 79.8133 367.677 79.7 368.17 79.7C368.597 79.7 368.98 79.79 369.32 79.97C369.667 80.1433 369.95 80.4 370.17 80.74V77.58H370.88ZM368.23 84.42C368.597 84.42 368.927 84.3367 369.22 84.17C369.52 83.9967 369.753 83.7533 369.92 83.44C370.093 83.1267 370.18 82.77 370.18 82.37C370.18 81.97 370.093 81.6133 369.92 81.3C369.753 80.9867 369.52 80.7467 369.22 80.58C368.927 80.4067 368.597 80.32 368.23 80.32C367.857 80.32 367.52 80.4067 367.22 80.58C366.927 80.7467 366.693 80.9867 366.52 81.3C366.353 81.6133 366.27 81.97 366.27 82.37C366.27 82.77 366.353 83.1267 366.52 83.44C366.693 83.7533 366.927 83.9967 367.22 84.17C367.52 84.3367 367.857 84.42 368.23 84.42ZM372.857 79.74H373.567V85H372.857V79.74ZM373.217 78.59C373.071 78.59 372.947 78.54 372.847 78.44C372.747 78.34 372.697 78.22 372.697 78.08C372.697 77.9467 372.747 77.83 372.847 77.73C372.947 77.63 373.071 77.58 373.217 77.58C373.364 77.58 373.487 77.63 373.587 77.73C373.687 77.8233 373.737 77.9367 373.737 78.07C373.737 78.2167 373.687 78.34 373.587 78.44C373.487 78.54 373.364 78.59 373.217 78.59ZM378.313 84.68C378.179 84.8 378.013 84.8933 377.813 84.96C377.619 85.02 377.416 85.05 377.203 85.05C376.709 85.05 376.329 84.9167 376.063 84.65C375.796 84.3833 375.663 84.0067 375.663 83.52V80.34H374.723V79.74H375.663V78.59H376.373V79.74H377.973V80.34H376.373V83.48C376.373 83.7933 376.449 84.0333 376.603 84.2C376.763 84.36 376.989 84.44 377.283 84.44C377.429 84.44 377.569 84.4167 377.703 84.37C377.843 84.3233 377.963 84.2567 378.063 84.17L378.313 84.68ZM383.928 79.74L381.298 85.63C381.084 86.1233 380.838 86.4733 380.558 86.68C380.278 86.8867 379.941 86.99 379.548 86.99C379.294 86.99 379.058 86.95 378.838 86.87C378.618 86.79 378.428 86.67 378.268 86.51L378.598 85.98C378.864 86.2467 379.184 86.38 379.558 86.38C379.798 86.38 380.001 86.3133 380.168 86.18C380.341 86.0467 380.501 85.82 380.648 85.5L380.878 84.99L378.528 79.74H379.268L381.248 84.21L383.228 79.74H383.928ZM388.435 78.64V81.39H392.055V82.03H388.435V85H387.695V78H392.495V78.64H388.435ZM398.437 79.74V85H397.757V84.04C397.57 84.36 397.314 84.61 396.987 84.79C396.66 84.9633 396.287 85.05 395.867 85.05C395.18 85.05 394.637 84.86 394.237 84.48C393.844 84.0933 393.647 83.53 393.647 82.79V79.74H394.357V82.72C394.357 83.2733 394.494 83.6933 394.767 83.98C395.04 84.2667 395.43 84.41 395.937 84.41C396.49 84.41 396.927 84.2433 397.247 83.91C397.567 83.57 397.727 83.1 397.727 82.5V79.74H398.437ZM403.106 79.7C403.766 79.7 404.289 79.8933 404.676 80.28C405.069 80.66 405.266 81.2167 405.266 81.95V85H404.556V82.02C404.556 81.4733 404.419 81.0567 404.146 80.77C403.872 80.4833 403.482 80.34 402.976 80.34C402.409 80.34 401.959 80.51 401.626 80.85C401.299 81.1833 401.136 81.6467 401.136 82.24V85H400.426V79.74H401.106V80.71C401.299 80.39 401.566 80.1433 401.906 79.97C402.252 79.79 402.652 79.7 403.106 79.7ZM412.013 77.58V85H411.333V83.96C411.119 84.3133 410.836 84.5833 410.483 84.77C410.136 84.9567 409.743 85.05 409.303 85.05C408.809 85.05 408.363 84.9367 407.963 84.71C407.563 84.4833 407.249 84.1667 407.023 83.76C406.796 83.3533 406.683 82.89 406.683 82.37C406.683 81.85 406.796 81.3867 407.023 80.98C407.249 80.5733 407.563 80.26 407.963 80.04C408.363 79.8133 408.809 79.7 409.303 79.7C409.729 79.7 410.113 79.79 410.453 79.97C410.799 80.1433 411.083 80.4 411.303 80.74V77.58H412.013ZM409.363 84.42C409.729 84.42 410.059 84.3367 410.353 84.17C410.653 83.9967 410.886 83.7533 411.053 83.44C411.226 83.1267 411.313 82.77 411.313 82.37C411.313 81.97 411.226 81.6133 411.053 81.3C410.886 80.9867 410.653 80.7467 410.353 80.58C410.059 80.4067 409.729 80.32 409.363 80.32C408.989 80.32 408.653 80.4067 408.353 80.58C408.059 80.7467 407.826 80.9867 407.653 81.3C407.486 81.6133 407.403 81.97 407.403 82.37C407.403 82.77 407.486 83.1267 407.653 83.44C407.826 83.7533 408.059 83.9967 408.353 84.17C408.653 84.3367 408.989 84.42 409.363 84.42Z" fill="#23265D"/>
<path d="M412 131H293.5" stroke="#88F1E7" stroke-linecap="round" stroke-linejoin="round"/>
<circle cx="292" cy="131" r="1.5" stroke="#88F1E7"/>
<path d="M379.235 113V127H375.995V115.6H373.195V113H379.235ZM387.667 127.24C386.507 127.24 385.473 126.953 384.567 126.38C383.66 125.807 382.947 124.98 382.427 123.9C381.92 122.807 381.667 121.507 381.667 120C381.667 118.493 381.92 117.2 382.427 116.12C382.947 115.027 383.66 114.193 384.567 113.62C385.473 113.047 386.507 112.76 387.667 112.76C388.827 112.76 389.86 113.047 390.767 113.62C391.673 114.193 392.38 115.027 392.887 116.12C393.407 117.2 393.667 118.493 393.667 120C393.667 121.507 393.407 122.807 392.887 123.9C392.38 124.98 391.673 125.807 390.767 126.38C389.86 126.953 388.827 127.24 387.667 127.24ZM387.667 124.5C388.52 124.5 389.187 124.133 389.667 123.4C390.16 122.667 390.407 121.533 390.407 120C390.407 118.467 390.16 117.333 389.667 116.6C389.187 115.867 388.52 115.5 387.667 115.5C386.827 115.5 386.16 115.867 385.667 116.6C385.187 117.333 384.947 118.467 384.947 120C384.947 121.533 385.187 122.667 385.667 123.4C386.16 124.133 386.827 124.5 387.667 124.5ZM398.481 120.56C397.454 120.56 396.614 120.213 395.961 119.52C395.321 118.813 395.001 117.873 395.001 116.7C395.001 115.527 395.321 114.593 395.961 113.9C396.614 113.193 397.454 112.84 398.481 112.84C399.508 112.84 400.341 113.193 400.981 113.9C401.621 114.593 401.941 115.527 401.941 116.7C401.941 117.873 401.621 118.813 400.981 119.52C400.341 120.213 399.508 120.56 398.481 120.56ZM406.821 113H409.201L399.641 127H397.261L406.821 113ZM398.481 118.92C398.934 118.92 399.288 118.733 399.541 118.36C399.808 117.987 399.941 117.433 399.941 116.7C399.941 115.967 399.808 115.413 399.541 115.04C399.288 114.667 398.934 114.48 398.481 114.48C398.041 114.48 397.688 114.673 397.421 115.06C397.154 115.433 397.021 115.98 397.021 116.7C397.021 117.42 397.154 117.973 397.421 118.36C397.688 118.733 398.041 118.92 398.481 118.92ZM407.981 127.16C407.314 127.16 406.714 127.007 406.181 126.7C405.661 126.38 405.254 125.927 404.961 125.34C404.668 124.753 404.521 124.073 404.521 123.3C404.521 122.527 404.668 121.847 404.961 121.26C405.254 120.673 405.661 120.227 406.181 119.92C406.714 119.6 407.314 119.44 407.981 119.44C409.008 119.44 409.841 119.793 410.481 120.5C411.134 121.193 411.461 122.127 411.461 123.3C411.461 124.473 411.134 125.413 410.481 126.12C409.841 126.813 409.008 127.16 407.981 127.16ZM407.981 125.52C408.434 125.52 408.788 125.333 409.041 124.96C409.308 124.573 409.441 124.02 409.441 123.3C409.441 122.58 409.308 122.033 409.041 121.66C408.788 121.273 408.434 121.08 407.981 121.08C407.541 121.08 407.188 121.267 406.921 121.64C406.654 122.013 406.521 122.567 406.521 123.3C406.521 124.033 406.654 124.587 406.921 124.96C407.188 125.333 407.541 125.52 407.981 125.52Z" fill="#23265D"/>
<path d="M348.261 135L345.161 142H344.431L341.331 135H342.131L344.811 141.08L347.511 135H348.261ZM350.566 136.7C351.253 136.7 351.78 136.873 352.146 137.22C352.513 137.56 352.696 138.067 352.696 138.74V142H352.016V141.18C351.856 141.453 351.62 141.667 351.306 141.82C351 141.973 350.633 142.05 350.206 142.05C349.62 142.05 349.153 141.91 348.806 141.63C348.46 141.35 348.286 140.98 348.286 140.52C348.286 140.073 348.446 139.713 348.766 139.44C349.093 139.167 349.61 139.03 350.316 139.03H351.986V138.71C351.986 138.257 351.86 137.913 351.606 137.68C351.353 137.44 350.983 137.32 350.496 137.32C350.163 137.32 349.843 137.377 349.536 137.49C349.23 137.597 348.966 137.747 348.746 137.94L348.426 137.41C348.693 137.183 349.013 137.01 349.386 136.89C349.76 136.763 350.153 136.7 350.566 136.7ZM350.316 141.49C350.716 141.49 351.06 141.4 351.346 141.22C351.633 141.033 351.846 140.767 351.986 140.42V139.56H350.336C349.436 139.56 348.986 139.873 348.986 140.5C348.986 140.807 349.103 141.05 349.336 141.23C349.57 141.403 349.896 141.49 350.316 141.49ZM359.365 136.74V142H358.685V141.04C358.498 141.36 358.241 141.61 357.915 141.79C357.588 141.963 357.215 142.05 356.795 142.05C356.108 142.05 355.565 141.86 355.165 141.48C354.771 141.093 354.575 140.53 354.575 139.79V136.74H355.285V139.72C355.285 140.273 355.421 140.693 355.695 140.98C355.968 141.267 356.358 141.41 356.865 141.41C357.418 141.41 357.855 141.243 358.175 140.91C358.495 140.57 358.655 140.1 358.655 139.5V136.74H359.365ZM361.353 134.58H362.063V142H361.353V134.58ZM366.828 141.68C366.695 141.8 366.528 141.893 366.328 141.96C366.135 142.02 365.932 142.05 365.718 142.05C365.225 142.05 364.845 141.917 364.578 141.65C364.312 141.383 364.178 141.007 364.178 140.52V137.34H363.238V136.74H364.178V135.59H364.888V136.74H366.488V137.34H364.888V140.48C364.888 140.793 364.965 141.033 365.118 141.2C365.278 141.36 365.505 141.44 365.798 141.44C365.945 141.44 366.085 141.417 366.218 141.37C366.358 141.323 366.478 141.257 366.578 141.17L366.828 141.68ZM375.668 142L374.068 139.75C373.888 139.77 373.701 139.78 373.508 139.78H371.628V142H370.888V135H373.508C374.401 135 375.101 135.213 375.608 135.64C376.115 136.067 376.368 136.653 376.368 137.4C376.368 137.947 376.228 138.41 375.948 138.79C375.675 139.163 375.281 139.433 374.768 139.6L376.478 142H375.668ZM373.488 139.15C374.181 139.15 374.711 138.997 375.078 138.69C375.445 138.383 375.628 137.953 375.628 137.4C375.628 136.833 375.445 136.4 375.078 136.1C374.711 135.793 374.181 135.64 373.488 135.64H371.628V139.15H373.488ZM382.545 139.59H378.145C378.185 140.137 378.395 140.58 378.775 140.92C379.155 141.253 379.635 141.42 380.215 141.42C380.541 141.42 380.841 141.363 381.115 141.25C381.388 141.13 381.625 140.957 381.825 140.73L382.225 141.19C381.991 141.47 381.698 141.683 381.345 141.83C380.998 141.977 380.615 142.05 380.195 142.05C379.655 142.05 379.175 141.937 378.755 141.71C378.341 141.477 378.018 141.157 377.785 140.75C377.551 140.343 377.435 139.883 377.435 139.37C377.435 138.857 377.545 138.397 377.765 137.99C377.991 137.583 378.298 137.267 378.685 137.04C379.078 136.813 379.518 136.7 380.005 136.7C380.491 136.7 380.928 136.813 381.315 137.04C381.701 137.267 382.005 137.583 382.225 137.99C382.445 138.39 382.555 138.85 382.555 139.37L382.545 139.59ZM380.005 137.31C379.498 137.31 379.071 137.473 378.725 137.8C378.385 138.12 378.191 138.54 378.145 139.06H381.875C381.828 138.54 381.631 138.12 381.285 137.8C380.945 137.473 380.518 137.31 380.005 137.31ZM391.622 136.74L389.632 142H388.962L387.302 137.69L385.642 142H384.972L382.992 136.74H383.672L385.322 141.21L387.012 136.74H387.622L389.302 141.21L390.972 136.74H391.622ZM394.375 136.7C395.062 136.7 395.588 136.873 395.955 137.22C396.322 137.56 396.505 138.067 396.505 138.74V142H395.825V141.18C395.665 141.453 395.428 141.667 395.115 141.82C394.808 141.973 394.442 142.05 394.015 142.05C393.428 142.05 392.962 141.91 392.615 141.63C392.268 141.35 392.095 140.98 392.095 140.52C392.095 140.073 392.255 139.713 392.575 139.44C392.902 139.167 393.418 139.03 394.125 139.03H395.795V138.71C395.795 138.257 395.668 137.913 395.415 137.68C395.162 137.44 394.792 137.32 394.305 137.32C393.972 137.32 393.652 137.377 393.345 137.49C393.038 137.597 392.775 137.747 392.555 137.94L392.235 137.41C392.502 137.183 392.822 137.01 393.195 136.89C393.568 136.763 393.962 136.7 394.375 136.7ZM394.125 141.49C394.525 141.49 394.868 141.4 395.155 141.22C395.442 141.033 395.655 140.767 395.795 140.42V139.56H394.145C393.245 139.56 392.795 139.873 392.795 140.5C392.795 140.807 392.912 141.05 393.145 141.23C393.378 141.403 393.705 141.49 394.125 141.49ZM399.113 137.77C399.28 137.417 399.527 137.15 399.853 136.97C400.187 136.79 400.597 136.7 401.083 136.7V137.39L400.913 137.38C400.36 137.38 399.927 137.55 399.613 137.89C399.3 138.23 399.143 138.707 399.143 139.32V142H398.433V136.74H399.113V137.77ZM407.12 134.58V142H406.44V140.96C406.227 141.313 405.943 141.583 405.59 141.77C405.243 141.957 404.85 142.05 404.41 142.05C403.917 142.05 403.47 141.937 403.07 141.71C402.67 141.483 402.357 141.167 402.13 140.76C401.903 140.353 401.79 139.89 401.79 139.37C401.79 138.85 401.903 138.387 402.13 137.98C402.357 137.573 402.67 137.26 403.07 137.04C403.47 136.813 403.917 136.7 404.41 136.7C404.837 136.7 405.22 136.79 405.56 136.97C405.907 137.143 406.19 137.4 406.41 137.74V134.58H407.12ZM404.47 141.42C404.837 141.42 405.167 141.337 405.46 141.17C405.76 140.997 405.993 140.753 406.16 140.44C406.333 140.127 406.42 139.77 406.42 139.37C406.42 138.97 406.333 138.613 406.16 138.3C405.993 137.987 405.76 137.747 405.46 137.58C405.167 137.407 404.837 137.32 404.47 137.32C404.097 137.32 403.76 137.407 403.46 137.58C403.167 137.747 402.933 137.987 402.76 138.3C402.593 138.613 402.51 138.97 402.51 139.37C402.51 139.77 402.593 140.127 402.76 140.44C402.933 140.753 403.167 140.997 403.46 141.17C403.76 141.337 404.097 141.42 404.47 141.42ZM410.507 142.05C410.081 142.05 409.671 141.99 409.277 141.87C408.891 141.743 408.587 141.587 408.367 141.4L408.687 140.84C408.907 141.013 409.184 141.157 409.517 141.27C409.851 141.377 410.197 141.43 410.557 141.43C411.037 141.43 411.391 141.357 411.617 141.21C411.851 141.057 411.967 140.843 411.967 140.57C411.967 140.377 411.904 140.227 411.777 140.12C411.651 140.007 411.491 139.923 411.297 139.87C411.104 139.81 410.847 139.753 410.527 139.7C410.101 139.62 409.757 139.54 409.497 139.46C409.237 139.373 409.014 139.23 408.827 139.03C408.647 138.83 408.557 138.553 408.557 138.2C408.557 137.76 408.741 137.4 409.107 137.12C409.474 136.84 409.984 136.7 410.637 136.7C410.977 136.7 411.317 136.747 411.657 136.84C411.997 136.927 412.277 137.043 412.497 137.19L412.187 137.76C411.754 137.46 411.237 137.31 410.637 137.31C410.184 137.31 409.841 137.39 409.607 137.55C409.381 137.71 409.267 137.92 409.267 138.18C409.267 138.38 409.331 138.54 409.457 138.66C409.591 138.78 409.754 138.87 409.947 138.93C410.141 138.983 410.407 139.04 410.747 139.1C411.167 139.18 411.504 139.26 411.757 139.34C412.011 139.42 412.227 139.557 412.407 139.75C412.587 139.943 412.677 140.21 412.677 140.55C412.677 141.01 412.484 141.377 412.097 141.65C411.717 141.917 411.187 142.05 410.507 142.05Z" fill="#23265D"/>
<path d="M412 201H313" stroke="#88F1E7" stroke-linecap="round" stroke-linejoin="round"/>
<circle cx="311" cy="201" r="1.5" stroke="#88F1E7"/>
<path d="M379.235 183V197H375.995V185.6H373.195V183H379.235ZM387.667 197.24C386.507 197.24 385.473 196.953 384.567 196.38C383.66 195.807 382.947 194.98 382.427 193.9C381.92 192.807 381.667 191.507 381.667 190C381.667 188.493 381.92 187.2 382.427 186.12C382.947 185.027 383.66 184.193 384.567 183.62C385.473 183.047 386.507 182.76 387.667 182.76C388.827 182.76 389.86 183.047 390.767 183.62C391.673 184.193 392.38 185.027 392.887 186.12C393.407 187.2 393.667 188.493 393.667 190C393.667 191.507 393.407 192.807 392.887 193.9C392.38 194.98 391.673 195.807 390.767 196.38C389.86 196.953 388.827 197.24 387.667 197.24ZM387.667 194.5C388.52 194.5 389.187 194.133 389.667 193.4C390.16 192.667 390.407 191.533 390.407 190C390.407 188.467 390.16 187.333 389.667 186.6C389.187 185.867 388.52 185.5 387.667 185.5C386.827 185.5 386.16 185.867 385.667 186.6C385.187 187.333 384.947 188.467 384.947 190C384.947 191.533 385.187 192.667 385.667 193.4C386.16 194.133 386.827 194.5 387.667 194.5ZM398.481 190.56C397.454 190.56 396.614 190.213 395.961 189.52C395.321 188.813 395.001 187.873 395.001 186.7C395.001 185.527 395.321 184.593 395.961 183.9C396.614 183.193 397.454 182.84 398.481 182.84C399.508 182.84 400.341 183.193 400.981 183.9C401.621 184.593 401.941 185.527 401.941 186.7C401.941 187.873 401.621 188.813 400.981 189.52C400.341 190.213 399.508 190.56 398.481 190.56ZM406.821 183H409.201L399.641 197H397.261L406.821 183ZM398.481 188.92C398.934 188.92 399.288 188.733 399.541 188.36C399.808 187.987 399.941 187.433 399.941 186.7C399.941 185.967 399.808 185.413 399.541 185.04C399.288 184.667 398.934 184.48 398.481 184.48C398.041 184.48 397.688 184.673 397.421 185.06C397.154 185.433 397.021 185.98 397.021 186.7C397.021 187.42 397.154 187.973 397.421 188.36C397.688 188.733 398.041 188.92 398.481 188.92ZM407.981 197.16C407.314 197.16 406.714 197.007 406.181 196.7C405.661 196.38 405.254 195.927 404.961 195.34C404.668 194.753 404.521 194.073 404.521 193.3C404.521 192.527 404.668 191.847 404.961 191.26C405.254 190.673 405.661 190.227 406.181 189.92C406.714 189.6 407.314 189.44 407.981 189.44C409.008 189.44 409.841 189.793 410.481 190.5C411.134 191.193 411.461 192.127 411.461 193.3C411.461 194.473 411.134 195.413 410.481 196.12C409.841 196.813 409.008 197.16 407.981 197.16ZM407.981 195.52C408.434 195.52 408.788 195.333 409.041 194.96C409.308 194.573 409.441 194.02 409.441 193.3C409.441 192.58 409.308 192.033 409.041 191.66C408.788 191.273 408.434 191.08 407.981 191.08C407.541 191.08 407.188 191.267 406.921 191.64C406.654 192.013 406.521 192.567 406.521 193.3C406.521 194.033 406.654 194.587 406.921 194.96C407.188 195.333 407.541 195.52 407.981 195.52Z" fill="#23265D"/>
<path d="M354.169 205H354.909V211.36H358.829V212H354.169V205ZM362.678 205C363.571 205 364.271 205.213 364.778 205.64C365.285 206.067 365.538 206.653 365.538 207.4C365.538 208.147 365.285 208.733 364.778 209.16C364.271 209.58 363.571 209.79 362.678 209.79H360.798V212H360.058V205H362.678ZM362.658 209.14C363.351 209.14 363.881 208.99 364.248 208.69C364.615 208.383 364.798 207.953 364.798 207.4C364.798 206.833 364.615 206.4 364.248 206.1C363.881 205.793 363.351 205.64 362.658 205.64H360.798V209.14H362.658ZM368.296 213.94C367.922 213.327 367.636 212.623 367.436 211.83C367.236 211.03 367.136 210.173 367.136 209.26C367.136 208.347 367.236 207.49 367.436 206.69C367.636 205.883 367.922 205.18 368.296 204.58H368.976C368.582 205.253 368.292 205.977 368.106 206.75C367.926 207.523 367.836 208.36 367.836 209.26C367.836 210.16 367.926 210.997 368.106 211.77C368.292 212.543 368.582 213.267 368.976 213.94H368.296ZM370.527 205H371.267V211.36H375.187V212H370.527V205ZM376.265 206.74H376.975V212H376.265V206.74ZM376.625 205.59C376.479 205.59 376.355 205.54 376.255 205.44C376.155 205.34 376.105 205.22 376.105 205.08C376.105 204.947 376.155 204.83 376.255 204.73C376.355 204.63 376.479 204.58 376.625 204.58C376.772 204.58 376.895 204.63 376.995 204.73C377.095 204.823 377.145 204.937 377.145 205.07C377.145 205.217 377.095 205.34 376.995 205.44C376.895 205.54 376.772 205.59 376.625 205.59ZM383.751 206.74V213.94H383.041V211.01C382.821 211.35 382.538 211.61 382.191 211.79C381.851 211.963 381.468 212.05 381.041 212.05C380.541 212.05 380.091 211.94 379.691 211.72C379.298 211.493 378.988 211.177 378.761 210.77C378.534 210.363 378.421 209.897 378.421 209.37C378.421 208.85 378.534 208.387 378.761 207.98C378.988 207.573 379.301 207.26 379.701 207.04C380.101 206.813 380.548 206.7 381.041 206.7C381.481 206.7 381.874 206.793 382.221 206.98C382.574 207.167 382.858 207.433 383.071 207.78V206.74H383.751ZM381.101 211.42C381.468 211.42 381.798 211.337 382.091 211.17C382.391 210.997 382.624 210.753 382.791 210.44C382.964 210.127 383.051 209.77 383.051 209.37C383.051 208.97 382.964 208.617 382.791 208.31C382.624 207.997 382.391 207.753 382.091 207.58C381.798 207.407 381.468 207.32 381.101 207.32C380.728 207.32 380.391 207.407 380.091 207.58C379.798 207.753 379.564 207.997 379.391 208.31C379.224 208.617 379.141 208.97 379.141 209.37C379.141 209.77 379.224 210.127 379.391 210.44C379.564 210.753 379.798 210.997 380.091 211.17C380.391 211.337 380.728 211.42 381.101 211.42ZM390.468 206.74V212H389.788V211.04C389.602 211.36 389.345 211.61 389.018 211.79C388.692 211.963 388.318 212.05 387.898 212.05C387.212 212.05 386.668 211.86 386.268 211.48C385.875 211.093 385.678 210.53 385.678 209.79V206.74H386.388V209.72C386.388 210.273 386.525 210.693 386.798 210.98C387.072 211.267 387.462 211.41 387.968 211.41C388.522 211.41 388.958 211.243 389.278 210.91C389.598 210.57 389.758 210.1 389.758 209.5V206.74H390.468ZM392.457 206.74H393.167V212H392.457V206.74ZM392.817 205.59C392.67 205.59 392.547 205.54 392.447 205.44C392.347 205.34 392.297 205.22 392.297 205.08C392.297 204.947 392.347 204.83 392.447 204.73C392.547 204.63 392.67 204.58 392.817 204.58C392.963 204.58 393.087 204.63 393.187 204.73C393.287 204.823 393.337 204.937 393.337 205.07C393.337 205.217 393.287 205.34 393.187 205.44C393.087 205.54 392.963 205.59 392.817 205.59ZM399.942 204.58V212H399.262V210.96C399.049 211.313 398.766 211.583 398.412 211.77C398.066 211.957 397.672 212.05 397.232 212.05C396.739 212.05 396.292 211.937 395.892 211.71C395.492 211.483 395.179 211.167 394.952 210.76C394.726 210.353 394.612 209.89 394.612 209.37C394.612 208.85 394.726 208.387 394.952 207.98C395.179 207.573 395.492 207.26 395.892 207.04C396.292 206.813 396.739 206.7 397.232 206.7C397.659 206.7 398.042 206.79 398.382 206.97C398.729 207.143 399.012 207.4 399.232 207.74V204.58H399.942ZM397.292 211.42C397.659 211.42 397.989 211.337 398.282 211.17C398.582 210.997 398.816 210.753 398.982 210.44C399.156 210.127 399.242 209.77 399.242 209.37C399.242 208.97 399.156 208.613 398.982 208.3C398.816 207.987 398.582 207.747 398.282 207.58C397.989 207.407 397.659 207.32 397.292 207.32C396.919 207.32 396.582 207.407 396.282 207.58C395.989 207.747 395.756 207.987 395.582 208.3C395.416 208.613 395.332 208.97 395.332 209.37C395.332 209.77 395.416 210.127 395.582 210.44C395.756 210.753 395.989 210.997 396.282 211.17C396.582 211.337 396.919 211.42 397.292 211.42ZM401.92 206.74H402.63V212H401.92V206.74ZM402.28 205.59C402.133 205.59 402.01 205.54 401.91 205.44C401.81 205.34 401.76 205.22 401.76 205.08C401.76 204.947 401.81 204.83 401.91 204.73C402.01 204.63 402.133 204.58 402.28 204.58C402.426 204.58 402.55 204.63 402.65 204.73C402.75 204.823 402.8 204.937 402.8 205.07C402.8 205.217 402.75 205.34 402.65 205.44C402.55 205.54 402.426 205.59 402.28 205.59ZM407.375 211.68C407.242 211.8 407.075 211.893 406.875 211.96C406.682 212.02 406.479 212.05 406.265 212.05C405.772 212.05 405.392 211.917 405.125 211.65C404.859 211.383 404.725 211.007 404.725 210.52V207.34H403.785V206.74H404.725V205.59H405.435V206.74H407.035V207.34H405.435V210.48C405.435 210.793 405.512 211.033 405.665 211.2C405.825 211.36 406.052 211.44 406.345 211.44C406.492 211.44 406.632 211.417 406.765 211.37C406.905 211.323 407.025 211.257 407.125 211.17L407.375 211.68ZM412.99 206.74L410.36 212.63C410.147 213.123 409.9 213.473 409.62 213.68C409.34 213.887 409.003 213.99 408.61 213.99C408.357 213.99 408.12 213.95 407.9 213.87C407.68 213.79 407.49 213.67 407.33 213.51L407.66 212.98C407.927 213.247 408.247 213.38 408.62 213.38C408.86 213.38 409.063 213.313 409.23 213.18C409.403 213.047 409.563 212.82 409.71 212.5L409.94 211.99L407.59 206.74H408.33L410.31 211.21L412.29 206.74H412.99ZM371.692 217C372.585 217 373.285 217.213 373.792 217.64C374.298 218.067 374.552 218.653 374.552 219.4C374.552 220.147 374.298 220.733 373.792 221.16C373.285 221.58 372.585 221.79 371.692 221.79H369.812V224H369.072V217H371.692ZM371.672 221.14C372.365 221.14 372.895 220.99 373.262 220.69C373.628 220.383 373.812 219.953 373.812 219.4C373.812 218.833 373.628 218.4 373.262 218.1C372.895 217.793 372.365 217.64 371.672 217.64H369.812V221.14H371.672ZM376.545 219.77C376.712 219.417 376.958 219.15 377.285 218.97C377.618 218.79 378.028 218.7 378.515 218.7V219.39L378.345 219.38C377.792 219.38 377.358 219.55 377.045 219.89C376.732 220.23 376.575 220.707 376.575 221.32V224H375.865V218.74H376.545V219.77ZM381.902 224.05C381.395 224.05 380.938 223.937 380.532 223.71C380.125 223.477 379.805 223.157 379.572 222.75C379.338 222.343 379.222 221.883 379.222 221.37C379.222 220.857 379.338 220.397 379.572 219.99C379.805 219.583 380.125 219.267 380.532 219.04C380.938 218.813 381.395 218.7 381.902 218.7C382.408 218.7 382.865 218.813 383.272 219.04C383.678 219.267 383.995 219.583 384.222 219.99C384.455 220.397 384.572 220.857 384.572 221.37C384.572 221.883 384.455 222.343 384.222 222.75C383.995 223.157 383.678 223.477 383.272 223.71C382.865 223.937 382.408 224.05 381.902 224.05ZM381.902 223.42C382.275 223.42 382.608 223.337 382.902 223.17C383.202 222.997 383.435 222.753 383.602 222.44C383.768 222.127 383.852 221.77 383.852 221.37C383.852 220.97 383.768 220.613 383.602 220.3C383.435 219.987 383.202 219.747 382.902 219.58C382.608 219.407 382.275 219.32 381.902 219.32C381.528 219.32 381.192 219.407 380.892 219.58C380.598 219.747 380.365 219.987 380.192 220.3C380.025 220.613 379.942 220.97 379.942 221.37C379.942 221.77 380.025 222.127 380.192 222.44C380.365 222.753 380.598 222.997 380.892 223.17C381.192 223.337 381.528 223.42 381.902 223.42ZM390.295 218.74L387.955 224H387.225L384.895 218.74H385.635L387.605 223.22L389.595 218.74H390.295ZM391.295 218.74H392.005V224H391.295V218.74ZM391.655 217.59C391.508 217.59 391.385 217.54 391.285 217.44C391.185 217.34 391.135 217.22 391.135 217.08C391.135 216.947 391.185 216.83 391.285 216.73C391.385 216.63 391.508 216.58 391.655 216.58C391.801 216.58 391.925 216.63 392.025 216.73C392.125 216.823 392.175 216.937 392.175 217.07C392.175 217.217 392.125 217.34 392.025 217.44C391.925 217.54 391.801 217.59 391.655 217.59ZM398.78 216.58V224H398.1V222.96C397.887 223.313 397.604 223.583 397.25 223.77C396.904 223.957 396.51 224.05 396.07 224.05C395.577 224.05 395.13 223.937 394.73 223.71C394.33 223.483 394.017 223.167 393.79 222.76C393.564 222.353 393.45 221.89 393.45 221.37C393.45 220.85 393.564 220.387 393.79 219.98C394.017 219.573 394.33 219.26 394.73 219.04C395.13 218.813 395.577 218.7 396.07 218.7C396.497 218.7 396.88 218.79 397.22 218.97C397.567 219.143 397.85 219.4 398.07 219.74V216.58H398.78ZM396.13 223.42C396.497 223.42 396.827 223.337 397.12 223.17C397.42 222.997 397.654 222.753 397.82 222.44C397.994 222.127 398.08 221.77 398.08 221.37C398.08 220.97 397.994 220.613 397.82 220.3C397.654 219.987 397.42 219.747 397.12 219.58C396.827 219.407 396.497 219.32 396.13 219.32C395.757 219.32 395.42 219.407 395.12 219.58C394.827 219.747 394.594 219.987 394.42 220.3C394.254 220.613 394.17 220.97 394.17 221.37C394.17 221.77 394.254 222.127 394.42 222.44C394.594 222.753 394.827 222.997 395.12 223.17C395.42 223.337 395.757 223.42 396.13 223.42ZM405.338 221.59H400.938C400.978 222.137 401.188 222.58 401.568 222.92C401.948 223.253 402.428 223.42 403.008 223.42C403.334 223.42 403.634 223.363 403.908 223.25C404.181 223.13 404.418 222.957 404.618 222.73L405.018 223.19C404.784 223.47 404.491 223.683 404.138 223.83C403.791 223.977 403.408 224.05 402.988 224.05C402.448 224.05 401.968 223.937 401.548 223.71C401.134 223.477 400.811 223.157 400.578 222.75C400.344 222.343 400.228 221.883 400.228 221.37C400.228 220.857 400.338 220.397 400.558 219.99C400.784 219.583 401.091 219.267 401.478 219.04C401.871 218.813 402.311 218.7 402.798 218.7C403.284 218.7 403.721 218.813 404.108 219.04C404.494 219.267 404.798 219.583 405.018 219.99C405.238 220.39 405.348 220.85 405.348 221.37L405.338 221.59ZM402.798 219.31C402.291 219.31 401.864 219.473 401.518 219.8C401.178 220.12 400.984 220.54 400.938 221.06H404.668C404.621 220.54 404.424 220.12 404.078 219.8C403.738 219.473 403.311 219.31 402.798 219.31ZM407.473 219.77C407.639 219.417 407.886 219.15 408.213 218.97C408.546 218.79 408.956 218.7 409.443 218.7V219.39L409.273 219.38C408.719 219.38 408.286 219.55 407.973 219.89C407.659 220.23 407.503 220.707 407.503 221.32V224H406.793V218.74H407.473V219.77ZM410.109 225.94C410.502 225.267 410.792 224.547 410.979 223.78C411.166 223.007 411.259 222.167 411.259 221.26C411.259 220.353 411.166 219.517 410.979 218.75C410.792 217.977 410.502 217.253 410.109 216.58H410.789C411.162 217.18 411.449 217.883 411.649 218.69C411.856 219.49 411.959 220.347 411.959 221.26C411.959 222.173 411.859 223.03 411.659 223.83C411.459 224.63 411.169 225.333 410.789 225.94H410.109ZM363.036 229H363.776V236H363.036V229ZM368.584 230.7C369.244 230.7 369.767 230.893 370.154 231.28C370.547 231.66 370.744 232.217 370.744 232.95V236H370.034V233.02C370.034 232.473 369.897 232.057 369.624 231.77C369.351 231.483 368.961 231.34 368.454 231.34C367.887 231.34 367.437 231.51 367.104 231.85C366.777 232.183 366.614 232.647 366.614 233.24V236H365.904V230.74H366.584V231.71C366.777 231.39 367.044 231.143 367.384 230.97C367.731 230.79 368.131 230.7 368.584 230.7ZM374.871 236.05C374.351 236.05 373.885 235.937 373.471 235.71C373.065 235.483 372.745 235.167 372.511 234.76C372.278 234.347 372.161 233.883 372.161 233.37C372.161 232.857 372.278 232.397 372.511 231.99C372.745 231.583 373.065 231.267 373.471 231.04C373.885 230.813 374.351 230.7 374.871 230.7C375.325 230.7 375.728 230.79 376.081 230.97C376.441 231.143 376.725 231.4 376.931 231.74L376.401 232.1C376.228 231.84 376.008 231.647 375.741 231.52C375.475 231.387 375.185 231.32 374.871 231.32C374.491 231.32 374.148 231.407 373.841 231.58C373.541 231.747 373.305 231.987 373.131 232.3C372.965 232.613 372.881 232.97 372.881 233.37C372.881 233.777 372.965 234.137 373.131 234.45C373.305 234.757 373.541 234.997 373.841 235.17C374.148 235.337 374.491 235.42 374.871 235.42C375.185 235.42 375.475 235.357 375.741 235.23C376.008 235.103 376.228 234.91 376.401 234.65L376.931 235.01C376.725 235.35 376.441 235.61 376.081 235.79C375.721 235.963 375.318 236.05 374.871 236.05ZM382.818 233.59H378.418C378.458 234.137 378.668 234.58 379.048 234.92C379.428 235.253 379.908 235.42 380.488 235.42C380.815 235.42 381.115 235.363 381.388 235.25C381.661 235.13 381.898 234.957 382.098 234.73L382.498 235.19C382.265 235.47 381.971 235.683 381.618 235.83C381.271 235.977 380.888 236.05 380.468 236.05C379.928 236.05 379.448 235.937 379.028 235.71C378.615 235.477 378.291 235.157 378.058 234.75C377.825 234.343 377.708 233.883 377.708 233.37C377.708 232.857 377.818 232.397 378.038 231.99C378.265 231.583 378.571 231.267 378.958 231.04C379.351 230.813 379.791 230.7 380.278 230.7C380.765 230.7 381.201 230.813 381.588 231.04C381.975 231.267 382.278 231.583 382.498 231.99C382.718 232.39 382.828 232.85 382.828 233.37L382.818 233.59ZM380.278 231.31C379.771 231.31 379.345 231.473 378.998 231.8C378.658 232.12 378.465 232.54 378.418 233.06H382.148C382.101 232.54 381.905 232.12 381.558 231.8C381.218 231.473 380.791 231.31 380.278 231.31ZM386.953 230.7C387.613 230.7 388.137 230.893 388.523 231.28C388.917 231.66 389.113 232.217 389.113 232.95V236H388.403V233.02C388.403 232.473 388.267 232.057 387.993 231.77C387.72 231.483 387.33 231.34 386.823 231.34C386.257 231.34 385.807 231.51 385.473 231.85C385.147 232.183 384.983 232.647 384.983 233.24V236H384.273V230.74H384.953V231.71C385.147 231.39 385.413 231.143 385.753 230.97C386.1 230.79 386.5 230.7 386.953 230.7ZM393.811 235.68C393.677 235.8 393.511 235.893 393.311 235.96C393.117 236.02 392.914 236.05 392.701 236.05C392.207 236.05 391.827 235.917 391.561 235.65C391.294 235.383 391.161 235.007 391.161 234.52V231.34H390.221V230.74H391.161V229.59H391.871V230.74H393.471V231.34H391.871V234.48C391.871 234.793 391.947 235.033 392.101 235.2C392.261 235.36 392.487 235.44 392.781 235.44C392.927 235.44 393.067 235.417 393.201 235.37C393.341 235.323 393.461 235.257 393.561 235.17L393.811 235.68ZM395.103 230.74H395.813V236H395.103V230.74ZM395.463 229.59C395.317 229.59 395.193 229.54 395.093 229.44C394.993 229.34 394.943 229.22 394.943 229.08C394.943 228.947 394.993 228.83 395.093 228.73C395.193 228.63 395.317 228.58 395.463 228.58C395.61 228.58 395.733 228.63 395.833 228.73C395.933 228.823 395.983 228.937 395.983 229.07C395.983 229.217 395.933 229.34 395.833 229.44C395.733 229.54 395.61 229.59 395.463 229.59ZM402.209 230.74L399.869 236H399.139L396.809 230.74H397.549L399.519 235.22L401.509 230.74H402.209ZM407.642 233.59H403.242C403.282 234.137 403.492 234.58 403.872 234.92C404.252 235.253 404.732 235.42 405.312 235.42C405.639 235.42 405.939 235.363 406.212 235.25C406.486 235.13 406.722 234.957 406.922 234.73L407.322 235.19C407.089 235.47 406.796 235.683 406.442 235.83C406.096 235.977 405.712 236.05 405.292 236.05C404.752 236.05 404.272 235.937 403.852 235.71C403.439 235.477 403.116 235.157 402.882 234.75C402.649 234.343 402.532 233.883 402.532 233.37C402.532 232.857 402.642 232.397 402.862 231.99C403.089 231.583 403.396 231.267 403.782 231.04C404.176 230.813 404.616 230.7 405.102 230.7C405.589 230.7 406.026 230.813 406.412 231.04C406.799 231.267 407.102 231.583 407.322 231.99C407.542 232.39 407.652 232.85 407.652 233.37L407.642 233.59ZM405.102 231.31C404.596 231.31 404.169 231.473 403.822 231.8C403.482 232.12 403.289 232.54 403.242 233.06H406.972C406.926 232.54 406.729 232.12 406.382 231.8C406.042 231.473 405.616 231.31 405.102 231.31ZM410.507 236.05C410.081 236.05 409.671 235.99 409.277 235.87C408.891 235.743 408.587 235.587 408.367 235.4L408.687 234.84C408.907 235.013 409.184 235.157 409.517 235.27C409.851 235.377 410.197 235.43 410.557 235.43C411.037 235.43 411.391 235.357 411.617 235.21C411.851 235.057 411.967 234.843 411.967 234.57C411.967 234.377 411.904 234.227 411.777 234.12C411.651 234.007 411.491 233.923 411.297 233.87C411.104 233.81 410.847 233.753 410.527 233.7C410.101 233.62 409.757 233.54 409.497 233.46C409.237 233.373 409.014 233.23 408.827 233.03C408.647 232.83 408.557 232.553 408.557 232.2C408.557 231.76 408.741 231.4 409.107 231.12C409.474 230.84 409.984 230.7 410.637 230.7C410.977 230.7 411.317 230.747 411.657 230.84C411.997 230.927 412.277 231.043 412.497 231.19L412.187 231.76C411.754 231.46 411.237 231.31 410.637 231.31C410.184 231.31 409.841 231.39 409.607 231.55C409.381 231.71 409.267 231.92 409.267 232.18C409.267 232.38 409.331 232.54 409.457 232.66C409.591 232.78 409.754 232.87 409.947 232.93C410.141 232.983 410.407 233.04 410.747 233.1C411.167 233.18 411.504 233.26 411.757 233.34C412.011 233.42 412.227 233.557 412.407 233.75C412.587 233.943 412.677 234.21 412.677 234.55C412.677 235.01 412.484 235.377 412.097 235.65C411.717 235.917 411.187 236.05 410.507 236.05Z" fill="#23265D"/>
<defs>
<filter id="filter0_di" x="163.516" y="67.7106" width="122.421" height="152.605" filterUnits="userSpaceOnUse" color-interpolation-filters="sRGB">
<feFlood flood-opacity="0" result="BackgroundImageFix"/>
<feColorMatrix in="SourceAlpha" type="matrix" values="0 0 0 0 0 0 0 0 0 0 0 0 0 0 0 0 0 0 127 0"/>
<feOffset dx="10" dy="1"/>
<feGaussianBlur stdDeviation="5"/>
<feColorMatrix type="matrix" values="0 0 0 0 0.513726 0 0 0 0 0.443137 0 0 0 0 0.968627 0 0 0 0.2 0"/>
<feBlend mode="normal" in2="BackgroundImageFix" result="effect1_dropShadow"/>
<feBlend mode="normal" in="SourceGraphic" in2="effect1_dropShadow" result="shape"/>
<feColorMatrix in="SourceAlpha" type="matrix" values="0 0 0 0 0 0 0 0 0 0 0 0 0 0 0 0 0 0 127 0" result="hardAlpha"/>
<feOffset/>
<feGaussianBlur stdDeviation="1"/>
<feComposite in2="hardAlpha" operator="arithmetic" k2="-1" k3="1"/>
<feColorMatrix type="matrix" values="0 0 0 0 0.517647 0 0 0 0 0.321569 0 0 0 0 0.752941 0 0 0 1 0"/>
<feBlend mode="normal" in2="shape" result="effect2_innerShadow"/>
</filter>
<filter id="filter1_ii" x="161.516" y="74.7106" width="106.421" height="134.605" filterUnits="userSpaceOnUse" color-interpolation-filters="sRGB">
<feFlood flood-opacity="0" result="BackgroundImageFix"/>
<feBlend mode="normal" in="SourceGraphic" in2="BackgroundImageFix" result="shape"/>
<feColorMatrix in="SourceAlpha" type="matrix" values="0 0 0 0 0 0 0 0 0 0 0 0 0 0 0 0 0 0 127 0" result="hardAlpha"/>
<feOffset dx="5" dy="-3"/>
<feGaussianBlur stdDeviation="1"/>
<feComposite in2="hardAlpha" operator="arithmetic" k2="-1" k3="1"/>
<feColorMatrix type="matrix" values="0 0 0 0 0.304388 0 0 0 0 0.152778 0 0 0 0 0.733333 0 0 0 0.5 0"/>
<feBlend mode="normal" in2="shape" result="effect1_innerShadow"/>
<feColorMatrix in="SourceAlpha" type="matrix" values="0 0 0 0 0 0 0 0 0 0 0 0 0 0 0 0 0 0 127 0" result="hardAlpha"/>
<feOffset dx="-7" dy="-1"/>
<feGaussianBlur stdDeviation="1"/>
<feComposite in2="hardAlpha" operator="arithmetic" k2="-1" k3="1"/>
<feColorMatrix type="matrix" values="0 0 0 0 0.305882 0 0 0 0 0.152941 0 0 0 0 0.733333 0 0 0 1 0"/>
<feBlend mode="normal" in2="effect1_innerShadow" result="effect2_innerShadow"/>
</filter>
<filter id="filter2_ii" x="99.6826" y="64.595" width="147.995" height="145.977" filterUnits="userSpaceOnUse" color-interpolation-filters="sRGB">
<feFlood flood-opacity="0" result="BackgroundImageFix"/>
<feBlend mode="normal" in="SourceGraphic" in2="BackgroundImageFix" result="shape"/>
<feColorMatrix in="SourceAlpha" type="matrix" values="0 0 0 0 0 0 0 0 0 0 0 0 0 0 0 0 0 0 127 0" result="hardAlpha"/>
<feOffset dx="-3" dy="4"/>
<feGaussianBlur stdDeviation="1"/>
<feComposite in2="hardAlpha" operator="arithmetic" k2="-1" k3="1"/>
<feColorMatrix type="matrix" values="0 0 0 0 0.579206 0 0 0 0 0.376875 0 0 0 0 0.8375 0 0 0 1 0"/>
<feBlend mode="normal" in2="shape" result="effect1_innerShadow"/>
<feColorMatrix in="SourceAlpha" type="matrix" values="0 0 0 0 0 0 0 0 0 0 0 0 0 0 0 0 0 0 127 0" result="hardAlpha"/>
<feOffset dx="6" dy="4"/>
<feGaussianBlur stdDeviation="1"/>
<feComposite in2="hardAlpha" operator="arithmetic" k2="-1" k3="1"/>
<feColorMatrix type="matrix" values="0 0 0 0 0.517647 0 0 0 0 0.337255 0 0 0 0 0.74902 0 0 0 0.9 0"/>
<feBlend mode="normal" in2="effect1_innerShadow" result="effect2_innerShadow"/>
</filter>
<filter id="filter3_ii" x="124.382" y="57.5806" width="152.282" height="152.287" filterUnits="userSpaceOnUse" color-interpolation-filters="sRGB">
<feFlood flood-opacity="0" result="BackgroundImageFix"/>
<feBlend mode="normal" in="SourceGraphic" in2="BackgroundImageFix" result="shape"/>
<feColorMatrix in="SourceAlpha" type="matrix" values="0 0 0 0 0 0 0 0 0 0 0 0 0 0 0 0 0 0 127 0" result="hardAlpha"/>
<feOffset dx="5" dy="-4"/>
<feGaussianBlur stdDeviation="1"/>
<feComposite in2="hardAlpha" operator="arithmetic" k2="-1" k3="1"/>
<feColorMatrix type="matrix" values="0 0 0 0 0.403922 0 0 0 0 0.364706 0 0 0 0 0.807843 0 0 0 0.5 0"/>
<feBlend mode="normal" in2="shape" result="effect1_innerShadow"/>
<feColorMatrix in="SourceAlpha" type="matrix" values="0 0 0 0 0 0 0 0 0 0 0 0 0 0 0 0 0 0 127 0" result="hardAlpha"/>
<feOffset dx="-4" dy="2"/>
<feGaussianBlur stdDeviation="0.75"/>
<feComposite in2="hardAlpha" operator="arithmetic" k2="-1" k3="1"/>
<feColorMatrix type="matrix" values="0 0 0 0 0.403922 0 0 0 0 0.364706 0 0 0 0 0.807843 0 0 0 1 0"/>
<feBlend mode="normal" in2="effect1_innerShadow" result="effect2_innerShadow"/>
</filter>
<filter id="filter4_ii" x="201.236" y="96.1744" width="138.643" height="157.735" filterUnits="userSpaceOnUse" color-interpolation-filters="sRGB">
<feFlood flood-opacity="0" result="BackgroundImageFix"/>
<feBlend mode="normal" in="SourceGraphic" in2="BackgroundImageFix" result="shape"/>
<feColorMatrix in="SourceAlpha" type="matrix" values="0 0 0 0 0 0 0 0 0 0 0 0 0 0 0 0 0 0 127 0" result="hardAlpha"/>
<feOffset dx="-11" dy="-1"/>
<feGaussianBlur stdDeviation="1"/>
<feComposite in2="hardAlpha" operator="arithmetic" k2="-1" k3="1"/>
<feColorMatrix type="matrix" values="0 0 0 0 0.373698 0 0 0 0 0.427018 0 0 0 0 0.729167 0 0 0 0.5 0"/>
<feBlend mode="normal" in2="shape" result="effect1_innerShadow"/>
<feColorMatrix in="SourceAlpha" type="matrix" values="0 0 0 0 0 0 0 0 0 0 0 0 0 0 0 0 0 0 127 0" result="hardAlpha"/>
<feOffset dx="2" dy="4"/>
<feGaussianBlur stdDeviation="1"/>
<feComposite in2="hardAlpha" operator="arithmetic" k2="-1" k3="1"/>
<feColorMatrix type="matrix" values="0 0 0 0 0.517647 0 0 0 0 0.564706 0 0 0 0 0.85098 0 0 0 1 0"/>
<feBlend mode="normal" in2="effect1_innerShadow" result="effect2_innerShadow"/>
</filter>
<filter id="filter5_ii" x="198.654" y="138.341" width="152.435" height="111.577" filterUnits="userSpaceOnUse" color-interpolation-filters="sRGB">
<feFlood flood-opacity="0" result="BackgroundImageFix"/>
<feBlend mode="normal" in="SourceGraphic" in2="BackgroundImageFix" result="shape"/>
<feColorMatrix in="SourceAlpha" type="matrix" values="0 0 0 0 0 0 0 0 0 0 0 0 0 0 0 0 0 0 127 0" result="hardAlpha"/>
<feMorphology radius="10" operator="erode" in="SourceAlpha" result="effect1_innerShadow"/>
<feOffset dx="-6" dy="5"/>
<feGaussianBlur stdDeviation="1"/>
<feComposite in2="hardAlpha" operator="arithmetic" k2="-1" k3="1"/>
<feColorMatrix type="matrix" values="0 0 0 0 0.269334 0 0 0 0 0.237344 0 0 0 0 0.6125 0 0 0 0.5 0"/>
<feBlend mode="normal" in2="shape" result="effect1_innerShadow"/>
<feColorMatrix in="SourceAlpha" type="matrix" values="0 0 0 0 0 0 0 0 0 0 0 0 0 0 0 0 0 0 127 0" result="hardAlpha"/>
<feOffset dx="-7" dy="-6"/>
<feGaussianBlur stdDeviation="1"/>
<feComposite in2="hardAlpha" operator="arithmetic" k2="-1" k3="1"/>
<feColorMatrix type="matrix" values="0 0 0 0 0.403922 0 0 0 0 0.364706 0 0 0 0 0.807843 0 0 0 1 0"/>
<feBlend mode="normal" in2="effect1_innerShadow" result="effect2_innerShadow"/>
</filter>
<filter id="filter6_di" x="3.29932" y="68.375" width="367.511" height="344.883" filterUnits="userSpaceOnUse" color-interpolation-filters="sRGB">
<feFlood flood-opacity="0" result="BackgroundImageFix"/>
<feColorMatrix in="SourceAlpha" type="matrix" values="0 0 0 0 0 0 0 0 0 0 0 0 0 0 0 0 0 0 127 0"/>
<feOffset dx="-5" dy="5"/>
<feGaussianBlur stdDeviation="5"/>
<feColorMatrix type="matrix" values="0 0 0 0 0.580392 0 0 0 0 0.109804 0 0 0 0 0.960784 0 0 0 0.2 0"/>
<feBlend mode="normal" in2="BackgroundImageFix" result="effect1_dropShadow"/>
<feBlend mode="normal" in="SourceGraphic" in2="effect1_dropShadow" result="shape"/>
<feColorMatrix in="SourceAlpha" type="matrix" values="0 0 0 0 0 0 0 0 0 0 0 0 0 0 0 0 0 0 127 0" result="hardAlpha"/>
<feOffset dx="-14" dy="10"/>
<feGaussianBlur stdDeviation="1"/>
<feComposite in2="hardAlpha" operator="arithmetic" k2="-1" k3="1"/>
<feColorMatrix type="matrix" values="0 0 0 0 0.484991 0 0 0 0 0.0179687 0 0 0 0 0.8625 0 0 0 1 0"/>
<feBlend mode="normal" in2="shape" result="effect2_innerShadow"/>
</filter>
</defs>
</svg>
