<svg xmlns="http://www.w3.org/2000/svg" width="33.86" height="51.76" viewBox="0 0 33.86 51.76">
    <path fill="rgba(135,242,231,0.5)" d="M33.6 0c.4 0 .48-.08.64-.48l1.2-4.96c.08-.32-.08-.4-.48-.4H23.92c-7.2 0-9.84 0-12.56.24a147.781 147.781 0 0 0 11.92-10.96c7.36-7.28 9.52-13.2 9.52-19.36 0-8.32-4.96-15.84-16-15.84a26.576 26.576 0 0 0-13.36 3.6c-.32.24-.32.32-.32.72v5.12c0 .32.24.48.56.24a22.237 22.237 0 0 1 11.84-3.52c7.44 0 10.56 4.64 10.56 10.4 0 5.12-1.84 10.08-9.52 17.44A182.774 182.774 0 0 1 1.92-4.96a.928.928 0 0 0-.32.8v3.6c0 .32.08.56.48.56z" transform="translate(-1.6 51.76)"/>
</svg>
