<svg xmlns="http://www.w3.org/2000/svg" xmlns:xlink="http://www.w3.org/1999/xlink" id="logo" width="156.022" height="41.25" viewBox="0 0 156.022 41.25">
    <defs>
        <linearGradient id="linear-gradient" x1="-1.177" x2="2.4" y1="-.667" y2="1.748" gradientUnits="objectBoundingBox">
            <stop offset="0" stop-color="#87f2e7"/>
            <stop offset="1" stop-color="#2e37f2"/>
        </linearGradient>
        <linearGradient id="linear-gradient-2" x1="-.901" x2="2.91" y1="-.102" y2="1.508" xlink:href="#linear-gradient"/>
        <linearGradient id="linear-gradient-3" x1="-1.304" x2="3.954" y1=".009" y2="1.449" xlink:href="#linear-gradient"/>
        <linearGradient id="linear-gradient-4" x1="-6.29" x2=".691" y1=".279" y2=".505" xlink:href="#linear-gradient"/>
        <linearGradient id="linear-gradient-5" x1="-2.203" x2="4.635" y1="-.164" y2="1.523" xlink:href="#linear-gradient"/>
        <linearGradient id="linear-gradient-6" x1="-3.164" x2="1.51" y1="-.903" y2=".86" xlink:href="#linear-gradient"/>
        <linearGradient id="linear-gradient-7" x1="-2.439" x2="1.357" y1="-.654" y2=".827" xlink:href="#linear-gradient"/>
        <linearGradient id="linear-gradient-8" x1="-2.342" x2="1.439" y1="-.686" y2=".894" xlink:href="#linear-gradient"/>
        <linearGradient id="linear-gradient-9" x1="-2.867" x2="1.76" y1="-1.122" y2="1.139" xlink:href="#linear-gradient"/>
        <linearGradient id="linear-gradient-10" x1="-6.505" x2=".768" y1="-2.08" y2=".644" xlink:href="#linear-gradient"/>
        <linearGradient id="linear-gradient-11" x1="-1.687" x2="2.078" y1="-.504" y2="1.189" xlink:href="#linear-gradient"/>
        <linearGradient id="linear-gradient-12" x1="-.655" x2="3.269" y1="-.179" y2="2.094" xlink:href="#linear-gradient"/>
        <linearGradient id="linear-gradient-13" x1="-4.182" x2="1.022" y1=".179" y2=".536" xlink:href="#linear-gradient"/>
        <linearGradient id="linear-gradient-14" x1="-.661" x2="4.81" y1=".166" y2="1.74" xlink:href="#linear-gradient"/>
        <linearGradient id="linear-gradient-15" x1="-1.912" x2="2.603" y1="-.371" y2="1.264" xlink:href="#linear-gradient"/>
        <linearGradient id="linear-gradient-16" x1="-2.613" x2="10.466" y1=".138" y2="1.661" xlink:href="#linear-gradient"/>
        <linearGradient id="linear-gradient-17" x1="-3.282" x2=".557" y1="-1.016" y2=".524" xlink:href="#linear-gradient"/>
        <linearGradient id="linear-gradient-18" x1="-3.063" x2=".702" y1="-1.475" y2=".639" xlink:href="#linear-gradient"/>
        <clipPath id="clip-path">
            <path id="Path_52" d="M0 0h43.312v41.25H0z" class="cls-1"/>
        </clipPath>
        <clipPath id="clip-path-2">
            <path id="Path_25" d="M70.533 61.395l2.114-2.57 1.169 3.115-2.116 2.57z" class="cls-1" transform="translate(-70.533 -58.825)"/>
        </clipPath>
        <clipPath id="clip-path-3">
            <path id="Path_28" d="M4.843 20.265l3.247-.726-1 3.175-3.247.726z" class="cls-1" transform="translate(-3.847 -19.539)"/>
        </clipPath>
        <clipPath id="clip-path-4">
            <path id="Path_35" d="M66.381 2.322l3.227 2.019-.572 2.566-3.227-2.019z" class="cls-1" transform="translate(-65.809 -2.322)"/>
        </clipPath>
        <clipPath id="clip-path-5">
            <path id="Path_39" d="M6.367 50.858l1.776 1.972-.82 2.525-1.776-1.972z" class="cls-1" transform="translate(-5.547 -50.858)"/>
        </clipPath>
        <clipPath id="clip-path-6">
            <path id="Path_45" d="M70.622 29.34l1.844-2.948 1.63 3.071-1.844 2.948z" class="cls-1" transform="translate(-70.622 -26.393)"/>
        </clipPath>
        <clipPath id="clip-path-7">
            <path id="Path_47" d="M28.88 68.684l-4.436.235-1.833-3.673 4.436-.235z" class="cls-1" transform="translate(-22.611 -65.011)"/>
        </clipPath>
        <clipPath id="clip-path-8">
            <path id="Path_49" d="M51.156 23.055l-.214-4.535 3.875-1.607.214 4.535z" class="cls-1" transform="translate(-50.942 -16.913)"/>
        </clipPath>
        <clipPath id="clip-path-9">
            <path id="Path_51" d="M0 0h5.284v6.124H0z" class="cls-1" transform="rotate(-48.417 4.395 1.976)"/>
        </clipPath>
        <style>
            .cls-1{fill:none}.cls-2{fill:#fff}
        </style>
    </defs>
    <g id="Group_913" transform="translate(56.128 8.569)">
        <path id="Path_1" d="M95.666 59.338v-6.719h4.514v1.145h-3.208V55.5h2.669v1.06h-2.669v2.782zm5.311-5.65V52.43h1.268v1.259zm0 5.65v-4.959h1.268v4.959zm7.021 0h-1.268v-2.782a1.449 1.449 0 0 0-.208-.871.683.683 0 0 0-.577-.274 1.158 1.158 0 0 0-.52.132 1.6 1.6 0 0 0-.464.369 1.385 1.385 0 0 0-.3.53v2.9h-1.268v-4.963h1.145v.921a1.9 1.9 0 0 1 .795-.729 2.477 2.477 0 0 1 1.174-.274 1.494 1.494 0 0 1 .757.17 1.141 1.141 0 0 1 .454.445 1.79 1.79 0 0 1 .218.625 3.809 3.809 0 0 1 .066.71zm.762-1.467a1.381 1.381 0 0 1 .265-.842 1.745 1.745 0 0 1 .757-.568 2.889 2.889 0 0 1 1.107-.2 3.643 3.643 0 0 1 .634.057 2.482 2.482 0 0 1 .558.142v-.26a.93.93 0 0 0-.284-.729 1.17 1.17 0 0 0-.823-.256 2.143 2.143 0 0 0-.776.142 3.923 3.923 0 0 0-.776.416l-.407-.833a4.06 4.06 0 0 1 1-.483 3.663 3.663 0 0 1 1.088-.161 2.37 2.37 0 0 1 1.647.53 1.92 1.92 0 0 1 .6 1.514v1.58a.49.49 0 0 0 .066.293.359.359 0 0 0 .237.095v1.032a2.1 2.1 0 0 1-.312.047 1.645 1.645 0 0 1-.227.019.864.864 0 0 1-.577-.17.669.669 0 0 1-.237-.416l-.028-.256a2.21 2.21 0 0 1-.814.653 2.308 2.308 0 0 1-.975.218 1.925 1.925 0 0 1-.89-.2 1.644 1.644 0 0 1-.615-.558 1.523 1.523 0 0 1-.217-.805zm3.085.256a.632.632 0 0 0 .237-.435v-.5a2.635 2.635 0 0 0-.994-.2 1.394 1.394 0 0 0-.814.218.641.641 0 0 0-.312.558.706.706 0 0 0 .227.511.884.884 0 0 0 .653.227 1.488 1.488 0 0 0 .549-.1 1.343 1.343 0 0 0 .455-.279zm7.3 1.211h-1.268v-2.782a1.449 1.449 0 0 0-.208-.871.683.683 0 0 0-.577-.274 1.158 1.158 0 0 0-.52.132 1.6 1.6 0 0 0-.464.369 1.385 1.385 0 0 0-.3.53v2.9h-1.268v-4.963h1.145v.921a1.9 1.9 0 0 1 .795-.729 2.477 2.477 0 0 1 1.173-.274 1.5 1.5 0 0 1 .757.17 1.142 1.142 0 0 1 .454.445 1.79 1.79 0 0 1 .218.625 3.808 3.808 0 0 1 .066.71zm3.411.095a2.61 2.61 0 0 1-1.391-.36 2.513 2.513 0 0 1-.909-.946 2.6 2.6 0 0 1-.322-1.268 2.677 2.677 0 0 1 .312-1.278 2.444 2.444 0 0 1 .909-.937 2.665 2.665 0 0 1 1.391-.35 2.583 2.583 0 0 1 1.382.35 2.227 2.227 0 0 1 .861.918l-1.24.379a1.094 1.094 0 0 0-1.013-.568 1.246 1.246 0 0 0-1.126.71 1.675 1.675 0 0 0-.17.776 1.712 1.712 0 0 0 .17.776 1.48 1.48 0 0 0 .473.53 1.179 1.179 0 0 0 .653.189 1.245 1.245 0 0 0 .625-.161.94.94 0 0 0 .407-.426l1.24.379a2.137 2.137 0 0 1-.852.927 2.628 2.628 0 0 1-1.4.36zm5.286 0a2.665 2.665 0 0 1-1.391-.35 2.485 2.485 0 0 1-.9-.927 2.6 2.6 0 0 1-.322-1.268 2.7 2.7 0 0 1 .312-1.287 2.425 2.425 0 0 1 .909-.946 2.628 2.628 0 0 1 1.4-.36 2.58 2.58 0 0 1 1.391.36 2.328 2.328 0 0 1 .88.937 2.585 2.585 0 0 1 .312 1.249 2.773 2.773 0 0 1-.028.426h-3.833a1.293 1.293 0 0 0 .426.909 1.331 1.331 0 0 0 .89.331 1.465 1.465 0 0 0 .71-.18 1 1 0 0 0 .464-.492l1.088.3a2.234 2.234 0 0 1-.88.937 2.747 2.747 0 0 1-1.429.36zm-1.3-2.972h2.593a1.364 1.364 0 0 0-.426-.9 1.214 1.214 0 0 0-.88-.35 1.235 1.235 0 0 0-.88.35 1.346 1.346 0 0 0-.407.9zm12.162-.984a2.276 2.276 0 0 0-1.032.227 1.331 1.331 0 0 0-.653.634v3h-1.268v-4.959h1.164v1.06a2.155 2.155 0 0 1 .662-.8 1.677 1.677 0 0 1 .871-.322 2.054 2.054 0 0 1 .255.009zm2.942 3.956a2.665 2.665 0 0 1-1.391-.35 2.484 2.484 0 0 1-.9-.927 2.6 2.6 0 0 1-.322-1.268 2.7 2.7 0 0 1 .312-1.287 2.426 2.426 0 0 1 .909-.946 2.628 2.628 0 0 1 1.4-.36 2.579 2.579 0 0 1 1.391.36 2.328 2.328 0 0 1 .88.937 2.584 2.584 0 0 1 .312 1.249 2.778 2.778 0 0 1-.028.426h-3.833a1.293 1.293 0 0 0 .426.909 1.331 1.331 0 0 0 .89.331 1.465 1.465 0 0 0 .71-.18 1 1 0 0 0 .464-.492l1.088.3a2.234 2.234 0 0 1-.88.937 2.747 2.747 0 0 1-1.429.36zm-1.3-2.972h2.593a1.364 1.364 0 0 0-.426-.9 1.213 1.213 0 0 0-.88-.35 1.234 1.234 0 0 0-.88.35 1.347 1.347 0 0 0-.4.9zm4.73 2.877v-6.719h2.442a3.445 3.445 0 0 1 1.836.454 2.812 2.812 0 0 1 1.107 1.211 3.793 3.793 0 0 1 .369 1.685 3.7 3.7 0 0 1-.407 1.779 2.873 2.873 0 0 1-1.155 1.173 3.54 3.54 0 0 1-1.751.416zm4.438-3.369a2.614 2.614 0 0 0-.237-1.145 1.779 1.779 0 0 0-.681-.776 1.964 1.964 0 0 0-1.079-.284h-1.136v4.429h1.136a1.982 1.982 0 0 0 1.088-.284 1.84 1.84 0 0 0 .672-.795 2.693 2.693 0 0 0 .244-1.145zm4.513 3.464a2.665 2.665 0 0 1-1.391-.35 2.484 2.484 0 0 1-.9-.927 2.6 2.6 0 0 1-.322-1.268 2.7 2.7 0 0 1 .312-1.287 2.426 2.426 0 0 1 .908-.946 2.628 2.628 0 0 1 1.4-.36 2.579 2.579 0 0 1 1.391.36 2.327 2.327 0 0 1 .88.937 2.584 2.584 0 0 1 .312 1.249 2.78 2.78 0 0 1-.028.426h-3.833a1.293 1.293 0 0 0 .426.909 1.331 1.331 0 0 0 .89.331 1.465 1.465 0 0 0 .71-.18 1 1 0 0 0 .464-.492l1.088.3a2.234 2.234 0 0 1-.88.937 2.747 2.747 0 0 1-1.429.36zm-1.3-2.972h2.593a1.364 1.364 0 0 0-.426-.9 1.213 1.213 0 0 0-.88-.35 1.235 1.235 0 0 0-.88.35 1.347 1.347 0 0 0-.397.9zm4.729 2.877v-6.719h4.514v1.145h-3.208V55.5h2.669v1.06h-2.669v2.782zm5.311-5.65V52.43h1.268v1.259zm0 5.65v-4.959h1.268v4.959zm7.021 0h-1.258v-2.782a1.449 1.449 0 0 0-.208-.871.683.683 0 0 0-.577-.274 1.158 1.158 0 0 0-.52.132 1.6 1.6 0 0 0-.464.369 1.385 1.385 0 0 0-.3.53v2.9h-1.268v-4.963h1.145v.921a1.9 1.9 0 0 1 .795-.729 2.477 2.477 0 0 1 1.173-.274 1.5 1.5 0 0 1 .757.17 1.141 1.141 0 0 1 .454.445 1.788 1.788 0 0 1 .218.625 3.81 3.81 0 0 1 .066.71zm3.4.095a2.665 2.665 0 0 1-1.391-.35 2.485 2.485 0 0 1-.9-.927 2.6 2.6 0 0 1-.322-1.268 2.7 2.7 0 0 1 .325-1.288 2.426 2.426 0 0 1 .909-.946 2.629 2.629 0 0 1 1.4-.36 2.579 2.579 0 0 1 1.391.36 2.327 2.327 0 0 1 .88.937 2.584 2.584 0 0 1 .312 1.249 2.781 2.781 0 0 1-.028.426h-3.833a1.293 1.293 0 0 0 .426.909 1.331 1.331 0 0 0 .89.331 1.465 1.465 0 0 0 .71-.18 1 1 0 0 0 .464-.492l1.088.3a2.233 2.233 0 0 1-.88.937 2.747 2.747 0 0 1-1.429.36zm-1.3-2.972h2.612a1.364 1.364 0 0 0-.426-.9 1.214 1.214 0 0 0-.88-.35 1.234 1.234 0 0 0-.88.35 1.347 1.347 0 0 0-.414.9zm4.36.4a2.937 2.937 0 0 1 .284-1.3 2.311 2.311 0 0 1 .786-.927 1.99 1.99 0 0 1 1.145-.341 1.807 1.807 0 0 1 .984.274 1.933 1.933 0 0 1 .691.681V52.43h1.268v5.489a.491.491 0 0 0 .066.293.346.346 0 0 0 .227.095v1.032a3 3 0 0 1-.539.066.92.92 0 0 1-.568-.17.625.625 0 0 1-.246-.445l-.019-.312a1.841 1.841 0 0 1-.748.71 2.05 2.05 0 0 1-.975.246 2.208 2.208 0 0 1-1.221-.341 2.462 2.462 0 0 1-.833-.927 2.8 2.8 0 0 1-.3-1.306zm3.89.662v-1.185a1.476 1.476 0 0 0-.52-.691 1.257 1.257 0 0 0-.757-.274 1.113 1.113 0 0 0-.681.218 1.37 1.37 0 0 0-.454.558 1.707 1.707 0 0 0-.161.738 1.577 1.577 0 0 0 .18.748 1.449 1.449 0 0 0 .483.53 1.342 1.342 0 0 0 .71.189 1.257 1.257 0 0 0 .71-.237 1.209 1.209 0 0 0 .492-.6z" class="cls-2" transform="translate(-95.666 -32.024)"/>
        <path id="Path_2" d="M105.164 28.772a3.156 3.156 0 0 0-.751-.514 6.8 6.8 0 0 0-1.382-.593 4.928 4.928 0 0 0-1.639-.276q-2.232 0-2.232 1.58a1.2 1.2 0 0 0 .356.908 2.88 2.88 0 0 0 1.067.572q.711.237 1.778.514a13.5 13.5 0 0 1 2.389.829 3.682 3.682 0 0 1 1.56 1.264 3.448 3.448 0 0 1 .554 2.054 3.809 3.809 0 0 1-.732 2.428 4.034 4.034 0 0 1-1.9 1.324 7.717 7.717 0 0 1-2.567.415 10.77 10.77 0 0 1-3.14-.474 10.057 10.057 0 0 1-2.745-1.343l1.2-2.35a4.311 4.311 0 0 0 .632.474 10.519 10.519 0 0 0 1.106.572 10.111 10.111 0 0 0 1.422.475 6.257 6.257 0 0 0 1.56.2q2.252 0 2.252-1.442a1.218 1.218 0 0 0-.454-.988 3.758 3.758 0 0 0-1.284-.632q-.81-.256-1.9-.573a12.144 12.144 0 0 1-2.232-.829 3.024 3.024 0 0 1-1.727-2.967 4.125 4.125 0 0 1 .672-2.409 4.223 4.223 0 0 1 1.856-1.482 6.354 6.354 0 0 1 2.588-.509 7.691 7.691 0 0 1 2.725.475 10.4 10.4 0 0 1 2.172 1.086l-1.2 2.211zm3.758 10.348V25.1h5.945a4 4 0 0 1 1.778.395 4.383 4.383 0 0 1 1.421 1.067 5.2 5.2 0 0 1 .929 1.5 4.487 4.487 0 0 1 .335 1.7 4.818 4.818 0 0 1-.553 2.252 4.663 4.663 0 0 1-1.54 1.739 3.884 3.884 0 0 1-2.271.671h-3.318v4.7h-2.725zm2.725-7.09h3.16a1.537 1.537 0 0 0 1.244-.612 2.554 2.554 0 0 0 .514-1.66 2.315 2.315 0 0 0-.573-1.678 1.766 1.766 0 0 0-1.3-.593h-3.042v4.542zm21.37-6.932V39.12h-2.706v-5.984h-6.359v5.984h-2.726V25.1h2.726v5.667h6.359V25.1h2.706zm12.663 11.633v2.389h-9.737V25.1h9.557v2.389h-6.834v3.377h5.9v2.212h-5.9v3.653zm2.12 2.389V25.1h6.2a3.99 3.99 0 0 1 1.777.395 4.377 4.377 0 0 1 1.422 1.067 4.684 4.684 0 0 1 .929 1.5 4.487 4.487 0 0 1 .335 1.7 4.635 4.635 0 0 1-.691 2.469 3.851 3.851 0 0 1-1.837 1.62l3.2 5.273h-3l-2.884-4.7h-2.721v4.7h-2.73zm2.725-7.09h3.417a1.52 1.52 0 0 0 1.264-.653 2.582 2.582 0 0 0 .514-1.62 2.43 2.43 0 0 0-.276-1.165 2.254 2.254 0 0 0-.711-.81 1.528 1.528 0 0 0-.908-.3h-3.3v4.542zm10.409 7.09V25.1h2.726v14.021h-2.726zm11.6.1a6.742 6.742 0 0 1-2.864-.553 5.132 5.132 0 0 1-1.9-1.56 6.824 6.824 0 0 1-1.047-2.232 10.193 10.193 0 0 1-.335-2.628V25.1h2.725v7.149a7.634 7.634 0 0 0 .316 2.211 3.559 3.559 0 0 0 1.067 1.7 2.969 2.969 0 0 0 2.014.651 3.026 3.026 0 0 0 2.054-.652 3.676 3.676 0 0 0 1.067-1.718 7.535 7.535 0 0 0 .316-2.192V25.1h2.706v7.15a9.978 9.978 0 0 1-.355 2.706 6.193 6.193 0 0 1-1.087 2.232 5.1 5.1 0 0 1-1.9 1.5 6.646 6.646 0 0 1-2.784.533zm20.3-.1v-9.2l-3.595 6.853h-1.521l-3.595-6.853v9.2H181.4V25.1h2.923l4.147 7.978 4.19-7.978h2.9v14.021z" class="cls-2" transform="translate(-95.669 -24.998)"/>
    </g>
    <g id="Group_10" clip-path="url(#clip-path)">
        <path id="Path_3" fill="url(#linear-gradient)" d="M28.749 10.758c-.727-.574-1.416-1.109-2.066-1.645-.306-.268-.574-.5-.842-.727A16.3 16.3 0 0 1 28.749 4.9a47.33 47.33 0 0 1 5.051-.88c.191.153.382.345.573.5.421.383.918.765 1.416 1.148a12.49 12.49 0 0 0-2.142 3.253c-1.761.651-3.138 1.149-4.898 1.837z" transform="translate(-11.837 -1.843)"/>
        <path id="Path_4" fill="url(#linear-gradient-2)" d="M16.006 23.3q-1.206-.932-2.373-1.913c-.344-.306-.688-.574-.994-.842a27.678 27.678 0 0 1 1.683-5.165 34.856 34.856 0 0 1 4.668-2.18c.268.23.574.5.88.765.65.574 1.378 1.11 2.1 1.684a32.851 32.851 0 0 0-1.263 4.974c-1.53.8-2.984 1.607-4.706 2.678z" transform="translate(-5.79 -6.048)"/>
        <path id="Path_5" fill="url(#linear-gradient-3)" d="M8.8 39.669q-1.124-.838-2.181-1.76c-.306-.268-.612-.535-.88-.8a28.219 28.219 0 0 1-.153-5.548 20.37 20.37 0 0 1 3.291-3.176c.306.268.65.574.995.88q1.174.995 2.41 1.913a48.9 48.9 0 0 0-.191 5.739A24.18 24.18 0 0 0 8.8 39.669z" transform="translate(-2.527 -13.001)"/>
        <path id="Path_6" fill="url(#linear-gradient-4)" d="M70.907 32.821q1.124-.837 2.181-1.76c.306-.268.612-.536.88-.8a31.644 31.644 0 0 0 .153-5.548 20.37 20.37 0 0 0-3.291-3.176c-.306.268-.65.574-.994.88q-1.174.995-2.41 1.913a48.914 48.914 0 0 1 .191 5.74 22.048 22.048 0 0 1 3.291 2.755z" transform="translate(-30.886 -9.864)"/>
        <path id="Path_7" fill="url(#linear-gradient-5)" d="M7.613 55.815c-.536-.421-1.071-.842-1.53-1.225-.23-.191-.421-.383-.612-.535a30.372 30.372 0 0 1-1.8-4.745 8.269 8.269 0 0 1 1.071-3.138c.268.268.574.5.88.766.65.574 1.377 1.148 2.142 1.722a48.536 48.536 0 0 0 1.11 4.9 6.181 6.181 0 0 0-1.261 2.255z" transform="translate(-1.682 -21.151)"/>
        <path id="Path_8" fill="url(#linear-gradient-6)" d="M51.475 23.341c-1.378-.727-2.794-1.454-4.171-2.258a44.663 44.663 0 0 1 .5-4.745c1.263-.688 2.487-1.377 3.788-2.219.956.536 1.875 1.071 2.832 1.53.115 1.3.229 2.334.5 4.515a30.519 30.519 0 0 1-3.443 3.176z" transform="translate(-21.669 -6.468)"/>
        <path id="Path_9" fill="url(#linear-gradient-7)" d="M42.273 39.5q-2.433-1.222-4.782-2.6c.038-1.952.076-3.635.191-5.625 2.143-1.263 3.252-1.875 4.668-2.755q2.1 1.192 4.247 2.3c.076 1.8.191 3.635.268 5.433-1.225.955-2.449 1.836-4.592 3.247z" transform="translate(-17.174 -13.066)"/>
        <path id="Path_10" fill="url(#linear-gradient-8)" d="M32.735 55.972c-1.453-.765-2.946-1.53-4.4-2.373-.115-1.875-.23-3.252-.306-5.089 3.6-2.181 3.6-2.181 4.63-2.831 1.569.918 3.176 1.76 4.782 2.6-.038 3.52-.038 4.171-.076 5.318-1.377.73-2.602 1.38-4.63 2.375z" transform="translate(-12.839 -20.925)"/>
        <path id="Path_11" fill="url(#linear-gradient-9)" d="M25.425 68.688c-1.033-.536-2.066-1.071-3.061-1.684-.345-1.76-.5-2.563-.689-3.52.957-.574 1.607-.995 3.4-1.989 1.416.8 2.87 1.607 4.286 2.334-.038 1.263-.038 2.487-.191 3.712-2.908.956-3.75 1.148-3.75 1.148z" transform="translate(-9.929 -28.169)"/>
        <path id="Path_12" fill="#c4c4c4" d="M70.9 64.236c.88-.65 1.8-1.339 2.678-2.028.421-1.683.612-2.448.8-3.367-.765-.383-1.3-.688-2.717-1.3-1.225.956-2.487 1.913-3.75 2.831-.076 1.186-.115 2.3-.076 3.405 2.373.423 3.065.459 3.065.459z" transform="translate(-31.067 -26.358)"/>
        <path id="Path_13" fill="url(#linear-gradient-10)" d="M70.9 64.236c.88-.65 1.8-1.339 2.678-2.028.421-1.683.612-2.448.8-3.367-.765-.383-1.3-.688-2.717-1.3-1.225.956-2.487 1.913-3.75 2.831-.076 1.186-.115 2.3-.076 3.405 2.373.423 3.065.459 3.065.459z" transform="translate(-31.067 -26.358)"/>
        <path id="Path_14" fill="url(#linear-gradient-11)" d="M33.509 23.795q-2.13-1.337-4.209-2.754a38.485 38.485 0 0 1 1.225-4.941c1.721-.688 2.525-1.033 4.9-1.913q1.647 1.117 3.329 2.181c-.191 1.263-.421 2.563-.574 4.745-1.836 1.071-2.1 1.225-4.668 2.678z" transform="translate(-13.422 -6.501)"/>
        <path id="Path_15" fill="url(#linear-gradient-12)" d="M14.587 9.767a12.065 12.065 0 0 1-1.454-1.913 19.547 19.547 0 0 1 3.443-3.712 27.033 27.033 0 0 1 4.476-1.53A7.818 7.818 0 0 0 22.2 4.1a16.917 16.917 0 0 0-2.984 3.481c-1.377.655-2.869 1.23-4.629 2.186z" transform="translate(-6.016 -1.196)"/>
        <path id="Path_16" fill="url(#linear-gradient-13)" d="M67.909 7.155a12.065 12.065 0 0 0 1.454-1.913 19.549 19.549 0 0 0-3.444-3.712A27.015 27.015 0 0 0 61.443 0a7.833 7.833 0 0 1-1.148 1.492 16.964 16.964 0 0 1 2.984 3.482 40.366 40.366 0 0 1 4.63 2.181z" transform="translate(-27.62)"/>
        <path id="Path_17" fill="#87f2e7" d="M23.455 39.707q-2.2-1.356-4.323-2.831a44.256 44.256 0 0 1 .23-5.739c1.339-.842 2.525-1.569 4.706-2.755 1.339.918 2.793 1.875 4.247 2.755-.115 1.722-.191 2.984-.23 5.663q-2.294 1.487-4.63 2.907z" transform="translate(-8.763 -13.001)"/>
        <path id="Path_18" fill="url(#linear-gradient-14)" d="M4.034 23.957a10.661 10.661 0 0 1-1.492-1.951A24.017 24.017 0 0 1 4.3 16.764a16.387 16.387 0 0 1 3.29-3.138 10.064 10.064 0 0 0 1.454 1.913 25.3 25.3 0 0 0-1.72 5.161 29.129 29.129 0 0 0-3.291 3.252z" transform="translate(-1.164 -6.242)"/>
        <path id="Path_19" fill="url(#linear-gradient-15)" d="M16.909 55.557q-1.785-1.108-3.52-2.3c-.345-1.416-.689-2.87-1.033-4.936a30.448 30.448 0 0 1 3.253-2.717q2.108 1.449 4.285 2.793c.115 1.722.153 2.755.345 5.051-1.188.77-2.258 1.42-3.33 2.109z" transform="translate(-5.66 -20.892)"/>
        <path id="Path_20" fill="url(#linear-gradient-16)" d="M1.713 41.528a7.086 7.086 0 0 1-1.186-1.607 25.278 25.278 0 0 1-.459-5.2 13.115 13.115 0 0 1 1.11-3.864A11.981 11.981 0 0 0 2.631 32.8a35.3 35.3 0 0 0 .153 5.51 9.086 9.086 0 0 0-1.071 3.214z" transform="translate(-.029 -14.133)"/>
        <path id="Path_21" fill="url(#linear-gradient-17)" d="M51.748 54.828q-2.289-.9-4.514-1.951c.038-1.225.076-2.946.076-5.319 1.492-1.033 2.946-1.989 4.592-3.29q2.2 1.051 4.476 1.951a48.3 48.3 0 0 1 .077 5.318 42.846 42.846 0 0 1-4.707 3.291z" transform="translate(-21.637 -20.278)"/>
        <path id="Path_22" fill="url(#linear-gradient-18)" d="M40.811 69.255q-1.869-.728-3.673-1.607c.115-.918.229-1.913.306-3.75 1.492-.688 2.869-1.339 4.668-2.334 1.53.727 3.061 1.378 4.476 1.951a20.252 20.252 0 0 1-.88 3.979 35.129 35.129 0 0 1-4.9 1.76z" transform="translate(-17.012 -28.201)"/>
        <g id="Group_6" transform="translate(2.085 1.258)">
            <g id="Group_1" clip-path="url(#clip-path-2)" transform="translate(36.139 30.62)">
                <path id="Path_23" d="M73.272 64l-.731.3 1.139.787.02-2.2L73.273 64zm-.27.344l.347-.141.2-.526-.009 1.04-.54-.373z" class="cls-2" transform="translate(-71.453 -60.687)"/>
                <path id="Path_24" d="M73.565 61.946l-1.1-.753-.022 2.114.706-.29zm-.959-.385l.626.429-.4.166-.235.611zm.3.8l.412-.169-.241.626-.413.17.242-.626z" class="cls-2" transform="translate(-71.409 -59.91)"/>
            </g>
            <g id="Group_2" clip-path="url(#clip-path-3)" transform="translate(0 9.33)">
                <path id="Path_26" d="M6.844 23.507l-.76-.215.416 1.322 1.367-1.72-1.02.612zm-.424.105l.36.1.482-.29-.647.814z" class="cls-2" transform="translate(-4.872 -21.076)"/>
                <path id="Path_27" d="M7.972 21.475l-.4-1.268-1.32 1.653.735.206zm-.519-.894l.229.723-.419-.117-.562.336.752-.942zm-.255.813l.43.12-.576.345-.43-.121z" class="cls-2" transform="translate(-4.949 -19.845)"/>
            </g>
            <g id="Group_3" clip-path="url(#clip-path-4)" transform="translate(33.579)">
                <path id="Path_29" d="M69.272 4.978a3.206 3.206 0 0 0-1.057-1.089 1.889 1.889 0 0 0-1.225-.338.758.758 0 0 0-.675.611 1.73 1.73 0 0 0 .271 1.2 3.206 3.206 0 0 0 1.057 1.089 2.628 2.628 0 0 0 .432.221c.027.01.046 0 .043-.025a.085.085 0 0 0-.051-.062 2.487 2.487 0 0 1-.408-.208 3.02 3.02 0 0 1-1-1.026 1.631 1.631 0 0 1-.255-1.133.714.714 0 0 1 .636-.576 1.78 1.78 0 0 1 1.153.319 3.02 3.02 0 0 1 1 1.026 1.631 1.631 0 0 1 .255 1.133.712.712 0 0 1-.635.576 1.342 1.342 0 0 1-.534-.041c-.026-.007-.042.008-.036.034a.087.087 0 0 0 .057.059 1.423 1.423 0 0 0 .568.043.758.758 0 0 0 .675-.611 1.737 1.737 0 0 0-.271-1.2z" class="cls-2" transform="translate(-66.029 -2.88)"/>
                <path id="Path_30" d="M69.272 4.978a3.206 3.206 0 0 0-1.057-1.089 1.889 1.889 0 0 0-1.225-.338.758.758 0 0 0-.675.611 1.73 1.73 0 0 0 .271 1.2 3.206 3.206 0 0 0 1.057 1.089 2.628 2.628 0 0 0 .432.221c.027.01.046 0 .043-.025a.085.085 0 0 0-.051-.062 2.487 2.487 0 0 1-.408-.208 3.02 3.02 0 0 1-1-1.026 1.631 1.631 0 0 1-.255-1.133.714.714 0 0 1 .636-.576 1.78 1.78 0 0 1 1.153.319 3.02 3.02 0 0 1 1 1.026 1.631 1.631 0 0 1 .255 1.133.712.712 0 0 1-.635.576 1.342 1.342 0 0 1-.534-.041c-.026-.007-.042.008-.036.034a.087.087 0 0 0 .057.059 1.423 1.423 0 0 0 .568.043.758.758 0 0 0 .675-.611 1.737 1.737 0 0 0-.271-1.2z" class="cls-2" transform="translate(-66.029 -2.88)"/>
                <path id="Path_31" d="M67.266 4.089a.068.068 0 0 0-.067-.034.626.626 0 0 0-.416.479A2.147 2.147 0 0 0 67.9 6.471c.752.47 1.471.366 1.6-.231a2.146 2.146 0 0 0-1.113-1.94 1.627 1.627 0 0 0-1.009-.288c-.022 0-.028.026-.013.052a.078.078 0 0 0 .066.043 1.51 1.51 0 0 1 .94.268 2 2 0 0 1 1.045 1.8c-.125.557-.794.653-1.495.215a2 2 0 0 1-1.044-1.8.582.582 0 0 1 .387-.445c.019-.005.02-.03.002-.056z" class="cls-2" transform="translate(-66.245 -3.094)"/>
                <path id="Path_32" d="M67.266 4.089a.068.068 0 0 0-.067-.034.626.626 0 0 0-.416.479A2.147 2.147 0 0 0 67.9 6.471c.752.47 1.471.366 1.6-.231a2.146 2.146 0 0 0-1.113-1.94 1.627 1.627 0 0 0-1.009-.288c-.022 0-.028.026-.013.052a.078.078 0 0 0 .066.043 1.51 1.51 0 0 1 .94.268 2 2 0 0 1 1.045 1.8c-.125.557-.794.653-1.495.215a2 2 0 0 1-1.044-1.8.582.582 0 0 1 .387-.445c.019-.005.02-.03.002-.056z" class="cls-2" transform="translate(-66.245 -3.094)"/>
                <path id="Path_33" d="M67.68 5.852a.252.252 0 0 0 .092.1l.878.549a.66.66 0 0 0 .34.112.261.261 0 0 0 .231-.117l.145-.236a.393.393 0 0 0-.022-.371.917.917 0 0 0-.333-.367l-.763-.477c-.06-.038-.119-.038-.143 0l-.155.255-.205-.128c-.047-.03-.094-.03-.114 0l-.076.113a.072.072 0 0 0 0 .069.174.174 0 0 0 .062.069l.184.115-.13.211a.109.109 0 0 0 .009.103zm.038-.6h.01l.862.539-.072.107h-.01l-.862-.539zm.458.524l.314.2c.048.03.095.03.114 0l.076-.113a.074.074 0 0 0 0-.069.169.169 0 0 0-.062-.069l-.294-.184.05-.082.572.358a.213.213 0 0 1 .077.083.087.087 0 0 1 .005.084l-.145.236c-.028.046-.1.046-.168 0l-.585-.366zm-.1-.06l-.055.091a.049.049 0 0 0 0 .047.117.117 0 0 0 .042.047l.628.392c.115.073.228.072.273 0l.145-.236a.169.169 0 0 0-.011-.16.4.4 0 0 0-.143-.155l-.6-.375c-.028-.017-.055-.017-.066 0l-.07.114-.179-.113.148-.241c.007-.011.022-.011.038 0L69 5.6a.735.735 0 0 1 .267.294.314.314 0 0 1 .017.3l-.145.236a.213.213 0 0 1-.189.1.538.538 0 0 1-.279-.091l-.878-.549a.066.066 0 0 1-.024-.027.028.028 0 0 1 0-.027L67.9 5.6z" class="cls-2" transform="translate(-66.605 -3.557)"/>
                <path id="Path_34" d="M67.68 5.852a.252.252 0 0 0 .092.1l.878.549a.66.66 0 0 0 .34.112.261.261 0 0 0 .231-.117l.145-.236a.393.393 0 0 0-.022-.371.917.917 0 0 0-.333-.367l-.763-.477c-.06-.038-.119-.038-.143 0l-.155.255-.205-.128c-.047-.03-.094-.03-.114 0l-.076.113a.072.072 0 0 0 0 .069.174.174 0 0 0 .062.069l.184.115-.13.211a.109.109 0 0 0 .009.103zm.038-.6h.01l.862.539-.072.107h-.01l-.862-.539zm.458.524l.314.2c.048.03.095.03.114 0l.076-.113a.074.074 0 0 0 0-.069.169.169 0 0 0-.062-.069l-.294-.184.05-.082.572.358a.213.213 0 0 1 .077.083.087.087 0 0 1 .005.084l-.145.236c-.028.046-.1.046-.168 0l-.585-.366zm-.1-.06l-.055.091a.049.049 0 0 0 0 .047.117.117 0 0 0 .042.047l.628.392c.115.073.228.072.273 0l.145-.236a.169.169 0 0 0-.011-.16.4.4 0 0 0-.143-.155l-.6-.375c-.028-.017-.055-.017-.066 0l-.07.114-.179-.113.148-.241c.007-.011.022-.011.038 0L69 5.6a.735.735 0 0 1 .267.294.314.314 0 0 1 .017.3l-.145.236a.213.213 0 0 1-.189.1.538.538 0 0 1-.279-.091l-.878-.549a.066.066 0 0 1-.024-.027.028.028 0 0 1 0-.027L67.9 5.6z" class="cls-2" transform="translate(-66.605 -3.557)"/>
            </g>
            <g id="Group_4" clip-path="url(#clip-path-5)" transform="translate(.921 26.303)">
                <path id="Path_36" d="M8.034 53.458a2.341 2.341 0 0 0-.508-1.068.807.807 0 0 0-.748-.327.808.808 0 0 0-.55.6 2.541 2.541 0 0 0 .479 2.249 1.268 1.268 0 0 0 .247.214c.016.01.03 0 .033-.024a.069.069 0 0 0-.023-.061 1.178 1.178 0 0 1-.233-.2 2.394 2.394 0 0 1-.45-2.118.762.762 0 0 1 .518-.569.761.761 0 0 1 .7.309 2.394 2.394 0 0 1 .451 2.118.761.761 0 0 1-.518.568.571.571 0 0 1-.345-.038c-.016-.007-.029.008-.029.033a.064.064 0 0 0 .028.057.607.607 0 0 0 .366.041.808.808 0 0 0 .55-.6 2.335 2.335 0 0 0 .032-1.184z" class="cls-2" transform="translate(-5.817 -51.404)"/>
                <path id="Path_37" d="M6.889 52.591c-.008-.025-.025-.04-.038-.033a.757.757 0 0 0-.357.471 2.15 2.15 0 0 0 .4 1.9.592.592 0 0 0 1.1-.233 2.152 2.152 0 0 0-.4-1.9.694.694 0 0 0-.615-.28c-.015 0-.023.025-.017.051s.021.044.036.042a.647.647 0 0 1 .573.26 2 2 0 0 1 .376 1.769.551.551 0 0 1-1.021.217 2 2 0 0 1-.376-1.769.7.7 0 0 1 .332-.439c.014-.007.019-.033.011-.057z" class="cls-2" transform="translate(-5.946 -51.615)"/>
                <path id="Path_38" d="M6.937 54.323a.187.187 0 0 0 .043.1l.483.537a.284.284 0 0 0 .206.108.208.208 0 0 0 .172-.115l.136-.233a.577.577 0 0 0 .05-.364.7.7 0 0 0-.156-.36l-.42-.466c-.033-.037-.072-.036-.094 0l-.146.251-.111-.126c-.025-.029-.056-.029-.075 0l-.069.112a.106.106 0 0 0-.01.068.13.13 0 0 0 .029.068l.1.113-.122.208a.158.158 0 0 0-.016.099zm.129-.6h.007l.474.527-.066.106h-.007L7 53.834zm.211.514l.173.192c.026.029.057.029.075 0l.069-.111a.1.1 0 0 0 .011-.068.13.13 0 0 0-.03-.068l-.161-.179.048-.081.314.349a.16.16 0 0 1 .037.081.125.125 0 0 1-.011.082l-.137.233c-.026.044-.072.046-.111 0l-.321-.357zm-.053-.059l-.052.089a.073.073 0 0 0-.007.047.089.089 0 0 0 .02.046l.345.384c.064.07.138.069.18 0l.136-.232a.246.246 0 0 0 .021-.157.3.3 0 0 0-.067-.155l-.329-.366c-.016-.017-.034-.017-.043 0l-.066.112-.1-.11.138-.236c.005-.01.016-.011.025 0l.42.466a.554.554 0 0 1 .125.287.463.463 0 0 1-.04.292l-.137.232a.169.169 0 0 1-.141.094.231.231 0 0 1-.168-.088L7 54.348a.052.052 0 0 1-.012-.027.043.043 0 0 1 0-.027l.13-.222z" class="cls-2" transform="translate(-6.182 -52.069)"/>
            </g>
            <g id="Group_5" clip-path="url(#clip-path-6)" transform="translate(36.187 13.045)">
                <path id="Path_40" d="M73.252 31.54l.184-.295a.557.557 0 0 0 .018-.5.153.153 0 0 0-.29-.01l-.184.295a.111.111 0 0 0 0 .1l.217.41c.013.026.038.027.055 0zm-.187-.458l.154-.246a.092.092 0 0 1 .173.007.333.333 0 0 1-.011.3l-.153.245-.163-.307z" class="cls-2" transform="translate(-71.696 -28.336)"/>
                <path id="Path_41" d="M73.388 30.51a.966.966 0 0 0-.019-.1c-.076-.321-.292-.464-.481-.319l-.068-.129a.031.031 0 0 0-.058 0l-.123.2a.111.111 0 0 0 0 .1l.054.1-.062.1-.054-.1a.031.031 0 0 0-.058 0l-.123.2a.111.111 0 0 0 0 .1l.054.1-.061.1a.111.111 0 0 0 0 .1l.108.2c.015.028.041.029.059 0l.061-.1.489.921-.061.1a.111.111 0 0 0 0 .1l.108.2c.016.028.042.029.059 0l.061-.1.054.1a.031.031 0 0 0 .058 0l.123-.2a.111.111 0 0 0 0-.1l-.054-.1.061-.1.054.1a.031.031 0 0 0 .058 0l.123-.2a.111.111 0 0 0 0-.1l-.054-.1a.976.976 0 0 0 .12-.584c-.031-.346-.221-.571-.422-.5zm.247.984l-.031.049a.111.111 0 0 0 0 .1l.054.1-.062.1-.054-.1a.031.031 0 0 0-.058 0l-.123.2a.111.111 0 0 0 0 .1l.054.1-.061.1-.054-.1a.031.031 0 0 0-.058 0l-.062.1-.054-.1.061-.1a.111.111 0 0 0 0-.1l-.544-1.024c-.015-.028-.041-.029-.058 0l-.061.1-.054-.1.061-.1a.111.111 0 0 0 0-.1l-.054-.1.061-.1.054.1a.031.031 0 0 0 .058 0l.123-.2a.111.111 0 0 0 0-.1l-.054-.1.061-.1.061.115c.012.023.033.028.049.012a.225.225 0 0 1 .106-.06c.158-.035.3.158.311.43a.055.055 0 0 0 0 .014c.006.037.029.057.05.045.107-.061.222-.011.295.127a.777.777 0 0 1-.017.693z" class="cls-2" transform="translate(-71.422 -28.016)"/>
                <path id="Path_42" d="M73.859 31.594l-.276.442a.111.111 0 0 0 0 .1l.217.409a.031.031 0 0 0 .058 0l.276-.442a.553.553 0 0 0 .018-.5.153.153 0 0 0-.289-.011zm.217.409l-.245.393-.163-.307.245-.393a.092.092 0 0 1 .174.006.333.333 0 0 1-.011.298z" class="cls-2" transform="translate(-71.972 -28.73)"/>
                <path id="Path_43" d="M71.972 28.611a3.329 3.329 0 0 0-.107 3.009.918.918 0 0 0 1.737.062 3.334 3.334 0 0 0 .107-3.009.918.918 0 0 0-1.737-.062zm1.576 2.969a.856.856 0 0 1-1.621-.057 3.106 3.106 0 0 1 .1-2.809.857.857 0 0 1 1.621.058 3.106 3.106 0 0 1-.1 2.808z" class="cls-2" transform="translate(-71.05 -27.137)"/>
                <path id="Path_44" d="M72.22 29.056a2.886 2.886 0 0 0-.092 2.608.8.8 0 0 0 1.505.053 2.886 2.886 0 0 0 .092-2.608.8.8 0 0 0-1.505-.053zm1.359 2.56a.734.734 0 0 1-1.39-.05 2.661 2.661 0 0 1 .086-2.407.734.734 0 0 1 1.389.049 2.661 2.661 0 0 1-.086 2.407z" class="cls-2" transform="translate(-71.189 -27.378)"/>
            </g>
        </g>
        <g id="Group_7" clip-path="url(#clip-path-7)" transform="translate(12.253 35.231)">
            <path id="Path_46" d="M27.473 68.886c-.074.05-.245-.049-.236-.138-.005-.072.1-.1.183-.047s.117.153.053.185zm.99-.156a.15.15 0 0 1-.169-.077c-.037-.062.025-.112.1-.086.093.023.141.139.069.163zm-2.212-.051c.1 0 .176.133.1.164-.054.034-.145-.019-.184-.077-.01-.05.014-.1.083-.087zm1.777-.333c-.07.061-.252-.015-.288-.118s.076-.171.2-.106.16.178.087.225zm-1.528.02c.007.1-.17.116-.268.02-.088-.074-.074-.172 0-.2.106-.027.268.079.268.181zm.728-.229c.044.087-.011.156-.1.167a.329.329 0 0 1-.2-.081c-.087-.074-.1-.181-.025-.221a.225.225 0 0 1 .127-.017.322.322 0 0 1 .2.152zm1.483-.209c-.065.054-.231-.03-.241-.119s.079-.113.168-.068.134.151.072.188zm-3.321.176c-.049.057-.205 0-.239-.084s.035-.143.13-.107.166.144.109.19zm1.262-.228a.433.433 0 0 1-.4-.09c-.156-.118-.2-.307-.087-.385a.42.42 0 0 1 .5.117c.132.132.124.307-.011.358zm.73-.052a.425.425 0 0 1-.453-.1c-.141-.12-.166-.3-.057-.367a.413.413 0 0 1 .468.094c.141.128.16.307.041.374zm.625-.266c.029.081-.029.138-.112.148a.336.336 0 0 1-.254-.148c-.035-.083 0-.167.094-.172a.285.285 0 0 1 .272.173zm-2.119.236c-.081.063-.276-.012-.328-.126-.068-.119.06-.214.2-.148s.221.22.127.28zm1.529-.516a.455.455 0 0 1-.4-.111c-.123-.1-.169-.253-.1-.338.081-.122.358-.089.51.064s.15.338-.005.385zm-1.4.074a.444.444 0 0 1-.4-.1c-.147-.112-.192-.289-.1-.372s.334-.06.479.073c.172.147.178.347.024.401zm2.16-.251a.232.232 0 0 1-.275-.161c-.017-.092.108-.133.215-.07s.156.2.063.23zm-3.091.016c.044.083.014.159-.079.169a.267.267 0 0 1-.215-.133c-.056-.1.043-.172.159-.13a.354.354 0 0 1 .134.094zm3.615-.094a.148.148 0 0 1-.18-.085c-.034-.076.076-.112.153-.051.062.042.072.111.028.136zm-4.225.225c-.033.033-.119.015-.163-.034-.059-.052-.037-.129.035-.124.091-.013.187.115.127.157zm2.3-.494a.485.485 0 0 1-.493-.234c-.094-.164.021-.32.22-.292a.5.5 0 0 1 .378.255.178.178 0 0 1-.1.271zm-.7.038a.48.48 0 0 1-.5-.237c-.091-.161.02-.311.213-.288a.478.478 0 0 1 .406.314.169.169 0 0 1-.121.21zm1.3-.172c-.114.025-.293-.092-.295-.2-.02-.114.148-.154.274-.067s.153.247.025.27zm-2.051.1a.274.274 0 0 1-.313-.139c-.063-.118.063-.208.206-.145s.222.24.107.285zm-.829-.484c.079.07.048.17-.048.161a.26.26 0 0 1-.133-.052c-.027-.042-.062-.093-.039-.128.023-.064.154-.053.219.018zm3.349-.039c-.059.054-.217-.014-.241-.1s.058-.127.152-.087.151.15.089.19zm-1.734-.075a.271.271 0 0 1-.313-.138c-.068-.119.063-.211.206-.145s.221.237.108.282zm.686-.2c-.072.049-.235-.021-.273-.114-.041-.077.01-.146.1-.14a.287.287 0 0 1 .194.1c.028.058.034.125-.022.15zm-1.552.081c-.069.058-.244-.011-.285-.112s.066-.179.19-.115c.118.054.172.184.1.232zm-.567-.583c.072.055.056.128-.007.145a.183.183 0 0 1-.156-.1c-.026-.074.085-.105.167-.04zm2.166-.063c.005.047-.012.094-.079.086-.09 0-.176-.118-.117-.159s.161.016.2.078zm-1.059 0c.017.069-.065.107-.147.074a.24.24 0 0 1-.114-.092q-.005-.029-.012-.057a.084.084 0 0 1 .077-.061.193.193 0 0 1 .2.143z" class="cls-2" transform="translate(-23.372 -65.11)"/>
        </g>
        <g id="Group_8" clip-path="url(#clip-path-8)" transform="translate(27.607 9.166)">
            <path id="Path_48" d="M51.153 21.513c-.052-.079.053-.245.146-.231.076 0 .1.107.047.19s-.159.109-.193.041zm.156 1.019a.143.143 0 0 1 .083-.166c.065-.034.118.033.089.107-.025.093-.147.134-.172.06zm.07-2.249c-.005.1-.141.17-.173.091-.035-.057.022-.146.082-.182.054-.007.104.021.092.091zm.337 1.834c-.063-.076.017-.256.126-.285s.179.09.11.209c-.054.109-.187.152-.236.076zm-.01-1.558c-.108 0-.121-.181-.019-.275.078-.084.182-.063.213.015.027.11-.087.273-.193.26zm.236.758a.124.124 0 0 1-.175-.115.317.317 0 0 1 .087-.2c.078-.083.191-.085.232-.01a.235.235 0 0 1 .017.13.3.3 0 0 1-.161.195zm.209 1.526c-.056-.07.033-.233.126-.237s.119.088.071.176-.159.127-.2.061zm-.16-3.4c-.06-.054 0-.209.089-.238s.151.046.112.141-.152.158-.2.1zm.229 1.3a.416.416 0 0 1 .1-.4c.125-.151.325-.181.406-.062a.407.407 0 0 1-.126.5c-.143.129-.328.109-.38-.033zm.05.748a.41.41 0 0 1 .106-.455c.127-.135.313-.148.387-.031a.4.4 0 0 1-.1.469c-.132.135-.32.142-.39.016zm.274.655c-.086.024-.145-.04-.154-.125a.317.317 0 0 1 .157-.248.124.124 0 0 1 .18.107.269.269 0 0 1-.183.271zm-.233-2.175c-.065-.087.016-.281.135-.325.126-.061.224.076.155.219s-.231.206-.29.106zm.532 1.595a.435.435 0 0 1 .12-.4.271.271 0 0 1 .355-.078c.128.091.092.371-.07.515s-.357.13-.406-.032zm-.068-1.429a.425.425 0 0 1 .1-.4c.119-.143.306-.176.392-.073a.385.385 0 0 1-.08.482c-.142.165-.358.154-.412-.004zm.248 2.218a.221.221 0 0 1 .172-.269c.1-.011.138.119.072.223s-.21.149-.244.051zm.005-3.15a.115.115 0 0 1-.177-.092.251.251 0 0 1 .141-.209c.1-.05.18.055.137.171a.332.332 0 0 1-.1.13zM53.1 22.9a.141.141 0 0 1 .092-.178c.08-.03.117.085.052.159-.044.06-.117.065-.144.019zm-.2-4.32c-.034-.036-.015-.122.036-.163.055-.056.137-.029.13.044.012.094-.123.182-.166.118zm.5 2.381a.459.459 0 0 1 .249-.486.211.211 0 0 1 .305.244.473.473 0 0 1-.27.367.2.2 0 0 1-.284-.125zm-.034-.714a.455.455 0 0 1 .252-.492.209.209 0 0 1 .3.238.451.451 0 0 1-.334.391.189.189 0 0 1-.221-.137zm.171 1.333a.263.263 0 0 1 .213-.287c.12-.011.161.161.068.285s-.262.133-.281 0zm-.094-2.1a.261.261 0 0 1 .148-.309c.125-.056.219.079.152.219s-.254.209-.3.089zm.515-.81c-.074.076-.179.037-.169-.06a.241.241 0 0 1 .055-.132c.045-.024.1-.057.135-.031.067.028.054.16-.022.222zm.016 3.414c-.056-.064.016-.22.11-.238s.134.068.091.16-.158.143-.2.077zm.092-1.761a.257.257 0 0 1 .146-.309c.126-.061.222.08.151.221s-.251.208-.3.089zm.206.713c-.051-.076.023-.237.122-.269a.1.1 0 0 1 .146.112.268.268 0 0 1-.111.19c-.063.031-.129.031-.159-.03zm-.072-1.582c-.061-.075.013-.248.119-.282s.188.08.12.2c-.056.113-.193.158-.239.082zm.617-.537c-.06.069-.135.048-.152-.017.008-.062.044-.138.106-.152.079-.026.111.094.042.168zm.05 2.211c-.049 0-.1-.02-.089-.087 0-.092.126-.171.168-.108s-.013.159-.083.194zm.005-1.079c-.072.012-.112-.073-.076-.155a.224.224 0 0 1 .1-.109l.061-.008a.093.093 0 0 1 .063.082.183.183 0 0 1-.145.19z" class="cls-2" transform="translate(-51.032 -17.589)"/>
        </g>
        <g id="Group_9" clip-path="url(#clip-path-9)" transform="translate(26.338 25.753)">
            <path id="Path_50" d="M56.059 54.4l-.655-.5.511-1.22v-.029l-.206-1.066a.019.019 0 0 0 0-.008l-.009-.008a.014.014 0 0 0-.011-.009l-.862-.466h-.005l-1.214.317c-.007 0-.009 0-.025.018l-.035.031-.122.111-.368.335-.536.487-.021.024v.013l-.525 1.252v.029l.209 1.064a.025.025 0 0 0 0 .011.016.016 0 0 0 .005.009l.009.008.861.46a.015.015 0 0 0 .007.007.018.018 0 0 0 .011 0 .024.024 0 0 0 .014 0l1.2-.314.005-.005.008-.005 1.026-.934.644.493a.027.027 0 0 0 .016.005.075.075 0 0 0 .039-.01.065.065 0 0 0 .022-.023.074.074 0 0 0 .016-.036.05.05 0 0 0-.005-.034zm-.566-1.678l.163-.839.145.759zm.294.023l-.371.893.063-.813zm-3.007 1.691l.209.653-.658-.354zm1.409-2.369l.582-.812.226.7zm.92-.144l-.209-.653.658.354zm.035.083l.445-.3-.172.891v.01zm-2.618 1.358v-.009l.068-.864.233.047.161.032zm2.16-2.137l-.584.815-.4-.558zm.653 1.639l-.495.849-.151-.415-.083-.243.729-.19zm-.714.087l.438-.833.29.643-.728.19zm-.449-.778l.817-.111-.446.848zm-.141 1.755l.481-.789.238.669-.846.324zm-.583-.672l.623-1.019.187.379.19.379-1 .261zm.986-.157l-.62 1.019-.19-.379-.19-.379zm-.569-.688l-.491.8-.238-.669.843-.322-.114.187zm-.155 1.772l-.813.11.336-.641.109-.208zm-1.16-.692l.494-.848.15.425.084.232zm.714-.087l-.438.833-.29-.643.728-.19zm2.1-.411l-.069.872-.233-.047-.166-.03zm-2.71-.612l.807-.737-.41.815zm.092 1.97l-.446.3.173-.9zm1.045-.036l.4.559-.983.257zm1.445-.34l-.807.737.41-.815zm-2.076-1.539l.443-.878.395.557-.837.321zM52.1 53.61l.371-.893-.063.813zm.294.023l-.163.839-.145-.759zm1.3.659l-.582.812-.226-.7.808-.108zm1.028-.371l-.443.878-.395-.557z" class="cls-2" transform="translate(-50.144 -49.155)"/>
        </g>
    </g>
</svg>
