<svg xmlns="http://www.w3.org/2000/svg" xmlns:xlink="http://www.w3.org/1999/xlink" width="923.5" height="137.5" viewBox="0 0 923.5 137.5">
  <defs>
    <clipPath id="clip-path">
      <rect id="Rectangle_130" data-name="Rectangle 130" width="733" height="70" rx="12" transform="translate(179 1372)" fill="#87f2e7"/>
    </clipPath>
    <clipPath id="clip-path-2">
      <rect width="740" height="84" fill="none"/>
    </clipPath>
  </defs>
  <g id="Rewards_Desktop" transform="translate(-179 -1304.5)">
    <rect id="Rectangle_125" data-name="Rectangle 125" width="923" height="70" rx="12" transform="translate(179 1372)" fill="#fff"/>
    <rect id="Rectangle_126" data-name="Rectangle 126" width="733" height="70" rx="12" transform="translate(179 1372)" fill="#87f2e7"/>
    <path id="Path_5177" data-name="Path 5177" d="M-108.49,0h3.078V-10.792h4.256V-13.3h-11.59v2.508h4.256Zm12.6.152c3.249,0,5.6-2.185,5.6-5.263s-2.356-5.263-5.6-5.263-5.624,2.185-5.624,5.263S-99.142.152-95.893.152Zm0-2.432a2.594,2.594,0,0,1-2.622-2.831,2.594,2.594,0,0,1,2.622-2.831,2.58,2.58,0,0,1,2.6,2.831A2.58,2.58,0,0,1-95.893-2.28Zm13.376-.3a2,2,0,0,1-1.2.38,1.192,1.192,0,0,1-1.273-1.349V-7.714h2.546v-2.28h-2.546v-2.489h-2.964v2.489h-1.577v2.28h1.577v4.2c0,2.432,1.406,3.667,3.819,3.667a4.236,4.236,0,0,0,2.413-.646Zm6.593-7.79a7.858,7.858,0,0,0-4.408,1.235l1.064,2.071a4.915,4.915,0,0,1,2.945-.95c1.6,0,2.356.741,2.356,2.014h-2.356c-3.116,0-4.389,1.254-4.389,3.059,0,1.767,1.425,3.1,3.819,3.1a3.355,3.355,0,0,0,3.116-1.425V0H-71V-5.833C-71-8.93-72.808-10.374-75.924-10.374Zm-.228,8.531c-1.045,0-1.672-.494-1.672-1.235,0-.684.437-1.2,1.824-1.2h2.033V-3.23A2.184,2.184,0,0,1-76.152-1.843ZM-68.324,0h2.964V-14.1h-2.964Zm16.891-2.584a2,2,0,0,1-1.2.38A1.192,1.192,0,0,1-53.9-3.553V-7.714h2.546v-2.28H-53.9v-2.489h-2.964v2.489h-1.577v2.28h1.577v4.2c0,2.432,1.406,3.667,3.819,3.667a4.236,4.236,0,0,0,2.413-.646Zm5.3-6.289v-1.349h-2.831V0H-46V-4.826a2.511,2.511,0,0,1,2.717-2.85c.228,0,.418.019.665.038v-2.736A4.125,4.125,0,0,0-46.132-8.873Zm9.348-1.5a7.858,7.858,0,0,0-4.408,1.235l1.064,2.071a4.915,4.915,0,0,1,2.945-.95c1.6,0,2.356.741,2.356,2.014h-2.356C-40.3-6-41.572-4.75-41.572-2.945c0,1.767,1.425,3.1,3.819,3.1a3.355,3.355,0,0,0,3.116-1.425V0h2.774V-5.833C-31.863-8.93-33.668-10.374-36.784-10.374Zm-.228,8.531c-1.045,0-1.672-.494-1.672-1.235,0-.684.437-1.2,1.824-1.2h2.033V-3.23A2.184,2.184,0,0,1-37.012-1.843ZM-21.622-14.1v4.959a3.927,3.927,0,0,0-3.059-1.235,4.969,4.969,0,0,0-5.111,5.263A4.969,4.969,0,0,0-24.681.152a3.932,3.932,0,0,0,3.192-1.33V0h2.831V-14.1ZM-24.168-2.28A2.594,2.594,0,0,1-26.79-5.111a2.594,2.594,0,0,1,2.622-2.831,2.59,2.59,0,0,1,2.6,2.831A2.59,2.59,0,0,1-24.168-2.28Zm9.728-9.367a1.7,1.7,0,0,0,1.843-1.71,1.664,1.664,0,0,0-1.843-1.6A1.694,1.694,0,0,0-16.283-13.3,1.694,1.694,0,0,0-14.44-11.647ZM-15.922,0h2.964V-10.222h-2.964ZM-3.99-10.374A4.475,4.475,0,0,0-7.372-9.025v-1.2H-10.2V0h2.964V-5.054c0-1.881,1.026-2.755,2.451-2.755,1.311,0,2.071.76,2.071,2.413V0H.247V-5.852C.247-8.968-1.577-10.374-3.99-10.374Zm14.763.152v1.311a4.1,4.1,0,0,0-3.382-1.463A4.866,4.866,0,0,0,2.28-5.434,4.866,4.866,0,0,0,7.391-.494a4.208,4.208,0,0,0,3.23-1.273v.437c0,1.843-.912,2.793-3,2.793A6.109,6.109,0,0,1,4.009.3L2.831,2.432A8.421,8.421,0,0,0,7.847,3.838c3.686,0,5.738-1.748,5.738-5.548v-8.512ZM7.98-2.926a2.5,2.5,0,0,1-2.7-2.508,2.5,2.5,0,0,1,2.7-2.508,2.482,2.482,0,0,1,2.679,2.508A2.482,2.482,0,0,1,7.98-2.926Zm16.986-7.505c0-1.007.475-1.482,1.349-1.482a2.075,2.075,0,0,1,1.2.361l.779-2.147a4.2,4.2,0,0,0-2.261-.551c-2.546,0-3.952,1.5-3.952,3.8v.456H20.5v2.28h1.577V0h2.964V-7.714h2.546v-2.28H24.966ZM38.95-5.073a5.06,5.06,0,0,0-5.32-5.3,5.2,5.2,0,0,0-5.453,5.263c0,3.04,2.3,5.263,5.833,5.263A5.354,5.354,0,0,0,38.228-1.5l-1.577-1.71a3.465,3.465,0,0,1-2.565.988A2.726,2.726,0,0,1,31.16-4.275h7.733C38.912-4.522,38.95-4.845,38.95-5.073Zm-5.3-3.059A2.429,2.429,0,0,1,36.157-6H31.122A2.42,2.42,0,0,1,33.649-8.132Zm17.29,3.059a5.06,5.06,0,0,0-5.32-5.3,5.2,5.2,0,0,0-5.453,5.263c0,3.04,2.3,5.263,5.833,5.263A5.354,5.354,0,0,0,50.217-1.5L48.64-3.211a3.465,3.465,0,0,1-2.565.988,2.726,2.726,0,0,1-2.926-2.052h7.733C50.9-4.522,50.939-4.845,50.939-5.073Zm-5.3-3.059A2.429,2.429,0,0,1,48.146-6H43.111A2.42,2.42,0,0,1,45.638-8.132ZM59.413-6.669a1.814,1.814,0,0,0,1.843-1.862,1.771,1.771,0,0,0-1.843-1.824A1.771,1.771,0,0,0,57.57-8.531,1.814,1.814,0,0,0,59.413-6.669Zm0,6.821A1.814,1.814,0,0,0,61.256-1.71a1.771,1.771,0,0,0-1.843-1.824A1.771,1.771,0,0,0,57.57-1.71,1.814,1.814,0,0,0,59.413.152ZM73.72.228c3.287,0,5.7-2.489,5.7-6.878s-2.413-6.878-5.7-6.878c-3.268,0-5.7,2.489-5.7,6.878S70.452.228,73.72.228Zm0-2.6c-1.52,0-2.584-1.254-2.584-4.275s1.064-4.275,2.584-4.275c1.539,0,2.6,1.254,2.6,4.275S75.259-2.375,73.72-2.375Zm8.7,2.527A1.814,1.814,0,0,0,84.265-1.71a1.771,1.771,0,0,0-1.843-1.824A1.771,1.771,0,0,0,80.579-1.71,1.814,1.814,0,0,0,82.422.152Zm9.633-8.037,3-3.42V-13.3h-9.31v2.47h5.662l-2.736,3.1V-5.7h1.406c1.748,0,2.489.627,2.489,1.634,0,1.083-.95,1.71-2.489,1.71a6.459,6.459,0,0,1-3.8-1.2L85.082-1.2A9.145,9.145,0,0,0,90.155.228c3.781,0,5.51-2.052,5.51-4.294C95.665-6.023,94.449-7.505,92.055-7.885Zm7.923,1.767c1.938,0,3.287-1.406,3.287-3.667s-1.349-3.667-3.287-3.667-3.306,1.425-3.306,3.667S98.04-6.118,99.978-6.118ZM98.819,0h2.261l9.082-13.3H107.9Zm1.159-7.676c-.817,0-1.387-.7-1.387-2.109s.57-2.109,1.387-2.109c.836,0,1.387.684,1.387,2.109S100.814-7.676,99.978-7.676ZM109,.152c1.938,0,3.306-1.425,3.306-3.667S110.941-7.182,109-7.182c-1.919,0-3.287,1.425-3.287,3.667S107.084.152,109,.152Zm0-1.558c-.817,0-1.387-.684-1.387-2.109s.57-2.109,1.387-2.109c.836,0,1.387.7,1.387,2.109S109.839-1.406,109-1.406Z" transform="translate(640 1331)" fill="#fff"/>
    <g id="Group_12" data-name="Group 12" clip-path="url(#clip-path)">
      <g id="Repeat_Grid_10" data-name="Repeat Grid 10" transform="translate(172 1366)" clip-path="url(#clip-path-2)">
        <g transform="translate(-172 -1366)">
          <path id="Path_1603" data-name="Path 1603" d="M28.787,0h23.03L23.03,84H0Z" transform="translate(172 1366)" fill="#6be2d5"/>
        </g>
        <g transform="translate(-134 -1366)">
          <path id="Path_1603-2" data-name="Path 1603" d="M28.787,0h23.03L23.03,84H0Z" transform="translate(172 1366)" fill="#6be2d5"/>
        </g>
        <g transform="translate(-96 -1366)">
          <path id="Path_1603-3" data-name="Path 1603" d="M28.787,0h23.03L23.03,84H0Z" transform="translate(172 1366)" fill="#6be2d5"/>
        </g>
        <g transform="translate(-58 -1366)">
          <path id="Path_1603-4" data-name="Path 1603" d="M28.787,0h23.03L23.03,84H0Z" transform="translate(172 1366)" fill="#6be2d5"/>
        </g>
        <g transform="translate(-20 -1366)">
          <path id="Path_1603-5" data-name="Path 1603" d="M28.787,0h23.03L23.03,84H0Z" transform="translate(172 1366)" fill="#6be2d5"/>
        </g>
        <g transform="translate(18 -1366)">
          <path id="Path_1603-6" data-name="Path 1603" d="M28.787,0h23.03L23.03,84H0Z" transform="translate(172 1366)" fill="#6be2d5"/>
        </g>
        <g transform="translate(56 -1366)">
          <path id="Path_1603-7" data-name="Path 1603" d="M28.787,0h23.03L23.03,84H0Z" transform="translate(172 1366)" fill="#6be2d5"/>
        </g>
        <g transform="translate(94 -1366)">
          <path id="Path_1603-8" data-name="Path 1603" d="M28.787,0h23.03L23.03,84H0Z" transform="translate(172 1366)" fill="#6be2d5"/>
        </g>
        <g transform="translate(132 -1366)">
          <path id="Path_1603-9" data-name="Path 1603" d="M28.787,0h23.03L23.03,84H0Z" transform="translate(172 1366)" fill="#6be2d5"/>
        </g>
        <g transform="translate(170 -1366)">
          <path id="Path_1603-10" data-name="Path 1603" d="M28.787,0h23.03L23.03,84H0Z" transform="translate(172 1366)" fill="#6be2d5"/>
        </g>
        <g transform="translate(208 -1366)">
          <path id="Path_1603-11" data-name="Path 1603" d="M28.787,0h23.03L23.03,84H0Z" transform="translate(172 1366)" fill="#6be2d5"/>
        </g>
        <g transform="translate(246 -1366)">
          <path id="Path_1603-12" data-name="Path 1603" d="M28.787,0h23.03L23.03,84H0Z" transform="translate(172 1366)" fill="#6be2d5"/>
        </g>
        <g transform="translate(284 -1366)">
          <path id="Path_1603-13" data-name="Path 1603" d="M28.787,0h23.03L23.03,84H0Z" transform="translate(172 1366)" fill="#6be2d5"/>
        </g>
        <g transform="translate(322 -1366)">
          <path id="Path_1603-14" data-name="Path 1603" d="M28.787,0h23.03L23.03,84H0Z" transform="translate(172 1366)" fill="#6be2d5"/>
        </g>
        <g transform="translate(360 -1366)">
          <path id="Path_1603-15" data-name="Path 1603" d="M28.787,0h23.03L23.03,84H0Z" transform="translate(172 1366)" fill="#6be2d5"/>
        </g>
        <g transform="translate(398 -1366)">
          <path id="Path_1603-16" data-name="Path 1603" d="M28.787,0h23.03L23.03,84H0Z" transform="translate(172 1366)" fill="#6be2d5"/>
        </g>
        <g transform="translate(436 -1366)">
          <path id="Path_1603-17" data-name="Path 1603" d="M28.787,0h23.03L23.03,84H0Z" transform="translate(172 1366)" fill="#6be2d5"/>
        </g>
        <g transform="translate(474 -1366)">
          <path id="Path_1603-18" data-name="Path 1603" d="M28.787,0h23.03L23.03,84H0Z" transform="translate(172 1366)" fill="#6be2d5"/>
        </g>
        <g transform="translate(512 -1366)">
          <path id="Path_1603-19" data-name="Path 1603" d="M28.787,0h23.03L23.03,84H0Z" transform="translate(172 1366)" fill="#6be2d5"/>
        </g>
        <g transform="translate(550 -1366)">
          <path id="Path_1603-20" data-name="Path 1603" d="M28.787,0h23.03L23.03,84H0Z" transform="translate(172 1366)" fill="#6be2d5"/>
        </g>
      </g>
    </g>
    <path id="Path_5176" data-name="Path 5176" d="M-118.89.18c3.006,0,5.274-2.34,5.274-6.48s-2.268-6.48-5.274-6.48c-2.988,0-5.256,2.34-5.256,6.48S-121.878.18-118.89.18Zm0-2.034c-1.71,0-2.9-1.4-2.9-4.446s1.188-4.446,2.9-4.446c1.728,0,2.916,1.4,2.916,4.446S-117.162-1.854-118.89-1.854Zm8.046,1.98a1.464,1.464,0,0,0,1.476-1.494,1.442,1.442,0,0,0-1.476-1.494,1.442,1.442,0,0,0-1.476,1.494A1.464,1.464,0,0,0-110.844.126Zm6.354-2.106,3.366-3.2c1.746-1.638,2.088-2.754,2.088-3.978,0-2.232-1.764-3.618-4.5-3.618a5.819,5.819,0,0,0-4.788,2.088l1.638,1.26a3.556,3.556,0,0,1,2.952-1.314c1.548,0,2.34.666,2.34,1.818,0,.7-.216,1.44-1.44,2.61l-5,4.752V0h9.288V-1.98Zm6.948-10.62v4.122h2.178V-10.62h4.95L-95.148,0h2.5l4.9-11.034V-12.6Zm14.13,6.786c1.8,0,3.024-1.368,3.024-3.456s-1.224-3.456-3.024-3.456-3.006,1.386-3.006,3.456S-85.212-5.814-83.412-5.814ZM-84.456,0h1.764l8.6-12.6h-1.764Zm1.044-7.074c-.936,0-1.548-.81-1.548-2.2s.612-2.2,1.548-2.2c.972,0,1.548.792,1.548,2.2S-82.44-7.074-83.412-7.074Zm8.262,7.2c1.8,0,3.024-1.386,3.024-3.456S-73.35-6.786-75.15-6.786-78.156-5.4-78.156-3.33-76.95.126-75.15.126Zm0-1.26c-.954,0-1.548-.792-1.548-2.2s.594-2.2,1.548-2.2,1.548.81,1.548,2.2S-74.2-1.134-75.15-1.134Zm15.21-.99a2.023,2.023,0,0,1-1.26.4c-.864,0-1.332-.5-1.332-1.44V-7.74h2.574v-1.8h-2.574v-2.2h-2.25v2.2h-1.584v1.8h1.584v4.626c0,2.124,1.206,3.24,3.312,3.24a3.535,3.535,0,0,0,2.16-.648Zm6.48,2.25a4.847,4.847,0,0,0,5.13-4.932A4.833,4.833,0,0,0-53.46-9.72a4.838,4.838,0,0,0-5.112,4.914A4.852,4.852,0,0,0-53.46.126Zm0-1.926A2.8,2.8,0,0,1-56.3-4.806,2.8,2.8,0,0,1-53.46-7.812,2.8,2.8,0,0,1-50.6-4.806,2.8,2.8,0,0,1-53.46-1.8ZM-41.2,0h2.25V-13.356H-41.2Zm6.336-11.2a1.381,1.381,0,0,0,1.44-1.4,1.34,1.34,0,0,0-1.44-1.3,1.371,1.371,0,0,0-1.44,1.35A1.371,1.371,0,0,0-34.866-11.2ZM-36,0h2.25V-9.612H-36Zm12.456-9.612v1.26A3.963,3.963,0,0,0-26.73-9.72a4.663,4.663,0,0,0-4.86,4.914A4.668,4.668,0,0,0-26.73.126a3.949,3.949,0,0,0,3.078-1.3V3.492h2.25v-13.1ZM-26.478-1.8a2.8,2.8,0,0,1-2.844-3.006,2.8,2.8,0,0,1,2.844-3.006,2.8,2.8,0,0,1,2.862,3.006A2.8,2.8,0,0,1-26.478-1.8Zm15.084-7.812v4.86c0,1.926-1.062,2.9-2.628,2.9-1.422,0-2.25-.828-2.25-2.574V-9.612h-2.25v5.49c0,2.9,1.674,4.248,4.14,4.248a3.927,3.927,0,0,0,3.1-1.35V0h2.142V-9.612ZM-5.058-11.2a1.381,1.381,0,0,0,1.44-1.4,1.34,1.34,0,0,0-1.44-1.3,1.371,1.371,0,0,0-1.44,1.35A1.371,1.371,0,0,0-5.058-11.2ZM-6.192,0h2.25V-9.612h-2.25ZM6.174-13.356v4.932a3.936,3.936,0,0,0-3.1-1.3,4.663,4.663,0,0,0-4.86,4.914A4.678,4.678,0,0,0,3.078.126,3.963,3.963,0,0,0,6.264-1.242V0h2.16V-13.356ZM3.348-1.8A2.809,2.809,0,0,1,.486-4.806,2.809,2.809,0,0,1,3.348-7.812,2.809,2.809,0,0,1,6.21-4.806,2.809,2.809,0,0,1,3.348-1.8Zm9.162-9.4a1.381,1.381,0,0,0,1.44-1.4,1.34,1.34,0,0,0-1.44-1.3,1.371,1.371,0,0,0-1.44,1.35A1.371,1.371,0,0,0,12.51-11.2ZM11.376,0h2.25V-9.612h-2.25Zm10.35-2.124a2.023,2.023,0,0,1-1.26.4c-.864,0-1.332-.5-1.332-1.44V-7.74h2.574v-1.8H19.134v-2.2h-2.25v2.2H15.3v1.8h1.584v4.626C16.884-.99,18.09.126,20.2.126a3.536,3.536,0,0,0,2.16-.648ZM30.87-9.612,27.828-2.5,24.8-9.612h-2.34L26.658.036,26.5.414c-.432.954-.9,1.332-1.692,1.332a2.438,2.438,0,0,1-1.656-.666l-.9,1.656a3.978,3.978,0,0,0,2.574.882c1.6,0,2.826-.666,3.708-2.844l4.5-10.386ZM44.73-9.72a3.963,3.963,0,0,0-3.186,1.368v-1.26H39.4v13.1h2.25V-1.17A3.949,3.949,0,0,0,44.73.126a4.682,4.682,0,0,0,4.878-4.932A4.677,4.677,0,0,0,44.73-9.72ZM44.478-1.8a2.809,2.809,0,0,1-2.862-3.006,2.809,2.809,0,0,1,2.862-3.006,2.8,2.8,0,0,1,2.844,3.006A2.8,2.8,0,0,1,44.478-1.8Zm9.414-6.408v-1.4H51.75V0H54V-4.662c0-1.962,1.08-2.97,2.79-2.97a2.856,2.856,0,0,1,.522.054V-9.72A3.782,3.782,0,0,0,53.892-8.208ZM63.45.126a4.847,4.847,0,0,0,5.13-4.932A4.833,4.833,0,0,0,63.45-9.72a4.838,4.838,0,0,0-5.112,4.914A4.852,4.852,0,0,0,63.45.126Zm0-1.926a2.8,2.8,0,0,1-2.844-3.006A2.8,2.8,0,0,1,63.45-7.812a2.8,2.8,0,0,1,2.862,3.006A2.8,2.8,0,0,1,63.45-1.8ZM77.31-9.612,74.232-2.484,71.244-9.612H68.9L73.026,0h2.322L79.47-9.612Zm4.7-1.584a1.381,1.381,0,0,0,1.44-1.4,1.34,1.34,0,0,0-1.44-1.3,1.371,1.371,0,0,0-1.44,1.35A1.371,1.371,0,0,0,82.008-11.2ZM80.874,0h2.25V-9.612h-2.25ZM93.24-13.356v4.932a3.936,3.936,0,0,0-3.1-1.3,4.663,4.663,0,0,0-4.86,4.914A4.678,4.678,0,0,0,90.144.126,3.963,3.963,0,0,0,93.33-1.242V0h2.16V-13.356ZM90.414-1.8a2.809,2.809,0,0,1-2.862-3.006,2.809,2.809,0,0,1,2.862-3.006,2.809,2.809,0,0,1,2.862,3.006A2.809,2.809,0,0,1,90.414-1.8Zm17.064-2.952a4.687,4.687,0,0,0-4.86-4.968A4.78,4.78,0,0,0,97.65-4.806c0,2.862,2.088,4.932,5.31,4.932a4.872,4.872,0,0,0,3.87-1.566l-1.206-1.386a3.445,3.445,0,0,1-2.61,1.044,2.909,2.909,0,0,1-3.114-2.3h7.542C107.46-4.3,107.478-4.572,107.478-4.752Zm-4.86-3.168a2.617,2.617,0,0,1,2.718,2.34H99.882A2.657,2.657,0,0,1,102.618-7.92Zm9.162-.288v-1.4h-2.142V0h2.25V-4.662c0-1.962,1.08-2.97,2.79-2.97a2.856,2.856,0,0,1,.522.054V-9.72A3.782,3.782,0,0,0,111.78-8.208ZM120.114.126c2.7,0,4.356-1.17,4.356-2.97,0-3.762-5.94-2.034-5.94-3.978,0-.63.648-1.08,2.016-1.08a5.261,5.261,0,0,1,2.754.72l.864-1.71a7.65,7.65,0,0,0-3.6-.828c-2.592,0-4.23,1.188-4.23,3.006,0,3.834,5.94,2.106,5.94,3.942,0,.666-.594,1.062-2.016,1.062a6.467,6.467,0,0,1-3.348-.954l-.864,1.71A7.637,7.637,0,0,0,120.114.126Z" transform="translate(546 1413)" fill="#000348"/>
    <path id="Path_5178" data-name="Path 5178" d="M-35.91.18c3.006,0,5.274-2.34,5.274-6.48s-2.268-6.48-5.274-6.48c-2.988,0-5.256,2.34-5.256,6.48S-38.9.18-35.91.18Zm0-2.034c-1.71,0-2.9-1.4-2.9-4.446s1.188-4.446,2.9-4.446c1.728,0,2.916,1.4,2.916,4.446S-34.182-1.854-35.91-1.854Zm8.046,1.98a1.464,1.464,0,0,0,1.476-1.494,1.442,1.442,0,0,0-1.476-1.494A1.442,1.442,0,0,0-29.34-1.368,1.464,1.464,0,0,0-27.864.126Zm8.028.054c3.006,0,5.274-2.34,5.274-6.48s-2.268-6.48-5.274-6.48c-2.988,0-5.256,2.34-5.256,6.48S-22.824.18-19.836.18Zm0-2.034c-1.71,0-2.9-1.4-2.9-4.446s1.188-4.446,2.9-4.446c1.728,0,2.916,1.4,2.916,4.446S-18.108-1.854-19.836-1.854ZM-7.794-7.4l3.06-3.636V-12.6H-13.32v1.962H-7.6l-2.862,3.4v1.6h1.152c1.908,0,2.736.738,2.736,1.872,0,1.17-.99,1.908-2.664,1.908A5.875,5.875,0,0,1-12.924-3.1l-1.008,1.818A7.916,7.916,0,0,0-9.2.18c3.384,0,4.986-1.836,4.986-3.96C-4.212-5.67-5.418-7.092-7.794-7.4Zm7.74,1.584c1.8,0,3.024-1.368,3.024-3.456S1.746-12.726-.054-12.726-3.06-11.34-3.06-9.27-1.854-5.814-.054-5.814ZM-1.1,0H.666l8.6-12.6H7.506ZM-.054-7.074c-.936,0-1.548-.81-1.548-2.2s.612-2.2,1.548-2.2c.972,0,1.548.792,1.548,2.2S.918-7.074-.054-7.074ZM8.208.126c1.8,0,3.024-1.386,3.024-3.456S10.008-6.786,8.208-6.786,5.2-5.4,5.2-3.33,6.408.126,8.208.126Zm0-1.26c-.954,0-1.548-.792-1.548-2.2s.594-2.2,1.548-2.2,1.548.81,1.548,2.2S9.162-1.134,8.208-1.134ZM21.942-9.72a6.758,6.758,0,0,0-4.068,1.188l.882,1.638a4.759,4.759,0,0,1,2.916-.954c1.6,0,2.394.774,2.394,2.088v.144H21.582c-2.916,0-4,1.26-4,2.862,0,1.674,1.386,2.88,3.582,2.88a3.406,3.406,0,0,0,3.024-1.3V0h2.124V-5.634C26.316-8.406,24.714-9.72,21.942-9.72Zm-.306,8.208c-1.152,0-1.836-.522-1.836-1.332,0-.7.414-1.278,1.944-1.278h2.322v1.116A2.45,2.45,0,0,1,21.636-1.512ZM32.166.126c2.7,0,4.356-1.17,4.356-2.97,0-3.762-5.94-2.034-5.94-3.978,0-.63.648-1.08,2.016-1.08a5.261,5.261,0,0,1,2.754.72l.864-1.71a7.65,7.65,0,0,0-3.6-.828c-2.592,0-4.23,1.188-4.23,3.006,0,3.834,5.94,2.106,5.94,3.942,0,.666-.594,1.062-2.016,1.062a6.467,6.467,0,0,1-3.348-.954L28.1-.954A7.637,7.637,0,0,0,32.166.126Zm-97.506,25c2.7,0,4.356-1.17,4.356-2.97,0-3.762-5.94-2.034-5.94-3.978,0-.63.648-1.08,2.016-1.08a5.261,5.261,0,0,1,2.754.72l.864-1.71a7.65,7.65,0,0,0-3.6-.828c-2.592,0-4.23,1.188-4.23,3.006,0,3.834,5.94,2.106,5.94,3.942,0,.666-.594,1.062-2.016,1.062a6.467,6.467,0,0,1-3.348-.954l-.864,1.71A7.637,7.637,0,0,0-65.34,25.126Zm11.448-2.25a2.023,2.023,0,0,1-1.26.4c-.864,0-1.332-.5-1.332-1.44V17.26h2.574v-1.8h-2.574v-2.2h-2.25v2.2h-1.584v1.8h1.584v4.626c0,2.124,1.206,3.24,3.312,3.24a3.536,3.536,0,0,0,2.16-.648Zm6.156-7.6A6.758,6.758,0,0,0-51.8,16.468l.882,1.638a4.759,4.759,0,0,1,2.916-.954c1.6,0,2.394.774,2.394,2.088v.144H-48.1c-2.916,0-4,1.26-4,2.862,0,1.674,1.386,2.88,3.582,2.88a3.406,3.406,0,0,0,3.024-1.3V25h2.124V19.366C-43.362,16.594-44.964,15.28-47.736,15.28Zm-.306,8.208c-1.152,0-1.836-.522-1.836-1.332,0-.7.414-1.278,1.944-1.278h2.322v1.116A2.45,2.45,0,0,1-48.042,23.488ZM-33.228,25h2.736l-4.392-5.58,4.014-4.032h-2.7l-4.662,4.32V11.644h-2.25V25h2.25V22.462l1.674-1.584Zm5.238-11.2a1.381,1.381,0,0,0,1.44-1.4,1.34,1.34,0,0,0-1.44-1.3,1.371,1.371,0,0,0-1.44,1.35A1.371,1.371,0,0,0-27.99,13.8ZM-29.124,25h2.25V15.388h-2.25Zm10.656-9.72a4.179,4.179,0,0,0-3.312,1.35V15.388h-2.142V25h2.25V20.14c0-1.926,1.08-2.9,2.682-2.9,1.44,0,2.286.828,2.286,2.538V25h2.25V19.492C-14.454,16.594-16.164,15.28-18.468,15.28Zm14.364.108v1.278a4.162,4.162,0,0,0-3.33-1.386,4.563,4.563,0,0,0-4.86,4.626,4.592,4.592,0,0,0,4.86,4.662A4.231,4.231,0,0,0-4.212,23.29v.5c0,1.944-.936,2.916-3.06,2.916a5.806,5.806,0,0,1-3.546-1.152l-1.008,1.692a7.64,7.64,0,0,0,4.68,1.368c3.366,0,5.184-1.584,5.184-5.076V15.388ZM-7.092,22.66a2.725,2.725,0,0,1-2.934-2.754,2.708,2.708,0,0,1,2.934-2.718,2.7,2.7,0,0,1,2.916,2.718A2.72,2.72,0,0,1-7.092,22.66ZM8.1,16.792v-1.4H5.958V25h2.25V20.338c0-1.962,1.08-2.97,2.79-2.97a2.856,2.856,0,0,1,.522.054V15.28A3.782,3.782,0,0,0,8.1,16.792Zm14.274,3.456a4.687,4.687,0,0,0-4.86-4.968,4.78,4.78,0,0,0-4.968,4.914c0,2.862,2.088,4.932,5.31,4.932a4.872,4.872,0,0,0,3.87-1.566L20.52,22.174a3.445,3.445,0,0,1-2.61,1.044,2.909,2.909,0,0,1-3.114-2.3h7.542C22.356,20.7,22.374,20.428,22.374,20.248Zm-4.86-3.168a2.617,2.617,0,0,1,2.718,2.34H14.778A2.657,2.657,0,0,1,17.514,17.08ZM37.35,15.388l-2.61,7.128-2.592-7.128h-1.89L27.612,22.48l-2.538-7.092H22.95L26.478,25h2.16l2.52-6.624L33.642,25H35.8l3.546-9.612Zm6.912-.108a6.758,6.758,0,0,0-4.068,1.188l.882,1.638a4.759,4.759,0,0,1,2.916-.954c1.6,0,2.394.774,2.394,2.088v.144H43.9c-2.916,0-4,1.26-4,2.862,0,1.674,1.386,2.88,3.582,2.88a3.406,3.406,0,0,0,3.024-1.3V25h2.124V19.366C48.636,16.594,47.034,15.28,44.262,15.28Zm-.306,8.208c-1.152,0-1.836-.522-1.836-1.332,0-.7.414-1.278,1.944-1.278h2.322v1.116A2.45,2.45,0,0,1,43.956,23.488Zm9.7-6.7v-1.4H51.516V25h2.25V20.338c0-1.962,1.08-2.97,2.79-2.97a2.856,2.856,0,0,1,.522.054V15.28A3.782,3.782,0,0,0,53.658,16.792Zm12.4-5.148v4.932a3.936,3.936,0,0,0-3.1-1.3,4.663,4.663,0,0,0-4.86,4.914,4.678,4.678,0,0,0,4.86,4.932,3.963,3.963,0,0,0,3.186-1.368V25h2.16V11.644ZM63.234,23.2a2.809,2.809,0,0,1-2.862-3.006,2.865,2.865,0,1,1,5.724,0A2.809,2.809,0,0,1,63.234,23.2Z" transform="translate(1003 1401)" fill="#000348"/>
    <g id="Group_1146" data-name="Group 1146" transform="translate(0 7)" opacity="0.6">
      <line id="Line_12" data-name="Line 12" y2="39" transform="translate(179.5 1297.5)" fill="none" stroke="#fff" stroke-width="1"/>
      <line id="Line_13" data-name="Line 13" x1="299" transform="translate(179.5 1317.5)" fill="none" stroke="#fff" stroke-width="1"/>
    </g>
    <g id="Group_1147" data-name="Group 1147" transform="translate(803 1304.5)" opacity="0.6">
      <line id="Line_12-2" data-name="Line 12" y2="39" transform="translate(299)" fill="none" stroke="#fff" stroke-width="1"/>
      <line id="Line_13-2" data-name="Line 13" x2="299" transform="translate(0 20)" fill="none" stroke="#fff" stroke-width="1"/>
    </g>
  </g>
</svg>
