<svg xmlns="http://www.w3.org/2000/svg" width="32.16" height="52.48" viewBox="0 0 32.16 52.48">
    <path fill="rgba(135,242,231,0.5)" d="M14.88-23.84c7.92 0 13.2 2.88 13.2 9.28 0 5.04-3.52 9.36-12.16 9.36A24.241 24.241 0 0 1 3.2-8.72c-.24-.16-.48 0-.48.32v5.52c0 .32 0 .64.32.8C6.4-.16 10.8.8 16 .8c10.8 0 18.88-5.52 18.88-15.36 0-8.24-6.32-11.84-10.96-12.88 3.6-1.2 8.4-4.72 8.4-11.12 0-7.6-5.44-13.12-15.44-13.12a26.8 26.8 0 0 0-12.8 3.12.7.7 0 0 0-.32.72v5.12c0 .32.08.4.48.24a21.649 21.649 0 0 1 11.52-3.2c7.04 0 10 3.44 10 7.92 0 5.12-4.32 7.84-11.36 7.84h-2.96c-.4 0-.48.24-.48.56v5.04c0 .32.16.48.56.48z" transform="translate(-2.72 51.68)"/>
</svg>
